  0
SECTION
  2
HEADER
  9
$ANGBASE
  50
0.0
  9
$ANGDIR
  70
1
  9
$MEASUREMENT
  70
1
  0
ENDSEC
  0
SECTION
  2
TABLES
  0
TABLE
  2
LTYPE
  70
4
  0
LTYPE
  5
40F
  2
CONTINUOUS
  70
0
  3
Solid line
  72
65
  73
0
  40
0.0
  0
LTYPE
  5
410
  2
DASHDOT
 70
0
  3
Dash Dot ____ _ ____ _
 72
65
 73
4
 40
2.0
 49
1.25
 49
-0.25
 49
0.25
 49
-0.25
  0
LTYPE
  5
411
  2
DASHED
 70
0
  3
Dashed __ __ __ __ __
 72
65
 73
2
 40
0.75
 49
0.5
 49
-0.25
  0
LTYPE
  5
43B
  2
DOTTED
 70
0
  3
Dotted .  .  .  .
 72
65
 73
2
 40
0.2
 49
0.0
 49
-0.2
  0
ENDTAB
  0
TABLE
  2
STYLE
  70
4
  0
STYLE
  2
KICAD
  70
0
  40
0
  41
1
  42
1
  50
0
  71
0
  3
isocp.shx
  0
STYLE
  2
KICADB
  70
0
  40
0
  41
1
  42
1
  50
0
  71
0
  3
isocp.shx
  0
STYLE
  2
KICADI
  70
0
  40
0
  41
1
  42
1
  50
15
  71
0
  3
isocp.shx
  0
STYLE
  2
KICADBI
  70
0
  40
0
  41
1
  42
1
  50
15
  71
0
  3
isocp.shx
  0
ENDTAB
  0
TABLE
  2
LAYER
  70
1
  0
LAYER
  2
BLACK
  70
0
  62
7
  6
CONTINUOUS
  0
ENDTAB
  0
ENDSEC
  0
SECTION
  2
ENTITIES
0
LINE
8
BLACK
6
CONTINUOUS
10
182.4678209999999865
20
-107.46140299999999
11
194.5921769999999924
21
-114.46140299999999
0
LINE
8
BLACK
6
CONTINUOUS
10
194.5921769999999924
20
-114.46140299999999
11
194.6097779999999773
21
-114.4768389999999982
0
LINE
8
BLACK
6
CONTINUOUS
10
194.6097779999999773
20
-114.4768389999999982
11
194.6216639999999813
21
-114.5211970000000008
0
LINE
8
BLACK
6
CONTINUOUS
10
194.6216639999999813
20
-114.5211970000000008
11
194.614137999999997
21
-114.5433649999999943
0
LINE
8
BLACK
6
CONTINUOUS
10
194.614137999999997
20
-114.5433649999999943
11
187.6141389999999944
21
-126.6677210000000002
0
LINE
8
BLACK
6
CONTINUOUS
10
187.6141389999999944
20
-126.6677210000000002
11
187.5987030000000004
21
-126.6853219999999993
0
LINE
8
BLACK
6
CONTINUOUS
10
187.5987030000000004
20
-126.6853219999999993
11
187.5543449999999837
21
-126.6972079999999892
0
LINE
8
BLACK
6
CONTINUOUS
10
187.5543449999999837
20
-126.6972079999999892
11
187.5321769999999901
21
-126.6896819999999906
0
LINE
8
BLACK
6
CONTINUOUS
10
187.5321769999999901
20
-126.6896819999999906
11
175.4078209999999842
21
-119.6896829999999881
0
LINE
8
BLACK
6
CONTINUOUS
10
175.4078209999999842
20
-119.6896829999999881
11
175.3902199999999993
21
-119.674246999999994
0
LINE
8
BLACK
6
CONTINUOUS
10
175.3902199999999993
20
-119.674246999999994
11
175.3783339999999953
21
-119.6298889999999915
0
LINE
8
BLACK
6
CONTINUOUS
10
175.3783339999999953
20
-119.6298889999999915
11
175.3858589999999822
21
-119.607720999999998
0
LINE
8
BLACK
6
CONTINUOUS
10
175.3858589999999822
20
-119.607720999999998
11
182.3858589999999822
21
-107.4833649999999921
0
LINE
8
BLACK
6
CONTINUOUS
10
182.3858589999999822
20
-107.4833649999999921
11
182.4012950000000046
21
-107.465763999999993
0
LINE
8
BLACK
6
CONTINUOUS
10
182.4012950000000046
20
-107.465763999999993
11
182.445652999999993
21
-107.4538779999999889
0
LINE
8
BLACK
6
CONTINUOUS
10
182.445652999999993
20
-107.4538779999999889
11
182.4678209999999865
21
-107.46140299999999
0
LINE
8
BLACK
6
CONTINUOUS
10
175.5197829999999897
20
-119.6157589999999971
11
187.5402149999999892
21
-126.5557579999999973
0
LINE
8
BLACK
6
CONTINUOUS
10
187.5402149999999892
20
-126.5557579999999973
11
194.480214999999987
21
-114.5353250000000003
0
LINE
8
BLACK
6
CONTINUOUS
10
194.480214999999987
20
-114.5353250000000003
11
182.4597809999999924
21
-107.595326
0
LINE
8
BLACK
6
CONTINUOUS
10
182.4597809999999924
20
-107.595326
11
175.5197829999999897
21
-119.6157589999999971
0
LINE
8
BLACK
6
CONTINUOUS
10
157.7922299999999893
20
-104.6926500000000004
11
157.815589999999986
21
-104.6941810000000004
0
LINE
8
BLACK
6
CONTINUOUS
10
157.815589999999986
20
-104.6941810000000004
11
171.3385519999999929
21
-108.3176489999999887
0
LINE
8
BLACK
6
CONTINUOUS
10
171.3385519999999929
20
-108.3176489999999887
11
171.3595430000000022
21
-108.3279999999999887
0
LINE
8
BLACK
6
CONTINUOUS
10
171.3595430000000022
20
-108.3279999999999887
11
171.3595479999999895
21
-108.3280019999999979
0
LINE
8
BLACK
6
CONTINUOUS
10
171.3595479999999895
20
-108.3280019999999979
11
171.3825089999999989
21
-108.367771999999988
0
LINE
8
BLACK
6
CONTINUOUS
10
171.3825089999999989
20
-108.367771999999988
11
171.3809779999999989
21
-108.3911329999999964
0
LINE
8
BLACK
6
CONTINUOUS
10
171.3809779999999989
20
-108.3911329999999964
11
167.7575109999999938
21
-121.9140939999999915
0
LINE
8
BLACK
6
CONTINUOUS
10
167.7575109999999938
20
-121.9140939999999915
11
167.7471579999999847
21
-121.9350859999999983
0
LINE
8
BLACK
6
CONTINUOUS
10
167.7471579999999847
20
-121.9350859999999983
11
167.7471569999999872
21
-121.9350909999999999
0
LINE
8
BLACK
6
CONTINUOUS
10
167.7471569999999872
20
-121.9350909999999999
11
167.7073869999999829
21
-121.958051999999995
0
LINE
8
BLACK
6
CONTINUOUS
10
167.7073869999999829
20
-121.958051999999995
11
167.6840259999999887
21
-121.9565209999999951
0
LINE
8
BLACK
6
CONTINUOUS
10
167.6840259999999887
20
-121.9565209999999951
11
154.1610649999999794
21
-118.33305399999999
0
LINE
8
BLACK
6
CONTINUOUS
10
154.1610649999999794
20
-118.33305399999999
11
154.1400679999999852
21
-118.3226990000000001
0
LINE
8
BLACK
6
CONTINUOUS
10
154.1400679999999852
20
-118.3226990000000001
11
154.1171070000000043
21
-118.2829299999999932
0
LINE
8
BLACK
6
CONTINUOUS
10
154.1171070000000043
20
-118.2829299999999932
11
154.1186380000000042
21
-118.2595689999999991
0
LINE
8
BLACK
6
CONTINUOUS
10
154.1186380000000042
20
-118.2595689999999991
11
157.7421060000000068
21
-104.7366069999999922
0
LINE
8
BLACK
6
CONTINUOUS
10
157.7421060000000068
20
-104.7366069999999922
11
157.752459999999985
21
-104.7156109999999956
0
LINE
8
BLACK
6
CONTINUOUS
10
157.752459999999985
20
-104.7156109999999956
11
157.7716439999999807
21
-104.7045349999999928
0
LINE
8
BLACK
6
CONTINUOUS
10
157.7716439999999807
20
-104.7045349999999928
11
157.7922289999999919
21
-104.6926500000000004
0
LINE
8
BLACK
6
CONTINUOUS
10
157.7922289999999919
20
-104.6926500000000004
11
157.7922299999999893
21
-104.6926500000000004
0
LINE
8
BLACK
6
CONTINUOUS
10
154.2500789999999995
20
-118.2326709999999963
11
167.6571280000000002
21
-121.8250799999999998
0
LINE
8
BLACK
6
CONTINUOUS
10
167.6571280000000002
20
-121.8250799999999998
11
171.2495370000000037
21
-108.4180300000000017
0
LINE
8
BLACK
6
CONTINUOUS
10
171.2495370000000037
20
-108.4180300000000017
11
157.8424870000000055
21
-104.8256219999999956
0
LINE
8
BLACK
6
CONTINUOUS
10
157.8424870000000055
20
-104.8256219999999956
11
154.2500789999999995
21
-118.2326709999999963
0
LINE
8
BLACK
6
CONTINUOUS
10
129.7729609999999809
20
-103.519566999999995
11
129.8054329999999936
21
-103.5520389999999935
0
LINE
8
BLACK
6
CONTINUOUS
10
129.8054329999999936
20
-103.5520389999999935
11
129.8100000000000023
21
-103.5749999999999886
0
LINE
8
BLACK
6
CONTINUOUS
10
129.8100000000000023
20
-103.5749999999999886
11
129.8100000000000023
21
-117.5749999999999886
0
LINE
8
BLACK
6
CONTINUOUS
10
129.8100000000000023
20
-117.5749999999999886
11
129.8054329999999936
21
-117.597960999999998
0
LINE
8
BLACK
6
CONTINUOUS
10
129.8054329999999936
20
-117.597960999999998
11
129.7729609999999809
21
-117.6304329999999965
0
LINE
8
BLACK
6
CONTINUOUS
10
129.7729609999999809
20
-117.6304329999999965
11
129.75
21
-117.6349999999999909
0
LINE
8
BLACK
6
CONTINUOUS
10
129.75
20
-117.6349999999999909
11
115.75
21
-117.6349999999999909
0
LINE
8
BLACK
6
CONTINUOUS
10
115.75
20
-117.6349999999999909
11
115.7270389999999907
21
-117.6304329999999965
0
LINE
8
BLACK
6
CONTINUOUS
10
115.7270389999999907
20
-117.6304329999999965
11
115.6945669999999922
21
-117.597960999999998
0
LINE
8
BLACK
6
CONTINUOUS
10
115.6945669999999922
20
-117.597960999999998
11
115.6899999999999977
21
-117.5749999999999886
0
LINE
8
BLACK
6
CONTINUOUS
10
115.6899999999999977
20
-117.5749999999999886
11
115.6899999999999977
21
-103.5749999999999886
0
LINE
8
BLACK
6
CONTINUOUS
10
115.6899999999999977
20
-103.5749999999999886
11
115.6945669999999922
21
-103.5520389999999935
0
LINE
8
BLACK
6
CONTINUOUS
10
115.6945669999999922
20
-103.5520389999999935
11
115.7270389999999907
21
-103.519566999999995
0
LINE
8
BLACK
6
CONTINUOUS
10
115.7270389999999907
20
-103.519566999999995
11
115.75
21
-103.5150000000000006
0
LINE
8
BLACK
6
CONTINUOUS
10
115.75
20
-103.5150000000000006
11
129.75
21
-103.5150000000000006
0
LINE
8
BLACK
6
CONTINUOUS
10
129.75
20
-103.5150000000000006
11
129.7729609999999809
21
-103.519566999999995
0
LINE
8
BLACK
6
CONTINUOUS
10
115.8099999999999881
20
-103.6349999999999909
11
115.8099999999999881
21
-117.5150000000000006
0
LINE
8
BLACK
6
CONTINUOUS
10
115.8099999999999881
20
-117.5150000000000006
11
129.6899999999999977
21
-117.5150000000000006
0
LINE
8
BLACK
6
CONTINUOUS
10
129.6899999999999977
20
-117.5150000000000006
11
129.6899999999999977
21
-103.6349999999999909
0
LINE
8
BLACK
6
CONTINUOUS
10
129.6899999999999977
20
-103.6349999999999909
11
115.8099999999999881
21
-103.6349999999999909
0
LINE
8
BLACK
6
CONTINUOUS
10
148.7729609999999809
20
-103.519566999999995
11
148.8054329999999936
21
-103.5520389999999935
0
LINE
8
BLACK
6
CONTINUOUS
10
148.8054329999999936
20
-103.5520389999999935
11
148.8100000000000023
21
-103.5749999999999886
0
LINE
8
BLACK
6
CONTINUOUS
10
148.8100000000000023
20
-103.5749999999999886
11
148.8100000000000023
21
-117.5749999999999886
0
LINE
8
BLACK
6
CONTINUOUS
10
148.8100000000000023
20
-117.5749999999999886
11
148.8054329999999936
21
-117.597960999999998
0
LINE
8
BLACK
6
CONTINUOUS
10
148.8054329999999936
20
-117.597960999999998
11
148.7729609999999809
21
-117.6304329999999965
0
LINE
8
BLACK
6
CONTINUOUS
10
148.7729609999999809
20
-117.6304329999999965
11
148.75
21
-117.6349999999999909
0
LINE
8
BLACK
6
CONTINUOUS
10
148.75
20
-117.6349999999999909
11
134.75
21
-117.6349999999999909
0
LINE
8
BLACK
6
CONTINUOUS
10
134.75
20
-117.6349999999999909
11
134.7270389999999907
21
-117.6304329999999965
0
LINE
8
BLACK
6
CONTINUOUS
10
134.7270389999999907
20
-117.6304329999999965
11
134.6945670000000064
21
-117.597960999999998
0
LINE
8
BLACK
6
CONTINUOUS
10
134.6945670000000064
20
-117.597960999999998
11
134.6899999999999977
21
-117.5749999999999886
0
LINE
8
BLACK
6
CONTINUOUS
10
134.6899999999999977
20
-117.5749999999999886
11
134.6899999999999977
21
-103.5749999999999886
0
LINE
8
BLACK
6
CONTINUOUS
10
134.6899999999999977
20
-103.5749999999999886
11
134.6945670000000064
21
-103.5520389999999935
0
LINE
8
BLACK
6
CONTINUOUS
10
134.6945670000000064
20
-103.5520389999999935
11
134.7270389999999907
21
-103.519566999999995
0
LINE
8
BLACK
6
CONTINUOUS
10
134.7270389999999907
20
-103.519566999999995
11
134.75
21
-103.5150000000000006
0
LINE
8
BLACK
6
CONTINUOUS
10
134.75
20
-103.5150000000000006
11
148.75
21
-103.5150000000000006
0
LINE
8
BLACK
6
CONTINUOUS
10
148.75
20
-103.5150000000000006
11
148.7729609999999809
21
-103.519566999999995
0
LINE
8
BLACK
6
CONTINUOUS
10
134.8100000000000023
20
-103.6349999999999909
11
134.8100000000000023
21
-117.5150000000000006
0
LINE
8
BLACK
6
CONTINUOUS
10
134.8100000000000023
20
-117.5150000000000006
11
148.6899999999999977
21
-117.5150000000000006
0
LINE
8
BLACK
6
CONTINUOUS
10
148.6899999999999977
20
-117.5150000000000006
11
148.6899999999999977
21
-103.6349999999999909
0
LINE
8
BLACK
6
CONTINUOUS
10
148.6899999999999977
20
-103.6349999999999909
11
134.8100000000000023
21
-103.6349999999999909
0
LINE
8
BLACK
6
CONTINUOUS
10
82.2729609999999951
20
-88.644566999999995
11
82.3054329999999936
21
-88.6770389999999935
0
LINE
8
BLACK
6
CONTINUOUS
10
82.3054329999999936
20
-88.6770389999999935
11
82.3100000000000023
21
-88.7000000000000028
0
LINE
8
BLACK
6
CONTINUOUS
10
82.3100000000000023
20
-88.7000000000000028
11
82.3100000000000023
21
-102.6999999999999886
0
LINE
8
BLACK
6
CONTINUOUS
10
82.3100000000000023
20
-102.6999999999999886
11
82.3054329999999936
21
-102.722960999999998
0
LINE
8
BLACK
6
CONTINUOUS
10
82.3054329999999936
20
-102.722960999999998
11
82.2729609999999951
21
-102.7554329999999965
0
LINE
8
BLACK
6
CONTINUOUS
10
82.2729609999999951
20
-102.7554329999999965
11
82.25
21
-102.7599999999999909
0
LINE
8
BLACK
6
CONTINUOUS
10
82.25
20
-102.7599999999999909
11
68.25
21
-102.7599999999999909
0
LINE
8
BLACK
6
CONTINUOUS
10
68.25
20
-102.7599999999999909
11
68.2270389999999907
21
-102.7554329999999965
0
LINE
8
BLACK
6
CONTINUOUS
10
68.2270389999999907
20
-102.7554329999999965
11
68.1945669999999922
21
-102.722960999999998
0
LINE
8
BLACK
6
CONTINUOUS
10
68.1945669999999922
20
-102.722960999999998
11
68.1899999999999977
21
-102.6999999999999886
0
LINE
8
BLACK
6
CONTINUOUS
10
68.1899999999999977
20
-102.6999999999999886
11
68.1899999999999977
21
-88.7000000000000028
0
LINE
8
BLACK
6
CONTINUOUS
10
68.1899999999999977
20
-88.7000000000000028
11
68.1945669999999922
21
-88.6770389999999935
0
LINE
8
BLACK
6
CONTINUOUS
10
68.1945669999999922
20
-88.6770389999999935
11
68.2270389999999907
21
-88.644566999999995
0
LINE
8
BLACK
6
CONTINUOUS
10
68.2270389999999907
20
-88.644566999999995
11
68.25
21
-88.6400000000000006
0
LINE
8
BLACK
6
CONTINUOUS
10
68.25
20
-88.6400000000000006
11
82.25
21
-88.6400000000000006
0
LINE
8
BLACK
6
CONTINUOUS
10
82.25
20
-88.6400000000000006
11
82.2729609999999951
21
-88.644566999999995
0
LINE
8
BLACK
6
CONTINUOUS
10
68.3100000000000023
20
-88.7599999999999909
11
68.3100000000000023
21
-102.6400000000000006
0
LINE
8
BLACK
6
CONTINUOUS
10
68.3100000000000023
20
-102.6400000000000006
11
82.1899999999999977
21
-102.6400000000000006
0
LINE
8
BLACK
6
CONTINUOUS
10
82.1899999999999977
20
-102.6400000000000006
11
82.1899999999999977
21
-88.7599999999999909
0
LINE
8
BLACK
6
CONTINUOUS
10
82.1899999999999977
20
-88.7599999999999909
11
68.3100000000000023
21
-88.7599999999999909
0
LINE
8
BLACK
6
CONTINUOUS
10
101.2729609999999951
20
-88.644566999999995
11
101.3054329999999936
21
-88.6770389999999935
0
LINE
8
BLACK
6
CONTINUOUS
10
101.3054329999999936
20
-88.6770389999999935
11
101.3100000000000023
21
-88.7000000000000028
0
LINE
8
BLACK
6
CONTINUOUS
10
101.3100000000000023
20
-88.7000000000000028
11
101.3100000000000023
21
-102.6999999999999886
0
LINE
8
BLACK
6
CONTINUOUS
10
101.3100000000000023
20
-102.6999999999999886
11
101.3054329999999936
21
-102.722960999999998
0
LINE
8
BLACK
6
CONTINUOUS
10
101.3054329999999936
20
-102.722960999999998
11
101.2729609999999951
21
-102.7554329999999965
0
LINE
8
BLACK
6
CONTINUOUS
10
101.2729609999999951
20
-102.7554329999999965
11
101.25
21
-102.7599999999999909
0
LINE
8
BLACK
6
CONTINUOUS
10
101.25
20
-102.7599999999999909
11
87.25
21
-102.7599999999999909
0
LINE
8
BLACK
6
CONTINUOUS
10
87.25
20
-102.7599999999999909
11
87.2270389999999907
21
-102.7554329999999965
0
LINE
8
BLACK
6
CONTINUOUS
10
87.2270389999999907
20
-102.7554329999999965
11
87.1945669999999922
21
-102.722960999999998
0
LINE
8
BLACK
6
CONTINUOUS
10
87.1945669999999922
20
-102.722960999999998
11
87.1899999999999977
21
-102.6999999999999886
0
LINE
8
BLACK
6
CONTINUOUS
10
87.1899999999999977
20
-102.6999999999999886
11
87.1899999999999977
21
-88.7000000000000028
0
LINE
8
BLACK
6
CONTINUOUS
10
87.1899999999999977
20
-88.7000000000000028
11
87.1945669999999922
21
-88.6770389999999935
0
LINE
8
BLACK
6
CONTINUOUS
10
87.1945669999999922
20
-88.6770389999999935
11
87.2270389999999907
21
-88.644566999999995
0
LINE
8
BLACK
6
CONTINUOUS
10
87.2270389999999907
20
-88.644566999999995
11
87.25
21
-88.6400000000000006
0
LINE
8
BLACK
6
CONTINUOUS
10
87.25
20
-88.6400000000000006
11
101.25
21
-88.6400000000000006
0
LINE
8
BLACK
6
CONTINUOUS
10
101.25
20
-88.6400000000000006
11
101.2729609999999951
21
-88.644566999999995
0
LINE
8
BLACK
6
CONTINUOUS
10
87.3100000000000023
20
-88.7599999999999909
11
87.3100000000000023
21
-102.6400000000000006
0
LINE
8
BLACK
6
CONTINUOUS
10
87.3100000000000023
20
-102.6400000000000006
11
101.1899999999999977
21
-102.6400000000000006
0
LINE
8
BLACK
6
CONTINUOUS
10
101.1899999999999977
20
-102.6400000000000006
11
101.1899999999999977
21
-88.7599999999999909
0
LINE
8
BLACK
6
CONTINUOUS
10
101.1899999999999977
20
-88.7599999999999909
11
87.3100000000000023
21
-88.7599999999999909
0
LINE
8
BLACK
6
CONTINUOUS
10
177.2729609999999809
20
-86.269566999999995
11
177.3054329999999936
21
-86.3020389999999935
0
LINE
8
BLACK
6
CONTINUOUS
10
177.3054329999999936
20
-86.3020389999999935
11
177.3100000000000023
21
-86.3250000000000028
0
LINE
8
BLACK
6
CONTINUOUS
10
177.3100000000000023
20
-86.3250000000000028
11
177.3100000000000023
21
-100.3249999999999886
0
LINE
8
BLACK
6
CONTINUOUS
10
177.3100000000000023
20
-100.3249999999999886
11
177.3054329999999936
21
-100.347960999999998
0
LINE
8
BLACK
6
CONTINUOUS
10
177.3054329999999936
20
-100.347960999999998
11
177.2729609999999809
21
-100.3804329999999965
0
LINE
8
BLACK
6
CONTINUOUS
10
177.2729609999999809
20
-100.3804329999999965
11
177.25
21
-100.3849999999999909
0
LINE
8
BLACK
6
CONTINUOUS
10
177.25
20
-100.3849999999999909
11
163.25
21
-100.3849999999999909
0
LINE
8
BLACK
6
CONTINUOUS
10
163.25
20
-100.3849999999999909
11
163.2270389999999907
21
-100.3804329999999965
0
LINE
8
BLACK
6
CONTINUOUS
10
163.2270389999999907
20
-100.3804329999999965
11
163.1945670000000064
21
-100.347960999999998
0
LINE
8
BLACK
6
CONTINUOUS
10
163.1945670000000064
20
-100.347960999999998
11
163.1899999999999977
21
-100.3249999999999886
0
LINE
8
BLACK
6
CONTINUOUS
10
163.1899999999999977
20
-100.3249999999999886
11
163.1899999999999977
21
-86.3250000000000028
0
LINE
8
BLACK
6
CONTINUOUS
10
163.1899999999999977
20
-86.3250000000000028
11
163.1945670000000064
21
-86.3020389999999935
0
LINE
8
BLACK
6
CONTINUOUS
10
163.1945670000000064
20
-86.3020389999999935
11
163.2270389999999907
21
-86.269566999999995
0
LINE
8
BLACK
6
CONTINUOUS
10
163.2270389999999907
20
-86.269566999999995
11
163.25
21
-86.2650000000000006
0
LINE
8
BLACK
6
CONTINUOUS
10
163.25
20
-86.2650000000000006
11
177.25
21
-86.2650000000000006
0
LINE
8
BLACK
6
CONTINUOUS
10
177.25
20
-86.2650000000000006
11
177.2729609999999809
21
-86.269566999999995
0
LINE
8
BLACK
6
CONTINUOUS
10
163.3100000000000023
20
-86.3849999999999909
11
163.3100000000000023
21
-100.2650000000000006
0
LINE
8
BLACK
6
CONTINUOUS
10
163.3100000000000023
20
-100.2650000000000006
11
177.1899999999999977
21
-100.2650000000000006
0
LINE
8
BLACK
6
CONTINUOUS
10
177.1899999999999977
20
-100.2650000000000006
11
177.1899999999999977
21
-86.3849999999999909
0
LINE
8
BLACK
6
CONTINUOUS
10
177.1899999999999977
20
-86.3849999999999909
11
163.3100000000000023
21
-86.3849999999999909
0
LINE
8
BLACK
6
CONTINUOUS
10
120.2729609999999951
20
-83.894566999999995
11
120.3054329999999936
21
-83.9270389999999935
0
LINE
8
BLACK
6
CONTINUOUS
10
120.3054329999999936
20
-83.9270389999999935
11
120.3099999999999881
21
-83.9500000000000028
0
LINE
8
BLACK
6
CONTINUOUS
10
120.3099999999999881
20
-83.9500000000000028
11
120.3099999999999881
21
-97.9499999999999886
0
LINE
8
BLACK
6
CONTINUOUS
10
120.3099999999999881
20
-97.9499999999999886
11
120.3054329999999936
21
-97.972960999999998
0
LINE
8
BLACK
6
CONTINUOUS
10
120.3054329999999936
20
-97.972960999999998
11
120.2729609999999951
21
-98.0054329999999965
0
LINE
8
BLACK
6
CONTINUOUS
10
120.2729609999999951
20
-98.0054329999999965
11
120.25
21
-98.0099999999999909
0
LINE
8
BLACK
6
CONTINUOUS
10
120.25
20
-98.0099999999999909
11
106.25
21
-98.0099999999999909
0
LINE
8
BLACK
6
CONTINUOUS
10
106.25
20
-98.0099999999999909
11
106.2270389999999907
21
-98.0054329999999965
0
LINE
8
BLACK
6
CONTINUOUS
10
106.2270389999999907
20
-98.0054329999999965
11
106.1945669999999922
21
-97.972960999999998
0
LINE
8
BLACK
6
CONTINUOUS
10
106.1945669999999922
20
-97.972960999999998
11
106.1899999999999977
21
-97.9499999999999886
0
LINE
8
BLACK
6
CONTINUOUS
10
106.1899999999999977
20
-97.9499999999999886
11
106.1899999999999977
21
-83.9500000000000028
0
LINE
8
BLACK
6
CONTINUOUS
10
106.1899999999999977
20
-83.9500000000000028
11
106.1945669999999922
21
-83.9270389999999935
0
LINE
8
BLACK
6
CONTINUOUS
10
106.1945669999999922
20
-83.9270389999999935
11
106.2270389999999907
21
-83.894566999999995
0
LINE
8
BLACK
6
CONTINUOUS
10
106.2270389999999907
20
-83.894566999999995
11
106.25
21
-83.8900000000000006
0
LINE
8
BLACK
6
CONTINUOUS
10
106.25
20
-83.8900000000000006
11
120.25
21
-83.8900000000000006
0
LINE
8
BLACK
6
CONTINUOUS
10
120.25
20
-83.8900000000000006
11
120.2729609999999951
21
-83.894566999999995
0
LINE
8
BLACK
6
CONTINUOUS
10
106.3100000000000023
20
-84.0099999999999909
11
106.3100000000000023
21
-97.8900000000000006
0
LINE
8
BLACK
6
CONTINUOUS
10
106.3100000000000023
20
-97.8900000000000006
11
120.1899999999999977
21
-97.8900000000000006
0
LINE
8
BLACK
6
CONTINUOUS
10
120.1899999999999977
20
-97.8900000000000006
11
120.1899999999999977
21
-84.0099999999999909
0
LINE
8
BLACK
6
CONTINUOUS
10
120.1899999999999977
20
-84.0099999999999909
11
106.3100000000000023
21
-84.0099999999999909
0
LINE
8
BLACK
6
CONTINUOUS
10
158.2729609999999809
20
-83.894566999999995
11
158.3054329999999936
21
-83.9270389999999935
0
LINE
8
BLACK
6
CONTINUOUS
10
158.3054329999999936
20
-83.9270389999999935
11
158.3100000000000023
21
-83.9500000000000028
0
LINE
8
BLACK
6
CONTINUOUS
10
158.3100000000000023
20
-83.9500000000000028
11
158.3100000000000023
21
-97.9499999999999886
0
LINE
8
BLACK
6
CONTINUOUS
10
158.3100000000000023
20
-97.9499999999999886
11
158.3054329999999936
21
-97.972960999999998
0
LINE
8
BLACK
6
CONTINUOUS
10
158.3054329999999936
20
-97.972960999999998
11
158.2729609999999809
21
-98.0054329999999965
0
LINE
8
BLACK
6
CONTINUOUS
10
158.2729609999999809
20
-98.0054329999999965
11
158.25
21
-98.0099999999999909
0
LINE
8
BLACK
6
CONTINUOUS
10
158.25
20
-98.0099999999999909
11
144.25
21
-98.0099999999999909
0
LINE
8
BLACK
6
CONTINUOUS
10
144.25
20
-98.0099999999999909
11
144.2270389999999907
21
-98.0054329999999965
0
LINE
8
BLACK
6
CONTINUOUS
10
144.2270389999999907
20
-98.0054329999999965
11
144.1945670000000064
21
-97.972960999999998
0
LINE
8
BLACK
6
CONTINUOUS
10
144.1945670000000064
20
-97.972960999999998
11
144.1899999999999977
21
-97.9499999999999886
0
LINE
8
BLACK
6
CONTINUOUS
10
144.1899999999999977
20
-97.9499999999999886
11
144.1899999999999977
21
-83.9500000000000028
0
LINE
8
BLACK
6
CONTINUOUS
10
144.1899999999999977
20
-83.9500000000000028
11
144.1945670000000064
21
-83.9270389999999935
0
LINE
8
BLACK
6
CONTINUOUS
10
144.1945670000000064
20
-83.9270389999999935
11
144.2270389999999907
21
-83.894566999999995
0
LINE
8
BLACK
6
CONTINUOUS
10
144.2270389999999907
20
-83.894566999999995
11
144.25
21
-83.8900000000000006
0
LINE
8
BLACK
6
CONTINUOUS
10
144.25
20
-83.8900000000000006
11
158.25
21
-83.8900000000000006
0
LINE
8
BLACK
6
CONTINUOUS
10
158.25
20
-83.8900000000000006
11
158.2729609999999809
21
-83.894566999999995
0
LINE
8
BLACK
6
CONTINUOUS
10
144.3100000000000023
20
-84.0099999999999909
11
144.3100000000000023
21
-97.8900000000000006
0
LINE
8
BLACK
6
CONTINUOUS
10
144.3100000000000023
20
-97.8900000000000006
11
158.1899999999999977
21
-97.8900000000000006
0
LINE
8
BLACK
6
CONTINUOUS
10
158.1899999999999977
20
-97.8900000000000006
11
158.1899999999999977
21
-84.0099999999999909
0
LINE
8
BLACK
6
CONTINUOUS
10
158.1899999999999977
20
-84.0099999999999909
11
144.3100000000000023
21
-84.0099999999999909
0
LINE
8
BLACK
6
CONTINUOUS
10
139.2729609999999809
20
-81.519566999999995
11
139.3054329999999936
21
-81.5520389999999935
0
LINE
8
BLACK
6
CONTINUOUS
10
139.3054329999999936
20
-81.5520389999999935
11
139.3100000000000023
21
-81.5750000000000028
0
LINE
8
BLACK
6
CONTINUOUS
10
139.3100000000000023
20
-81.5750000000000028
11
139.3100000000000023
21
-95.5749999999999886
0
LINE
8
BLACK
6
CONTINUOUS
10
139.3100000000000023
20
-95.5749999999999886
11
139.3054329999999936
21
-95.597960999999998
0
LINE
8
BLACK
6
CONTINUOUS
10
139.3054329999999936
20
-95.597960999999998
11
139.2729609999999809
21
-95.6304329999999965
0
LINE
8
BLACK
6
CONTINUOUS
10
139.2729609999999809
20
-95.6304329999999965
11
139.25
21
-95.6349999999999909
0
LINE
8
BLACK
6
CONTINUOUS
10
139.25
20
-95.6349999999999909
11
125.25
21
-95.6349999999999909
0
LINE
8
BLACK
6
CONTINUOUS
10
125.25
20
-95.6349999999999909
11
125.2270389999999907
21
-95.6304329999999965
0
LINE
8
BLACK
6
CONTINUOUS
10
125.2270389999999907
20
-95.6304329999999965
11
125.1945669999999922
21
-95.597960999999998
0
LINE
8
BLACK
6
CONTINUOUS
10
125.1945669999999922
20
-95.597960999999998
11
125.1899999999999977
21
-95.5749999999999886
0
LINE
8
BLACK
6
CONTINUOUS
10
125.1899999999999977
20
-95.5749999999999886
11
125.1899999999999977
21
-81.5750000000000028
0
LINE
8
BLACK
6
CONTINUOUS
10
125.1899999999999977
20
-81.5750000000000028
11
125.1945669999999922
21
-81.5520389999999935
0
LINE
8
BLACK
6
CONTINUOUS
10
125.1945669999999922
20
-81.5520389999999935
11
125.2270389999999907
21
-81.519566999999995
0
LINE
8
BLACK
6
CONTINUOUS
10
125.2270389999999907
20
-81.519566999999995
11
125.25
21
-81.5150000000000006
0
LINE
8
BLACK
6
CONTINUOUS
10
125.25
20
-81.5150000000000006
11
139.25
21
-81.5150000000000006
0
LINE
8
BLACK
6
CONTINUOUS
10
139.25
20
-81.5150000000000006
11
139.2729609999999809
21
-81.519566999999995
0
LINE
8
BLACK
6
CONTINUOUS
10
125.3099999999999881
20
-81.6349999999999909
11
125.3099999999999881
21
-95.5150000000000006
0
LINE
8
BLACK
6
CONTINUOUS
10
125.3099999999999881
20
-95.5150000000000006
11
139.1899999999999977
21
-95.5150000000000006
0
LINE
8
BLACK
6
CONTINUOUS
10
139.1899999999999977
20
-95.5150000000000006
11
139.1899999999999977
21
-81.6349999999999909
0
LINE
8
BLACK
6
CONTINUOUS
10
139.1899999999999977
20
-81.6349999999999909
11
125.3099999999999881
21
-81.6349999999999909
0
LINE
8
BLACK
6
CONTINUOUS
10
82.2729609999999951
20
-69.644566999999995
11
82.3054329999999936
21
-69.6770389999999935
0
LINE
8
BLACK
6
CONTINUOUS
10
82.3054329999999936
20
-69.6770389999999935
11
82.3100000000000023
21
-69.7000000000000028
0
LINE
8
BLACK
6
CONTINUOUS
10
82.3100000000000023
20
-69.7000000000000028
11
82.3100000000000023
21
-83.7000000000000028
0
LINE
8
BLACK
6
CONTINUOUS
10
82.3100000000000023
20
-83.7000000000000028
11
82.3054329999999936
21
-83.722960999999998
0
LINE
8
BLACK
6
CONTINUOUS
10
82.3054329999999936
20
-83.722960999999998
11
82.2729609999999951
21
-83.7554329999999965
0
LINE
8
BLACK
6
CONTINUOUS
10
82.2729609999999951
20
-83.7554329999999965
11
82.25
21
-83.7599999999999909
0
LINE
8
BLACK
6
CONTINUOUS
10
82.25
20
-83.7599999999999909
11
68.25
21
-83.7599999999999909
0
LINE
8
BLACK
6
CONTINUOUS
10
68.25
20
-83.7599999999999909
11
68.2270389999999907
21
-83.7554329999999965
0
LINE
8
BLACK
6
CONTINUOUS
10
68.2270389999999907
20
-83.7554329999999965
11
68.1945669999999922
21
-83.722960999999998
0
LINE
8
BLACK
6
CONTINUOUS
10
68.1945669999999922
20
-83.722960999999998
11
68.1899999999999977
21
-83.7000000000000028
0
LINE
8
BLACK
6
CONTINUOUS
10
68.1899999999999977
20
-83.7000000000000028
11
68.1899999999999977
21
-69.7000000000000028
0
LINE
8
BLACK
6
CONTINUOUS
10
68.1899999999999977
20
-69.7000000000000028
11
68.1945669999999922
21
-69.6770389999999935
0
LINE
8
BLACK
6
CONTINUOUS
10
68.1945669999999922
20
-69.6770389999999935
11
68.2270389999999907
21
-69.644566999999995
0
LINE
8
BLACK
6
CONTINUOUS
10
68.2270389999999907
20
-69.644566999999995
11
68.25
21
-69.6400000000000006
0
LINE
8
BLACK
6
CONTINUOUS
10
68.25
20
-69.6400000000000006
11
82.25
21
-69.6400000000000006
0
LINE
8
BLACK
6
CONTINUOUS
10
82.25
20
-69.6400000000000006
11
82.2729609999999951
21
-69.644566999999995
0
LINE
8
BLACK
6
CONTINUOUS
10
68.3100000000000023
20
-69.7599999999999909
11
68.3100000000000023
21
-83.6400000000000006
0
LINE
8
BLACK
6
CONTINUOUS
10
68.3100000000000023
20
-83.6400000000000006
11
82.1899999999999977
21
-83.6400000000000006
0
LINE
8
BLACK
6
CONTINUOUS
10
82.1899999999999977
20
-83.6400000000000006
11
82.1899999999999977
21
-69.7599999999999909
0
LINE
8
BLACK
6
CONTINUOUS
10
82.1899999999999977
20
-69.7599999999999909
11
68.3100000000000023
21
-69.7599999999999909
0
LINE
8
BLACK
6
CONTINUOUS
10
101.2729609999999951
20
-69.644566999999995
11
101.3054329999999936
21
-69.6770389999999935
0
LINE
8
BLACK
6
CONTINUOUS
10
101.3054329999999936
20
-69.6770389999999935
11
101.3100000000000023
21
-69.7000000000000028
0
LINE
8
BLACK
6
CONTINUOUS
10
101.3100000000000023
20
-69.7000000000000028
11
101.3100000000000023
21
-83.7000000000000028
0
LINE
8
BLACK
6
CONTINUOUS
10
101.3100000000000023
20
-83.7000000000000028
11
101.3054329999999936
21
-83.722960999999998
0
LINE
8
BLACK
6
CONTINUOUS
10
101.3054329999999936
20
-83.722960999999998
11
101.2729609999999951
21
-83.7554329999999965
0
LINE
8
BLACK
6
CONTINUOUS
10
101.2729609999999951
20
-83.7554329999999965
11
101.25
21
-83.7599999999999909
0
LINE
8
BLACK
6
CONTINUOUS
10
101.25
20
-83.7599999999999909
11
87.25
21
-83.7599999999999909
0
LINE
8
BLACK
6
CONTINUOUS
10
87.25
20
-83.7599999999999909
11
87.2270389999999907
21
-83.7554329999999965
0
LINE
8
BLACK
6
CONTINUOUS
10
87.2270389999999907
20
-83.7554329999999965
11
87.1945669999999922
21
-83.722960999999998
0
LINE
8
BLACK
6
CONTINUOUS
10
87.1945669999999922
20
-83.722960999999998
11
87.1899999999999977
21
-83.7000000000000028
0
LINE
8
BLACK
6
CONTINUOUS
10
87.1899999999999977
20
-83.7000000000000028
11
87.1899999999999977
21
-69.7000000000000028
0
LINE
8
BLACK
6
CONTINUOUS
10
87.1899999999999977
20
-69.7000000000000028
11
87.1945669999999922
21
-69.6770389999999935
0
LINE
8
BLACK
6
CONTINUOUS
10
87.1945669999999922
20
-69.6770389999999935
11
87.2270389999999907
21
-69.644566999999995
0
LINE
8
BLACK
6
CONTINUOUS
10
87.2270389999999907
20
-69.644566999999995
11
87.25
21
-69.6400000000000006
0
LINE
8
BLACK
6
CONTINUOUS
10
87.25
20
-69.6400000000000006
11
101.25
21
-69.6400000000000006
0
LINE
8
BLACK
6
CONTINUOUS
10
101.25
20
-69.6400000000000006
11
101.2729609999999951
21
-69.644566999999995
0
LINE
8
BLACK
6
CONTINUOUS
10
87.3100000000000023
20
-69.7599999999999909
11
87.3100000000000023
21
-83.6400000000000006
0
LINE
8
BLACK
6
CONTINUOUS
10
87.3100000000000023
20
-83.6400000000000006
11
101.1899999999999977
21
-83.6400000000000006
0
LINE
8
BLACK
6
CONTINUOUS
10
101.1899999999999977
20
-83.6400000000000006
11
101.1899999999999977
21
-69.7599999999999909
0
LINE
8
BLACK
6
CONTINUOUS
10
101.1899999999999977
20
-69.7599999999999909
11
87.3100000000000023
21
-69.7599999999999909
0
LINE
8
BLACK
6
CONTINUOUS
10
177.2729609999999809
20
-67.269566999999995
11
177.3054329999999936
21
-67.3020389999999935
0
LINE
8
BLACK
6
CONTINUOUS
10
177.3054329999999936
20
-67.3020389999999935
11
177.3100000000000023
21
-67.3250000000000028
0
LINE
8
BLACK
6
CONTINUOUS
10
177.3100000000000023
20
-67.3250000000000028
11
177.3100000000000023
21
-81.3250000000000028
0
LINE
8
BLACK
6
CONTINUOUS
10
177.3100000000000023
20
-81.3250000000000028
11
177.3054329999999936
21
-81.347960999999998
0
LINE
8
BLACK
6
CONTINUOUS
10
177.3054329999999936
20
-81.347960999999998
11
177.2729609999999809
21
-81.3804329999999965
0
LINE
8
BLACK
6
CONTINUOUS
10
177.2729609999999809
20
-81.3804329999999965
11
177.25
21
-81.3849999999999909
0
LINE
8
BLACK
6
CONTINUOUS
10
177.25
20
-81.3849999999999909
11
163.25
21
-81.3849999999999909
0
LINE
8
BLACK
6
CONTINUOUS
10
163.25
20
-81.3849999999999909
11
163.2270389999999907
21
-81.3804329999999965
0
LINE
8
BLACK
6
CONTINUOUS
10
163.2270389999999907
20
-81.3804329999999965
11
163.1945670000000064
21
-81.347960999999998
0
LINE
8
BLACK
6
CONTINUOUS
10
163.1945670000000064
20
-81.347960999999998
11
163.1899999999999977
21
-81.3250000000000028
0
LINE
8
BLACK
6
CONTINUOUS
10
163.1899999999999977
20
-81.3250000000000028
11
163.1899999999999977
21
-67.3250000000000028
0
LINE
8
BLACK
6
CONTINUOUS
10
163.1899999999999977
20
-67.3250000000000028
11
163.1945670000000064
21
-67.3020389999999935
0
LINE
8
BLACK
6
CONTINUOUS
10
163.1945670000000064
20
-67.3020389999999935
11
163.2270389999999907
21
-67.269566999999995
0
LINE
8
BLACK
6
CONTINUOUS
10
163.2270389999999907
20
-67.269566999999995
11
163.25
21
-67.2650000000000006
0
LINE
8
BLACK
6
CONTINUOUS
10
163.25
20
-67.2650000000000006
11
177.25
21
-67.2650000000000006
0
LINE
8
BLACK
6
CONTINUOUS
10
177.25
20
-67.2650000000000006
11
177.2729609999999809
21
-67.269566999999995
0
LINE
8
BLACK
6
CONTINUOUS
10
163.3100000000000023
20
-67.3849999999999909
11
163.3100000000000023
21
-81.2650000000000006
0
LINE
8
BLACK
6
CONTINUOUS
10
163.3100000000000023
20
-81.2650000000000006
11
177.1899999999999977
21
-81.2650000000000006
0
LINE
8
BLACK
6
CONTINUOUS
10
177.1899999999999977
20
-81.2650000000000006
11
177.1899999999999977
21
-67.3849999999999909
0
LINE
8
BLACK
6
CONTINUOUS
10
177.1899999999999977
20
-67.3849999999999909
11
163.3100000000000023
21
-67.3849999999999909
0
LINE
8
BLACK
6
CONTINUOUS
10
120.2729609999999951
20
-64.894566999999995
11
120.3054329999999936
21
-64.9270389999999935
0
LINE
8
BLACK
6
CONTINUOUS
10
120.3054329999999936
20
-64.9270389999999935
11
120.3099999999999881
21
-64.9500000000000028
0
LINE
8
BLACK
6
CONTINUOUS
10
120.3099999999999881
20
-64.9500000000000028
11
120.3099999999999881
21
-78.9500000000000028
0
LINE
8
BLACK
6
CONTINUOUS
10
120.3099999999999881
20
-78.9500000000000028
11
120.3054329999999936
21
-78.972960999999998
0
LINE
8
BLACK
6
CONTINUOUS
10
120.3054329999999936
20
-78.972960999999998
11
120.2729609999999951
21
-79.0054329999999965
0
LINE
8
BLACK
6
CONTINUOUS
10
120.2729609999999951
20
-79.0054329999999965
11
120.25
21
-79.0099999999999909
0
LINE
8
BLACK
6
CONTINUOUS
10
120.25
20
-79.0099999999999909
11
106.25
21
-79.0099999999999909
0
LINE
8
BLACK
6
CONTINUOUS
10
106.25
20
-79.0099999999999909
11
106.2270389999999907
21
-79.0054329999999965
0
LINE
8
BLACK
6
CONTINUOUS
10
106.2270389999999907
20
-79.0054329999999965
11
106.1945669999999922
21
-78.972960999999998
0
LINE
8
BLACK
6
CONTINUOUS
10
106.1945669999999922
20
-78.972960999999998
11
106.1899999999999977
21
-78.9500000000000028
0
LINE
8
BLACK
6
CONTINUOUS
10
106.1899999999999977
20
-78.9500000000000028
11
106.1899999999999977
21
-64.9500000000000028
0
LINE
8
BLACK
6
CONTINUOUS
10
106.1899999999999977
20
-64.9500000000000028
11
106.1945669999999922
21
-64.9270389999999935
0
LINE
8
BLACK
6
CONTINUOUS
10
106.1945669999999922
20
-64.9270389999999935
11
106.2270389999999907
21
-64.894566999999995
0
LINE
8
BLACK
6
CONTINUOUS
10
106.2270389999999907
20
-64.894566999999995
11
106.25
21
-64.8900000000000006
0
LINE
8
BLACK
6
CONTINUOUS
10
106.25
20
-64.8900000000000006
11
120.25
21
-64.8900000000000006
0
LINE
8
BLACK
6
CONTINUOUS
10
120.25
20
-64.8900000000000006
11
120.2729609999999951
21
-64.894566999999995
0
LINE
8
BLACK
6
CONTINUOUS
10
106.3100000000000023
20
-65.0099999999999909
11
106.3100000000000023
21
-78.8900000000000006
0
LINE
8
BLACK
6
CONTINUOUS
10
106.3100000000000023
20
-78.8900000000000006
11
120.1899999999999977
21
-78.8900000000000006
0
LINE
8
BLACK
6
CONTINUOUS
10
120.1899999999999977
20
-78.8900000000000006
11
120.1899999999999977
21
-65.0099999999999909
0
LINE
8
BLACK
6
CONTINUOUS
10
120.1899999999999977
20
-65.0099999999999909
11
106.3100000000000023
21
-65.0099999999999909
0
LINE
8
BLACK
6
CONTINUOUS
10
158.2729609999999809
20
-64.894566999999995
11
158.3054329999999936
21
-64.9270389999999935
0
LINE
8
BLACK
6
CONTINUOUS
10
158.3054329999999936
20
-64.9270389999999935
11
158.3100000000000023
21
-64.9500000000000028
0
LINE
8
BLACK
6
CONTINUOUS
10
158.3100000000000023
20
-64.9500000000000028
11
158.3100000000000023
21
-78.9500000000000028
0
LINE
8
BLACK
6
CONTINUOUS
10
158.3100000000000023
20
-78.9500000000000028
11
158.3054329999999936
21
-78.972960999999998
0
LINE
8
BLACK
6
CONTINUOUS
10
158.3054329999999936
20
-78.972960999999998
11
158.2729609999999809
21
-79.0054329999999965
0
LINE
8
BLACK
6
CONTINUOUS
10
158.2729609999999809
20
-79.0054329999999965
11
158.25
21
-79.0099999999999909
0
LINE
8
BLACK
6
CONTINUOUS
10
158.25
20
-79.0099999999999909
11
144.25
21
-79.0099999999999909
0
LINE
8
BLACK
6
CONTINUOUS
10
144.25
20
-79.0099999999999909
11
144.2270389999999907
21
-79.0054329999999965
0
LINE
8
BLACK
6
CONTINUOUS
10
144.2270389999999907
20
-79.0054329999999965
11
144.1945670000000064
21
-78.972960999999998
0
LINE
8
BLACK
6
CONTINUOUS
10
144.1945670000000064
20
-78.972960999999998
11
144.1899999999999977
21
-78.9500000000000028
0
LINE
8
BLACK
6
CONTINUOUS
10
144.1899999999999977
20
-78.9500000000000028
11
144.1899999999999977
21
-64.9500000000000028
0
LINE
8
BLACK
6
CONTINUOUS
10
144.1899999999999977
20
-64.9500000000000028
11
144.1945670000000064
21
-64.9270389999999935
0
LINE
8
BLACK
6
CONTINUOUS
10
144.1945670000000064
20
-64.9270389999999935
11
144.2270389999999907
21
-64.894566999999995
0
LINE
8
BLACK
6
CONTINUOUS
10
144.2270389999999907
20
-64.894566999999995
11
144.25
21
-64.8900000000000006
0
LINE
8
BLACK
6
CONTINUOUS
10
144.25
20
-64.8900000000000006
11
158.25
21
-64.8900000000000006
0
LINE
8
BLACK
6
CONTINUOUS
10
158.25
20
-64.8900000000000006
11
158.2729609999999809
21
-64.894566999999995
0
LINE
8
BLACK
6
CONTINUOUS
10
144.3100000000000023
20
-65.0099999999999909
11
144.3100000000000023
21
-78.8900000000000006
0
LINE
8
BLACK
6
CONTINUOUS
10
144.3100000000000023
20
-78.8900000000000006
11
158.1899999999999977
21
-78.8900000000000006
0
LINE
8
BLACK
6
CONTINUOUS
10
158.1899999999999977
20
-78.8900000000000006
11
158.1899999999999977
21
-65.0099999999999909
0
LINE
8
BLACK
6
CONTINUOUS
10
158.1899999999999977
20
-65.0099999999999909
11
144.3100000000000023
21
-65.0099999999999909
0
LINE
8
BLACK
6
CONTINUOUS
10
139.2729609999999809
20
-62.519566999999995
11
139.3054329999999936
21
-62.5520390000000006
0
LINE
8
BLACK
6
CONTINUOUS
10
139.3054329999999936
20
-62.5520390000000006
11
139.3100000000000023
21
-62.5749999999999957
0
LINE
8
BLACK
6
CONTINUOUS
10
139.3100000000000023
20
-62.5749999999999957
11
139.3100000000000023
21
-76.5750000000000028
0
LINE
8
BLACK
6
CONTINUOUS
10
139.3100000000000023
20
-76.5750000000000028
11
139.3054329999999936
21
-76.597960999999998
0
LINE
8
BLACK
6
CONTINUOUS
10
139.3054329999999936
20
-76.597960999999998
11
139.2729609999999809
21
-76.6304329999999965
0
LINE
8
BLACK
6
CONTINUOUS
10
139.2729609999999809
20
-76.6304329999999965
11
139.25
21
-76.6349999999999909
0
LINE
8
BLACK
6
CONTINUOUS
10
139.25
20
-76.6349999999999909
11
125.25
21
-76.6349999999999909
0
LINE
8
BLACK
6
CONTINUOUS
10
125.25
20
-76.6349999999999909
11
125.2270389999999907
21
-76.6304329999999965
0
LINE
8
BLACK
6
CONTINUOUS
10
125.2270389999999907
20
-76.6304329999999965
11
125.1945669999999922
21
-76.597960999999998
0
LINE
8
BLACK
6
CONTINUOUS
10
125.1945669999999922
20
-76.597960999999998
11
125.1899999999999977
21
-76.5750000000000028
0
LINE
8
BLACK
6
CONTINUOUS
10
125.1899999999999977
20
-76.5750000000000028
11
125.1899999999999977
21
-62.5749999999999957
0
LINE
8
BLACK
6
CONTINUOUS
10
125.1899999999999977
20
-62.5749999999999957
11
125.1945669999999922
21
-62.5520390000000006
0
LINE
8
BLACK
6
CONTINUOUS
10
125.1945669999999922
20
-62.5520390000000006
11
125.2270389999999907
21
-62.519566999999995
0
LINE
8
BLACK
6
CONTINUOUS
10
125.2270389999999907
20
-62.519566999999995
11
125.25
21
-62.5150000000000006
0
LINE
8
BLACK
6
CONTINUOUS
10
125.25
20
-62.5150000000000006
11
139.25
21
-62.5150000000000006
0
LINE
8
BLACK
6
CONTINUOUS
10
139.25
20
-62.5150000000000006
11
139.2729609999999809
21
-62.519566999999995
0
LINE
8
BLACK
6
CONTINUOUS
10
125.3099999999999881
20
-62.634999999999998
11
125.3099999999999881
21
-76.5150000000000006
0
LINE
8
BLACK
6
CONTINUOUS
10
125.3099999999999881
20
-76.5150000000000006
11
139.1899999999999977
21
-76.5150000000000006
0
LINE
8
BLACK
6
CONTINUOUS
10
139.1899999999999977
20
-76.5150000000000006
11
139.1899999999999977
21
-62.634999999999998
0
LINE
8
BLACK
6
CONTINUOUS
10
139.1899999999999977
20
-62.634999999999998
11
125.3099999999999881
21
-62.634999999999998
0
LINE
8
BLACK
6
CONTINUOUS
10
82.2729609999999951
20
-50.644566999999995
11
82.3054329999999936
21
-50.6770390000000006
0
LINE
8
BLACK
6
CONTINUOUS
10
82.3054329999999936
20
-50.6770390000000006
11
82.3100000000000023
21
-50.6999999999999957
0
LINE
8
BLACK
6
CONTINUOUS
10
82.3100000000000023
20
-50.6999999999999957
11
82.3100000000000023
21
-64.7000000000000028
0
LINE
8
BLACK
6
CONTINUOUS
10
82.3100000000000023
20
-64.7000000000000028
11
82.3054329999999936
21
-64.722960999999998
0
LINE
8
BLACK
6
CONTINUOUS
10
82.3054329999999936
20
-64.722960999999998
11
82.2729609999999951
21
-64.7554329999999965
0
LINE
8
BLACK
6
CONTINUOUS
10
82.2729609999999951
20
-64.7554329999999965
11
82.25
21
-64.7599999999999909
0
LINE
8
BLACK
6
CONTINUOUS
10
82.25
20
-64.7599999999999909
11
68.25
21
-64.7599999999999909
0
LINE
8
BLACK
6
CONTINUOUS
10
68.25
20
-64.7599999999999909
11
68.2270389999999907
21
-64.7554329999999965
0
LINE
8
BLACK
6
CONTINUOUS
10
68.2270389999999907
20
-64.7554329999999965
11
68.1945669999999922
21
-64.722960999999998
0
LINE
8
BLACK
6
CONTINUOUS
10
68.1945669999999922
20
-64.722960999999998
11
68.1899999999999977
21
-64.7000000000000028
0
LINE
8
BLACK
6
CONTINUOUS
10
68.1899999999999977
20
-64.7000000000000028
11
68.1899999999999977
21
-50.6999999999999957
0
LINE
8
BLACK
6
CONTINUOUS
10
68.1899999999999977
20
-50.6999999999999957
11
68.1945669999999922
21
-50.6770390000000006
0
LINE
8
BLACK
6
CONTINUOUS
10
68.1945669999999922
20
-50.6770390000000006
11
68.2270389999999907
21
-50.644566999999995
0
LINE
8
BLACK
6
CONTINUOUS
10
68.2270389999999907
20
-50.644566999999995
11
68.25
21
-50.6400000000000006
0
LINE
8
BLACK
6
CONTINUOUS
10
68.25
20
-50.6400000000000006
11
82.25
21
-50.6400000000000006
0
LINE
8
BLACK
6
CONTINUOUS
10
82.25
20
-50.6400000000000006
11
82.2729609999999951
21
-50.644566999999995
0
LINE
8
BLACK
6
CONTINUOUS
10
68.3100000000000023
20
-50.759999999999998
11
68.3100000000000023
21
-64.6400000000000006
0
LINE
8
BLACK
6
CONTINUOUS
10
68.3100000000000023
20
-64.6400000000000006
11
82.1899999999999977
21
-64.6400000000000006
0
LINE
8
BLACK
6
CONTINUOUS
10
82.1899999999999977
20
-64.6400000000000006
11
82.1899999999999977
21
-50.759999999999998
0
LINE
8
BLACK
6
CONTINUOUS
10
82.1899999999999977
20
-50.759999999999998
11
68.3100000000000023
21
-50.759999999999998
0
LINE
8
BLACK
6
CONTINUOUS
10
101.2729609999999951
20
-50.644566999999995
11
101.3054329999999936
21
-50.6770390000000006
0
LINE
8
BLACK
6
CONTINUOUS
10
101.3054329999999936
20
-50.6770390000000006
11
101.3100000000000023
21
-50.6999999999999957
0
LINE
8
BLACK
6
CONTINUOUS
10
101.3100000000000023
20
-50.6999999999999957
11
101.3100000000000023
21
-64.7000000000000028
0
LINE
8
BLACK
6
CONTINUOUS
10
101.3100000000000023
20
-64.7000000000000028
11
101.3054329999999936
21
-64.722960999999998
0
LINE
8
BLACK
6
CONTINUOUS
10
101.3054329999999936
20
-64.722960999999998
11
101.2729609999999951
21
-64.7554329999999965
0
LINE
8
BLACK
6
CONTINUOUS
10
101.2729609999999951
20
-64.7554329999999965
11
101.25
21
-64.7599999999999909
0
LINE
8
BLACK
6
CONTINUOUS
10
101.25
20
-64.7599999999999909
11
87.25
21
-64.7599999999999909
0
LINE
8
BLACK
6
CONTINUOUS
10
87.25
20
-64.7599999999999909
11
87.2270389999999907
21
-64.7554329999999965
0
LINE
8
BLACK
6
CONTINUOUS
10
87.2270389999999907
20
-64.7554329999999965
11
87.1945669999999922
21
-64.722960999999998
0
LINE
8
BLACK
6
CONTINUOUS
10
87.1945669999999922
20
-64.722960999999998
11
87.1899999999999977
21
-64.7000000000000028
0
LINE
8
BLACK
6
CONTINUOUS
10
87.1899999999999977
20
-64.7000000000000028
11
87.1899999999999977
21
-50.6999999999999957
0
LINE
8
BLACK
6
CONTINUOUS
10
87.1899999999999977
20
-50.6999999999999957
11
87.1945669999999922
21
-50.6770390000000006
0
LINE
8
BLACK
6
CONTINUOUS
10
87.1945669999999922
20
-50.6770390000000006
11
87.2270389999999907
21
-50.644566999999995
0
LINE
8
BLACK
6
CONTINUOUS
10
87.2270389999999907
20
-50.644566999999995
11
87.25
21
-50.6400000000000006
0
LINE
8
BLACK
6
CONTINUOUS
10
87.25
20
-50.6400000000000006
11
101.25
21
-50.6400000000000006
0
LINE
8
BLACK
6
CONTINUOUS
10
101.25
20
-50.6400000000000006
11
101.2729609999999951
21
-50.644566999999995
0
LINE
8
BLACK
6
CONTINUOUS
10
87.3100000000000023
20
-50.759999999999998
11
87.3100000000000023
21
-64.6400000000000006
0
LINE
8
BLACK
6
CONTINUOUS
10
87.3100000000000023
20
-64.6400000000000006
11
101.1899999999999977
21
-64.6400000000000006
0
LINE
8
BLACK
6
CONTINUOUS
10
101.1899999999999977
20
-64.6400000000000006
11
101.1899999999999977
21
-50.759999999999998
0
LINE
8
BLACK
6
CONTINUOUS
10
101.1899999999999977
20
-50.759999999999998
11
87.3100000000000023
21
-50.759999999999998
0
LINE
8
BLACK
6
CONTINUOUS
10
177.2729609999999809
20
-48.269566999999995
11
177.3054329999999936
21
-48.3020390000000006
0
LINE
8
BLACK
6
CONTINUOUS
10
177.3054329999999936
20
-48.3020390000000006
11
177.3100000000000023
21
-48.3249999999999957
0
LINE
8
BLACK
6
CONTINUOUS
10
177.3100000000000023
20
-48.3249999999999957
11
177.3100000000000023
21
-62.3249999999999957
0
LINE
8
BLACK
6
CONTINUOUS
10
177.3100000000000023
20
-62.3249999999999957
11
177.3054329999999936
21
-62.347960999999998
0
LINE
8
BLACK
6
CONTINUOUS
10
177.3054329999999936
20
-62.347960999999998
11
177.2729609999999809
21
-62.3804329999999965
0
LINE
8
BLACK
6
CONTINUOUS
10
177.2729609999999809
20
-62.3804329999999965
11
177.25
21
-62.384999999999998
0
LINE
8
BLACK
6
CONTINUOUS
10
177.25
20
-62.384999999999998
11
163.25
21
-62.384999999999998
0
LINE
8
BLACK
6
CONTINUOUS
10
163.25
20
-62.384999999999998
11
163.2270389999999907
21
-62.3804329999999965
0
LINE
8
BLACK
6
CONTINUOUS
10
163.2270389999999907
20
-62.3804329999999965
11
163.1945670000000064
21
-62.347960999999998
0
LINE
8
BLACK
6
CONTINUOUS
10
163.1945670000000064
20
-62.347960999999998
11
163.1899999999999977
21
-62.3249999999999957
0
LINE
8
BLACK
6
CONTINUOUS
10
163.1899999999999977
20
-62.3249999999999957
11
163.1899999999999977
21
-48.3249999999999957
0
LINE
8
BLACK
6
CONTINUOUS
10
163.1899999999999977
20
-48.3249999999999957
11
163.1945670000000064
21
-48.3020390000000006
0
LINE
8
BLACK
6
CONTINUOUS
10
163.1945670000000064
20
-48.3020390000000006
11
163.2270389999999907
21
-48.269566999999995
0
LINE
8
BLACK
6
CONTINUOUS
10
163.2270389999999907
20
-48.269566999999995
11
163.25
21
-48.2650000000000006
0
LINE
8
BLACK
6
CONTINUOUS
10
163.25
20
-48.2650000000000006
11
177.25
21
-48.2650000000000006
0
LINE
8
BLACK
6
CONTINUOUS
10
177.25
20
-48.2650000000000006
11
177.2729609999999809
21
-48.269566999999995
0
LINE
8
BLACK
6
CONTINUOUS
10
163.3100000000000023
20
-48.384999999999998
11
163.3100000000000023
21
-62.2650000000000006
0
LINE
8
BLACK
6
CONTINUOUS
10
163.3100000000000023
20
-62.2650000000000006
11
177.1899999999999977
21
-62.2650000000000006
0
LINE
8
BLACK
6
CONTINUOUS
10
177.1899999999999977
20
-62.2650000000000006
11
177.1899999999999977
21
-48.384999999999998
0
LINE
8
BLACK
6
CONTINUOUS
10
177.1899999999999977
20
-48.384999999999998
11
163.3100000000000023
21
-48.384999999999998
0
LINE
8
BLACK
6
CONTINUOUS
10
120.2729609999999951
20
-45.894566999999995
11
120.3054329999999936
21
-45.9270390000000006
0
LINE
8
BLACK
6
CONTINUOUS
10
120.3054329999999936
20
-45.9270390000000006
11
120.3099999999999881
21
-45.9499999999999957
0
LINE
8
BLACK
6
CONTINUOUS
10
120.3099999999999881
20
-45.9499999999999957
11
120.3099999999999881
21
-59.9499999999999957
0
LINE
8
BLACK
6
CONTINUOUS
10
120.3099999999999881
20
-59.9499999999999957
11
120.3054329999999936
21
-59.972960999999998
0
LINE
8
BLACK
6
CONTINUOUS
10
120.3054329999999936
20
-59.972960999999998
11
120.2729609999999951
21
-60.0054329999999965
0
LINE
8
BLACK
6
CONTINUOUS
10
120.2729609999999951
20
-60.0054329999999965
11
120.25
21
-60.009999999999998
0
LINE
8
BLACK
6
CONTINUOUS
10
120.25
20
-60.009999999999998
11
106.25
21
-60.009999999999998
0
LINE
8
BLACK
6
CONTINUOUS
10
106.25
20
-60.009999999999998
11
106.2270389999999907
21
-60.0054329999999965
0
LINE
8
BLACK
6
CONTINUOUS
10
106.2270389999999907
20
-60.0054329999999965
11
106.1945669999999922
21
-59.972960999999998
0
LINE
8
BLACK
6
CONTINUOUS
10
106.1945669999999922
20
-59.972960999999998
11
106.1899999999999977
21
-59.9499999999999957
0
LINE
8
BLACK
6
CONTINUOUS
10
106.1899999999999977
20
-59.9499999999999957
11
106.1899999999999977
21
-45.9499999999999957
0
LINE
8
BLACK
6
CONTINUOUS
10
106.1899999999999977
20
-45.9499999999999957
11
106.1945669999999922
21
-45.9270390000000006
0
LINE
8
BLACK
6
CONTINUOUS
10
106.1945669999999922
20
-45.9270390000000006
11
106.2270389999999907
21
-45.894566999999995
0
LINE
8
BLACK
6
CONTINUOUS
10
106.2270389999999907
20
-45.894566999999995
11
106.25
21
-45.8900000000000006
0
LINE
8
BLACK
6
CONTINUOUS
10
106.25
20
-45.8900000000000006
11
120.25
21
-45.8900000000000006
0
LINE
8
BLACK
6
CONTINUOUS
10
120.25
20
-45.8900000000000006
11
120.2729609999999951
21
-45.894566999999995
0
LINE
8
BLACK
6
CONTINUOUS
10
106.3100000000000023
20
-46.009999999999998
11
106.3100000000000023
21
-59.8900000000000006
0
LINE
8
BLACK
6
CONTINUOUS
10
106.3100000000000023
20
-59.8900000000000006
11
120.1899999999999977
21
-59.8900000000000006
0
LINE
8
BLACK
6
CONTINUOUS
10
120.1899999999999977
20
-59.8900000000000006
11
120.1899999999999977
21
-46.009999999999998
0
LINE
8
BLACK
6
CONTINUOUS
10
120.1899999999999977
20
-46.009999999999998
11
106.3100000000000023
21
-46.009999999999998
0
LINE
8
BLACK
6
CONTINUOUS
10
158.2729609999999809
20
-45.894566999999995
11
158.3054329999999936
21
-45.9270390000000006
0
LINE
8
BLACK
6
CONTINUOUS
10
158.3054329999999936
20
-45.9270390000000006
11
158.3100000000000023
21
-45.9499999999999957
0
LINE
8
BLACK
6
CONTINUOUS
10
158.3100000000000023
20
-45.9499999999999957
11
158.3100000000000023
21
-59.9499999999999957
0
LINE
8
BLACK
6
CONTINUOUS
10
158.3100000000000023
20
-59.9499999999999957
11
158.3054329999999936
21
-59.972960999999998
0
LINE
8
BLACK
6
CONTINUOUS
10
158.3054329999999936
20
-59.972960999999998
11
158.2729609999999809
21
-60.0054329999999965
0
LINE
8
BLACK
6
CONTINUOUS
10
158.2729609999999809
20
-60.0054329999999965
11
158.25
21
-60.009999999999998
0
LINE
8
BLACK
6
CONTINUOUS
10
158.25
20
-60.009999999999998
11
144.25
21
-60.009999999999998
0
LINE
8
BLACK
6
CONTINUOUS
10
144.25
20
-60.009999999999998
11
144.2270389999999907
21
-60.0054329999999965
0
LINE
8
BLACK
6
CONTINUOUS
10
144.2270389999999907
20
-60.0054329999999965
11
144.1945670000000064
21
-59.972960999999998
0
LINE
8
BLACK
6
CONTINUOUS
10
144.1945670000000064
20
-59.972960999999998
11
144.1899999999999977
21
-59.9499999999999957
0
LINE
8
BLACK
6
CONTINUOUS
10
144.1899999999999977
20
-59.9499999999999957
11
144.1899999999999977
21
-45.9499999999999957
0
LINE
8
BLACK
6
CONTINUOUS
10
144.1899999999999977
20
-45.9499999999999957
11
144.1945670000000064
21
-45.9270390000000006
0
LINE
8
BLACK
6
CONTINUOUS
10
144.1945670000000064
20
-45.9270390000000006
11
144.2270389999999907
21
-45.894566999999995
0
LINE
8
BLACK
6
CONTINUOUS
10
144.2270389999999907
20
-45.894566999999995
11
144.25
21
-45.8900000000000006
0
LINE
8
BLACK
6
CONTINUOUS
10
144.25
20
-45.8900000000000006
11
158.25
21
-45.8900000000000006
0
LINE
8
BLACK
6
CONTINUOUS
10
158.25
20
-45.8900000000000006
11
158.2729609999999809
21
-45.894566999999995
0
LINE
8
BLACK
6
CONTINUOUS
10
144.3100000000000023
20
-46.009999999999998
11
144.3100000000000023
21
-59.8900000000000006
0
LINE
8
BLACK
6
CONTINUOUS
10
144.3100000000000023
20
-59.8900000000000006
11
158.1899999999999977
21
-59.8900000000000006
0
LINE
8
BLACK
6
CONTINUOUS
10
158.1899999999999977
20
-59.8900000000000006
11
158.1899999999999977
21
-46.009999999999998
0
LINE
8
BLACK
6
CONTINUOUS
10
158.1899999999999977
20
-46.009999999999998
11
144.3100000000000023
21
-46.009999999999998
0
LINE
8
BLACK
6
CONTINUOUS
10
139.2729609999999809
20
-43.519566999999995
11
139.3054329999999936
21
-43.5520390000000006
0
LINE
8
BLACK
6
CONTINUOUS
10
139.3054329999999936
20
-43.5520390000000006
11
139.3100000000000023
21
-43.5749999999999957
0
LINE
8
BLACK
6
CONTINUOUS
10
139.3100000000000023
20
-43.5749999999999957
11
139.3100000000000023
21
-57.5749999999999957
0
LINE
8
BLACK
6
CONTINUOUS
10
139.3100000000000023
20
-57.5749999999999957
11
139.3054329999999936
21
-57.597960999999998
0
LINE
8
BLACK
6
CONTINUOUS
10
139.3054329999999936
20
-57.597960999999998
11
139.2729609999999809
21
-57.6304329999999965
0
LINE
8
BLACK
6
CONTINUOUS
10
139.2729609999999809
20
-57.6304329999999965
11
139.25
21
-57.634999999999998
0
LINE
8
BLACK
6
CONTINUOUS
10
139.25
20
-57.634999999999998
11
125.25
21
-57.634999999999998
0
LINE
8
BLACK
6
CONTINUOUS
10
125.25
20
-57.634999999999998
11
125.2270389999999907
21
-57.6304329999999965
0
LINE
8
BLACK
6
CONTINUOUS
10
125.2270389999999907
20
-57.6304329999999965
11
125.1945669999999922
21
-57.597960999999998
0
LINE
8
BLACK
6
CONTINUOUS
10
125.1945669999999922
20
-57.597960999999998
11
125.1899999999999977
21
-57.5749999999999957
0
LINE
8
BLACK
6
CONTINUOUS
10
125.1899999999999977
20
-57.5749999999999957
11
125.1899999999999977
21
-43.5749999999999957
0
LINE
8
BLACK
6
CONTINUOUS
10
125.1899999999999977
20
-43.5749999999999957
11
125.1945669999999922
21
-43.5520390000000006
0
LINE
8
BLACK
6
CONTINUOUS
10
125.1945669999999922
20
-43.5520390000000006
11
125.2270389999999907
21
-43.519566999999995
0
LINE
8
BLACK
6
CONTINUOUS
10
125.2270389999999907
20
-43.519566999999995
11
125.25
21
-43.5150000000000006
0
LINE
8
BLACK
6
CONTINUOUS
10
125.25
20
-43.5150000000000006
11
139.25
21
-43.5150000000000006
0
LINE
8
BLACK
6
CONTINUOUS
10
139.25
20
-43.5150000000000006
11
139.2729609999999809
21
-43.519566999999995
0
LINE
8
BLACK
6
CONTINUOUS
10
125.3099999999999881
20
-43.634999999999998
11
125.3099999999999881
21
-57.5150000000000006
0
LINE
8
BLACK
6
CONTINUOUS
10
125.3099999999999881
20
-57.5150000000000006
11
139.1899999999999977
21
-57.5150000000000006
0
LINE
8
BLACK
6
CONTINUOUS
10
139.1899999999999977
20
-57.5150000000000006
11
139.1899999999999977
21
-43.634999999999998
0
LINE
8
BLACK
6
CONTINUOUS
10
139.1899999999999977
20
-43.634999999999998
11
125.3099999999999881
21
-43.634999999999998
0
LINE
8
BLACK
6
CONTINUOUS
10
82.2729609999999951
20
-31.6445669999999986
11
82.3054329999999936
21
-31.6770389999999971
0
LINE
8
BLACK
6
CONTINUOUS
10
82.3054329999999936
20
-31.6770389999999971
11
82.3100000000000023
21
-31.6999999999999993
0
LINE
8
BLACK
6
CONTINUOUS
10
82.3100000000000023
20
-31.6999999999999993
11
82.3100000000000023
21
-45.6999999999999957
0
LINE
8
BLACK
6
CONTINUOUS
10
82.3100000000000023
20
-45.6999999999999957
11
82.3054329999999936
21
-45.722960999999998
0
LINE
8
BLACK
6
CONTINUOUS
10
82.3054329999999936
20
-45.722960999999998
11
82.2729609999999951
21
-45.7554329999999965
0
LINE
8
BLACK
6
CONTINUOUS
10
82.2729609999999951
20
-45.7554329999999965
11
82.25
21
-45.759999999999998
0
LINE
8
BLACK
6
CONTINUOUS
10
82.25
20
-45.759999999999998
11
68.25
21
-45.759999999999998
0
LINE
8
BLACK
6
CONTINUOUS
10
68.25
20
-45.759999999999998
11
68.2270389999999907
21
-45.7554329999999965
0
LINE
8
BLACK
6
CONTINUOUS
10
68.2270389999999907
20
-45.7554329999999965
11
68.1945669999999922
21
-45.722960999999998
0
LINE
8
BLACK
6
CONTINUOUS
10
68.1945669999999922
20
-45.722960999999998
11
68.1899999999999977
21
-45.6999999999999957
0
LINE
8
BLACK
6
CONTINUOUS
10
68.1899999999999977
20
-45.6999999999999957
11
68.1899999999999977
21
-31.6999999999999993
0
LINE
8
BLACK
6
CONTINUOUS
10
68.1899999999999977
20
-31.6999999999999993
11
68.1945669999999922
21
-31.6770389999999971
0
LINE
8
BLACK
6
CONTINUOUS
10
68.1945669999999922
20
-31.6770389999999971
11
68.2270389999999907
21
-31.6445669999999986
0
LINE
8
BLACK
6
CONTINUOUS
10
68.2270389999999907
20
-31.6445669999999986
11
68.25
21
-31.639999999999997
0
LINE
8
BLACK
6
CONTINUOUS
10
68.25
20
-31.639999999999997
11
82.25
21
-31.639999999999997
0
LINE
8
BLACK
6
CONTINUOUS
10
82.25
20
-31.639999999999997
11
82.2729609999999951
21
-31.6445669999999986
0
LINE
8
BLACK
6
CONTINUOUS
10
68.3100000000000023
20
-31.759999999999998
11
68.3100000000000023
21
-45.6400000000000006
0
LINE
8
BLACK
6
CONTINUOUS
10
68.3100000000000023
20
-45.6400000000000006
11
82.1899999999999977
21
-45.6400000000000006
0
LINE
8
BLACK
6
CONTINUOUS
10
82.1899999999999977
20
-45.6400000000000006
11
82.1899999999999977
21
-31.759999999999998
0
LINE
8
BLACK
6
CONTINUOUS
10
82.1899999999999977
20
-31.759999999999998
11
68.3100000000000023
21
-31.759999999999998
0
LINE
8
BLACK
6
CONTINUOUS
10
101.2729609999999951
20
-31.6445669999999986
11
101.3054329999999936
21
-31.6770389999999971
0
LINE
8
BLACK
6
CONTINUOUS
10
101.3054329999999936
20
-31.6770389999999971
11
101.3100000000000023
21
-31.6999999999999993
0
LINE
8
BLACK
6
CONTINUOUS
10
101.3100000000000023
20
-31.6999999999999993
11
101.3100000000000023
21
-45.6999999999999957
0
LINE
8
BLACK
6
CONTINUOUS
10
101.3100000000000023
20
-45.6999999999999957
11
101.3054329999999936
21
-45.722960999999998
0
LINE
8
BLACK
6
CONTINUOUS
10
101.3054329999999936
20
-45.722960999999998
11
101.2729609999999951
21
-45.7554329999999965
0
LINE
8
BLACK
6
CONTINUOUS
10
101.2729609999999951
20
-45.7554329999999965
11
101.25
21
-45.759999999999998
0
LINE
8
BLACK
6
CONTINUOUS
10
101.25
20
-45.759999999999998
11
87.25
21
-45.759999999999998
0
LINE
8
BLACK
6
CONTINUOUS
10
87.25
20
-45.759999999999998
11
87.2270389999999907
21
-45.7554329999999965
0
LINE
8
BLACK
6
CONTINUOUS
10
87.2270389999999907
20
-45.7554329999999965
11
87.1945669999999922
21
-45.722960999999998
0
LINE
8
BLACK
6
CONTINUOUS
10
87.1945669999999922
20
-45.722960999999998
11
87.1899999999999977
21
-45.6999999999999957
0
LINE
8
BLACK
6
CONTINUOUS
10
87.1899999999999977
20
-45.6999999999999957
11
87.1899999999999977
21
-31.6999999999999993
0
LINE
8
BLACK
6
CONTINUOUS
10
87.1899999999999977
20
-31.6999999999999993
11
87.1945669999999922
21
-31.6770389999999971
0
LINE
8
BLACK
6
CONTINUOUS
10
87.1945669999999922
20
-31.6770389999999971
11
87.2270389999999907
21
-31.6445669999999986
0
LINE
8
BLACK
6
CONTINUOUS
10
87.2270389999999907
20
-31.6445669999999986
11
87.25
21
-31.639999999999997
0
LINE
8
BLACK
6
CONTINUOUS
10
87.25
20
-31.639999999999997
11
101.25
21
-31.639999999999997
0
LINE
8
BLACK
6
CONTINUOUS
10
101.25
20
-31.639999999999997
11
101.2729609999999951
21
-31.6445669999999986
0
LINE
8
BLACK
6
CONTINUOUS
10
87.3100000000000023
20
-31.759999999999998
11
87.3100000000000023
21
-45.6400000000000006
0
LINE
8
BLACK
6
CONTINUOUS
10
87.3100000000000023
20
-45.6400000000000006
11
101.1899999999999977
21
-45.6400000000000006
0
LINE
8
BLACK
6
CONTINUOUS
10
101.1899999999999977
20
-45.6400000000000006
11
101.1899999999999977
21
-31.759999999999998
0
LINE
8
BLACK
6
CONTINUOUS
10
101.1899999999999977
20
-31.759999999999998
11
87.3100000000000023
21
-31.759999999999998
0
LINE
8
BLACK
6
CONTINUOUS
10
177.2729609999999809
20
-29.2695669999999986
11
177.3054329999999936
21
-29.3020389999999971
0
LINE
8
BLACK
6
CONTINUOUS
10
177.3054329999999936
20
-29.3020389999999971
11
177.3100000000000023
21
-29.3249999999999993
0
LINE
8
BLACK
6
CONTINUOUS
10
177.3100000000000023
20
-29.3249999999999993
11
177.3100000000000023
21
-43.3249999999999957
0
LINE
8
BLACK
6
CONTINUOUS
10
177.3100000000000023
20
-43.3249999999999957
11
177.3054329999999936
21
-43.347960999999998
0
LINE
8
BLACK
6
CONTINUOUS
10
177.3054329999999936
20
-43.347960999999998
11
177.2729609999999809
21
-43.3804329999999965
0
LINE
8
BLACK
6
CONTINUOUS
10
177.2729609999999809
20
-43.3804329999999965
11
177.25
21
-43.384999999999998
0
LINE
8
BLACK
6
CONTINUOUS
10
177.25
20
-43.384999999999998
11
163.25
21
-43.384999999999998
0
LINE
8
BLACK
6
CONTINUOUS
10
163.25
20
-43.384999999999998
11
163.2270389999999907
21
-43.3804329999999965
0
LINE
8
BLACK
6
CONTINUOUS
10
163.2270389999999907
20
-43.3804329999999965
11
163.1945670000000064
21
-43.347960999999998
0
LINE
8
BLACK
6
CONTINUOUS
10
163.1945670000000064
20
-43.347960999999998
11
163.1899999999999977
21
-43.3249999999999957
0
LINE
8
BLACK
6
CONTINUOUS
10
163.1899999999999977
20
-43.3249999999999957
11
163.1899999999999977
21
-29.3249999999999993
0
LINE
8
BLACK
6
CONTINUOUS
10
163.1899999999999977
20
-29.3249999999999993
11
163.1945670000000064
21
-29.3020389999999971
0
LINE
8
BLACK
6
CONTINUOUS
10
163.1945670000000064
20
-29.3020389999999971
11
163.2270389999999907
21
-29.2695669999999986
0
LINE
8
BLACK
6
CONTINUOUS
10
163.2270389999999907
20
-29.2695669999999986
11
163.25
21
-29.264999999999997
0
LINE
8
BLACK
6
CONTINUOUS
10
163.25
20
-29.264999999999997
11
177.25
21
-29.264999999999997
0
LINE
8
BLACK
6
CONTINUOUS
10
177.25
20
-29.264999999999997
11
177.2729609999999809
21
-29.2695669999999986
0
LINE
8
BLACK
6
CONTINUOUS
10
163.3100000000000023
20
-29.384999999999998
11
163.3100000000000023
21
-43.2650000000000006
0
LINE
8
BLACK
6
CONTINUOUS
10
163.3100000000000023
20
-43.2650000000000006
11
177.1899999999999977
21
-43.2650000000000006
0
LINE
8
BLACK
6
CONTINUOUS
10
177.1899999999999977
20
-43.2650000000000006
11
177.1899999999999977
21
-29.384999999999998
0
LINE
8
BLACK
6
CONTINUOUS
10
177.1899999999999977
20
-29.384999999999998
11
163.3100000000000023
21
-29.384999999999998
0
LINE
8
BLACK
6
CONTINUOUS
10
120.2729609999999951
20
-26.8945669999999986
11
120.3054329999999936
21
-26.9270389999999971
0
LINE
8
BLACK
6
CONTINUOUS
10
120.3054329999999936
20
-26.9270389999999971
11
120.3099999999999881
21
-26.9499999999999993
0
LINE
8
BLACK
6
CONTINUOUS
10
120.3099999999999881
20
-26.9499999999999993
11
120.3099999999999881
21
-40.9499999999999957
0
LINE
8
BLACK
6
CONTINUOUS
10
120.3099999999999881
20
-40.9499999999999957
11
120.3054329999999936
21
-40.972960999999998
0
LINE
8
BLACK
6
CONTINUOUS
10
120.3054329999999936
20
-40.972960999999998
11
120.2729609999999951
21
-41.0054329999999965
0
LINE
8
BLACK
6
CONTINUOUS
10
120.2729609999999951
20
-41.0054329999999965
11
120.25
21
-41.009999999999998
0
LINE
8
BLACK
6
CONTINUOUS
10
120.25
20
-41.009999999999998
11
106.25
21
-41.009999999999998
0
LINE
8
BLACK
6
CONTINUOUS
10
106.25
20
-41.009999999999998
11
106.2270389999999907
21
-41.0054329999999965
0
LINE
8
BLACK
6
CONTINUOUS
10
106.2270389999999907
20
-41.0054329999999965
11
106.1945669999999922
21
-40.972960999999998
0
LINE
8
BLACK
6
CONTINUOUS
10
106.1945669999999922
20
-40.972960999999998
11
106.1899999999999977
21
-40.9499999999999957
0
LINE
8
BLACK
6
CONTINUOUS
10
106.1899999999999977
20
-40.9499999999999957
11
106.1899999999999977
21
-26.9499999999999993
0
LINE
8
BLACK
6
CONTINUOUS
10
106.1899999999999977
20
-26.9499999999999993
11
106.1945669999999922
21
-26.9270389999999971
0
LINE
8
BLACK
6
CONTINUOUS
10
106.1945669999999922
20
-26.9270389999999971
11
106.2270389999999907
21
-26.8945669999999986
0
LINE
8
BLACK
6
CONTINUOUS
10
106.2270389999999907
20
-26.8945669999999986
11
106.25
21
-26.889999999999997
0
LINE
8
BLACK
6
CONTINUOUS
10
106.25
20
-26.889999999999997
11
120.25
21
-26.889999999999997
0
LINE
8
BLACK
6
CONTINUOUS
10
120.25
20
-26.889999999999997
11
120.2729609999999951
21
-26.8945669999999986
0
LINE
8
BLACK
6
CONTINUOUS
10
106.3100000000000023
20
-27.009999999999998
11
106.3100000000000023
21
-40.8900000000000006
0
LINE
8
BLACK
6
CONTINUOUS
10
106.3100000000000023
20
-40.8900000000000006
11
120.1899999999999977
21
-40.8900000000000006
0
LINE
8
BLACK
6
CONTINUOUS
10
120.1899999999999977
20
-40.8900000000000006
11
120.1899999999999977
21
-27.009999999999998
0
LINE
8
BLACK
6
CONTINUOUS
10
120.1899999999999977
20
-27.009999999999998
11
106.3100000000000023
21
-27.009999999999998
0
LINE
8
BLACK
6
CONTINUOUS
10
158.2729609999999809
20
-26.8945669999999986
11
158.3054329999999936
21
-26.9270389999999971
0
LINE
8
BLACK
6
CONTINUOUS
10
158.3054329999999936
20
-26.9270389999999971
11
158.3100000000000023
21
-26.9499999999999993
0
LINE
8
BLACK
6
CONTINUOUS
10
158.3100000000000023
20
-26.9499999999999993
11
158.3100000000000023
21
-40.9499999999999957
0
LINE
8
BLACK
6
CONTINUOUS
10
158.3100000000000023
20
-40.9499999999999957
11
158.3054329999999936
21
-40.972960999999998
0
LINE
8
BLACK
6
CONTINUOUS
10
158.3054329999999936
20
-40.972960999999998
11
158.2729609999999809
21
-41.0054329999999965
0
LINE
8
BLACK
6
CONTINUOUS
10
158.2729609999999809
20
-41.0054329999999965
11
158.25
21
-41.009999999999998
0
LINE
8
BLACK
6
CONTINUOUS
10
158.25
20
-41.009999999999998
11
144.25
21
-41.009999999999998
0
LINE
8
BLACK
6
CONTINUOUS
10
144.25
20
-41.009999999999998
11
144.2270389999999907
21
-41.0054329999999965
0
LINE
8
BLACK
6
CONTINUOUS
10
144.2270389999999907
20
-41.0054329999999965
11
144.1945670000000064
21
-40.972960999999998
0
LINE
8
BLACK
6
CONTINUOUS
10
144.1945670000000064
20
-40.972960999999998
11
144.1899999999999977
21
-40.9499999999999957
0
LINE
8
BLACK
6
CONTINUOUS
10
144.1899999999999977
20
-40.9499999999999957
11
144.1899999999999977
21
-26.9499999999999993
0
LINE
8
BLACK
6
CONTINUOUS
10
144.1899999999999977
20
-26.9499999999999993
11
144.1945670000000064
21
-26.9270389999999971
0
LINE
8
BLACK
6
CONTINUOUS
10
144.1945670000000064
20
-26.9270389999999971
11
144.2270389999999907
21
-26.8945669999999986
0
LINE
8
BLACK
6
CONTINUOUS
10
144.2270389999999907
20
-26.8945669999999986
11
144.25
21
-26.889999999999997
0
LINE
8
BLACK
6
CONTINUOUS
10
144.25
20
-26.889999999999997
11
158.25
21
-26.889999999999997
0
LINE
8
BLACK
6
CONTINUOUS
10
158.25
20
-26.889999999999997
11
158.2729609999999809
21
-26.8945669999999986
0
LINE
8
BLACK
6
CONTINUOUS
10
144.3100000000000023
20
-27.009999999999998
11
144.3100000000000023
21
-40.8900000000000006
0
LINE
8
BLACK
6
CONTINUOUS
10
144.3100000000000023
20
-40.8900000000000006
11
158.1899999999999977
21
-40.8900000000000006
0
LINE
8
BLACK
6
CONTINUOUS
10
158.1899999999999977
20
-40.8900000000000006
11
158.1899999999999977
21
-27.009999999999998
0
LINE
8
BLACK
6
CONTINUOUS
10
158.1899999999999977
20
-27.009999999999998
11
144.3100000000000023
21
-27.009999999999998
0
LINE
8
BLACK
6
CONTINUOUS
10
139.2729609999999809
20
-24.5195669999999986
11
139.3054329999999936
21
-24.5520390000000006
0
LINE
8
BLACK
6
CONTINUOUS
10
139.3054329999999936
20
-24.5520390000000006
11
139.3100000000000023
21
-24.5749999999999993
0
LINE
8
BLACK
6
CONTINUOUS
10
139.3100000000000023
20
-24.5749999999999993
11
139.3100000000000023
21
-38.5749999999999957
0
LINE
8
BLACK
6
CONTINUOUS
10
139.3100000000000023
20
-38.5749999999999957
11
139.3054329999999936
21
-38.597960999999998
0
LINE
8
BLACK
6
CONTINUOUS
10
139.3054329999999936
20
-38.597960999999998
11
139.2729609999999809
21
-38.6304329999999965
0
LINE
8
BLACK
6
CONTINUOUS
10
139.2729609999999809
20
-38.6304329999999965
11
139.25
21
-38.634999999999998
0
LINE
8
BLACK
6
CONTINUOUS
10
139.25
20
-38.634999999999998
11
125.25
21
-38.634999999999998
0
LINE
8
BLACK
6
CONTINUOUS
10
125.25
20
-38.634999999999998
11
125.2270389999999907
21
-38.6304329999999965
0
LINE
8
BLACK
6
CONTINUOUS
10
125.2270389999999907
20
-38.6304329999999965
11
125.1945669999999922
21
-38.597960999999998
0
LINE
8
BLACK
6
CONTINUOUS
10
125.1945669999999922
20
-38.597960999999998
11
125.1899999999999977
21
-38.5749999999999957
0
LINE
8
BLACK
6
CONTINUOUS
10
125.1899999999999977
20
-38.5749999999999957
11
125.1899999999999977
21
-24.5749999999999993
0
LINE
8
BLACK
6
CONTINUOUS
10
125.1899999999999977
20
-24.5749999999999993
11
125.1945669999999922
21
-24.5520390000000006
0
LINE
8
BLACK
6
CONTINUOUS
10
125.1945669999999922
20
-24.5520390000000006
11
125.2270389999999907
21
-24.5195669999999986
0
LINE
8
BLACK
6
CONTINUOUS
10
125.2270389999999907
20
-24.5195669999999986
11
125.25
21
-24.5150000000000006
0
LINE
8
BLACK
6
CONTINUOUS
10
125.25
20
-24.5150000000000006
11
139.25
21
-24.5150000000000006
0
LINE
8
BLACK
6
CONTINUOUS
10
139.25
20
-24.5150000000000006
11
139.2729609999999809
21
-24.5195669999999986
0
LINE
8
BLACK
6
CONTINUOUS
10
125.3099999999999881
20
-24.634999999999998
11
125.3099999999999881
21
-38.5150000000000006
0
LINE
8
BLACK
6
CONTINUOUS
10
125.3099999999999881
20
-38.5150000000000006
11
139.1899999999999977
21
-38.5150000000000006
0
LINE
8
BLACK
6
CONTINUOUS
10
139.1899999999999977
20
-38.5150000000000006
11
139.1899999999999977
21
-24.634999999999998
0
LINE
8
BLACK
6
CONTINUOUS
10
139.1899999999999977
20
-24.634999999999998
11
125.3099999999999881
21
-24.634999999999998
0
LINE
8
BLACK
6
CONTINUOUS
10
140.764632000000006
20
-22.5014409999999998
11
140.7653200000000027
21
-22.5017259999999979
0
LINE
8
BLACK
6
CONTINUOUS
10
140.7653200000000027
20
-22.5017259999999979
11
140.8779499999999985
21
-22.5144160000000007
0
LINE
8
BLACK
6
CONTINUOUS
10
140.8779499999999985
20
-22.5144160000000007
11
140.9994829999999979
21
-22.5569430000000004
0
LINE
8
BLACK
6
CONTINUOUS
10
140.9994829999999979
20
-22.5569430000000004
11
141.108507000000003
21
-22.6254469999999976
0
LINE
8
BLACK
6
CONTINUOUS
10
141.108507000000003
20
-22.6254469999999976
11
141.1995529999999803
21
-22.7164929999999998
0
LINE
8
BLACK
6
CONTINUOUS
10
141.1995529999999803
20
-22.7164929999999998
11
141.2680569999999989
21
-22.8255169999999978
0
LINE
8
BLACK
6
CONTINUOUS
10
141.2680569999999989
20
-22.8255169999999978
11
141.3105840000000057
21
-22.9470499999999973
0
LINE
8
BLACK
6
CONTINUOUS
10
141.3105840000000057
20
-22.9470499999999973
11
141.3232730000000004
21
-23.0596789999999991
0
LINE
8
BLACK
6
CONTINUOUS
10
141.3232730000000004
20
-23.0596789999999991
11
141.3235589999999888
21
-23.0603680000000004
0
LINE
8
BLACK
6
CONTINUOUS
10
141.3235589999999888
20
-23.0603680000000004
11
141.3249999999999886
21
-23.0749999999999993
0
LINE
8
BLACK
6
CONTINUOUS
10
141.3249999999999886
20
-23.0749999999999993
11
141.3249999999999886
21
-24.3249999999999993
0
LINE
8
BLACK
6
CONTINUOUS
10
141.3249999999999886
20
-24.3249999999999993
11
141.3249999999999886
21
-24.3809520000000006
0
LINE
8
BLACK
6
CONTINUOUS
10
141.3249999999999886
20
-24.3809520000000006
11
141.3539629999999931
21
-24.4890439999999998
0
LINE
8
BLACK
6
CONTINUOUS
10
141.3539629999999931
20
-24.4890439999999998
11
141.4099159999999813
21
-24.5859559999999995
0
LINE
8
BLACK
6
CONTINUOUS
10
141.4099159999999813
20
-24.5859559999999995
11
141.4890440000000069
21
-24.6650840000000002
0
LINE
8
BLACK
6
CONTINUOUS
10
141.4890440000000069
20
-24.6650840000000002
11
141.5859559999999817
21
-24.721036999999999
0
LINE
8
BLACK
6
CONTINUOUS
10
141.5859559999999817
20
-24.721036999999999
11
141.6940479999999809
21
-24.75
0
LINE
8
BLACK
6
CONTINUOUS
10
141.6940479999999809
20
-24.75
11
141.75
21
-24.75
0
LINE
8
BLACK
6
CONTINUOUS
10
141.75
20
-24.75
11
159.75
21
-24.75
0
LINE
8
BLACK
6
CONTINUOUS
10
159.75
20
-24.75
11
159.764632000000006
21
-24.7514409999999998
0
LINE
8
BLACK
6
CONTINUOUS
10
159.764632000000006
20
-24.7514409999999998
11
159.7653200000000027
21
-24.7517259999999979
0
LINE
8
BLACK
6
CONTINUOUS
10
159.7653200000000027
20
-24.7517259999999979
11
159.8779499999999985
21
-24.7644160000000007
0
LINE
8
BLACK
6
CONTINUOUS
10
159.8779499999999985
20
-24.7644160000000007
11
159.9994829999999979
21
-24.8069430000000004
0
LINE
8
BLACK
6
CONTINUOUS
10
159.9994829999999979
20
-24.8069430000000004
11
160.108507000000003
21
-24.8754469999999976
0
LINE
8
BLACK
6
CONTINUOUS
10
160.108507000000003
20
-24.8754469999999976
11
160.1995529999999803
21
-24.9664929999999998
0
LINE
8
BLACK
6
CONTINUOUS
10
160.1995529999999803
20
-24.9664929999999998
11
160.2680569999999989
21
-25.0755169999999978
0
LINE
8
BLACK
6
CONTINUOUS
10
160.2680569999999989
20
-25.0755169999999978
11
160.3105840000000057
21
-25.1970499999999973
0
LINE
8
BLACK
6
CONTINUOUS
10
160.3105840000000057
20
-25.1970499999999973
11
160.3232730000000004
21
-25.3096789999999991
0
LINE
8
BLACK
6
CONTINUOUS
10
160.3232730000000004
20
-25.3096789999999991
11
160.3235589999999888
21
-25.3103680000000004
0
LINE
8
BLACK
6
CONTINUOUS
10
160.3235589999999888
20
-25.3103680000000004
11
160.3249999999999886
21
-25.3249999999999993
0
LINE
8
BLACK
6
CONTINUOUS
10
160.3249999999999886
20
-25.3249999999999993
11
160.3249999999999886
21
-26.8249999999999993
0
LINE
8
BLACK
6
CONTINUOUS
10
160.3249999999999886
20
-26.8249999999999993
11
160.3249999999999886
21
-26.8809519999999971
0
LINE
8
BLACK
6
CONTINUOUS
10
160.3249999999999886
20
-26.8809519999999971
11
160.3539629999999931
21
-26.9890439999999998
0
LINE
8
BLACK
6
CONTINUOUS
10
160.3539629999999931
20
-26.9890439999999998
11
160.4099159999999813
21
-27.0859559999999995
0
LINE
8
BLACK
6
CONTINUOUS
10
160.4099159999999813
20
-27.0859559999999995
11
160.4890440000000069
21
-27.1650840000000002
0
LINE
8
BLACK
6
CONTINUOUS
10
160.4890440000000069
20
-27.1650840000000002
11
160.5859559999999817
21
-27.221036999999999
0
LINE
8
BLACK
6
CONTINUOUS
10
160.5859559999999817
20
-27.221036999999999
11
160.6940479999999809
21
-27.25
0
LINE
8
BLACK
6
CONTINUOUS
10
160.6940479999999809
20
-27.25
11
160.75
21
-27.25
0
LINE
8
BLACK
6
CONTINUOUS
10
160.75
20
-27.25
11
199.5
21
-27.25
0
LINE
8
BLACK
6
CONTINUOUS
10
199.5
20
-27.25
11
199.5146319999999776
21
-27.2514409999999998
0
LINE
8
BLACK
6
CONTINUOUS
10
199.5146319999999776
20
-27.2514409999999998
11
199.5153200000000027
21
-27.2517259999999979
0
LINE
8
BLACK
6
CONTINUOUS
10
199.5153200000000027
20
-27.2517259999999979
11
199.6279499999999985
21
-27.2644159999999971
0
LINE
8
BLACK
6
CONTINUOUS
10
199.6279499999999985
20
-27.2644159999999971
11
199.7494829999999979
21
-27.3069430000000004
0
LINE
8
BLACK
6
CONTINUOUS
10
199.7494829999999979
20
-27.3069430000000004
11
199.858507000000003
21
-27.3754469999999976
0
LINE
8
BLACK
6
CONTINUOUS
10
199.858507000000003
20
-27.3754469999999976
11
199.9495529999999803
21
-27.4664929999999998
0
LINE
8
BLACK
6
CONTINUOUS
10
199.9495529999999803
20
-27.4664929999999998
11
200.0180569999999989
21
-27.5755169999999978
0
LINE
8
BLACK
6
CONTINUOUS
10
200.0180569999999989
20
-27.5755169999999978
11
200.0605839999999773
21
-27.6970499999999973
0
LINE
8
BLACK
6
CONTINUOUS
10
200.0605839999999773
20
-27.6970499999999973
11
200.0732730000000004
21
-27.8096789999999991
0
LINE
8
BLACK
6
CONTINUOUS
10
200.0732730000000004
20
-27.8096789999999991
11
200.0735589999999888
21
-27.8103680000000004
0
LINE
8
BLACK
6
CONTINUOUS
10
200.0735589999999888
20
-27.8103680000000004
11
200.0749999999999886
21
-27.8249999999999993
0
LINE
8
BLACK
6
CONTINUOUS
10
200.0749999999999886
20
-27.8249999999999993
11
200.0749999999999886
21
-109.0749999999999886
0
LINE
8
BLACK
6
CONTINUOUS
10
200.0749999999999886
20
-109.0749999999999886
11
200.0735589999999888
21
-109.0896319999999946
0
LINE
8
BLACK
6
CONTINUOUS
10
200.0735589999999888
20
-109.0896319999999946
11
200.0714889999999855
21
-109.0946269999999885
0
LINE
8
BLACK
6
CONTINUOUS
10
200.0714889999999855
20
-109.0946269999999885
11
200.0707179999999994
21
-109.0999809999999997
0
LINE
8
BLACK
6
CONTINUOUS
10
200.0707179999999994
20
-109.0999809999999997
11
200.0644849999999906
21
-109.1132969999999887
0
LINE
8
BLACK
6
CONTINUOUS
10
200.0644849999999906
20
-109.1132969999999887
11
198.9786469999999952
21
-110.9416590000000014
0
LINE
8
BLACK
6
CONTINUOUS
10
198.9786469999999952
20
-110.9416590000000014
11
186.6261590000000012
21
-132.3976930000000038
0
LINE
8
BLACK
6
CONTINUOUS
10
186.6261590000000012
20
-132.3976930000000038
11
186.6237759999999923
21
-132.4010269999999991
0
LINE
8
BLACK
6
CONTINUOUS
10
186.6237759999999923
20
-132.4010269999999991
11
186.6235159999999951
21
-132.4019490000000019
0
LINE
8
BLACK
6
CONTINUOUS
10
186.6235159999999951
20
-132.4019490000000019
11
186.618567999999982
21
-132.4083139999999901
0
LINE
8
BLACK
6
CONTINUOUS
10
186.618567999999982
20
-132.4083139999999901
11
186.6176099999999849
21
-132.4096549999999866
0
LINE
8
BLACK
6
CONTINUOUS
10
186.6176099999999849
20
-132.4096549999999866
11
186.617401000000001
21
-132.4098149999999805
0
LINE
8
BLACK
6
CONTINUOUS
10
186.617401000000001
20
-132.4098149999999805
11
186.4952040000000011
21
-132.5670199999999852
0
LINE
8
BLACK
6
CONTINUOUS
10
186.4952040000000011
20
-132.5670199999999852
11
186.3446569999999838
21
-132.7120999999999924
0
LINE
8
BLACK
6
CONTINUOUS
10
186.3446569999999838
20
-132.7120999999999924
11
186.1749549999999829
21
-132.8342199999999877
0
LINE
8
BLACK
6
CONTINUOUS
10
186.1749549999999829
20
-132.8342199999999877
11
185.9895669999999939
21
-132.9308839999999918
0
LINE
8
BLACK
6
CONTINUOUS
10
185.9895669999999939
20
-132.9308839999999918
11
185.7922859999999901
21
-133.0001129999999989
0
LINE
8
BLACK
6
CONTINUOUS
10
185.7922859999999901
20
-133.0001129999999989
11
185.5871479999999849
21
-133.0404920000000004
0
LINE
8
BLACK
6
CONTINUOUS
10
185.5871479999999849
20
-133.0404920000000004
11
185.3783469999999909
21
-133.051195000000007
0
LINE
8
BLACK
6
CONTINUOUS
10
185.3783469999999909
20
-133.051195000000007
11
185.1701539999999966
21
-133.0320030000000031
0
LINE
8
BLACK
6
CONTINUOUS
10
185.1701539999999966
20
-133.0320030000000031
11
184.9668289999999899
21
-132.9833089999999913
0
LINE
8
BLACK
6
CONTINUOUS
10
184.9668289999999899
20
-132.9833089999999913
11
184.7725289999999916
21
-132.9061089999999865
0
LINE
8
BLACK
6
CONTINUOUS
10
184.7725289999999916
20
-132.9061089999999865
11
184.5972479999999791
21
-132.805437999999981
0
LINE
8
BLACK
6
CONTINUOUS
10
184.5972479999999791
20
-132.805437999999981
11
184.5956209999999942
21
-132.8046999999999969
0
LINE
8
BLACK
6
CONTINUOUS
10
184.5956209999999942
20
-132.8046999999999969
11
170.3089099999999974
21
-124.5481009999999884
0
LINE
8
BLACK
6
CONTINUOUS
10
170.3089099999999974
20
-124.5481009999999884
11
170.2128989999999931
21
-124.5190769999999958
0
LINE
8
BLACK
6
CONTINUOUS
10
170.2128989999999931
20
-124.5190769999999958
11
170.0006219999999928
21
-124.4697729999999893
0
LINE
8
BLACK
6
CONTINUOUS
10
170.0006219999999928
20
-124.4697729999999893
11
169.7855820000000051
21
-124.4344139999999896
0
LINE
8
BLACK
6
CONTINUOUS
10
169.7855820000000051
20
-124.4344139999999896
11
169.6771369999999877
21
-124.4237949999999984
0
LINE
8
BLACK
6
CONTINUOUS
10
169.6771369999999877
20
-124.4237949999999984
11
169.6771369999999877
21
-124.4237940000000009
0
LINE
8
BLACK
6
CONTINUOUS
10
169.6771369999999877
20
-124.4237940000000009
11
169.6766549999999825
21
-124.4235829999999936
0
LINE
8
BLACK
6
CONTINUOUS
10
169.6766549999999825
20
-124.4235829999999936
11
169.6747790000000009
21
-124.4235249999999979
0
LINE
8
BLACK
6
CONTINUOUS
10
169.6747790000000009
20
-124.4235249999999979
11
133.0090429999999913
21
-119.6538079999999979
0
LINE
8
BLACK
6
CONTINUOUS
10
133.0090429999999913
20
-119.6538079999999979
11
113.7500149999999906
21
-119.6538079999999979
0
LINE
8
BLACK
6
CONTINUOUS
10
113.7500149999999906
20
-119.6538079999999979
11
113.75
21
-119.6538079999999979
0
LINE
8
BLACK
6
CONTINUOUS
10
113.75
20
-119.6538079999999979
11
113.735367999999994
21
-119.6523669999999981
0
LINE
8
BLACK
6
CONTINUOUS
10
113.735367999999994
20
-119.6523669999999981
11
113.7346819999999923
21
-119.6520829999999904
0
LINE
8
BLACK
6
CONTINUOUS
10
113.7346819999999923
20
-119.6520829999999904
11
113.6220519999999965
21
-119.639411999999993
0
LINE
8
BLACK
6
CONTINUOUS
10
113.6220519999999965
20
-119.639411999999993
11
113.5005039999999923
21
-119.5968969999999985
0
LINE
8
BLACK
6
CONTINUOUS
10
113.5005039999999923
20
-119.5968969999999985
11
113.3914669999999916
21
-119.5283939999999916
0
LINE
8
BLACK
6
CONTINUOUS
10
113.3914669999999916
20
-119.5283939999999916
11
113.3004119999999944
21
-119.4373409999999893
0
LINE
8
BLACK
6
CONTINUOUS
10
113.3004119999999944
20
-119.4373409999999893
11
113.2319069999999925
21
-119.3283050000000003
0
LINE
8
BLACK
6
CONTINUOUS
10
113.2319069999999925
20
-119.3283050000000003
11
113.1893899999999888
21
-119.2067569999999961
0
LINE
8
BLACK
6
CONTINUOUS
10
113.1893899999999888
20
-119.2067569999999961
11
113.1767139999999898
21
-119.0940989999999999
0
LINE
8
BLACK
6
CONTINUOUS
10
113.1767139999999898
20
-119.0940989999999999
11
113.176440999999997
21
-119.0934400000000011
0
LINE
8
BLACK
6
CONTINUOUS
10
113.176440999999997
20
-119.0934400000000011
11
113.1750449999999972
21
-119.0792649999999924
0
LINE
8
BLACK
6
CONTINUOUS
10
113.1750449999999972
20
-119.0792649999999924
11
113.1749919999999889
21
-119.0787939999999878
0
LINE
8
BLACK
6
CONTINUOUS
10
113.1749919999999889
20
-119.0787939999999878
11
113.1749999999999972
21
-119.0787939999999878
0
LINE
8
BLACK
6
CONTINUOUS
10
113.1749999999999972
20
-119.0787939999999878
11
113.1749999999999972
21
-105.3288219999999882
0
LINE
8
BLACK
6
CONTINUOUS
10
113.1749999999999972
20
-105.3288219999999882
11
113.1749919999999889
21
-105.3288219999999882
0
LINE
8
BLACK
6
CONTINUOUS
10
113.1749919999999889
20
-105.3288219999999882
11
113.1749829999999974
21
-105.272870999999995
0
LINE
8
BLACK
6
CONTINUOUS
10
113.1749829999999974
20
-105.272870999999995
11
113.1460079999999948
21
-105.1647859999999923
0
LINE
8
BLACK
6
CONTINUOUS
10
113.1460079999999948
20
-105.1647859999999923
11
113.090052
21
-105.0678789999999907
0
LINE
8
BLACK
6
CONTINUOUS
10
113.090052
20
-105.0678789999999907
11
113.0109259999999978
21
-104.988751999999991
0
LINE
8
BLACK
6
CONTINUOUS
10
113.0109259999999978
20
-104.988751999999991
11
112.9140209999999911
21
-104.9327940000000012
0
LINE
8
BLACK
6
CONTINUOUS
10
112.9140209999999911
20
-104.9327940000000012
11
112.8059359999999884
21
-104.9038180000000011
0
LINE
8
BLACK
6
CONTINUOUS
10
112.8059359999999884
20
-104.9038180000000011
11
112.7499849999999952
21
-104.9038079999999979
0
LINE
8
BLACK
6
CONTINUOUS
10
112.7499849999999952
20
-104.9038079999999979
11
66.7638979999999975
21
-104.9038079999999979
0
LINE
8
BLACK
6
CONTINUOUS
10
66.7638979999999975
20
-104.9038079999999979
11
66.7492659999999915
21
-104.9023669999999981
0
LINE
8
BLACK
6
CONTINUOUS
10
66.7492659999999915
20
-104.9023669999999981
11
66.7489879999999971
21
-104.9022519999999901
0
LINE
8
BLACK
6
CONTINUOUS
10
66.7489879999999971
20
-104.9022519999999901
11
66.6347009999999926
21
-104.8915229999999923
0
LINE
8
BLACK
6
CONTINUOUS
10
66.6347009999999926
20
-104.8915229999999923
11
66.5101259999999996
21
-104.8501169999999973
0
LINE
8
BLACK
6
CONTINUOUS
10
66.5101259999999996
20
-104.8501169999999973
11
66.3980870000000039
21
-104.7817050000000023
0
LINE
8
BLACK
6
CONTINUOUS
10
66.3980870000000039
20
-104.7817050000000023
11
66.3043440000000004
21
-104.6898049999999927
0
LINE
8
BLACK
6
CONTINUOUS
10
66.3043440000000004
20
-104.6898049999999927
11
66.2337220000000002
21
-104.5791449999999969
0
LINE
8
BLACK
6
CONTINUOUS
10
66.2337220000000002
20
-104.5791449999999969
11
66.1898520000000019
21
-104.4554169999999971
0
LINE
8
BLACK
6
CONTINUOUS
10
66.1898520000000019
20
-104.4554169999999971
11
66.1767419999999902
21
-104.3403599999999898
0
LINE
8
BLACK
6
CONTINUOUS
10
66.1767419999999902
20
-104.3403599999999898
11
66.176440999999997
21
-104.3396319999999946
0
LINE
8
BLACK
6
CONTINUOUS
10
66.176440999999997
20
-104.3396319999999946
11
66.1750459999999947
21
-104.3254709999999932
0
LINE
8
BLACK
6
CONTINUOUS
10
66.1750459999999947
20
-104.3254709999999932
11
66.1749909999999915
21
-104.3249849999999981
0
LINE
8
BLACK
6
CONTINUOUS
10
66.1749909999999915
20
-104.3249849999999981
11
66.1749999999999972
21
-104.3249849999999981
0
LINE
8
BLACK
6
CONTINUOUS
10
66.1749999999999972
20
-104.3249849999999981
11
66.1749999999999972
21
-30.0749999999999993
0
LINE
8
BLACK
6
CONTINUOUS
10
66.1749999999999972
20
-30.0749999999999993
11
66.1750009999999946
21
-30.0749879999999976
0
LINE
8
BLACK
6
CONTINUOUS
10
66.1750009999999946
20
-30.0749879999999976
11
66.1749999999999972
21
-30.0749849999999981
0
LINE
8
BLACK
6
CONTINUOUS
10
66.1749999999999972
20
-30.0749849999999981
11
66.1750109999999978
21
-30.0748819999999988
0
LINE
8
BLACK
6
CONTINUOUS
10
66.1750109999999978
20
-30.0748819999999988
11
66.176440999999997
21
-30.0603679999999969
0
LINE
8
BLACK
6
CONTINUOUS
10
66.176440999999997
20
-30.0603679999999969
11
66.1767269999999996
21
-30.0596759999999996
0
LINE
8
BLACK
6
CONTINUOUS
10
66.1767269999999996
20
-30.0596759999999996
11
66.1894369999999981
21
-29.9470479999999988
0
LINE
8
BLACK
6
CONTINUOUS
10
66.1894369999999981
20
-29.9470479999999988
11
66.2319739999999939
21
-29.8255289999999995
0
LINE
8
BLACK
6
CONTINUOUS
10
66.2319739999999939
20
-29.8255289999999995
11
66.3004789999999957
21
-29.7165179999999971
0
LINE
8
BLACK
6
CONTINUOUS
10
66.3004789999999957
20
-29.7165179999999971
11
66.3915179999999907
21
-29.6254789999999986
0
LINE
8
BLACK
6
CONTINUOUS
10
66.3915179999999907
20
-29.6254789999999986
11
66.5005290000000002
21
-29.5569740000000003
0
LINE
8
BLACK
6
CONTINUOUS
10
66.5005290000000002
20
-29.5569740000000003
11
66.6220479999999924
21
-29.5144369999999974
0
LINE
8
BLACK
6
CONTINUOUS
10
66.6220479999999924
20
-29.5144369999999974
11
66.7346759999999932
21
-29.5017269999999989
0
LINE
8
BLACK
6
CONTINUOUS
10
66.7346759999999932
20
-29.5017269999999989
11
66.735367999999994
21
-29.5014409999999998
0
LINE
8
BLACK
6
CONTINUOUS
10
66.735367999999994
20
-29.5014409999999998
11
66.7498819999999995
21
-29.5000109999999971
0
LINE
8
BLACK
6
CONTINUOUS
10
66.7498819999999995
20
-29.5000109999999971
11
66.7499849999999952
21
-29.5
0
LINE
8
BLACK
6
CONTINUOUS
10
66.7499849999999952
20
-29.5
11
66.7499880000000019
21
-29.5000009999999975
0
LINE
8
BLACK
6
CONTINUOUS
10
66.7499880000000019
20
-29.5000009999999975
11
66.75
21
-29.5
0
LINE
8
BLACK
6
CONTINUOUS
10
66.75
20
-29.5
11
83.75
21
-29.5
0
LINE
8
BLACK
6
CONTINUOUS
10
83.75
20
-29.5
11
85.75
21
-29.5
0
LINE
8
BLACK
6
CONTINUOUS
10
85.75
20
-29.5
11
103.75
21
-29.5
0
LINE
8
BLACK
6
CONTINUOUS
10
103.75
20
-29.5
11
103.7500110000000006
21
-29.5000009999999975
0
LINE
8
BLACK
6
CONTINUOUS
10
103.7500110000000006
20
-29.5000009999999975
11
103.7500149999999906
21
-29.5
0
LINE
8
BLACK
6
CONTINUOUS
10
103.7500149999999906
20
-29.5
11
103.8059679999999929
21
-29.5000089999999986
0
LINE
8
BLACK
6
CONTINUOUS
10
103.8059679999999929
20
-29.5000089999999986
11
103.9140659999999912
21
-29.4710599999999978
0
LINE
8
BLACK
6
CONTINUOUS
10
103.9140659999999912
20
-29.4710599999999978
11
104.010982999999996
21
-29.4151129999999981
0
LINE
8
BLACK
6
CONTINUOUS
10
104.010982999999996
20
-29.4151129999999981
11
104.0901130000000023
21
-29.3359829999999988
0
LINE
8
BLACK
6
CONTINUOUS
10
104.0901130000000023
20
-29.3359829999999988
11
104.1460599999999914
21
-29.2390659999999976
0
LINE
8
BLACK
6
CONTINUOUS
10
104.1460599999999914
20
-29.2390659999999976
11
104.1750089999999886
21
-29.1309679999999993
0
LINE
8
BLACK
6
CONTINUOUS
10
104.1750089999999886
20
-29.1309679999999993
11
104.1749999999999972
21
-29.0750149999999969
0
LINE
8
BLACK
6
CONTINUOUS
10
104.1749999999999972
20
-29.0750149999999969
11
104.1750009999999946
21
-29.0750109999999999
0
LINE
8
BLACK
6
CONTINUOUS
10
104.1750009999999946
20
-29.0750109999999999
11
104.1749999999999972
21
-29.0749999999999993
0
LINE
8
BLACK
6
CONTINUOUS
10
104.1749999999999972
20
-29.0749999999999993
11
104.1749999999999972
21
-25.3249999999999993
0
LINE
8
BLACK
6
CONTINUOUS
10
104.1749999999999972
20
-25.3249999999999993
11
104.1750009999999946
21
-25.3249879999999976
0
LINE
8
BLACK
6
CONTINUOUS
10
104.1750009999999946
20
-25.3249879999999976
11
104.1749999999999972
21
-25.3249849999999981
0
LINE
8
BLACK
6
CONTINUOUS
10
104.1749999999999972
20
-25.3249849999999981
11
104.1750109999999978
21
-25.3248819999999988
0
LINE
8
BLACK
6
CONTINUOUS
10
104.1750109999999978
20
-25.3248819999999988
11
104.176440999999997
21
-25.3103680000000004
0
LINE
8
BLACK
6
CONTINUOUS
10
104.176440999999997
20
-25.3103680000000004
11
104.1767269999999996
21
-25.3096759999999996
0
LINE
8
BLACK
6
CONTINUOUS
10
104.1767269999999996
20
-25.3096759999999996
11
104.1894369999999981
21
-25.1970479999999988
0
LINE
8
BLACK
6
CONTINUOUS
10
104.1894369999999981
20
-25.1970479999999988
11
104.2319739999999939
21
-25.0755289999999995
0
LINE
8
BLACK
6
CONTINUOUS
10
104.2319739999999939
20
-25.0755289999999995
11
104.3004789999999957
21
-24.9665179999999971
0
LINE
8
BLACK
6
CONTINUOUS
10
104.3004789999999957
20
-24.9665179999999971
11
104.3915179999999907
21
-24.8754789999999986
0
LINE
8
BLACK
6
CONTINUOUS
10
104.3915179999999907
20
-24.8754789999999986
11
104.5005290000000002
21
-24.8069740000000003
0
LINE
8
BLACK
6
CONTINUOUS
10
104.5005290000000002
20
-24.8069740000000003
11
104.6220479999999924
21
-24.7644369999999974
0
LINE
8
BLACK
6
CONTINUOUS
10
104.6220479999999924
20
-24.7644369999999974
11
104.7346759999999932
21
-24.7517269999999989
0
LINE
8
BLACK
6
CONTINUOUS
10
104.7346759999999932
20
-24.7517269999999989
11
104.735367999999994
21
-24.7514409999999998
0
LINE
8
BLACK
6
CONTINUOUS
10
104.735367999999994
20
-24.7514409999999998
11
104.7498819999999995
21
-24.7500110000000006
0
LINE
8
BLACK
6
CONTINUOUS
10
104.7498819999999995
20
-24.7500110000000006
11
104.7499849999999952
21
-24.75
0
LINE
8
BLACK
6
CONTINUOUS
10
104.7499849999999952
20
-24.75
11
104.7499880000000019
21
-24.7500009999999975
0
LINE
8
BLACK
6
CONTINUOUS
10
104.7499880000000019
20
-24.7500009999999975
11
104.75
21
-24.75
0
LINE
8
BLACK
6
CONTINUOUS
10
104.75
20
-24.75
11
122.75
21
-24.75
0
LINE
8
BLACK
6
CONTINUOUS
10
122.75
20
-24.75
11
122.7500110000000006
21
-24.7500009999999975
0
LINE
8
BLACK
6
CONTINUOUS
10
122.7500110000000006
20
-24.7500009999999975
11
122.7500149999999906
21
-24.75
0
LINE
8
BLACK
6
CONTINUOUS
10
122.7500149999999906
20
-24.75
11
122.8059679999999929
21
-24.7500089999999986
0
LINE
8
BLACK
6
CONTINUOUS
10
122.8059679999999929
20
-24.7500089999999986
11
122.9140659999999912
21
-24.7210599999999978
0
LINE
8
BLACK
6
CONTINUOUS
10
122.9140659999999912
20
-24.7210599999999978
11
123.010982999999996
21
-24.6651129999999981
0
LINE
8
BLACK
6
CONTINUOUS
10
123.010982999999996
20
-24.6651129999999981
11
123.0901129999999881
21
-24.5859829999999988
0
LINE
8
BLACK
6
CONTINUOUS
10
123.0901129999999881
20
-24.5859829999999988
11
123.1460599999999914
21
-24.4890659999999976
0
LINE
8
BLACK
6
CONTINUOUS
10
123.1460599999999914
20
-24.4890659999999976
11
123.1750089999999886
21
-24.3809679999999993
0
LINE
8
BLACK
6
CONTINUOUS
10
123.1750089999999886
20
-24.3809679999999993
11
123.1749999999999972
21
-24.3250150000000005
0
LINE
8
BLACK
6
CONTINUOUS
10
123.1749999999999972
20
-24.3250150000000005
11
123.1750009999999946
21
-24.3250109999999999
0
LINE
8
BLACK
6
CONTINUOUS
10
123.1750009999999946
20
-24.3250109999999999
11
123.1749999999999972
21
-24.3249999999999993
0
LINE
8
BLACK
6
CONTINUOUS
10
123.1749999999999972
20
-24.3249999999999993
11
123.1749999999999972
21
-23.0749999999999993
0
LINE
8
BLACK
6
CONTINUOUS
10
123.1749999999999972
20
-23.0749999999999993
11
123.1750009999999946
21
-23.0749879999999976
0
LINE
8
BLACK
6
CONTINUOUS
10
123.1750009999999946
20
-23.0749879999999976
11
123.1749999999999972
21
-23.0749849999999981
0
LINE
8
BLACK
6
CONTINUOUS
10
123.1749999999999972
20
-23.0749849999999981
11
123.1750109999999978
21
-23.0748819999999988
0
LINE
8
BLACK
6
CONTINUOUS
10
123.1750109999999978
20
-23.0748819999999988
11
123.176440999999997
21
-23.0603680000000004
0
LINE
8
BLACK
6
CONTINUOUS
10
123.176440999999997
20
-23.0603680000000004
11
123.1767269999999996
21
-23.0596759999999996
0
LINE
8
BLACK
6
CONTINUOUS
10
123.1767269999999996
20
-23.0596759999999996
11
123.1894369999999981
21
-22.9470479999999988
0
LINE
8
BLACK
6
CONTINUOUS
10
123.1894369999999981
20
-22.9470479999999988
11
123.2319739999999939
21
-22.8255289999999995
0
LINE
8
BLACK
6
CONTINUOUS
10
123.2319739999999939
20
-22.8255289999999995
11
123.3004789999999957
21
-22.7165180000000007
0
LINE
8
BLACK
6
CONTINUOUS
10
123.3004789999999957
20
-22.7165180000000007
11
123.3915179999999907
21
-22.6254789999999986
0
LINE
8
BLACK
6
CONTINUOUS
10
123.3915179999999907
20
-22.6254789999999986
11
123.5005290000000002
21
-22.5569740000000003
0
LINE
8
BLACK
6
CONTINUOUS
10
123.5005290000000002
20
-22.5569740000000003
11
123.6220479999999924
21
-22.5144369999999974
0
LINE
8
BLACK
6
CONTINUOUS
10
123.6220479999999924
20
-22.5144369999999974
11
123.7346759999999932
21
-22.5017269999999989
0
LINE
8
BLACK
6
CONTINUOUS
10
123.7346759999999932
20
-22.5017269999999989
11
123.735367999999994
21
-22.5014409999999998
0
LINE
8
BLACK
6
CONTINUOUS
10
123.735367999999994
20
-22.5014409999999998
11
123.7498819999999995
21
-22.5000110000000006
0
LINE
8
BLACK
6
CONTINUOUS
10
123.7498819999999995
20
-22.5000110000000006
11
123.7499849999999952
21
-22.5
0
LINE
8
BLACK
6
CONTINUOUS
10
123.7499849999999952
20
-22.5
11
123.7499879999999877
21
-22.5000009999999975
0
LINE
8
BLACK
6
CONTINUOUS
10
123.7499879999999877
20
-22.5000009999999975
11
123.75
21
-22.5
0
LINE
8
BLACK
6
CONTINUOUS
10
123.75
20
-22.5
11
140.75
21
-22.5
0
LINE
8
BLACK
6
CONTINUOUS
10
140.75
20
-22.5
11
140.764632000000006
21
-22.5014409999999998
0
LINE
8
BLACK
6
CONTINUOUS
10
123.7500149999999906
20
-22.6499999999999986
11
123.6940639999999973
21
-22.6500099999999982
0
LINE
8
BLACK
6
CONTINUOUS
10
123.6940639999999973
20
-22.6500099999999982
11
123.5859779999999972
21
-22.6789859999999983
0
LINE
8
BLACK
6
CONTINUOUS
10
123.5859779999999972
20
-22.6789859999999983
11
123.4890709999999956
21
-22.7349439999999987
0
LINE
8
BLACK
6
CONTINUOUS
10
123.4890709999999956
20
-22.7349439999999987
11
123.4099439999999959
21
-22.8140709999999984
0
LINE
8
BLACK
6
CONTINUOUS
10
123.4099439999999959
20
-22.8140709999999984
11
123.3539859999999919
21
-22.9109780000000001
0
LINE
8
BLACK
6
CONTINUOUS
10
123.3539859999999919
20
-22.9109780000000001
11
123.3250099999999918
21
-23.0190640000000002
0
LINE
8
BLACK
6
CONTINUOUS
10
123.3250099999999918
20
-23.0190640000000002
11
123.3249999999999886
21
-23.0749999999999993
0
LINE
8
BLACK
6
CONTINUOUS
10
123.3249999999999886
20
-23.0749999999999993
11
123.3249999999999886
21
-24.3249999999999993
0
LINE
8
BLACK
6
CONTINUOUS
10
123.3249999999999886
20
-24.3249999999999993
11
123.3235589999999888
21
-24.3396319999999982
0
LINE
8
BLACK
6
CONTINUOUS
10
123.3235589999999888
20
-24.3396319999999982
11
123.3232749999999953
21
-24.3403169999999989
0
LINE
8
BLACK
6
CONTINUOUS
10
123.3232749999999953
20
-24.3403169999999989
11
123.3106039999999979
21
-24.4529469999999982
0
LINE
8
BLACK
6
CONTINUOUS
10
123.3106039999999979
20
-24.4529469999999982
11
123.2680879999999917
21
-24.5744949999999989
0
LINE
8
BLACK
6
CONTINUOUS
10
123.2680879999999917
20
-24.5744949999999989
11
123.199584999999999
21
-24.6835309999999986
0
LINE
8
BLACK
6
CONTINUOUS
10
123.199584999999999
20
-24.6835309999999986
11
123.1085309999999993
21
-24.7745849999999983
0
LINE
8
BLACK
6
CONTINUOUS
10
123.1085309999999993
20
-24.7745849999999983
11
122.999494999999996
21
-24.8430879999999981
0
LINE
8
BLACK
6
CONTINUOUS
10
122.999494999999996
20
-24.8430879999999981
11
122.8779469999999918
21
-24.8856039999999972
0
LINE
8
BLACK
6
CONTINUOUS
10
122.8779469999999918
20
-24.8856039999999972
11
122.765316999999996
21
-24.8982749999999982
0
LINE
8
BLACK
6
CONTINUOUS
10
122.765316999999996
20
-24.8982749999999982
11
122.7646319999999918
21
-24.8985589999999988
0
LINE
8
BLACK
6
CONTINUOUS
10
122.7646319999999918
20
-24.8985589999999988
11
122.75
21
-24.8999999999999986
0
LINE
8
BLACK
6
CONTINUOUS
10
122.75
20
-24.8999999999999986
11
122.7499849999999952
21
-24.8999999999999986
0
LINE
8
BLACK
6
CONTINUOUS
10
122.7499849999999952
20
-24.8999999999999986
11
104.7500149999999906
21
-24.8999999999999986
0
LINE
8
BLACK
6
CONTINUOUS
10
104.7500149999999906
20
-24.8999999999999986
11
104.6940639999999973
21
-24.9000099999999982
0
LINE
8
BLACK
6
CONTINUOUS
10
104.6940639999999973
20
-24.9000099999999982
11
104.5859779999999972
21
-24.9289859999999983
0
LINE
8
BLACK
6
CONTINUOUS
10
104.5859779999999972
20
-24.9289859999999983
11
104.4890709999999956
21
-24.9849439999999987
0
LINE
8
BLACK
6
CONTINUOUS
10
104.4890709999999956
20
-24.9849439999999987
11
104.4099439999999959
21
-25.0640709999999984
0
LINE
8
BLACK
6
CONTINUOUS
10
104.4099439999999959
20
-25.0640709999999984
11
104.3539859999999919
21
-25.1609780000000001
0
LINE
8
BLACK
6
CONTINUOUS
10
104.3539859999999919
20
-25.1609780000000001
11
104.3250099999999918
21
-25.2690640000000002
0
LINE
8
BLACK
6
CONTINUOUS
10
104.3250099999999918
20
-25.2690640000000002
11
104.3249999999999886
21
-25.3249999999999993
0
LINE
8
BLACK
6
CONTINUOUS
10
104.3249999999999886
20
-25.3249999999999993
11
104.3249999999999886
21
-29.0749999999999993
0
LINE
8
BLACK
6
CONTINUOUS
10
104.3249999999999886
20
-29.0749999999999993
11
104.3235589999999888
21
-29.0896319999999982
0
LINE
8
BLACK
6
CONTINUOUS
10
104.3235589999999888
20
-29.0896319999999982
11
104.3232749999999953
21
-29.0903169999999989
0
LINE
8
BLACK
6
CONTINUOUS
10
104.3232749999999953
20
-29.0903169999999989
11
104.3106039999999979
21
-29.2029469999999982
0
LINE
8
BLACK
6
CONTINUOUS
10
104.3106039999999979
20
-29.2029469999999982
11
104.2680879999999917
21
-29.3244949999999989
0
LINE
8
BLACK
6
CONTINUOUS
10
104.2680879999999917
20
-29.3244949999999989
11
104.199584999999999
21
-29.4335309999999986
0
LINE
8
BLACK
6
CONTINUOUS
10
104.199584999999999
20
-29.4335309999999986
11
104.1085309999999993
21
-29.5245849999999983
0
LINE
8
BLACK
6
CONTINUOUS
10
104.1085309999999993
20
-29.5245849999999983
11
103.999494999999996
21
-29.5930879999999981
0
LINE
8
BLACK
6
CONTINUOUS
10
103.999494999999996
20
-29.5930879999999981
11
103.8779469999999918
21
-29.6356039999999972
0
LINE
8
BLACK
6
CONTINUOUS
10
103.8779469999999918
20
-29.6356039999999972
11
103.765316999999996
21
-29.6482749999999982
0
LINE
8
BLACK
6
CONTINUOUS
10
103.765316999999996
20
-29.6482749999999982
11
103.7646319999999918
21
-29.6485589999999988
0
LINE
8
BLACK
6
CONTINUOUS
10
103.7646319999999918
20
-29.6485589999999988
11
103.75
21
-29.6499999999999986
0
LINE
8
BLACK
6
CONTINUOUS
10
103.75
20
-29.6499999999999986
11
103.7499849999999952
21
-29.6499999999999986
0
LINE
8
BLACK
6
CONTINUOUS
10
103.7499849999999952
20
-29.6499999999999986
11
85.75
21
-29.6499999999999986
0
LINE
8
BLACK
6
CONTINUOUS
10
85.75
20
-29.6499999999999986
11
83.75
21
-29.6499999999999986
0
LINE
8
BLACK
6
CONTINUOUS
10
83.75
20
-29.6499999999999986
11
66.7500149999999906
21
-29.6499999999999986
0
LINE
8
BLACK
6
CONTINUOUS
10
66.7500149999999906
20
-29.6499999999999986
11
66.6940639999999973
21
-29.6500099999999982
0
LINE
8
BLACK
6
CONTINUOUS
10
66.6940639999999973
20
-29.6500099999999982
11
66.5859779999999972
21
-29.6789859999999983
0
LINE
8
BLACK
6
CONTINUOUS
10
66.5859779999999972
20
-29.6789859999999983
11
66.4890709999999956
21
-29.7349439999999987
0
LINE
8
BLACK
6
CONTINUOUS
10
66.4890709999999956
20
-29.7349439999999987
11
66.4099439999999959
21
-29.8140709999999984
0
LINE
8
BLACK
6
CONTINUOUS
10
66.4099439999999959
20
-29.8140709999999984
11
66.3539859999999919
21
-29.9109780000000001
0
LINE
8
BLACK
6
CONTINUOUS
10
66.3539859999999919
20
-29.9109780000000001
11
66.3250099999999918
21
-30.0190640000000002
0
LINE
8
BLACK
6
CONTINUOUS
10
66.3250099999999918
20
-30.0190640000000002
11
66.3250000000000028
21
-30.0749999999999993
0
LINE
8
BLACK
6
CONTINUOUS
10
66.3250000000000028
20
-30.0749999999999993
11
66.3250000000000028
21
-104.3249999999999886
0
LINE
8
BLACK
6
CONTINUOUS
10
66.3250000000000028
20
-104.3249999999999886
11
66.3249979999999937
21
-104.3250109999999893
0
LINE
8
BLACK
6
CONTINUOUS
10
66.3249979999999937
20
-104.3250109999999893
11
66.3250000000000028
21
-104.3250149999999934
0
LINE
8
BLACK
6
CONTINUOUS
10
66.3250000000000028
20
-104.3250149999999934
11
66.3249989999999912
21
-104.3250149999999934
0
LINE
8
BLACK
6
CONTINUOUS
10
66.3249989999999912
20
-104.3250149999999934
11
66.3249909999999971
21
-104.3250899999999888
0
LINE
8
BLACK
6
CONTINUOUS
10
66.3249909999999971
20
-104.3250899999999888
11
66.3250759999999957
21
-104.3821919999999892
0
LINE
8
BLACK
6
CONTINUOUS
10
66.3250759999999957
20
-104.3821919999999892
11
66.3550230000000028
21
-104.4925549999999959
0
LINE
8
BLACK
6
CONTINUOUS
10
66.3550230000000028
20
-104.4925549999999959
11
66.4128479999999968
21
-104.5912119999999987
0
LINE
8
BLACK
6
CONTINUOUS
10
66.4128479999999968
20
-104.5912119999999987
11
66.4945069999999987
21
-104.6712659999999886
0
LINE
8
BLACK
6
CONTINUOUS
10
66.4945069999999987
20
-104.6712659999999886
11
66.5942919999999958
21
-104.7271209999999968
0
LINE
8
BLACK
6
CONTINUOUS
10
66.5942919999999958
20
-104.7271209999999968
11
66.7052269999999936
21
-104.7548729999999892
0
LINE
8
BLACK
6
CONTINUOUS
10
66.7052269999999936
20
-104.7548729999999892
11
66.7623949999999979
21
-104.753822999999997
0
LINE
8
BLACK
6
CONTINUOUS
10
66.7623949999999979
20
-104.753822999999997
11
66.7627260000000007
21
-104.7539230000000003
0
LINE
8
BLACK
6
CONTINUOUS
10
66.7627260000000007
20
-104.7539230000000003
11
66.7638979999999975
21
-104.7538079999999923
0
LINE
8
BLACK
6
CONTINUOUS
10
66.7638979999999975
20
-104.7538079999999923
11
112.75
21
-104.7538079999999923
0
LINE
8
BLACK
6
CONTINUOUS
10
112.75
20
-104.7538079999999923
11
112.7500110000000006
21
-104.7538089999999897
0
LINE
8
BLACK
6
CONTINUOUS
10
112.7500110000000006
20
-104.7538089999999897
11
112.7500149999999906
21
-104.7538079999999923
0
LINE
8
BLACK
6
CONTINUOUS
10
112.7500149999999906
20
-104.7538079999999923
11
112.7501169999999888
21
-104.7538189999999929
0
LINE
8
BLACK
6
CONTINUOUS
10
112.7501169999999888
20
-104.7538189999999929
11
112.7646319999999918
21
-104.7552489999999921
0
LINE
8
BLACK
6
CONTINUOUS
10
112.7646319999999918
20
-104.7552489999999921
11
112.7653229999999951
21
-104.7555349999999947
0
LINE
8
BLACK
6
CONTINUOUS
10
112.7653229999999951
20
-104.7555349999999947
11
112.8779509999999959
21
-104.7682449999999932
0
LINE
8
BLACK
6
CONTINUOUS
10
112.8779509999999959
20
-104.7682449999999932
11
112.9994699999999881
21
-104.8107830000000007
0
LINE
8
BLACK
6
CONTINUOUS
10
112.9994699999999881
20
-104.8107830000000007
11
113.1084800000000001
21
-104.8792879999999883
0
LINE
8
BLACK
6
CONTINUOUS
10
113.1084800000000001
20
-104.8792879999999883
11
113.1995179999999976
21
-104.9703269999999975
0
LINE
8
BLACK
6
CONTINUOUS
10
113.1995179999999976
20
-104.9703269999999975
11
113.2680209999999903
21
-105.0793379999999928
0
LINE
8
BLACK
6
CONTINUOUS
10
113.2680209999999903
20
-105.0793379999999928
11
113.3105569999999886
21
-105.2008579999999967
0
LINE
8
BLACK
6
CONTINUOUS
10
113.3105569999999886
20
-105.2008579999999967
11
113.323260999999988
21
-105.3134579999999971
0
LINE
8
BLACK
6
CONTINUOUS
10
113.323260999999988
20
-105.3134579999999971
11
113.3235589999999888
21
-105.3141759999999891
0
LINE
8
BLACK
6
CONTINUOUS
10
113.3235589999999888
20
-105.3141759999999891
11
113.3249989999999912
21
-105.328794000000002
0
LINE
8
BLACK
6
CONTINUOUS
10
113.3249989999999912
20
-105.328794000000002
11
113.3249999999999886
21
-105.328794000000002
0
LINE
8
BLACK
6
CONTINUOUS
10
113.3249999999999886
20
-105.328794000000002
11
113.3249979999999937
21
-105.3287969999999945
0
LINE
8
BLACK
6
CONTINUOUS
10
113.3249979999999937
20
-105.3287969999999945
11
113.3249999999999886
21
-105.3288079999999951
0
LINE
8
BLACK
6
CONTINUOUS
10
113.3249999999999886
20
-105.3288079999999951
11
113.3249999999999886
21
-119.0788079999999951
0
LINE
8
BLACK
6
CONTINUOUS
10
113.3249999999999886
20
-119.0788079999999951
11
113.3249979999999937
21
-119.0788179999999983
0
LINE
8
BLACK
6
CONTINUOUS
10
113.3249979999999937
20
-119.0788179999999983
11
113.3249999999999886
21
-119.0788219999999882
0
LINE
8
BLACK
6
CONTINUOUS
10
113.3249999999999886
20
-119.0788219999999882
11
113.3249989999999912
21
-119.0788219999999882
0
LINE
8
BLACK
6
CONTINUOUS
10
113.3249989999999912
20
-119.0788219999999882
11
113.3249909999999971
21
-119.0788889999999896
0
LINE
8
BLACK
6
CONTINUOUS
10
113.3249909999999971
20
-119.0788889999999896
11
113.3249829999999889
21
-119.134775999999988
0
LINE
8
BLACK
6
CONTINUOUS
10
113.3249829999999889
20
-119.134775999999988
11
113.3539339999999953
21
-119.2428740000000005
0
LINE
8
BLACK
6
CONTINUOUS
10
113.3539339999999953
20
-119.2428740000000005
11
113.4098819999999961
21
-119.3397919999999885
0
LINE
8
BLACK
6
CONTINUOUS
10
113.4098819999999961
20
-119.3397919999999885
11
113.4890139999999974
21
-119.4189219999999949
0
LINE
8
BLACK
6
CONTINUOUS
10
113.4890139999999974
20
-119.4189219999999949
11
113.5859329999999972
21
-119.4748689999999982
0
LINE
8
BLACK
6
CONTINUOUS
10
113.5859329999999972
20
-119.4748689999999982
11
113.6940309999999954
21
-119.5038179999999954
0
LINE
8
BLACK
6
CONTINUOUS
10
113.6940309999999954
20
-119.5038179999999954
11
113.7499849999999952
21
-119.5038079999999923
0
LINE
8
BLACK
6
CONTINUOUS
10
113.7499849999999952
20
-119.5038079999999923
11
113.7499880000000019
21
-119.5038089999999897
0
LINE
8
BLACK
6
CONTINUOUS
10
113.7499880000000019
20
-119.5038089999999897
11
113.75
21
-119.5038079999999923
0
LINE
8
BLACK
6
CONTINUOUS
10
113.75
20
-119.5038079999999923
11
133.0138979999999833
21
-119.5038079999999923
0
LINE
8
BLACK
6
CONTINUOUS
10
133.0138979999999833
20
-119.5038079999999923
11
133.0187279999999816
21
-119.5042830000000009
0
LINE
8
BLACK
6
CONTINUOUS
10
133.0187279999999816
20
-119.5042830000000009
11
133.023572999999999
21
-119.5044350000000009
0
LINE
8
BLACK
6
CONTINUOUS
10
133.023572999999999
20
-119.5044350000000009
11
169.6941290000000038
21
-124.2747789999999952
0
LINE
8
BLACK
6
CONTINUOUS
10
169.6941290000000038
20
-124.2747789999999952
11
169.6945379999999943
21
-124.2748729999999995
0
LINE
8
BLACK
6
CONTINUOUS
10
169.6945379999999943
20
-124.2748729999999995
11
169.9174369999999783
21
-124.3040919999999971
0
LINE
8
BLACK
6
CONTINUOUS
10
169.9174369999999783
20
-124.3040919999999971
11
170.1406939999999963
21
-124.3483249999999884
0
LINE
8
BLACK
6
CONTINUOUS
10
170.1406939999999963
20
-124.3483249999999884
11
170.3605919999999969
21
-124.4070210000000003
0
LINE
8
BLACK
6
CONTINUOUS
10
170.3605919999999969
20
-124.4070210000000003
11
170.3605929999999944
21
-124.4070139999999896
0
LINE
8
BLACK
6
CONTINUOUS
10
170.3605929999999944
20
-124.4070139999999896
11
170.3614120000000014
21
-124.4075829999999883
0
LINE
8
BLACK
6
CONTINUOUS
10
170.3614120000000014
20
-124.4075829999999883
11
170.3630359999999939
21
-124.4077979999999997
0
LINE
8
BLACK
6
CONTINUOUS
10
170.3630359999999939
20
-124.4077979999999997
11
170.3764259999999808
21
-124.4138719999999978
0
LINE
8
BLACK
6
CONTINUOUS
10
170.3764259999999808
20
-124.4138719999999978
11
184.6706769999999835
21
-132.6748279999999909
0
LINE
8
BLACK
6
CONTINUOUS
10
184.6706769999999835
20
-132.6748279999999909
11
184.6741179999999929
21
-132.6772959999999841
0
LINE
8
BLACK
6
CONTINUOUS
10
184.6741179999999929
20
-132.6772959999999841
11
184.6750569999999811
21
-132.6775649999999871
0
LINE
8
BLACK
6
CONTINUOUS
10
184.6750569999999811
20
-132.6775649999999871
11
184.675044999999983
21
-132.6775829999999985
0
LINE
8
BLACK
6
CONTINUOUS
10
184.675044999999983
20
-132.6775829999999985
11
184.7608840000000043
21
-132.7353959999999802
0
LINE
8
BLACK
6
CONTINUOUS
10
184.7608840000000043
20
-132.7353959999999802
11
184.9485540000000015
21
-132.8227080000000058
0
LINE
8
BLACK
6
CONTINUOUS
10
184.9485540000000015
20
-132.8227080000000058
11
185.1475930000000005
21
-132.8795120000000054
0
LINE
8
BLACK
6
CONTINUOUS
10
185.1475930000000005
20
-132.8795120000000054
11
185.3530769999999848
21
-132.9044039999999995
0
LINE
8
BLACK
6
CONTINUOUS
10
185.3530769999999848
20
-132.9044039999999995
11
185.5599220000000003
21
-132.8967679999999802
0
LINE
8
BLACK
6
CONTINUOUS
10
185.5599220000000003
20
-132.8967679999999802
11
185.7630109999999775
21
-132.8567919999999845
0
LINE
8
BLACK
6
CONTINUOUS
10
185.7630109999999775
20
-132.8567919999999845
11
185.957318999999984
21
-132.7854659999999853
0
LINE
8
BLACK
6
CONTINUOUS
10
185.957318999999984
20
-132.7854659999999853
11
186.1380399999999895
21
-132.6845539999999914
0
LINE
8
BLACK
6
CONTINUOUS
10
186.1380399999999895
20
-132.6845539999999914
11
186.3007020000000011
21
-132.5565530000000081
0
LINE
8
BLACK
6
CONTINUOUS
10
186.3007020000000011
20
-132.5565530000000081
11
186.4412810000000036
21
-132.4046299999999974
0
LINE
8
BLACK
6
CONTINUOUS
10
186.4412810000000036
20
-132.4046299999999974
11
186.4974179999999819
21
-132.3206710000000044
0
LINE
8
BLACK
6
CONTINUOUS
10
186.4974179999999819
20
-132.3206710000000044
11
198.8488999999999862
21
-110.8663880000000006
0
LINE
8
BLACK
6
CONTINUOUS
10
198.8488999999999862
20
-110.8663880000000006
11
198.8491970000000038
21
-110.8659719999999993
0
LINE
8
BLACK
6
CONTINUOUS
10
198.8491970000000038
20
-110.8659719999999993
11
198.8494129999999984
21
-110.8655109999999979
0
LINE
8
BLACK
6
CONTINUOUS
10
198.8494129999999984
20
-110.8655109999999979
11
199.9249999999999829
21
-109.0544079999999951
0
LINE
8
BLACK
6
CONTINUOUS
10
199.9249999999999829
20
-109.0544079999999951
11
199.9249999999999829
21
-27.8249999999999993
0
LINE
8
BLACK
6
CONTINUOUS
10
199.9249999999999829
20
-27.8249999999999993
11
199.9249999999999829
21
-27.769047999999998
0
LINE
8
BLACK
6
CONTINUOUS
10
199.9249999999999829
20
-27.769047999999998
11
199.8960369999999784
21
-27.6609559999999988
0
LINE
8
BLACK
6
CONTINUOUS
10
199.8960369999999784
20
-27.6609559999999988
11
199.8400839999999903
21
-27.5640439999999991
0
LINE
8
BLACK
6
CONTINUOUS
10
199.8400839999999903
20
-27.5640439999999991
11
199.7609559999999931
21
-27.4849159999999983
0
LINE
8
BLACK
6
CONTINUOUS
10
199.7609559999999931
20
-27.4849159999999983
11
199.6640439999999899
21
-27.4289629999999995
0
LINE
8
BLACK
6
CONTINUOUS
10
199.6640439999999899
20
-27.4289629999999995
11
199.5559519999999907
21
-27.3999999999999986
0
LINE
8
BLACK
6
CONTINUOUS
10
199.5559519999999907
20
-27.3999999999999986
11
199.5
21
-27.3999999999999986
0
LINE
8
BLACK
6
CONTINUOUS
10
199.5
20
-27.3999999999999986
11
160.75
21
-27.3999999999999986
0
LINE
8
BLACK
6
CONTINUOUS
10
160.75
20
-27.3999999999999986
11
160.735367999999994
21
-27.3985589999999988
0
LINE
8
BLACK
6
CONTINUOUS
10
160.735367999999994
20
-27.3985589999999988
11
160.7346789999999999
21
-27.3982729999999997
0
LINE
8
BLACK
6
CONTINUOUS
10
160.7346789999999999
20
-27.3982729999999997
11
160.6220500000000015
21
-27.3855839999999979
0
LINE
8
BLACK
6
CONTINUOUS
10
160.6220500000000015
20
-27.3855839999999979
11
160.5005170000000021
21
-27.3430569999999982
0
LINE
8
BLACK
6
CONTINUOUS
10
160.5005170000000021
20
-27.3430569999999982
11
160.391492999999997
21
-27.2745529999999974
0
LINE
8
BLACK
6
CONTINUOUS
10
160.391492999999997
20
-27.2745529999999974
11
160.3004469999999912
21
-27.1835069999999988
0
LINE
8
BLACK
6
CONTINUOUS
10
160.3004469999999912
20
-27.1835069999999988
11
160.2319430000000011
21
-27.0744829999999972
0
LINE
8
BLACK
6
CONTINUOUS
10
160.2319430000000011
20
-27.0744829999999972
11
160.1894159999999943
21
-26.9529499999999977
0
LINE
8
BLACK
6
CONTINUOUS
10
160.1894159999999943
20
-26.9529499999999977
11
160.1767260000000022
21
-26.8403199999999984
0
LINE
8
BLACK
6
CONTINUOUS
10
160.1767260000000022
20
-26.8403199999999984
11
160.1764409999999828
21
-26.8396319999999982
0
LINE
8
BLACK
6
CONTINUOUS
10
160.1764409999999828
20
-26.8396319999999982
11
160.1749999999999829
21
-26.8249999999999993
0
LINE
8
BLACK
6
CONTINUOUS
10
160.1749999999999829
20
-26.8249999999999993
11
160.1749999999999829
21
-25.3249999999999993
0
LINE
8
BLACK
6
CONTINUOUS
10
160.1749999999999829
20
-25.3249999999999993
11
160.1749999999999829
21
-25.269047999999998
0
LINE
8
BLACK
6
CONTINUOUS
10
160.1749999999999829
20
-25.269047999999998
11
160.1460370000000069
21
-25.1609559999999988
0
LINE
8
BLACK
6
CONTINUOUS
10
160.1460370000000069
20
-25.1609559999999988
11
160.0900839999999903
21
-25.0640439999999991
0
LINE
8
BLACK
6
CONTINUOUS
10
160.0900839999999903
20
-25.0640439999999991
11
160.0109559999999931
21
-24.9849159999999983
0
LINE
8
BLACK
6
CONTINUOUS
10
160.0109559999999931
20
-24.9849159999999983
11
159.9140439999999899
21
-24.9289629999999995
0
LINE
8
BLACK
6
CONTINUOUS
10
159.9140439999999899
20
-24.9289629999999995
11
159.8059519999999907
21
-24.8999999999999986
0
LINE
8
BLACK
6
CONTINUOUS
10
159.8059519999999907
20
-24.8999999999999986
11
159.75
21
-24.8999999999999986
0
LINE
8
BLACK
6
CONTINUOUS
10
159.75
20
-24.8999999999999986
11
141.75
21
-24.8999999999999986
0
LINE
8
BLACK
6
CONTINUOUS
10
141.75
20
-24.8999999999999986
11
141.735367999999994
21
-24.8985589999999988
0
LINE
8
BLACK
6
CONTINUOUS
10
141.735367999999994
20
-24.8985589999999988
11
141.7346789999999999
21
-24.8982729999999997
0
LINE
8
BLACK
6
CONTINUOUS
10
141.7346789999999999
20
-24.8982729999999997
11
141.6220500000000015
21
-24.8855839999999979
0
LINE
8
BLACK
6
CONTINUOUS
10
141.6220500000000015
20
-24.8855839999999979
11
141.5005170000000021
21
-24.8430569999999982
0
LINE
8
BLACK
6
CONTINUOUS
10
141.5005170000000021
20
-24.8430569999999982
11
141.391492999999997
21
-24.7745529999999974
0
LINE
8
BLACK
6
CONTINUOUS
10
141.391492999999997
20
-24.7745529999999974
11
141.3004469999999912
21
-24.6835069999999988
0
LINE
8
BLACK
6
CONTINUOUS
10
141.3004469999999912
20
-24.6835069999999988
11
141.2319430000000011
21
-24.5744829999999972
0
LINE
8
BLACK
6
CONTINUOUS
10
141.2319430000000011
20
-24.5744829999999972
11
141.1894159999999943
21
-24.4529499999999977
0
LINE
8
BLACK
6
CONTINUOUS
10
141.1894159999999943
20
-24.4529499999999977
11
141.1767260000000022
21
-24.3403199999999984
0
LINE
8
BLACK
6
CONTINUOUS
10
141.1767260000000022
20
-24.3403199999999984
11
141.1764409999999828
21
-24.3396319999999982
0
LINE
8
BLACK
6
CONTINUOUS
10
141.1764409999999828
20
-24.3396319999999982
11
141.1749999999999829
21
-24.3249999999999993
0
LINE
8
BLACK
6
CONTINUOUS
10
141.1749999999999829
20
-24.3249999999999993
11
141.1749999999999829
21
-23.0749999999999993
0
LINE
8
BLACK
6
CONTINUOUS
10
141.1749999999999829
20
-23.0749999999999993
11
141.1749999999999829
21
-23.019047999999998
0
LINE
8
BLACK
6
CONTINUOUS
10
141.1749999999999829
20
-23.019047999999998
11
141.1460370000000069
21
-22.9109559999999988
0
LINE
8
BLACK
6
CONTINUOUS
10
141.1460370000000069
20
-22.9109559999999988
11
141.0900839999999903
21
-22.8140439999999991
0
LINE
8
BLACK
6
CONTINUOUS
10
141.0900839999999903
20
-22.8140439999999991
11
141.0109559999999931
21
-22.7349159999999983
0
LINE
8
BLACK
6
CONTINUOUS
10
141.0109559999999931
20
-22.7349159999999983
11
140.9140439999999899
21
-22.6789629999999995
0
LINE
8
BLACK
6
CONTINUOUS
10
140.9140439999999899
20
-22.6789629999999995
11
140.8059519999999907
21
-22.6499999999999986
0
LINE
8
BLACK
6
CONTINUOUS
10
140.8059519999999907
20
-22.6499999999999986
11
140.75
21
-22.6499999999999986
0
LINE
8
BLACK
6
CONTINUOUS
10
140.75
20
-22.6499999999999986
11
123.7500149999999906
21
-22.6499999999999986
  0
ENDSEC
  0
EOF
