  0
SECTION
  2
HEADER
  9
$ANGBASE
  50
0.0
  9
$ANGDIR
  70
1
  9
$MEASUREMENT
  70
1
  0
ENDSEC
  0
SECTION
  2
TABLES
  0
TABLE
  2
LTYPE
  70
4
  0
LTYPE
  5
40F
  2
CONTINUOUS
  70
0
  3
Solid line
  72
65
  73
0
  40
0.0
  0
LTYPE
  5
410
  2
DASHDOT
 70
0
  3
Dash Dot ____ _ ____ _
 72
65
 73
4
 40
2.0
 49
1.25
 49
-0.25
 49
0.25
 49
-0.25
  0
LTYPE
  5
411
  2
DASHED
 70
0
  3
Dashed __ __ __ __ __
 72
65
 73
2
 40
0.75
 49
0.5
 49
-0.25
  0
LTYPE
  5
43B
  2
DOTTED
 70
0
  3
Dotted .  .  .  .
 72
65
 73
2
 40
0.2
 49
0.0
 49
-0.2
  0
ENDTAB
  0
TABLE
  2
STYLE
  70
4
  0
STYLE
  2
KICAD
  70
0
  40
0
  41
1
  42
1
  50
0
  71
0
  3
isocp.shx
  0
STYLE
  2
KICADB
  70
0
  40
0
  41
1
  42
1
  50
0
  71
0
  3
isocp.shx
  0
STYLE
  2
KICADI
  70
0
  40
0
  41
1
  42
1
  50
15
  71
0
  3
isocp.shx
  0
STYLE
  2
KICADBI
  70
0
  40
0
  41
1
  42
1
  50
15
  71
0
  3
isocp.shx
  0
ENDTAB
  0
TABLE
  2
LAYER
  70
1
  0
LAYER
  2
BLACK
  70
0
  62
7
  6
CONTINUOUS
  0
ENDTAB
  0
ENDSEC
  0
SECTION
  2
ENTITIES
0
LINE
8
BLACK
6
CONTINUOUS
10
65.5302209999999974
20
16.1246119999999991
11
65.5902219999999971
21
16.1173269999999995
0
LINE
8
BLACK
6
CONTINUOUS
10
65.5902219999999971
20
16.1173269999999995
11
65.6489079999999916
21
16.1028619999999982
0
LINE
8
BLACK
6
CONTINUOUS
10
65.6489079999999916
20
16.1028619999999982
11
65.7054219999999987
21
16.081429
0
LINE
8
BLACK
6
CONTINUOUS
10
65.7054219999999987
20
16.081429
11
65.758940999999993
21
16.0533399999999986
0
LINE
8
BLACK
6
CONTINUOUS
10
65.758940999999993
20
16.0533399999999986
11
65.8086839999999995
21
16.0190049999999999
0
LINE
8
BLACK
6
CONTINUOUS
10
65.8086839999999995
20
16.0190049999999999
11
65.8539250000000038
21
15.9789249999999985
0
LINE
8
BLACK
6
CONTINUOUS
10
65.8539250000000038
20
15.9789249999999985
11
65.8940049999999928
21
15.9336839999999995
0
LINE
8
BLACK
6
CONTINUOUS
10
65.8940049999999928
20
15.9336839999999995
11
65.9283399999999915
21
15.8839410000000001
0
LINE
8
BLACK
6
CONTINUOUS
10
65.9283399999999915
20
15.8839410000000001
11
65.956429
21
15.8304219999999987
0
LINE
8
BLACK
6
CONTINUOUS
10
65.956429
20
15.8304219999999987
11
65.9778620000000018
21
15.7739079999999987
0
LINE
8
BLACK
6
CONTINUOUS
10
65.9778620000000018
20
15.7739079999999987
11
65.9923270000000031
21
15.7152219999999989
0
LINE
8
BLACK
6
CONTINUOUS
10
65.9923270000000031
20
15.7152219999999989
11
65.9996119999999991
21
15.6552209999999992
0
LINE
8
BLACK
6
CONTINUOUS
10
65.9996119999999991
20
15.6552209999999992
11
66.
21
15.625
0
LINE
8
BLACK
6
CONTINUOUS
10
66.
20
15.625
11
66.
21
14.375
0
LINE
8
BLACK
6
CONTINUOUS
10
66.
20
14.375
11
66.0003880000000009
21
14.3447789999999991
0
LINE
8
BLACK
6
CONTINUOUS
10
66.0003880000000009
20
14.3447789999999991
11
66.0076729999999969
21
14.2847779999999993
0
LINE
8
BLACK
6
CONTINUOUS
10
66.0076729999999969
20
14.2847779999999993
11
66.0221379999999982
21
14.2260919999999995
0
LINE
8
BLACK
6
CONTINUOUS
10
66.0221379999999982
20
14.2260919999999995
11
66.043571
21
14.1695779999999996
0
LINE
8
BLACK
6
CONTINUOUS
10
66.043571
20
14.1695779999999996
11
66.0716599999999943
21
14.1160589999999999
0
LINE
8
BLACK
6
CONTINUOUS
10
66.0716599999999943
20
14.1160589999999999
11
66.105994999999993
21
14.0663159999999987
0
LINE
8
BLACK
6
CONTINUOUS
10
66.105994999999993
20
14.0663159999999987
11
66.1460749999999962
21
14.0210749999999997
0
LINE
8
BLACK
6
CONTINUOUS
10
66.1460749999999962
20
14.0210749999999997
11
66.1913160000000005
21
13.9809950000000001
0
LINE
8
BLACK
6
CONTINUOUS
10
66.1913160000000005
20
13.9809950000000001
11
66.2410589999999928
21
13.9466599999999996
0
LINE
8
BLACK
6
CONTINUOUS
10
66.2410589999999928
20
13.9466599999999996
11
66.2945780000000013
21
13.918571
0
LINE
8
BLACK
6
CONTINUOUS
10
66.2945780000000013
20
13.918571
11
66.3510919999999942
21
13.897138
0
LINE
8
BLACK
6
CONTINUOUS
10
66.3510919999999942
20
13.897138
11
66.4097780000000029
21
13.8826729999999987
0
LINE
8
BLACK
6
CONTINUOUS
10
66.4097780000000029
20
13.8826729999999987
11
66.4697790000000026
21
13.8753879999999992
0
LINE
8
BLACK
6
CONTINUOUS
10
66.4697790000000026
20
13.8753879999999992
11
66.5
21
13.875
0
LINE
8
BLACK
6
CONTINUOUS
10
66.5
20
13.875
11
84.5
21
13.875
0
LINE
8
BLACK
6
CONTINUOUS
10
84.5
20
13.875
11
84.5302209999999974
21
13.8746119999999991
0
LINE
8
BLACK
6
CONTINUOUS
10
84.5302209999999974
20
13.8746119999999991
11
84.5902219999999971
21
13.8673269999999995
0
LINE
8
BLACK
6
CONTINUOUS
10
84.5902219999999971
20
13.8673269999999995
11
84.6489079999999916
21
13.852862
0
LINE
8
BLACK
6
CONTINUOUS
10
84.6489079999999916
20
13.852862
11
84.7054219999999987
21
13.831429
0
LINE
8
BLACK
6
CONTINUOUS
10
84.7054219999999987
20
13.831429
11
84.758940999999993
21
13.8033399999999986
0
LINE
8
BLACK
6
CONTINUOUS
10
84.758940999999993
20
13.8033399999999986
11
84.8086839999999995
21
13.7690049999999999
0
LINE
8
BLACK
6
CONTINUOUS
10
84.8086839999999995
20
13.7690049999999999
11
84.8539249999999896
21
13.7289249999999985
0
LINE
8
BLACK
6
CONTINUOUS
10
84.8539249999999896
20
13.7289249999999985
11
84.8940049999999928
21
13.6836839999999995
0
LINE
8
BLACK
6
CONTINUOUS
10
84.8940049999999928
20
13.6836839999999995
11
84.9283399999999915
21
13.6339410000000001
0
LINE
8
BLACK
6
CONTINUOUS
10
84.9283399999999915
20
13.6339410000000001
11
84.956429
21
13.5804219999999987
0
LINE
8
BLACK
6
CONTINUOUS
10
84.956429
20
13.5804219999999987
11
84.9778620000000018
21
13.5239079999999987
0
LINE
8
BLACK
6
CONTINUOUS
10
84.9778620000000018
20
13.5239079999999987
11
84.9923270000000031
21
13.4652219999999989
0
LINE
8
BLACK
6
CONTINUOUS
10
84.9923270000000031
20
13.4652219999999989
11
84.9996119999999991
21
13.4052209999999992
0
LINE
8
BLACK
6
CONTINUOUS
10
84.9996119999999991
20
13.4052209999999992
11
85.
21
13.375
0
LINE
8
BLACK
6
CONTINUOUS
10
85.
20
13.375
11
85.
21
11.875
0
LINE
8
BLACK
6
CONTINUOUS
10
85.
20
11.875
11
85.0003880000000009
21
11.8447789999999991
0
LINE
8
BLACK
6
CONTINUOUS
10
85.0003880000000009
20
11.8447789999999991
11
85.0076729999999969
21
11.7847779999999993
0
LINE
8
BLACK
6
CONTINUOUS
10
85.0076729999999969
20
11.7847779999999993
11
85.0221379999999982
21
11.7260919999999995
0
LINE
8
BLACK
6
CONTINUOUS
10
85.0221379999999982
20
11.7260919999999995
11
85.043571
21
11.6695779999999996
0
LINE
8
BLACK
6
CONTINUOUS
10
85.043571
20
11.6695779999999996
11
85.0716599999999943
21
11.6160589999999999
0
LINE
8
BLACK
6
CONTINUOUS
10
85.0716599999999943
20
11.6160589999999999
11
85.105994999999993
21
11.5663159999999987
0
LINE
8
BLACK
6
CONTINUOUS
10
85.105994999999993
20
11.5663159999999987
11
85.1460749999999962
21
11.5210749999999997
0
LINE
8
BLACK
6
CONTINUOUS
10
85.1460749999999962
20
11.5210749999999997
11
85.1913160000000005
21
11.4809950000000001
0
LINE
8
BLACK
6
CONTINUOUS
10
85.1913160000000005
20
11.4809950000000001
11
85.2410589999999928
21
11.4466599999999996
0
LINE
8
BLACK
6
CONTINUOUS
10
85.2410589999999928
20
11.4466599999999996
11
85.2945780000000013
21
11.418571
0
LINE
8
BLACK
6
CONTINUOUS
10
85.2945780000000013
20
11.418571
11
85.3510919999999942
21
11.397138
0
LINE
8
BLACK
6
CONTINUOUS
10
85.3510919999999942
20
11.397138
11
85.4097780000000029
21
11.3826729999999987
0
LINE
8
BLACK
6
CONTINUOUS
10
85.4097780000000029
20
11.3826729999999987
11
85.4697790000000026
21
11.3753879999999992
0
LINE
8
BLACK
6
CONTINUOUS
10
85.4697790000000026
20
11.3753879999999992
11
85.5
21
11.375
0
LINE
8
BLACK
6
CONTINUOUS
10
85.5
20
11.375
11
124.25
21
11.375
0
LINE
8
BLACK
6
CONTINUOUS
10
124.25
20
11.375
11
124.2802209999999974
21
11.3746119999999991
0
LINE
8
BLACK
6
CONTINUOUS
10
124.2802209999999974
20
11.3746119999999991
11
124.3402219999999971
21
11.3673269999999995
0
LINE
8
BLACK
6
CONTINUOUS
10
124.3402219999999971
20
11.3673269999999995
11
124.3989079999999916
21
11.352862
0
LINE
8
BLACK
6
CONTINUOUS
10
124.3989079999999916
20
11.352862
11
124.4554219999999987
21
11.331429
0
LINE
8
BLACK
6
CONTINUOUS
10
124.4554219999999987
20
11.331429
11
124.508940999999993
21
11.3033399999999986
0
LINE
8
BLACK
6
CONTINUOUS
10
124.508940999999993
20
11.3033399999999986
11
124.5586839999999995
21
11.2690049999999999
0
LINE
8
BLACK
6
CONTINUOUS
10
124.5586839999999995
20
11.2690049999999999
11
124.6039249999999896
21
11.2289250000000003
0
LINE
8
BLACK
6
CONTINUOUS
10
124.6039249999999896
20
11.2289250000000003
11
124.6440049999999928
21
11.1836839999999995
0
LINE
8
BLACK
6
CONTINUOUS
10
124.6440049999999928
20
11.1836839999999995
11
124.6783399999999915
21
11.1339410000000001
0
LINE
8
BLACK
6
CONTINUOUS
10
124.6783399999999915
20
11.1339410000000001
11
124.706429
21
11.0804219999999987
0
LINE
8
BLACK
6
CONTINUOUS
10
124.706429
20
11.0804219999999987
11
124.7278619999999876
21
11.0239079999999987
0
LINE
8
BLACK
6
CONTINUOUS
10
124.7278619999999876
20
11.0239079999999987
11
124.7423269999999889
21
10.9652219999999989
0
LINE
8
BLACK
6
CONTINUOUS
10
124.7423269999999889
20
10.9652219999999989
11
124.7496119999999991
21
10.9052209999999992
0
LINE
8
BLACK
6
CONTINUOUS
10
124.7496119999999991
20
10.9052209999999992
11
124.75
21
10.875
0
LINE
8
BLACK
6
CONTINUOUS
10
124.75
20
10.875
11
124.75
21
-70.375
0
LINE
8
BLACK
6
CONTINUOUS
10
124.75
20
-70.375
11
123.663897999999989
21
-72.2038079999999951
0
LINE
8
BLACK
6
CONTINUOUS
10
123.663897999999989
20
-72.2038079999999951
11
111.3111609999999985
21
-93.6602729999999895
0
LINE
8
BLACK
6
CONTINUOUS
10
111.3111609999999985
20
-93.6602729999999895
11
111.2818729999999903
21
-93.7032430000000005
0
LINE
8
BLACK
6
CONTINUOUS
10
111.2818729999999903
20
-93.7032430000000005
11
111.2177679999999924
21
-93.7851349999999968
0
LINE
8
BLACK
6
CONTINUOUS
10
111.2177679999999924
20
-93.7851349999999968
11
111.1477089999999919
21
-93.8619959999999907
0
LINE
8
BLACK
6
CONTINUOUS
10
111.1477089999999919
20
-93.8619959999999907
11
111.0720899999999887
21
-93.9333919999999978
0
LINE
8
BLACK
6
CONTINUOUS
10
111.0720899999999887
20
-93.9333919999999978
11
110.9913349999999923
21
-93.9989240000000024
0
LINE
8
BLACK
6
CONTINUOUS
10
110.9913349999999923
20
-93.9989240000000024
11
110.9058979999999934
21
-94.0582229999999981
0
LINE
8
BLACK
6
CONTINUOUS
10
110.9058979999999934
20
-94.0582229999999981
11
110.8162589999999881
21
-94.1109549999999899
0
LINE
8
BLACK
6
CONTINUOUS
10
110.8162589999999881
20
-94.1109549999999899
11
110.7229209999999995
21
-94.1568240000000003
0
LINE
8
BLACK
6
CONTINUOUS
10
110.7229209999999995
20
-94.1568240000000003
11
110.6264109999999903
21
-94.195572999999996
0
LINE
8
BLACK
6
CONTINUOUS
10
110.6264109999999903
20
-94.195572999999996
11
110.5272679999999923
21
-94.2269829999999899
0
LINE
8
BLACK
6
CONTINUOUS
10
110.5272679999999923
20
-94.2269829999999899
11
110.4260519999999985
21
-94.2508789999999976
0
LINE
8
BLACK
6
CONTINUOUS
10
110.4260519999999985
20
-94.2508789999999976
11
110.3233299999999986
21
-94.2671259999999904
0
LINE
8
BLACK
6
CONTINUOUS
10
110.3233299999999986
20
-94.2671259999999904
11
110.2196789999999993
21
-94.2756329999999991
0
LINE
8
BLACK
6
CONTINUOUS
10
110.2196789999999993
20
-94.2756329999999991
11
110.11568299999999
21
-94.2763520000000028
0
LINE
8
BLACK
6
CONTINUOUS
10
110.11568299999999
20
-94.2763520000000028
11
110.0119239999999934
21
-94.2692779999999999
0
LINE
8
BLACK
6
CONTINUOUS
10
110.0119239999999934
20
-94.2692779999999999
11
109.9089879999999937
21
-94.254452999999998
0
LINE
8
BLACK
6
CONTINUOUS
10
109.9089879999999937
20
-94.254452999999998
11
109.8074499999999887
21
-94.2319579999999917
0
LINE
8
BLACK
6
CONTINUOUS
10
109.8074499999999887
20
-94.2319579999999917
11
109.7078839999999929
21
-94.2019209999999987
0
LINE
8
BLACK
6
CONTINUOUS
10
109.7078839999999929
20
-94.2019209999999987
11
109.6108459999999951
21
-94.1645089999999954
0
LINE
8
BLACK
6
CONTINUOUS
10
109.6108459999999951
20
-94.1645089999999954
11
109.5168839999999904
21
-94.1199340000000007
0
LINE
8
BLACK
6
CONTINUOUS
10
109.5168839999999904
20
-94.1199340000000007
11
109.426524999999998
21
-94.0684459999999945
0
LINE
8
BLACK
6
CONTINUOUS
10
109.426524999999998
20
-94.0684459999999945
11
109.3831489999999889
21
-94.039763999999991
0
LINE
8
BLACK
6
CONTINUOUS
10
109.3831489999999889
20
-94.039763999999991
11
95.0888980000000004
21
-85.7788079999999979
0
LINE
8
BLACK
6
CONTINUOUS
10
95.0888980000000004
20
-85.7788079999999979
11
95.0087910000000022
21
-85.7551249999999925
0
LINE
8
BLACK
6
CONTINUOUS
10
95.0087910000000022
20
-85.7551249999999925
11
94.8466939999999994
21
-85.7146779999999922
0
LINE
8
BLACK
6
CONTINUOUS
10
94.8466939999999994
20
-85.7146779999999922
11
94.6828129999999959
21
-85.6822090000000003
0
LINE
8
BLACK
6
CONTINUOUS
10
94.6828129999999959
20
-85.6822090000000003
11
94.5175399999999968
21
-85.6577959999999905
0
LINE
8
BLACK
6
CONTINUOUS
10
94.5175399999999968
20
-85.6577959999999905
11
94.4344540000000023
21
-85.6491520000000008
0
LINE
8
BLACK
6
CONTINUOUS
10
94.4344540000000023
20
-85.6491520000000008
11
57.7638979999999975
21
-80.8788079999999923
0
LINE
8
BLACK
6
CONTINUOUS
10
57.7638979999999975
20
-80.8788079999999923
11
38.5
21
-80.8788079999999923
0
LINE
8
BLACK
6
CONTINUOUS
10
38.5
20
-80.8788079999999923
11
38.469775999999996
21
-80.8784390000000002
0
LINE
8
BLACK
6
CONTINUOUS
10
38.469775999999996
20
-80.8784390000000002
11
38.4097689999999972
21
-80.8711629999999957
0
LINE
8
BLACK
6
CONTINUOUS
10
38.4097689999999972
20
-80.8711629999999957
11
38.3510759999999991
21
-80.8567049999999909
0
LINE
8
BLACK
6
CONTINUOUS
10
38.3510759999999991
20
-80.8567049999999909
11
38.2945549999999955
21
-80.8352759999999932
0
LINE
8
BLACK
6
CONTINUOUS
10
38.2945549999999955
20
-80.8352759999999932
11
38.2410289999999975
21
-80.8071899999999914
0
LINE
8
BLACK
6
CONTINUOUS
10
38.2410289999999975
20
-80.8071899999999914
11
38.191279999999999
21
-80.7728539999999953
0
LINE
8
BLACK
6
CONTINUOUS
10
38.191279999999999
20
-80.7728539999999953
11
38.1460340000000002
21
-80.7327719999999971
0
LINE
8
BLACK
6
CONTINUOUS
10
38.1460340000000002
20
-80.7327719999999971
11
38.1059509999999975
21
-80.6875259999999912
0
LINE
8
BLACK
6
CONTINUOUS
10
38.1059509999999975
20
-80.6875259999999912
11
38.0716139999999967
21
-80.6377779999999973
0
LINE
8
BLACK
6
CONTINUOUS
10
38.0716139999999967
20
-80.6377779999999973
11
38.0435269999999974
21
-80.5842529999999897
0
LINE
8
BLACK
6
CONTINUOUS
10
38.0435269999999974
20
-80.5842529999999897
11
38.0220969999999951
21
-80.5277320000000003
0
LINE
8
BLACK
6
CONTINUOUS
10
38.0220969999999951
20
-80.5277320000000003
11
38.0076389999999975
21
-80.4690389999999951
0
LINE
8
BLACK
6
CONTINUOUS
10
38.0076389999999975
20
-80.4690389999999951
11
38.0003619999999955
21
-80.4090319999999963
0
LINE
8
BLACK
6
CONTINUOUS
10
38.0003619999999955
20
-80.4090319999999963
11
38.
21
-80.3788079999999923
0
LINE
8
BLACK
6
CONTINUOUS
10
38.
20
-80.3788079999999923
11
38.
21
-66.6288079999999923
0
LINE
8
BLACK
6
CONTINUOUS
10
38.
20
-66.6288079999999923
11
37.9995989999999964
21
-66.598589000000004
0
LINE
8
BLACK
6
CONTINUOUS
10
37.9995989999999964
20
-66.598589000000004
11
37.9923050000000018
21
-66.5385919999999942
0
LINE
8
BLACK
6
CONTINUOUS
10
37.9923050000000018
20
-66.5385919999999942
11
37.9778340000000014
21
-66.4799119999999988
0
LINE
8
BLACK
6
CONTINUOUS
10
37.9778340000000014
20
-66.4799119999999988
11
37.956395999999998
21
-66.4234029999999933
0
LINE
8
BLACK
6
CONTINUOUS
10
37.956395999999998
20
-66.4234029999999933
11
37.9283059999999992
21
-66.3698899999999981
0
LINE
8
BLACK
6
CONTINUOUS
10
37.9283059999999992
20
-66.3698899999999981
11
37.8939710000000005
21
-66.3201509999999956
0
LINE
8
BLACK
6
CONTINUOUS
10
37.8939710000000005
20
-66.3201509999999956
11
37.8538929999999993
21
-66.274912999999998
0
LINE
8
BLACK
6
CONTINUOUS
10
37.8538929999999993
20
-66.274912999999998
11
37.8086550000000017
21
-66.2348339999999922
0
LINE
8
BLACK
6
CONTINUOUS
10
37.8086550000000017
20
-66.2348339999999922
11
37.7589169999999967
21
-66.2004979999999961
0
LINE
8
BLACK
6
CONTINUOUS
10
37.7589169999999967
20
-66.2004979999999961
11
37.7054040000000015
21
-66.1724069999999926
0
LINE
8
BLACK
6
CONTINUOUS
10
37.7054040000000015
20
-66.1724069999999926
11
37.6488960000000006
21
-66.1509690000000035
0
LINE
8
BLACK
6
CONTINUOUS
10
37.6488960000000006
20
-66.1509690000000035
11
37.5902150000000006
21
-66.1364969999999914
0
LINE
8
BLACK
6
CONTINUOUS
10
37.5902150000000006
20
-66.1364969999999914
11
37.5302189999999953
21
-66.1292009999999948
0
LINE
8
BLACK
6
CONTINUOUS
10
37.5302189999999953
20
-66.1292009999999948
11
37.5
21
-66.1288079999999923
0
LINE
8
BLACK
6
CONTINUOUS
10
37.5
20
-66.1288079999999923
11
-8.4861019999999989
21
-66.1288079999999923
0
LINE
8
BLACK
6
CONTINUOUS
10
-8.4861019999999989
20
-66.1288079999999923
11
-8.514740999999999
21
-66.1290379999999942
0
LINE
8
BLACK
6
CONTINUOUS
10
-8.514740999999999
20
-66.1290379999999942
11
-8.5717669999999995
21
-66.1236799999999931
0
LINE
8
BLACK
6
CONTINUOUS
10
-8.5717669999999995
20
-66.1236799999999931
11
-8.6278170000000003
21
-66.111891
0
LINE
8
BLACK
6
CONTINUOUS
10
-8.6278170000000003
20
-66.111891
11
-8.682169
21
-66.0938209999999913
0
LINE
8
BLACK
6
CONTINUOUS
10
-8.682169
20
-66.0938209999999913
11
-8.7341219999999993
21
-66.0697059999999965
0
LINE
8
BLACK
6
CONTINUOUS
10
-8.7341219999999993
20
-66.0697059999999965
11
-8.7830049999999993
21
-66.0398550000000029
0
LINE
8
BLACK
6
CONTINUOUS
10
-8.7830049999999993
20
-66.0398550000000029
11
-8.828187999999999
21
-66.0046540000000022
0
LINE
8
BLACK
6
CONTINUOUS
10
-8.828187999999999
20
-66.0046540000000022
11
-8.8690879999999996
21
-65.9645569999999992
0
LINE
8
BLACK
6
CONTINUOUS
10
-8.8690879999999996
20
-65.9645569999999992
11
-8.9051779999999994
21
-65.9200809999999962
0
LINE
8
BLACK
6
CONTINUOUS
10
-8.9051779999999994
20
-65.9200809999999962
11
-8.9359919999999988
21
-65.8717989999999958
0
LINE
8
BLACK
6
CONTINUOUS
10
-8.9359919999999988
20
-65.8717989999999958
11
-8.9611330000000002
21
-65.820335
0
LINE
8
BLACK
6
CONTINUOUS
10
-8.9611330000000002
20
-65.820335
11
-8.9802759999999999
21
-65.7663519999999977
0
LINE
8
BLACK
6
CONTINUOUS
10
-8.9802759999999999
20
-65.7663519999999977
11
-8.993174999999999
21
-65.7105469999999912
0
LINE
8
BLACK
6
CONTINUOUS
10
-8.993174999999999
20
-65.7105469999999912
11
-8.999663
21
-65.6536380000000008
0
LINE
8
BLACK
6
CONTINUOUS
10
-8.999663
20
-65.6536380000000008
11
-9.
21
-65.625
0
LINE
8
BLACK
6
CONTINUOUS
10
-9.
20
-65.625
11
-9.
21
8.625
0
LINE
8
BLACK
6
CONTINUOUS
10
-9.
20
8.625
11
-8.999604999999999
21
8.6552189999999989
0
LINE
8
BLACK
6
CONTINUOUS
10
-8.999604999999999
20
8.6552189999999989
11
-8.9923079999999995
21
8.7152149999999988
0
LINE
8
BLACK
6
CONTINUOUS
10
-8.9923079999999995
20
8.7152149999999988
11
-8.9778339999999996
21
8.7738940000000003
0
LINE
8
BLACK
6
CONTINUOUS
10
-8.9778339999999996
20
8.7738940000000003
11
-8.9563959999999998
21
8.8304019999999994
0
LINE
8
BLACK
6
CONTINUOUS
10
-8.9563959999999998
20
8.8304019999999994
11
-8.9283039999999989
21
8.883913999999999
0
LINE
8
BLACK
6
CONTINUOUS
10
-8.9283039999999989
20
8.883913999999999
11
-8.8939679999999992
21
8.9336520000000004
0
LINE
8
BLACK
6
CONTINUOUS
10
-8.8939679999999992
20
8.9336520000000004
11
-8.8538899999999998
21
8.9788899999999998
0
LINE
8
BLACK
6
CONTINUOUS
10
-8.8538899999999998
20
8.9788899999999998
11
-8.8086520000000004
21
9.0189679999999992
0
LINE
8
BLACK
6
CONTINUOUS
10
-8.8086520000000004
20
9.0189679999999992
11
-8.758913999999999
21
9.0533039999999989
0
LINE
8
BLACK
6
CONTINUOUS
10
-8.758913999999999
20
9.0533039999999989
11
-8.7054019999999994
21
9.0813959999999998
0
LINE
8
BLACK
6
CONTINUOUS
10
-8.7054019999999994
20
9.0813959999999998
11
-8.6488940000000003
21
9.1028339999999996
0
LINE
8
BLACK
6
CONTINUOUS
10
-8.6488940000000003
20
9.1028339999999996
11
-8.5902149999999988
21
9.1173079999999995
0
LINE
8
BLACK
6
CONTINUOUS
10
-8.5902149999999988
20
9.1173079999999995
11
-8.5302189999999989
21
9.124604999999999
0
LINE
8
BLACK
6
CONTINUOUS
10
-8.5302189999999989
20
9.124604999999999
11
-8.5
21
9.125
0
LINE
8
BLACK
6
CONTINUOUS
10
-8.5
20
9.125
11
8.5
21
9.125
0
LINE
8
BLACK
6
CONTINUOUS
10
8.5
20
9.125
11
10.5
21
9.125
0
LINE
8
BLACK
6
CONTINUOUS
10
10.5
20
9.125
11
28.5
21
9.125
0
LINE
8
BLACK
6
CONTINUOUS
10
28.5
20
9.125
11
28.5302240000000005
21
9.1253609999999998
0
LINE
8
BLACK
6
CONTINUOUS
10
28.5302240000000005
20
9.1253609999999998
11
28.5902320000000003
21
9.132636999999999
0
LINE
8
BLACK
6
CONTINUOUS
10
28.5902320000000003
20
9.132636999999999
11
28.6489249999999984
21
9.1470950000000002
0
LINE
8
BLACK
6
CONTINUOUS
10
28.6489249999999984
20
9.1470950000000002
11
28.7054469999999995
21
9.1685239999999997
0
LINE
8
BLACK
6
CONTINUOUS
10
28.7054469999999995
20
9.1685239999999997
11
28.7589729999999975
21
9.196612
0
LINE
8
BLACK
6
CONTINUOUS
10
28.7589729999999975
20
9.196612
11
28.8087219999999995
21
9.2309479999999997
0
LINE
8
BLACK
6
CONTINUOUS
10
28.8087219999999995
20
9.2309479999999997
11
28.8539689999999993
21
9.2710309999999989
0
LINE
8
BLACK
6
CONTINUOUS
10
28.8539689999999993
20
9.2710309999999989
11
28.8940519999999985
21
9.3162779999999987
0
LINE
8
BLACK
6
CONTINUOUS
10
28.8940519999999985
20
9.3162779999999987
11
28.9283879999999982
21
9.366026999999999
0
LINE
8
BLACK
6
CONTINUOUS
10
28.9283879999999982
20
9.366026999999999
11
28.9564759999999985
21
9.4195529999999987
0
LINE
8
BLACK
6
CONTINUOUS
10
28.9564759999999985
20
9.4195529999999987
11
28.9779049999999998
21
9.4760749999999998
0
LINE
8
BLACK
6
CONTINUOUS
10
28.9779049999999998
20
9.4760749999999998
11
28.9923629999999974
21
9.5347679999999997
0
LINE
8
BLACK
6
CONTINUOUS
10
28.9923629999999974
20
9.5347679999999997
11
28.9996389999999984
21
9.5947759999999995
0
LINE
8
BLACK
6
CONTINUOUS
10
28.9996389999999984
20
9.5947759999999995
11
29.
21
9.625
0
LINE
8
BLACK
6
CONTINUOUS
10
29.
20
9.625
11
29.
21
13.375
0
LINE
8
BLACK
6
CONTINUOUS
10
29.
20
13.375
11
29.000392999999999
21
13.4052189999999989
0
LINE
8
BLACK
6
CONTINUOUS
10
29.000392999999999
20
13.4052189999999989
11
29.0076889999999992
21
13.4652159999999999
0
LINE
8
BLACK
6
CONTINUOUS
10
29.0076889999999992
20
13.4652159999999999
11
29.022160999999997
21
13.5238959999999988
0
LINE
8
BLACK
6
CONTINUOUS
10
29.022160999999997
20
13.5238959999999988
11
29.0435990000000004
21
13.5804049999999989
0
LINE
8
BLACK
6
CONTINUOUS
10
29.0435990000000004
20
13.5804049999999989
11
29.0716900000000003
21
13.6339189999999988
0
LINE
8
BLACK
6
CONTINUOUS
10
29.0716900000000003
20
13.6339189999999988
11
29.1060249999999989
21
13.6836570000000002
0
LINE
8
BLACK
6
CONTINUOUS
10
29.1060249999999989
20
13.6836570000000002
11
29.1461039999999976
21
13.7288959999999989
0
LINE
8
BLACK
6
CONTINUOUS
10
29.1461039999999976
20
13.7288959999999989
11
29.1913429999999998
21
13.7689749999999993
0
LINE
8
BLACK
6
CONTINUOUS
10
29.1913429999999998
20
13.7689749999999993
11
29.2410809999999977
21
13.8033099999999997
0
LINE
8
BLACK
6
CONTINUOUS
10
29.2410809999999977
20
13.8033099999999997
11
29.2945949999999975
21
13.8314009999999996
0
LINE
8
BLACK
6
CONTINUOUS
10
29.2945949999999975
20
13.8314009999999996
11
29.3511039999999994
21
13.8528389999999995
0
LINE
8
BLACK
6
CONTINUOUS
10
29.3511039999999994
20
13.8528389999999995
11
29.4097839999999984
21
13.8673109999999991
0
LINE
8
BLACK
6
CONTINUOUS
10
29.4097839999999984
20
13.8673109999999991
11
29.4697809999999976
21
13.8746069999999992
0
LINE
8
BLACK
6
CONTINUOUS
10
29.4697809999999976
20
13.8746069999999992
11
29.5
21
13.875
0
LINE
8
BLACK
6
CONTINUOUS
10
29.5
20
13.875
11
47.5
21
13.875
0
LINE
8
BLACK
6
CONTINUOUS
10
47.5
20
13.875
11
47.5302239999999969
21
13.8753609999999998
0
LINE
8
BLACK
6
CONTINUOUS
10
47.5302239999999969
20
13.8753609999999998
11
47.5902320000000003
21
13.882636999999999
0
LINE
8
BLACK
6
CONTINUOUS
10
47.5902320000000003
20
13.882636999999999
11
47.6489249999999984
21
13.8970950000000002
0
LINE
8
BLACK
6
CONTINUOUS
10
47.6489249999999984
20
13.8970950000000002
11
47.7054469999999995
21
13.9185239999999997
0
LINE
8
BLACK
6
CONTINUOUS
10
47.7054469999999995
20
13.9185239999999997
11
47.7589729999999975
21
13.946612
0
LINE
8
BLACK
6
CONTINUOUS
10
47.7589729999999975
20
13.946612
11
47.8087219999999959
21
13.9809479999999997
0
LINE
8
BLACK
6
CONTINUOUS
10
47.8087219999999959
20
13.9809479999999997
11
47.8539689999999993
21
14.0210309999999989
0
LINE
8
BLACK
6
CONTINUOUS
10
47.8539689999999993
20
14.0210309999999989
11
47.894051999999995
21
14.0662779999999987
0
LINE
8
BLACK
6
CONTINUOUS
10
47.894051999999995
20
14.0662779999999987
11
47.9283879999999982
21
14.116026999999999
0
LINE
8
BLACK
6
CONTINUOUS
10
47.9283879999999982
20
14.116026999999999
11
47.956475999999995
21
14.1695529999999987
0
LINE
8
BLACK
6
CONTINUOUS
10
47.956475999999995
20
14.1695529999999987
11
47.9779049999999998
21
14.2260749999999998
0
LINE
8
BLACK
6
CONTINUOUS
10
47.9779049999999998
20
14.2260749999999998
11
47.9923629999999974
21
14.2847679999999997
0
LINE
8
BLACK
6
CONTINUOUS
10
47.9923629999999974
20
14.2847679999999997
11
47.9996389999999948
21
14.3447759999999995
0
LINE
8
BLACK
6
CONTINUOUS
10
47.9996389999999948
20
14.3447759999999995
11
48.
21
14.375
0
LINE
8
BLACK
6
CONTINUOUS
10
48.
20
14.375
11
48.
21
15.625
0
LINE
8
BLACK
6
CONTINUOUS
10
48.
20
15.625
11
48.0003929999999954
21
15.6552189999999989
0
LINE
8
BLACK
6
CONTINUOUS
10
48.0003929999999954
20
15.6552189999999989
11
48.0076889999999992
21
15.7152159999999999
0
LINE
8
BLACK
6
CONTINUOUS
10
48.0076889999999992
20
15.7152159999999999
11
48.022160999999997
21
15.7738959999999988
0
LINE
8
BLACK
6
CONTINUOUS
10
48.022160999999997
20
15.7738959999999988
11
48.0435990000000004
21
15.8304049999999989
0
LINE
8
BLACK
6
CONTINUOUS
10
48.0435990000000004
20
15.8304049999999989
11
48.0716899999999967
21
15.8839189999999988
0
LINE
8
BLACK
6
CONTINUOUS
10
48.0716899999999967
20
15.8839189999999988
11
48.1060249999999954
21
15.9336569999999984
0
LINE
8
BLACK
6
CONTINUOUS
10
48.1060249999999954
20
15.9336569999999984
11
48.1461040000000011
21
15.9788959999999989
0
LINE
8
BLACK
6
CONTINUOUS
10
48.1461040000000011
20
15.9788959999999989
11
48.1913429999999963
21
16.0189749999999975
0
LINE
8
BLACK
6
CONTINUOUS
10
48.1913429999999963
20
16.0189749999999975
11
48.2410810000000012
21
16.0533099999999997
0
LINE
8
BLACK
6
CONTINUOUS
10
48.2410810000000012
20
16.0533099999999997
11
48.2945950000000011
21
16.0814009999999996
0
LINE
8
BLACK
6
CONTINUOUS
10
48.2945950000000011
20
16.0814009999999996
11
48.3511039999999994
21
16.1028389999999995
0
LINE
8
BLACK
6
CONTINUOUS
10
48.3511039999999994
20
16.1028389999999995
11
48.4097839999999948
21
16.1173110000000008
0
LINE
8
BLACK
6
CONTINUOUS
10
48.4097839999999948
20
16.1173110000000008
11
48.4697809999999976
21
16.124607000000001
0
LINE
8
BLACK
6
CONTINUOUS
10
48.4697809999999976
20
16.124607000000001
11
48.5
21
16.125
0
LINE
8
BLACK
6
CONTINUOUS
10
48.5
20
16.125
11
65.5
21
16.125
0
LINE
8
BLACK
6
CONTINUOUS
10
65.5
20
16.125
11
65.5302209999999974
21
16.1246119999999991
  0
ENDSEC
  0
EOF
