G04 #@! TF.GenerationSoftware,KiCad,Pcbnew,9.0.4*
G04 #@! TF.CreationDate,2025-09-05T13:54:33-06:00*
G04 #@! TF.ProjectId,keyboard_left,6b657962-6f61-4726-945f-6c6566742e6b,1.0*
G04 #@! TF.SameCoordinates,Original*
G04 #@! TF.FileFunction,Profile,NP*
%FSLAX46Y46*%
G04 Gerber Fmt 4.6, Leading zero omitted, Abs format (unit mm)*
G04 Created by KiCad (PCBNEW 9.0.4) date 2025-09-05 13:54:33*
%MOMM*%
%LPD*%
G01*
G04 APERTURE LIST*
G04 #@! TA.AperFunction,Profile*
%ADD10C,0.150000*%
G04 #@! TD*
G04 APERTURE END LIST*
D10*
X66763898Y-104828808D02*
G75*
G02*
X66249991Y-104325000I-10098J503708D01*
G01*
X66250000Y-30075000D02*
G75*
G02*
X66750000Y-29575000I500100J-100D01*
G01*
X104250000Y-29075000D02*
G75*
G02*
X103750000Y-29575000I-499900J-100D01*
G01*
X104250000Y-25325000D02*
G75*
G02*
X104750000Y-24825000I500100J-100D01*
G01*
X123250000Y-23075000D02*
G75*
G02*
X123750000Y-22575000I500100J-100D01*
G01*
X140750000Y-22575000D02*
G75*
G02*
X141250000Y-23075000I0J-500000D01*
G01*
X123250000Y-24325000D02*
G75*
G02*
X122750000Y-24825000I-499900J-100D01*
G01*
X141750000Y-24825000D02*
G75*
G02*
X141250000Y-24325000I0J500000D01*
G01*
X159750000Y-24825000D02*
G75*
G02*
X160250000Y-25325000I0J-500000D01*
G01*
X160750000Y-27325000D02*
G75*
G02*
X160250000Y-26825000I0J500000D01*
G01*
X83750000Y-29575000D02*
X66750000Y-29575000D01*
X66250000Y-30075000D02*
X66250000Y-104325000D01*
X160250000Y-26825000D02*
X160250000Y-25325000D01*
X123250000Y-23075000D02*
X123250000Y-24325000D01*
X140750000Y-22575000D02*
X123750000Y-22575000D01*
X141250000Y-24325000D02*
X141250000Y-23075000D01*
X104250000Y-25325000D02*
X104250000Y-29075000D01*
X199500000Y-27325000D02*
X160750000Y-27325000D01*
X159750000Y-24825000D02*
X141750000Y-24825000D01*
X103750000Y-29575000D02*
X85750000Y-29575000D01*
X122750000Y-24825000D02*
X104750000Y-24825000D01*
X133013898Y-119578808D02*
X169684454Y-124349152D01*
X112750000Y-104828808D02*
X66763898Y-104828808D01*
X170338898Y-124478808D02*
X184633149Y-132739764D01*
X198913898Y-110903808D02*
X200000000Y-109075000D01*
X133013898Y-119578808D02*
X113750000Y-119578808D01*
X112750000Y-104828808D02*
G75*
G02*
X113249992Y-105328808I-100J-500092D01*
G01*
X169684454Y-124349152D02*
G75*
G02*
X170338896Y-124478813I-333054J-3397448D01*
G01*
X186561161Y-132360273D02*
X198913898Y-110903808D01*
X83750000Y-29575000D02*
X85750000Y-29575000D01*
X113750000Y-119578808D02*
G75*
G02*
X113249992Y-119078808I-100J499908D01*
G01*
X113250000Y-105328808D02*
X113250000Y-119078808D01*
X186561161Y-132360273D02*
G75*
G02*
X184633137Y-132739782I-1153061J770673D01*
G01*
X199500000Y-27325000D02*
G75*
G02*
X200000000Y-27825000I0J-500000D01*
G01*
X200000000Y-27825000D02*
X200000000Y-109075000D01*
M02*
