  0
SECTION
  2
HEADER
  9
$ANGBASE
  50
0.0
  9
$ANGDIR
  70
1
  9
$MEASUREMENT
  70
1
  0
ENDSEC
  0
SECTION
  2
TABLES
  0
TABLE
  2
LTYPE
  70
4
  0
LTYPE
  5
40F
  2
CONTINUOUS
  70
0
  3
Solid line
  72
65
  73
0
  40
0.0
  0
LTYPE
  5
410
  2
DASHDOT
 70
0
  3
Dash Dot ____ _ ____ _
 72
65
 73
4
 40
2.0
 49
1.25
 49
-0.25
 49
0.25
 49
-0.25
  0
LTYPE
  5
411
  2
DASHED
 70
0
  3
Dashed __ __ __ __ __
 72
65
 73
2
 40
0.75
 49
0.5
 49
-0.25
  0
LTYPE
  5
43B
  2
DOTTED
 70
0
  3
Dotted .  .  .  .
 72
65
 73
2
 40
0.2
 49
0.0
 49
-0.2
  0
ENDTAB
  0
TABLE
  2
STYLE
  70
4
  0
STYLE
  2
KICAD
  70
0
  40
0
  41
1
  42
1
  50
0
  71
0
  3
isocp.shx
  0
STYLE
  2
KICADB
  70
0
  40
0
  41
1
  42
1
  50
0
  71
0
  3
isocp.shx
  0
STYLE
  2
KICADI
  70
0
  40
0
  41
1
  42
1
  50
15
  71
0
  3
isocp.shx
  0
STYLE
  2
KICADBI
  70
0
  40
0
  41
1
  42
1
  50
15
  71
0
  3
isocp.shx
  0
ENDTAB
  0
TABLE
  2
LAYER
  70
1
  0
LAYER
  2
BLACK
  70
0
  62
7
  6
CONTINUOUS
  0
ENDTAB
  0
ENDSEC
  0
SECTION
  2
ENTITIES
0
LINE
8
BLACK
6
CONTINUOUS
10
19.8802209999999988
20
-0.000388
11
19.9402219999999986
21
-0.007673
0
LINE
8
BLACK
6
CONTINUOUS
10
19.9402219999999986
20
-0.007673
11
19.9989080000000001
21
-0.022138
0
LINE
8
BLACK
6
CONTINUOUS
10
19.9989080000000001
20
-0.022138
11
20.0554220000000001
21
-0.043571
0
LINE
8
BLACK
6
CONTINUOUS
10
20.0554220000000001
20
-0.043571
11
20.108940999999998
21
-0.07166
0
LINE
8
BLACK
6
CONTINUOUS
10
20.108940999999998
20
-0.07166
11
20.1586839999999974
21
-0.105995
0
LINE
8
BLACK
6
CONTINUOUS
10
20.1586839999999974
20
-0.105995
11
20.2039249999999981
21
-0.146075
0
LINE
8
BLACK
6
CONTINUOUS
10
20.2039249999999981
20
-0.146075
11
20.2440049999999978
21
-0.191316
0
LINE
8
BLACK
6
CONTINUOUS
10
20.2440049999999978
20
-0.191316
11
20.27834
21
-0.241059
0
LINE
8
BLACK
6
CONTINUOUS
10
20.27834
20
-0.241059
11
20.3064289999999978
21
-0.294578
0
LINE
8
BLACK
6
CONTINUOUS
10
20.3064289999999978
20
-0.294578
11
20.3278619999999997
21
-0.351092
0
LINE
8
BLACK
6
CONTINUOUS
10
20.3278619999999997
20
-0.351092
11
20.3423269999999974
21
-0.409778
0
LINE
8
BLACK
6
CONTINUOUS
10
20.3423269999999974
20
-0.409778
11
20.3496120000000005
21
-0.469779
0
LINE
8
BLACK
6
CONTINUOUS
10
20.3496120000000005
20
-0.469779
11
20.3499999999999979
21
-0.5
0
LINE
8
BLACK
6
CONTINUOUS
10
20.3499999999999979
20
-0.5
11
20.3499999999999979
21
-81.75
0
LINE
8
BLACK
6
CONTINUOUS
10
20.3499999999999979
20
-81.75
11
0.
21
-75.2999999999999972
0
LINE
8
BLACK
6
CONTINUOUS
10
0.
20
-75.2999999999999972
11
0.
21
0.
0
LINE
8
BLACK
6
CONTINUOUS
10
0.
20
0.
11
19.8499999999999979
21
0.
0
LINE
8
BLACK
6
CONTINUOUS
10
19.8499999999999979
20
0.
11
19.8802209999999988
21
-0.000388
  0
ENDSEC
  0
EOF
