  0
SECTION
  2
HEADER
  9
$ANGBASE
  50
0.0
  9
$ANGDIR
  70
1
  9
$MEASUREMENT
  70
1
  0
ENDSEC
  0
SECTION
  2
TABLES
  0
TABLE
  2
LTYPE
  70
4
  0
LTYPE
  5
40F
  2
CONTINUOUS
  70
0
  3
Solid line
  72
65
  73
0
  40
0.0
  0
LTYPE
  5
410
  2
DASHDOT
 70
0
  3
Dash Dot ____ _ ____ _
 72
65
 73
4
 40
2.0
 49
1.25
 49
-0.25
 49
0.25
 49
-0.25
  0
LTYPE
  5
411
  2
DASHED
 70
0
  3
Dashed __ __ __ __ __
 72
65
 73
2
 40
0.75
 49
0.5
 49
-0.25
  0
LTYPE
  5
43B
  2
DOTTED
 70
0
  3
Dotted .  .  .  .
 72
65
 73
2
 40
0.2
 49
0.0
 49
-0.2
  0
ENDTAB
  0
TABLE
  2
STYLE
  70
4
  0
STYLE
  2
KICAD
  70
0
  40
0
  41
1
  42
1
  50
0
  71
0
  3
isocp.shx
  0
STYLE
  2
KICADB
  70
0
  40
0
  41
1
  42
1
  50
0
  71
0
  3
isocp.shx
  0
STYLE
  2
KICADI
  70
0
  40
0
  41
1
  42
1
  50
15
  71
0
  3
isocp.shx
  0
STYLE
  2
KICADBI
  70
0
  40
0
  41
1
  42
1
  50
15
  71
0
  3
isocp.shx
  0
ENDTAB
  0
TABLE
  2
LAYER
  70
1
  0
LAYER
  2
BLACK
  70
0
  62
7
  6
CONTINUOUS
  0
ENDTAB
  0
ENDSEC
  0
SECTION
  2
ENTITIES
0
LINE
8
BLACK
6
CONTINUOUS
10
7.1449999999999996
20
-13.3999999999999986
11
7.1450009999999997
21
-13.3999999999999986
0
LINE
8
BLACK
6
CONTINUOUS
10
7.1450009999999997
20
-13.3999999999999986
11
8.3449989999999996
21
-13.3999999999999986
0
LINE
8
BLACK
6
CONTINUOUS
10
8.3449989999999996
20
-13.3999999999999986
11
8.3449999999999989
21
-13.3999999999999986
0
LINE
8
BLACK
6
CONTINUOUS
10
8.3449999999999989
20
-13.3999999999999986
11
8.3449999999999989
21
-12.2999999999999989
0
LINE
8
BLACK
6
CONTINUOUS
10
8.3449999999999989
20
-12.2999999999999989
11
19.0449999999999982
21
-12.2999999999999989
0
LINE
8
BLACK
6
CONTINUOUS
10
19.0449999999999982
20
-12.2999999999999989
11
19.0449999999999982
21
-12.8999999999999986
0
LINE
8
BLACK
6
CONTINUOUS
10
19.0449999999999982
20
-12.8999999999999986
11
21.0449999999999982
21
-12.8999999999999986
0
LINE
8
BLACK
6
CONTINUOUS
10
21.0449999999999982
20
-12.8999999999999986
11
21.0449999999999982
21
-17.8999999999999986
0
LINE
8
BLACK
6
CONTINUOUS
10
21.0449999999999982
20
-17.8999999999999986
11
19.0449999999999982
21
-17.8999999999999986
0
LINE
8
BLACK
6
CONTINUOUS
10
19.0449999999999982
20
-17.8999999999999986
11
19.0449999999999982
21
-18.5
0
LINE
8
BLACK
6
CONTINUOUS
10
19.0449999999999982
20
-18.5
11
16.4450000000000003
21
-18.5
0
LINE
8
BLACK
6
CONTINUOUS
10
16.4450000000000003
20
-18.5
11
16.4450000000000003
21
-17.3999999999999986
0
LINE
8
BLACK
6
CONTINUOUS
10
16.4450000000000003
20
-17.3999999999999986
11
15.2449999999999992
21
-17.3999999999999986
0
LINE
8
BLACK
6
CONTINUOUS
10
15.2449999999999992
20
-17.3999999999999986
11
15.2449999999999992
21
-18.5
0
LINE
8
BLACK
6
CONTINUOUS
10
15.2449999999999992
20
-18.5
11
13.4449999999999985
21
-18.5
0
LINE
8
BLACK
6
CONTINUOUS
10
13.4449999999999985
20
-18.5
11
13.4449999999999985
21
-17.3999999999999986
0
LINE
8
BLACK
6
CONTINUOUS
10
13.4449999999999985
20
-17.3999999999999986
11
12.2449999999999992
21
-17.3999999999999986
0
LINE
8
BLACK
6
CONTINUOUS
10
12.2449999999999992
20
-17.3999999999999986
11
12.2449999999999992
21
-18.5
0
LINE
8
BLACK
6
CONTINUOUS
10
12.2449999999999992
20
-18.5
11
9.4450000000000003
21
-18.5
0
LINE
8
BLACK
6
CONTINUOUS
10
9.4450000000000003
20
-18.5
11
9.4450000000000003
21
-17.3999999999999986
0
LINE
8
BLACK
6
CONTINUOUS
10
9.4450000000000003
20
-17.3999999999999986
11
8.2449999999999992
21
-17.3999999999999986
0
LINE
8
BLACK
6
CONTINUOUS
10
8.2449999999999992
20
-17.3999999999999986
11
8.2449999999999992
21
-18.5
0
LINE
8
BLACK
6
CONTINUOUS
10
8.2449999999999992
20
-18.5
11
6.9449999999999994
21
-18.5
0
LINE
8
BLACK
6
CONTINUOUS
10
6.9449999999999994
20
-18.5
11
6.9449999999999994
21
-12.2999999999999989
0
LINE
8
BLACK
6
CONTINUOUS
10
6.9449999999999994
20
-12.2999999999999989
11
7.1449999999999996
21
-12.2999999999999989
0
LINE
8
BLACK
6
CONTINUOUS
10
7.1449999999999996
20
-12.2999999999999989
11
7.1449999999999996
21
-13.3999999999999986
  0
ENDSEC
  0
EOF
