  0
SECTION
  2
HEADER
  9
$ANGBASE
  50
0.0
  9
$ANGDIR
  70
1
  9
$MEASUREMENT
  70
1
  0
ENDSEC
  0
SECTION
  2
TABLES
  0
TABLE
  2
LTYPE
  70
4
  0
LTYPE
  5
40F
  2
CONTINUOUS
  70
0
  3
Solid line
  72
65
  73
0
  40
0.0
  0
LTYPE
  5
410
  2
DASHDOT
 70
0
  3
Dash Dot ____ _ ____ _
 72
65
 73
4
 40
2.0
 49
1.25
 49
-0.25
 49
0.25
 49
-0.25
  0
LTYPE
  5
411
  2
DASHED
 70
0
  3
Dashed __ __ __ __ __
 72
65
 73
2
 40
0.75
 49
0.5
 49
-0.25
  0
LTYPE
  5
43B
  2
DOTTED
 70
0
  3
Dotted .  .  .  .
 72
65
 73
2
 40
0.2
 49
0.0
 49
-0.2
  0
ENDTAB
  0
TABLE
  2
STYLE
  70
4
  0
STYLE
  2
KICAD
  70
0
  40
0
  41
1
  42
1
  50
0
  71
0
  3
isocp.shx
  0
STYLE
  2
KICADB
  70
0
  40
0
  41
1
  42
1
  50
0
  71
0
  3
isocp.shx
  0
STYLE
  2
KICADI
  70
0
  40
0
  41
1
  42
1
  50
15
  71
0
  3
isocp.shx
  0
STYLE
  2
KICADBI
  70
0
  40
0
  41
1
  42
1
  50
15
  71
0
  3
isocp.shx
  0
ENDTAB
  0
TABLE
  2
LAYER
  70
1
  0
LAYER
  2
BLACK
  70
0
  62
7
  6
CONTINUOUS
  0
ENDTAB
  0
ENDSEC
  0
SECTION
  2
ENTITIES
0
LINE
8
BLACK
6
CONTINUOUS
10
20.6729999999999983
20
-34.7299999999999969
11
15.3729999999999993
21
-34.7299999999999969
0
LINE
8
BLACK
6
CONTINUOUS
10
15.3729999999999993
20
-34.7299999999999969
11
15.3729999999999993
21
-28.7300000000000004
0
LINE
8
BLACK
6
CONTINUOUS
10
15.3729999999999993
20
-28.7300000000000004
11
20.6729999999999983
21
-28.7300000000000004
0
LINE
8
BLACK
6
CONTINUOUS
10
20.6729999999999983
20
-28.7300000000000004
11
20.6729999999999983
21
-34.7299999999999969
0
LINE
8
BLACK
6
CONTINUOUS
10
18.3499999999999979
20
-0.6599999999999999
11
18.6499999999999986
21
-0.6599999999999999
0
LINE
8
BLACK
6
CONTINUOUS
10
18.6499999999999986
20
-0.6599999999999999
11
18.6499999999999986
21
-2.46
0
LINE
8
BLACK
6
CONTINUOUS
10
18.6499999999999986
20
-2.46
11
18.3499999999999979
21
-2.46
0
LINE
8
BLACK
6
CONTINUOUS
10
18.3499999999999979
20
-2.46
11
18.3499999999999979
21
-4.5599999999999996
0
LINE
8
BLACK
6
CONTINUOUS
10
18.3499999999999979
20
-4.5599999999999996
11
18.6499999999999986
21
-4.5599999999999996
0
LINE
8
BLACK
6
CONTINUOUS
10
18.6499999999999986
20
-4.5599999999999996
11
18.6499999999999986
21
-7.
0
LINE
8
BLACK
6
CONTINUOUS
10
18.6499999999999986
20
-7.
11
8.6500000000000004
21
-7.
0
LINE
8
BLACK
6
CONTINUOUS
10
8.6500000000000004
20
-7.
11
8.6500000000000004
21
-4.5599999999999996
0
LINE
8
BLACK
6
CONTINUOUS
10
8.6500000000000004
20
-4.5599999999999996
11
8.9499999999999993
21
-4.5599999999999996
0
LINE
8
BLACK
6
CONTINUOUS
10
8.9499999999999993
20
-4.5599999999999996
11
8.9499999999999993
21
-2.46
0
LINE
8
BLACK
6
CONTINUOUS
10
8.9499999999999993
20
-2.46
11
8.6500000000000004
21
-2.46
0
LINE
8
BLACK
6
CONTINUOUS
10
8.6500000000000004
20
-2.46
11
8.6500000000000004
21
-0.6599999999999999
0
LINE
8
BLACK
6
CONTINUOUS
10
8.6500000000000004
20
-0.6599999999999999
11
8.9499999999999993
21
-0.6599999999999999
0
LINE
8
BLACK
6
CONTINUOUS
10
8.9499999999999993
20
-0.6599999999999999
11
8.9499999999999993
21
1.3
0
LINE
8
BLACK
6
CONTINUOUS
10
8.9499999999999993
20
1.3
11
18.3499999999999979
21
1.3
0
LINE
8
BLACK
6
CONTINUOUS
10
18.3499999999999979
20
1.3
11
18.3499999999999979
21
-0.6599999999999999
  0
ENDSEC
  0
EOF
