  0
SECTION
  2
HEADER
  9
$ANGBASE
  50
0.0
  9
$ANGDIR
  70
1
  9
$MEASUREMENT
  70
0
  0
ENDSEC
  0
SECTION
  2
TABLES
  0
TABLE
  2
LTYPE
  70
4
  0
LTYPE
  5
40F
  2
CONTINUOUS
  70
0
  3
Solid line
  72
65
  73
0
  40
0.0
  0
LTYPE
  5
410
  2
DASHDOT
 70
0
  3
Dash Dot ____ _ ____ _
 72
65
 73
4
 40
2.0
 49
1.25
 49
-0.25
 49
0.25
 49
-0.25
  0
LTYPE
  5
411
  2
DASHED
 70
0
  3
Dashed __ __ __ __ __
 72
65
 73
2
 40
0.75
 49
0.5
 49
-0.25
  0
LTYPE
  5
43B
  2
DOTTED
 70
0
  3
Dotted .  .  .  .
 72
65
 73
2
 40
0.2
 49
0.0
 49
-0.2
  0
ENDTAB
  0
TABLE
  2
STYLE
  70
4
  0
STYLE
  2
KICAD
  70
0
  40
0
  41
1
  42
1
  50
0
  71
0
  3
isocp.shx
  0
STYLE
  2
KICADB
  70
0
  40
0
  41
1
  42
1
  50
0
  71
0
  3
isocp.shx
  0
STYLE
  2
KICADI
  70
0
  40
0
  41
1
  42
1
  50
15
  71
0
  3
isocp.shx
  0
STYLE
  2
KICADBI
  70
0
  40
0
  41
1
  42
1
  50
15
  71
0
  3
isocp.shx
  0
ENDTAB
  0
TABLE
  2
LAYER
  70
1
  0
LAYER
  2
BLACK
  70
0
  62
7
  6
CONTINUOUS
  0
ENDTAB
  0
ENDSEC
  0
SECTION
  2
ENTITIES
0
LINE
8
BLACK
6
CONTINUOUS
10
0.7826858661417323
20
-0.0000152755905512
11
0.7850481102362205
21
-0.0003020866141732
0
LINE
8
BLACK
6
CONTINUOUS
10
0.7850481102362205
20
-0.0003020866141732
11
0.7873585826771653
21
-0.0008715748031496
0
LINE
8
BLACK
6
CONTINUOUS
10
0.7873585826771653
20
-0.0008715748031496
11
0.7895835433070866
21
-0.0017153937007874
0
LINE
8
BLACK
6
CONTINUOUS
10
0.7895835433070866
20
-0.0017153937007874
11
0.7916905905511811
21
-0.0028212598425197
0
LINE
8
BLACK
6
CONTINUOUS
10
0.7916905905511811
20
-0.0028212598425197
11
0.7936489763779527
21
-0.004173031496063
0
LINE
8
BLACK
6
CONTINUOUS
10
0.7936489763779527
20
-0.004173031496063
11
0.7954301181102362
21
-0.0057509842519685
0
LINE
8
BLACK
6
CONTINUOUS
10
0.7954301181102362
20
-0.0057509842519685
11
0.7970080708661417
21
-0.007532125984252
0
LINE
8
BLACK
6
CONTINUOUS
10
0.7970080708661417
20
-0.007532125984252
11
0.7983598425196851
21
-0.0094905118110236
0
LINE
8
BLACK
6
CONTINUOUS
10
0.7983598425196851
20
-0.0094905118110236
11
0.7994657086614173
21
-0.0115975590551181
0
LINE
8
BLACK
6
CONTINUOUS
10
0.7994657086614173
20
-0.0115975590551181
11
0.800309527559055
21
-0.0138225196850394
0
LINE
8
BLACK
6
CONTINUOUS
10
0.800309527559055
20
-0.0138225196850394
11
0.8008790157480314
21
-0.0161329921259843
0
LINE
8
BLACK
6
CONTINUOUS
10
0.8008790157480314
20
-0.0161329921259843
11
0.8011658267716535
21
-0.0184952362204724
0
LINE
8
BLACK
6
CONTINUOUS
10
0.8011658267716535
20
-0.0184952362204724
11
0.8011811023622047
21
-0.0196850393700787
0
LINE
8
BLACK
6
CONTINUOUS
10
0.8011811023622047
20
-0.0196850393700787
11
0.8011811023622047
21
-3.2185039370078741
0
LINE
8
BLACK
6
CONTINUOUS
10
0.8011811023622047
20
-3.2185039370078741
11
0.
21
-2.9645669291338583
0
LINE
8
BLACK
6
CONTINUOUS
10
0.
20
-2.9645669291338583
11
0.
21
0.
0
LINE
8
BLACK
6
CONTINUOUS
10
0.
20
0.
11
0.7814960629921259
21
0.
0
LINE
8
BLACK
6
CONTINUOUS
10
0.7814960629921259
20
0.
11
0.7826858661417323
21
-0.0000152755905512
  0
ENDSEC
  0
EOF
