  0
SECTION
  2
HEADER
  9
$ANGBASE
  50
0.0
  9
$ANGDIR
  70
1
  9
$MEASUREMENT
  70
0
  0
ENDSEC
  0
SECTION
  2
TABLES
  0
TABLE
  2
LTYPE
  70
4
  0
LTYPE
  5
40F
  2
CONTINUOUS
  70
0
  3
Solid line
  72
65
  73
0
  40
0.0
  0
LTYPE
  5
410
  2
DASHDOT
 70
0
  3
Dash Dot ____ _ ____ _
 72
65
 73
4
 40
2.0
 49
1.25
 49
-0.25
 49
0.25
 49
-0.25
  0
LTYPE
  5
411
  2
DASHED
 70
0
  3
Dashed __ __ __ __ __
 72
65
 73
2
 40
0.75
 49
0.5
 49
-0.25
  0
LTYPE
  5
43B
  2
DOTTED
 70
0
  3
Dotted .  .  .  .
 72
65
 73
2
 40
0.2
 49
0.0
 49
-0.2
  0
ENDTAB
  0
TABLE
  2
STYLE
  70
4
  0
STYLE
  2
KICAD
  70
0
  40
0
  41
1
  42
1
  50
0
  71
0
  3
isocp.shx
  0
STYLE
  2
KICADB
  70
0
  40
0
  41
1
  42
1
  50
0
  71
0
  3
isocp.shx
  0
STYLE
  2
KICADI
  70
0
  40
0
  41
1
  42
1
  50
15
  71
0
  3
isocp.shx
  0
STYLE
  2
KICADBI
  70
0
  40
0
  41
1
  42
1
  50
15
  71
0
  3
isocp.shx
  0
ENDTAB
  0
TABLE
  2
LAYER
  70
1
  0
LAYER
  2
BLACK
  70
0
  62
7
  6
CONTINUOUS
  0
ENDTAB
  0
ENDSEC
  0
SECTION
  2
ENTITIES
0
LINE
8
BLACK
6
CONTINUOUS
10
0.7345275590551181
20
-0.7480314960629921
11
0.6692913385826772
21
-0.7480314960629921
0
LINE
8
BLACK
6
CONTINUOUS
10
0.6692913385826772
20
-0.7480314960629921
11
0.6692913385826772
21
-0.7925196850393701
0
LINE
8
BLACK
6
CONTINUOUS
10
0.6692913385826772
20
-0.7925196850393701
11
0.6283070866141732
21
-0.7925196850393701
0
LINE
8
BLACK
6
CONTINUOUS
10
0.6283070866141732
20
-0.7925196850393701
11
0.6283070866141732
21
-2.0900393700787401
0
LINE
8
BLACK
6
CONTINUOUS
10
0.6283070866141732
20
-2.0900393700787401
11
0.7243307086614174
21
-2.0900393700787401
0
LINE
8
BLACK
6
CONTINUOUS
10
0.7243307086614174
20
-2.0900393700787401
11
0.7243307086614174
21
-2.2986220472440944
0
LINE
8
BLACK
6
CONTINUOUS
10
0.7243307086614174
20
-2.2986220472440944
11
0.0275590551181102
21
-2.2986220472440944
0
LINE
8
BLACK
6
CONTINUOUS
10
0.0275590551181102
20
-2.2986220472440944
11
0.0275590551181102
21
-1.5514960629921259
0
LINE
8
BLACK
6
CONTINUOUS
10
0.0275590551181102
20
-1.5514960629921259
11
0.5087795275590551
21
-1.5514960629921259
0
LINE
8
BLACK
6
CONTINUOUS
10
0.5087795275590551
20
-1.5514960629921259
11
0.5087795275590551
21
-1.1721653543307087
0
LINE
8
BLACK
6
CONTINUOUS
10
0.5087795275590551
20
-1.1721653543307087
11
0.1619291338582677
21
-1.1721653543307087
0
LINE
8
BLACK
6
CONTINUOUS
10
0.1619291338582677
20
-1.1721653543307087
11
0.1619291338582677
21
-0.2195275590551181
0
LINE
8
BLACK
6
CONTINUOUS
10
0.1619291338582677
20
-0.2195275590551181
11
0.7345275590551181
21
-0.2195275590551181
0
LINE
8
BLACK
6
CONTINUOUS
10
0.7345275590551181
20
-0.2195275590551181
11
0.7345275590551181
21
-0.7480314960629921
  0
ENDSEC
  0
EOF
