  0
SECTION
  2
HEADER
  9
$ANGBASE
  50
0.0
  9
$ANGDIR
  70
1
  9
$MEASUREMENT
  70
0
  0
ENDSEC
  0
SECTION
  2
TABLES
  0
TABLE
  2
LTYPE
  70
4
  0
LTYPE
  5
40F
  2
CONTINUOUS
  70
0
  3
Solid line
  72
65
  73
0
  40
0.0
  0
LTYPE
  5
410
  2
DASHDOT
 70
0
  3
Dash Dot ____ _ ____ _
 72
65
 73
4
 40
2.0
 49
1.25
 49
-0.25
 49
0.25
 49
-0.25
  0
LTYPE
  5
411
  2
DASHED
 70
0
  3
Dashed __ __ __ __ __
 72
65
 73
2
 40
0.75
 49
0.5
 49
-0.25
  0
LTYPE
  5
43B
  2
DOTTED
 70
0
  3
Dotted .  .  .  .
 72
65
 73
2
 40
0.2
 49
0.0
 49
-0.2
  0
ENDTAB
  0
TABLE
  2
STYLE
  70
4
  0
STYLE
  2
KICAD
  70
0
  40
0
  41
1
  42
1
  50
0
  71
0
  3
isocp.shx
  0
STYLE
  2
KICADB
  70
0
  40
0
  41
1
  42
1
  50
0
  71
0
  3
isocp.shx
  0
STYLE
  2
KICADI
  70
0
  40
0
  41
1
  42
1
  50
15
  71
0
  3
isocp.shx
  0
STYLE
  2
KICADBI
  70
0
  40
0
  41
1
  42
1
  50
15
  71
0
  3
isocp.shx
  0
ENDTAB
  0
TABLE
  2
LAYER
  70
1
  0
LAYER
  2
BLACK
  70
0
  62
7
  6
CONTINUOUS
  0
ENDTAB
  0
ENDSEC
  0
SECTION
  2
ENTITIES
0
LINE
8
BLACK
6
CONTINUOUS
10
0.2812992125984252
20
-0.5275590551181102
11
0.2812992519685039
21
-0.5275590551181102
0
LINE
8
BLACK
6
CONTINUOUS
10
0.2812992519685039
20
-0.5275590551181102
11
0.3285432677165354
21
-0.5275590551181102
0
LINE
8
BLACK
6
CONTINUOUS
10
0.3285432677165354
20
-0.5275590551181102
11
0.3285433070866142
21
-0.5275590551181102
0
LINE
8
BLACK
6
CONTINUOUS
10
0.3285433070866142
20
-0.5275590551181102
11
0.3285433070866142
21
-0.484251968503937
0
LINE
8
BLACK
6
CONTINUOUS
10
0.3285433070866142
20
-0.484251968503937
11
0.7498031496062992
21
-0.484251968503937
0
LINE
8
BLACK
6
CONTINUOUS
10
0.7498031496062992
20
-0.484251968503937
11
0.7498031496062992
21
-0.5078740157480315
0
LINE
8
BLACK
6
CONTINUOUS
10
0.7498031496062992
20
-0.5078740157480315
11
0.8285433070866142
21
-0.5078740157480315
0
LINE
8
BLACK
6
CONTINUOUS
10
0.8285433070866142
20
-0.5078740157480315
11
0.8285433070866142
21
-0.7047244094488189
0
LINE
8
BLACK
6
CONTINUOUS
10
0.8285433070866142
20
-0.7047244094488189
11
0.7498031496062992
21
-0.7047244094488189
0
LINE
8
BLACK
6
CONTINUOUS
10
0.7498031496062992
20
-0.7047244094488189
11
0.7498031496062992
21
-0.7283464566929134
0
LINE
8
BLACK
6
CONTINUOUS
10
0.7498031496062992
20
-0.7283464566929134
11
0.6474409448818897
21
-0.7283464566929134
0
LINE
8
BLACK
6
CONTINUOUS
10
0.6474409448818897
20
-0.7283464566929134
11
0.6474409448818897
21
-0.6850393700787402
0
LINE
8
BLACK
6
CONTINUOUS
10
0.6474409448818897
20
-0.6850393700787402
11
0.6001968503937007
21
-0.6850393700787402
0
LINE
8
BLACK
6
CONTINUOUS
10
0.6001968503937007
20
-0.6850393700787402
11
0.6001968503937007
21
-0.7283464566929134
0
LINE
8
BLACK
6
CONTINUOUS
10
0.6001968503937007
20
-0.7283464566929134
11
0.5293307086614173
21
-0.7283464566929134
0
LINE
8
BLACK
6
CONTINUOUS
10
0.5293307086614173
20
-0.7283464566929134
11
0.5293307086614173
21
-0.6850393700787402
0
LINE
8
BLACK
6
CONTINUOUS
10
0.5293307086614173
20
-0.6850393700787402
11
0.4820866141732283
21
-0.6850393700787402
0
LINE
8
BLACK
6
CONTINUOUS
10
0.4820866141732283
20
-0.6850393700787402
11
0.4820866141732283
21
-0.7283464566929134
0
LINE
8
BLACK
6
CONTINUOUS
10
0.4820866141732283
20
-0.7283464566929134
11
0.3718503937007874
21
-0.7283464566929134
0
LINE
8
BLACK
6
CONTINUOUS
10
0.3718503937007874
20
-0.7283464566929134
11
0.3718503937007874
21
-0.6850393700787402
0
LINE
8
BLACK
6
CONTINUOUS
10
0.3718503937007874
20
-0.6850393700787402
11
0.3246062992125984
21
-0.6850393700787402
0
LINE
8
BLACK
6
CONTINUOUS
10
0.3246062992125984
20
-0.6850393700787402
11
0.3246062992125984
21
-0.7283464566929134
0
LINE
8
BLACK
6
CONTINUOUS
10
0.3246062992125984
20
-0.7283464566929134
11
0.2734251968503937
21
-0.7283464566929134
0
LINE
8
BLACK
6
CONTINUOUS
10
0.2734251968503937
20
-0.7283464566929134
11
0.2734251968503937
21
-0.484251968503937
0
LINE
8
BLACK
6
CONTINUOUS
10
0.2734251968503937
20
-0.484251968503937
11
0.2812992125984252
21
-0.484251968503937
0
LINE
8
BLACK
6
CONTINUOUS
10
0.2812992125984252
20
-0.484251968503937
11
0.2812992125984252
21
-0.5275590551181102
  0
ENDSEC
  0
EOF
