  0
SECTION
  2
HEADER
  9
$ANGBASE
  50
0.0
  9
$ANGDIR
  70
1
  9
$MEASUREMENT
  70
0
  0
ENDSEC
  0
SECTION
  2
TABLES
  0
TABLE
  2
LTYPE
  70
4
  0
LTYPE
  5
40F
  2
CONTINUOUS
  70
0
  3
Solid line
  72
65
  73
0
  40
0.0
  0
LTYPE
  5
410
  2
DASHDOT
 70
0
  3
Dash Dot ____ _ ____ _
 72
65
 73
4
 40
2.0
 49
1.25
 49
-0.25
 49
0.25
 49
-0.25
  0
LTYPE
  5
411
  2
DASHED
 70
0
  3
Dashed __ __ __ __ __
 72
65
 73
2
 40
0.75
 49
0.5
 49
-0.25
  0
LTYPE
  5
43B
  2
DOTTED
 70
0
  3
Dotted .  .  .  .
 72
65
 73
2
 40
0.2
 49
0.0
 49
-0.2
  0
ENDTAB
  0
TABLE
  2
STYLE
  70
4
  0
STYLE
  2
KICAD
  70
0
  40
0
  41
1
  42
1
  50
0
  71
0
  3
isocp.shx
  0
STYLE
  2
KICADB
  70
0
  40
0
  41
1
  42
1
  50
0
  71
0
  3
isocp.shx
  0
STYLE
  2
KICADI
  70
0
  40
0
  41
1
  42
1
  50
15
  71
0
  3
isocp.shx
  0
STYLE
  2
KICADBI
  70
0
  40
0
  41
1
  42
1
  50
15
  71
0
  3
isocp.shx
  0
ENDTAB
  0
TABLE
  2
LAYER
  70
1
  0
LAYER
  2
BLACK
  70
0
  62
7
  6
CONTINUOUS
  0
ENDTAB
  0
ENDSEC
  0
SECTION
  2
ENTITIES
0
LINE
8
BLACK
6
CONTINUOUS
10
0.7961811023622047
20
-1.3673228346456692
11
0.605236220472441
21
-1.3673228346456692
0
LINE
8
BLACK
6
CONTINUOUS
10
0.605236220472441
20
-1.3673228346456692
11
0.605236220472441
21
-1.1311023622047245
0
LINE
8
BLACK
6
CONTINUOUS
10
0.605236220472441
20
-1.1311023622047245
11
0.7961811023622047
21
-1.1311023622047245
0
LINE
8
BLACK
6
CONTINUOUS
10
0.7961811023622047
20
-1.1311023622047245
11
0.7961811023622047
21
-1.3673228346456692
0
LINE
8
BLACK
6
CONTINUOUS
10
0.7224409448818897
20
-0.0259842519685039
11
0.734251968503937
21
-0.0259842519685039
0
LINE
8
BLACK
6
CONTINUOUS
10
0.734251968503937
20
-0.0259842519685039
11
0.734251968503937
21
-0.0968503937007874
0
LINE
8
BLACK
6
CONTINUOUS
10
0.734251968503937
20
-0.0968503937007874
11
0.7224409448818897
21
-0.0968503937007874
0
LINE
8
BLACK
6
CONTINUOUS
10
0.7224409448818897
20
-0.0968503937007874
11
0.7224409448818897
21
-0.1795275590551181
0
LINE
8
BLACK
6
CONTINUOUS
10
0.7224409448818897
20
-0.1795275590551181
11
0.734251968503937
21
-0.1795275590551181
0
LINE
8
BLACK
6
CONTINUOUS
10
0.734251968503937
20
-0.1795275590551181
11
0.734251968503937
21
-0.2755905511811024
0
LINE
8
BLACK
6
CONTINUOUS
10
0.734251968503937
20
-0.2755905511811024
11
0.3405511811023622
21
-0.2755905511811024
0
LINE
8
BLACK
6
CONTINUOUS
10
0.3405511811023622
20
-0.2755905511811024
11
0.3405511811023622
21
-0.1795275590551181
0
LINE
8
BLACK
6
CONTINUOUS
10
0.3405511811023622
20
-0.1795275590551181
11
0.3523622047244094
21
-0.1795275590551181
0
LINE
8
BLACK
6
CONTINUOUS
10
0.3523622047244094
20
-0.1795275590551181
11
0.3523622047244094
21
-0.0968503937007874
0
LINE
8
BLACK
6
CONTINUOUS
10
0.3523622047244094
20
-0.0968503937007874
11
0.3405511811023622
21
-0.0968503937007874
0
LINE
8
BLACK
6
CONTINUOUS
10
0.3405511811023622
20
-0.0968503937007874
11
0.3405511811023622
21
-0.0259842519685039
0
LINE
8
BLACK
6
CONTINUOUS
10
0.3405511811023622
20
-0.0259842519685039
11
0.3523622047244094
21
-0.0259842519685039
0
LINE
8
BLACK
6
CONTINUOUS
10
0.3523622047244094
20
-0.0259842519685039
11
0.3523622047244094
21
0.0511811023622047
0
LINE
8
BLACK
6
CONTINUOUS
10
0.3523622047244094
20
0.0511811023622047
11
0.7224409448818897
21
0.0511811023622047
0
LINE
8
BLACK
6
CONTINUOUS
10
0.7224409448818897
20
0.0511811023622047
11
0.7224409448818897
21
-0.0259842519685039
0
LINE
8
BLACK
6
CONTINUOUS
10
0.2716535433070866
20
-0.1372834645669291
11
0.062992125984252
21
-0.1372834645669291
0
LINE
8
BLACK
6
CONTINUOUS
10
0.062992125984252
20
-0.1372834645669291
11
0.062992125984252
21
0.0111417322834646
0
LINE
8
BLACK
6
CONTINUOUS
10
0.062992125984252
20
0.0111417322834646
11
0.2716535433070866
21
0.0111417322834646
0
LINE
8
BLACK
6
CONTINUOUS
10
0.2716535433070866
20
0.0111417322834646
11
0.2716535433070866
21
-0.1372834645669291
  0
ENDSEC
  0
EOF
