G04 #@! TF.GenerationSoftware,KiCad,Pcbnew,9.0.4*
G04 #@! TF.CreationDate,2025-09-24T17:18:31-07:00*
G04 #@! TF.ProjectId,stencil,7374656e-6369-46c2-9e6b-696361645f70,1.0*
G04 #@! TF.SameCoordinates,Original*
G04 #@! TF.FileFunction,Copper,L1,Top*
G04 #@! TF.FilePolarity,Positive*
%FSLAX46Y46*%
G04 Gerber Fmt 4.6, Leading zero omitted, Abs format (unit mm)*
G04 Created by KiCad (PCBNEW 9.0.4) date 2025-09-24 17:18:31*
%MOMM*%
%LPD*%
G01*
G04 APERTURE LIST*
G04 Aperture macros list*
%AMRoundRect*
0 Rectangle with rounded corners*
0 $1 Rounding radius*
0 $2 $3 $4 $5 $6 $7 $8 $9 X,Y pos of 4 corners*
0 Add a 4 corners polygon primitive as box body*
4,1,4,$2,$3,$4,$5,$6,$7,$8,$9,$2,$3,0*
0 Add four circle primitives for the rounded corners*
1,1,$1+$1,$2,$3*
1,1,$1+$1,$4,$5*
1,1,$1+$1,$6,$7*
1,1,$1+$1,$8,$9*
0 Add four rect primitives between the rounded corners*
20,1,$1+$1,$2,$3,$4,$5,0*
20,1,$1+$1,$4,$5,$6,$7,0*
20,1,$1+$1,$6,$7,$8,$9,0*
20,1,$1+$1,$8,$9,$2,$3,0*%
G04 Aperture macros list end*
G04 #@! TA.AperFunction,SMDPad,CuDef*
%ADD10RoundRect,0.200000X0.200000X0.275000X-0.200000X0.275000X-0.200000X-0.275000X0.200000X-0.275000X0*%
G04 #@! TD*
G04 #@! TA.AperFunction,SMDPad,CuDef*
%ADD11O,0.600000X1.200000*%
G04 #@! TD*
G04 #@! TA.AperFunction,SMDPad,CuDef*
%ADD12O,0.600000X1.700000*%
G04 #@! TD*
G04 #@! TA.AperFunction,SMDPad,CuDef*
%ADD13R,0.600000X1.450000*%
G04 #@! TD*
G04 #@! TA.AperFunction,SMDPad,CuDef*
%ADD14R,0.300000X1.450000*%
G04 #@! TD*
G04 #@! TA.AperFunction,SMDPad,CuDef*
%ADD15R,0.406400X0.838200*%
G04 #@! TD*
G04 #@! TA.AperFunction,SMDPad,CuDef*
%ADD16R,0.355600X0.838200*%
G04 #@! TD*
G04 #@! TA.AperFunction,SMDPad,CuDef*
%ADD17C,1.650000*%
G04 #@! TD*
G04 #@! TA.AperFunction,SMDPad,CuDef*
%ADD18RoundRect,0.100000X-0.350000X-0.100000X0.350000X-0.100000X0.350000X0.100000X-0.350000X0.100000X0*%
G04 #@! TD*
G04 #@! TA.AperFunction,SMDPad,CuDef*
%ADD19RoundRect,0.225000X-0.250000X0.225000X-0.250000X-0.225000X0.250000X-0.225000X0.250000X0.225000X0*%
G04 #@! TD*
G04 #@! TA.AperFunction,SMDPad,CuDef*
%ADD20RoundRect,0.250000X0.375000X0.625000X-0.375000X0.625000X-0.375000X-0.625000X0.375000X-0.625000X0*%
G04 #@! TD*
G04 #@! TA.AperFunction,SMDPad,CuDef*
%ADD21RoundRect,0.200000X-0.200000X-0.275000X0.200000X-0.275000X0.200000X0.275000X-0.200000X0.275000X0*%
G04 #@! TD*
G04 #@! TA.AperFunction,SMDPad,CuDef*
%ADD22RoundRect,0.225000X0.225000X0.250000X-0.225000X0.250000X-0.225000X-0.250000X0.225000X-0.250000X0*%
G04 #@! TD*
G04 #@! TA.AperFunction,SMDPad,CuDef*
%ADD23R,0.952500X0.508000*%
G04 #@! TD*
G04 #@! TA.AperFunction,SMDPad,CuDef*
%ADD24RoundRect,0.225000X0.425000X0.225000X-0.425000X0.225000X-0.425000X-0.225000X0.425000X-0.225000X0*%
G04 #@! TD*
G04 #@! TA.AperFunction,SMDPad,CuDef*
%ADD25RoundRect,0.150000X0.150000X0.750000X-0.150000X0.750000X-0.150000X-0.750000X0.150000X-0.750000X0*%
G04 #@! TD*
G04 #@! TA.AperFunction,SMDPad,CuDef*
%ADD26RoundRect,0.187500X0.187500X0.712500X-0.187500X0.712500X-0.187500X-0.712500X0.187500X-0.712500X0*%
G04 #@! TD*
G04 #@! TA.AperFunction,SMDPad,CuDef*
%ADD27RoundRect,0.225000X-0.225000X-0.250000X0.225000X-0.250000X0.225000X0.250000X-0.225000X0.250000X0*%
G04 #@! TD*
G04 #@! TA.AperFunction,SMDPad,CuDef*
%ADD28RoundRect,0.162500X0.367500X0.162500X-0.367500X0.162500X-0.367500X-0.162500X0.367500X-0.162500X0*%
G04 #@! TD*
G04 #@! TA.AperFunction,SMDPad,CuDef*
%ADD29RoundRect,0.225000X0.250000X-0.225000X0.250000X0.225000X-0.250000X0.225000X-0.250000X-0.225000X0*%
G04 #@! TD*
G04 #@! TA.AperFunction,SMDPad,CuDef*
%ADD30RoundRect,0.250000X-0.325000X-0.250000X0.325000X-0.250000X0.325000X0.250000X-0.325000X0.250000X0*%
G04 #@! TD*
G04 #@! TA.AperFunction,SMDPad,CuDef*
%ADD31RoundRect,0.200000X0.275000X-0.200000X0.275000X0.200000X-0.275000X0.200000X-0.275000X-0.200000X0*%
G04 #@! TD*
G04 #@! TA.AperFunction,SMDPad,CuDef*
%ADD32RoundRect,0.250000X0.275000X0.700000X-0.275000X0.700000X-0.275000X-0.700000X0.275000X-0.700000X0*%
G04 #@! TD*
G04 #@! TA.AperFunction,SMDPad,CuDef*
%ADD33RoundRect,0.125000X-0.125000X-0.625000X0.125000X-0.625000X0.125000X0.625000X-0.125000X0.625000X0*%
G04 #@! TD*
G04 #@! TA.AperFunction,SMDPad,CuDef*
%ADD34RoundRect,0.125000X-0.625000X-0.125000X0.625000X-0.125000X0.625000X0.125000X-0.625000X0.125000X0*%
G04 #@! TD*
G04 #@! TA.AperFunction,SMDPad,CuDef*
%ADD35RoundRect,0.100000X-0.100000X0.350000X-0.100000X-0.350000X0.100000X-0.350000X0.100000X0.350000X0*%
G04 #@! TD*
G04 #@! TA.AperFunction,SMDPad,CuDef*
%ADD36RoundRect,0.100000X0.350000X0.100000X-0.350000X0.100000X-0.350000X-0.100000X0.350000X-0.100000X0*%
G04 #@! TD*
G04 #@! TA.AperFunction,SMDPad,CuDef*
%ADD37RoundRect,0.250000X-0.450000X0.250000X-0.450000X-0.250000X0.450000X-0.250000X0.450000X0.250000X0*%
G04 #@! TD*
G04 #@! TA.AperFunction,SMDPad,CuDef*
%ADD38RoundRect,0.250000X-0.450000X0.350000X-0.450000X-0.350000X0.450000X-0.350000X0.450000X0.350000X0*%
G04 #@! TD*
G04 #@! TA.AperFunction,SMDPad,CuDef*
%ADD39RoundRect,0.100000X0.637500X0.100000X-0.637500X0.100000X-0.637500X-0.100000X0.637500X-0.100000X0*%
G04 #@! TD*
G04 #@! TA.AperFunction,SMDPad,CuDef*
%ADD40R,1.200000X2.500000*%
G04 #@! TD*
G04 #@! TA.AperFunction,SMDPad,CuDef*
%ADD41RoundRect,0.200000X-0.275000X0.200000X-0.275000X-0.200000X0.275000X-0.200000X0.275000X0.200000X0*%
G04 #@! TD*
G04 #@! TA.AperFunction,SMDPad,CuDef*
%ADD42RoundRect,0.150000X0.150000X-0.725000X0.150000X0.725000X-0.150000X0.725000X-0.150000X-0.725000X0*%
G04 #@! TD*
G04 #@! TA.AperFunction,SMDPad,CuDef*
%ADD43C,2.500000*%
G04 #@! TD*
G04 #@! TA.AperFunction,SMDPad,CuDef*
%ADD44RoundRect,0.250000X0.700000X-0.275000X0.700000X0.275000X-0.700000X0.275000X-0.700000X-0.275000X0*%
G04 #@! TD*
G04 #@! TA.AperFunction,SMDPad,CuDef*
%ADD45RoundRect,0.162500X-0.162500X0.367500X-0.162500X-0.367500X0.162500X-0.367500X0.162500X0.367500X0*%
G04 #@! TD*
G04 #@! TA.AperFunction,SMDPad,CuDef*
%ADD46R,1.000000X1.000000*%
G04 #@! TD*
G04 #@! TA.AperFunction,SMDPad,CuDef*
%ADD47RoundRect,0.250000X0.650000X-0.350000X0.650000X0.350000X-0.650000X0.350000X-0.650000X-0.350000X0*%
G04 #@! TD*
G04 #@! TA.AperFunction,SMDPad,CuDef*
%ADD48RoundRect,0.150000X0.625000X-0.150000X0.625000X0.150000X-0.625000X0.150000X-0.625000X-0.150000X0*%
G04 #@! TD*
G04 #@! TA.AperFunction,SMDPad,CuDef*
%ADD49RoundRect,0.250000X-0.650000X0.350000X-0.650000X-0.350000X0.650000X-0.350000X0.650000X0.350000X0*%
G04 #@! TD*
G04 #@! TA.AperFunction,SMDPad,CuDef*
%ADD50RoundRect,0.150000X-0.625000X0.150000X-0.625000X-0.150000X0.625000X-0.150000X0.625000X0.150000X0*%
G04 #@! TD*
G04 #@! TA.AperFunction,SMDPad,CuDef*
%ADD51RoundRect,0.218750X0.256250X-0.218750X0.256250X0.218750X-0.256250X0.218750X-0.256250X-0.218750X0*%
G04 #@! TD*
G04 #@! TA.AperFunction,SMDPad,CuDef*
%ADD52RoundRect,0.250000X0.625000X-0.375000X0.625000X0.375000X-0.625000X0.375000X-0.625000X-0.375000X0*%
G04 #@! TD*
G04 #@! TA.AperFunction,SMDPad,CuDef*
%ADD53RoundRect,0.250000X0.450000X-0.250000X0.450000X0.250000X-0.450000X0.250000X-0.450000X-0.250000X0*%
G04 #@! TD*
G04 #@! TA.AperFunction,SMDPad,CuDef*
%ADD54RoundRect,0.250000X0.450000X-0.350000X0.450000X0.350000X-0.450000X0.350000X-0.450000X-0.350000X0*%
G04 #@! TD*
G04 #@! TA.AperFunction,SMDPad,CuDef*
%ADD55RoundRect,0.218750X-0.218750X-0.256250X0.218750X-0.256250X0.218750X0.256250X-0.218750X0.256250X0*%
G04 #@! TD*
G04 APERTURE END LIST*
D10*
G04 #@! TO.P,R5,2*
G04 #@! TO.N,PB6*
X135745600Y-134242000D03*
G04 #@! TO.P,R5,1*
G04 #@! TO.N,GND*
X137395600Y-134242000D03*
G04 #@! TD*
D11*
G04 #@! TO.P,J3,S4,SHIELD*
G04 #@! TO.N,unconnected-(J3-SHIELD-PadS4)*
X110252600Y-103084000D03*
G04 #@! TO.P,J3,S3,SHIELD*
G04 #@! TO.N,unconnected-(J3-SHIELD-PadS3)*
X118892600Y-103084000D03*
D12*
G04 #@! TO.P,J3,S2,SHIELD*
G04 #@! TO.N,GNDPWR*
X110252600Y-107264000D03*
G04 #@! TO.P,J3,S1,SHIELD*
G04 #@! TO.N,unconnected-(J3-SHIELD-PadS1)*
X118892600Y-107264000D03*
D13*
G04 #@! TO.P,J3,B12,GND*
G04 #@! TO.N,A5*
X117822600Y-108179000D03*
G04 #@! TO.P,J3,B9,VBUS*
G04 #@! TO.N,Net-(F1-Pad2)*
X117022600Y-108179000D03*
D14*
G04 #@! TO.P,J3,B8,SBU2*
G04 #@! TO.N,unconnected-(J3-SBU2-PadB8)*
X116322600Y-108179000D03*
G04 #@! TO.P,J3,B7,D-*
G04 #@! TO.N,D-*
X115322600Y-108179000D03*
G04 #@! TO.P,J3,B6,D+*
G04 #@! TO.N,D+*
X113822600Y-108179000D03*
G04 #@! TO.P,J3,B5,CC2*
G04 #@! TO.N,Net-(J3-CC2)*
X112822600Y-108179000D03*
D13*
G04 #@! TO.P,J3,B4,VBUS*
G04 #@! TO.N,Net-(F1-Pad2)*
X112122600Y-108179000D03*
G04 #@! TO.P,J3,B1,GND*
G04 #@! TO.N,A5*
X111322600Y-108179000D03*
G04 #@! TO.P,J3,A12,GND*
X111322600Y-108179000D03*
G04 #@! TO.P,J3,A9,VBUS*
G04 #@! TO.N,Net-(F1-Pad2)*
X112122600Y-108179000D03*
D14*
G04 #@! TO.P,J3,A8,SBU1*
G04 #@! TO.N,unconnected-(J3-SBU1-PadA8)*
X113322600Y-108179000D03*
G04 #@! TO.P,J3,A7,D-*
G04 #@! TO.N,D-*
X114322600Y-108179000D03*
G04 #@! TO.P,J3,A6,D+*
G04 #@! TO.N,D+*
X114822600Y-108179000D03*
G04 #@! TO.P,J3,A5,CC1*
G04 #@! TO.N,Net-(J3-CC1)*
X115822600Y-108179000D03*
D13*
G04 #@! TO.P,J3,A4,VBUS*
G04 #@! TO.N,Net-(F1-Pad2)*
X117022600Y-108179000D03*
G04 #@! TO.P,J3,A1,GND*
G04 #@! TO.N,A5*
X117822600Y-108179000D03*
G04 #@! TD*
D10*
G04 #@! TO.P,R1,2*
G04 #@! TO.N,VBUS*
X105743600Y-128458000D03*
G04 #@! TO.P,R1,1*
G04 #@! TO.N,PB6*
X107393600Y-128458000D03*
G04 #@! TD*
D15*
G04 #@! TO.P,J4,MP,MountPin*
G04 #@! TO.N,unconnected-(J4-MountPin-PadMP)_1*
X113272601Y-145331993D03*
G04 #@! TO.N,unconnected-(J4-MountPin-PadMP)*
X108772599Y-145331993D03*
D16*
G04 #@! TO.P,J4,6,Pin_6*
G04 #@! TO.N,+3V3*
X112272600Y-142831993D03*
G04 #@! TO.P,J4,5,Pin_5*
G04 #@! TO.N,PA15*
X111772601Y-142831993D03*
G04 #@! TO.P,J4,4,Pin_4*
G04 #@! TO.N,PB3*
X111272600Y-142831993D03*
G04 #@! TO.P,J4,3,Pin_3*
G04 #@! TO.N,PB4*
X110772600Y-142831993D03*
G04 #@! TO.P,J4,2,Pin_2*
G04 #@! TO.N,PB5*
X110272599Y-142831993D03*
G04 #@! TO.P,J4,1,Pin_1*
G04 #@! TO.N,A5*
X109772600Y-142831993D03*
G04 #@! TD*
D17*
G04 #@! TO.P,H13,*
G04 #@! TO.N,*
X137068600Y-170209000D03*
G04 #@! TD*
D18*
G04 #@! TO.P,RN1,8,R1.2*
G04 #@! TO.N,GND*
X136502600Y-174099000D03*
G04 #@! TO.P,RN1,7,R2.2*
X136502600Y-174899000D03*
G04 #@! TO.P,RN1,6,R3.2*
X136502600Y-175699000D03*
G04 #@! TO.P,RN1,5,R4.2*
X136502600Y-176499000D03*
G04 #@! TO.P,RN1,4,R4.1*
G04 #@! TO.N,A4*
X134802600Y-176499000D03*
G04 #@! TO.P,RN1,3,R3.1*
G04 #@! TO.N,A6*
X134802600Y-175699000D03*
G04 #@! TO.P,RN1,2,R2.1*
G04 #@! TO.N,A7*
X134802600Y-174899000D03*
G04 #@! TO.P,RN1,1,R1.1*
G04 #@! TO.N,A5*
X134802600Y-174099000D03*
G04 #@! TD*
D19*
G04 #@! TO.P,C9,2*
G04 #@! TO.N,A5*
X110802600Y-126863000D03*
G04 #@! TO.P,C9,1*
G04 #@! TO.N,+5V*
X110802600Y-125313000D03*
G04 #@! TD*
D20*
G04 #@! TO.P,F1,2*
G04 #@! TO.N,Net-(F1-Pad2)*
X133593600Y-111073000D03*
G04 #@! TO.P,F1,1*
G04 #@! TO.N,VBUS*
X136393600Y-111073000D03*
G04 #@! TD*
D21*
G04 #@! TO.P,R2,2*
G04 #@! TO.N,GND*
X128772600Y-111299000D03*
G04 #@! TO.P,R2,1*
G04 #@! TO.N,Net-(J3-CC1)*
X127122600Y-111299000D03*
G04 #@! TD*
D22*
G04 #@! TO.P,C14,2*
G04 #@! TO.N,Net-(U6-VCC)*
X120978600Y-141804000D03*
G04 #@! TO.P,C14,1*
G04 #@! TO.N,+3V3*
X122528600Y-141804000D03*
G04 #@! TD*
D23*
G04 #@! TO.P,U6,5,WP*
G04 #@! TO.N,A5*
X102393250Y-145398001D03*
G04 #@! TO.P,U6,4,VCC*
G04 #@! TO.N,Net-(U6-VCC)*
X102393250Y-143497999D03*
G04 #@! TO.P,U6,3,SDA*
G04 #@! TO.N,I2C1_SDA*
X104945950Y-143497999D03*
G04 #@! TO.P,U6,2,VSS*
G04 #@! TO.N,A5*
X104945950Y-144448000D03*
G04 #@! TO.P,U6,1,SCL*
G04 #@! TO.N,I2C1_SCL*
X104945950Y-145398001D03*
G04 #@! TD*
D24*
G04 #@! TO.P,SW29,MP,MP*
G04 #@! TO.N,unconnected-(SW29-PadMP)_1*
X133318600Y-102101000D03*
G04 #@! TO.N,unconnected-(SW29-PadMP)*
X137018600Y-102101000D03*
D25*
G04 #@! TO.P,SW29,2,2*
G04 #@! TO.N,/NRST*
X135168600Y-104051000D03*
D26*
G04 #@! TO.P,SW29,1,1*
G04 #@! TO.N,GND*
X133943600Y-104051000D03*
X136393600Y-104051000D03*
G04 #@! TD*
D27*
G04 #@! TO.P,C11,2*
G04 #@! TO.N,GND*
X136107622Y-157273000D03*
G04 #@! TO.P,C11,1*
G04 #@! TO.N,+3V3*
X134557622Y-157273000D03*
G04 #@! TD*
D22*
G04 #@! TO.P,C8,2*
G04 #@! TO.N,GND*
X130436661Y-130072000D03*
G04 #@! TO.P,C8,1*
G04 #@! TO.N,+5V*
X131986661Y-130072000D03*
G04 #@! TD*
D27*
G04 #@! TO.P,C10,2*
G04 #@! TO.N,GND*
X131819622Y-169195000D03*
G04 #@! TO.P,C10,1*
G04 #@! TO.N,CHARGE_RST*
X130269622Y-169195000D03*
G04 #@! TD*
D23*
G04 #@! TO.P,U6,5,WP*
G04 #@! TO.N,GND*
X121375250Y-145398001D03*
G04 #@! TO.P,U6,4,VCC*
G04 #@! TO.N,Net-(U6-VCC)*
X121375250Y-143497999D03*
G04 #@! TO.P,U6,3,SDA*
G04 #@! TO.N,I2C1_SDA*
X123927950Y-143497999D03*
G04 #@! TO.P,U6,2,VSS*
G04 #@! TO.N,GND*
X123927950Y-144448000D03*
G04 #@! TO.P,U6,1,SCL*
G04 #@! TO.N,I2C1_SCL*
X123927950Y-145398001D03*
G04 #@! TD*
D28*
G04 #@! TO.P,U4,5,VOUT*
G04 #@! TO.N,+3V3*
X106764600Y-124851000D03*
G04 #@! TO.P,U4,4,NC*
G04 #@! TO.N,unconnected-(U4-NC-Pad4)*
X106764600Y-122951000D03*
G04 #@! TO.P,U4,3,EN*
G04 #@! TO.N,+5V*
X108964600Y-122951000D03*
G04 #@! TO.P,U4,2,GND*
G04 #@! TO.N,A5*
X108964600Y-123901000D03*
G04 #@! TO.P,U4,1,VIN*
G04 #@! TO.N,+5V*
X108964600Y-124851000D03*
G04 #@! TD*
D27*
G04 #@! TO.P,C16,2*
G04 #@! TO.N,A5*
X118249600Y-159076000D03*
G04 #@! TO.P,C16,1*
G04 #@! TO.N,VDDA*
X116699600Y-159076000D03*
G04 #@! TD*
D29*
G04 #@! TO.P,C7,2*
G04 #@! TO.N,Net-(U5-PF1)*
X121618622Y-152485000D03*
G04 #@! TO.P,C7,1*
G04 #@! TO.N,GND*
X121618622Y-154035000D03*
G04 #@! TD*
D30*
G04 #@! TO.P,Y1,4,4*
G04 #@! TO.N,GND*
X121696539Y-149297000D03*
G04 #@! TO.P,Y1,3,3*
G04 #@! TO.N,Net-(U5-PF0)*
X123446539Y-149297000D03*
G04 #@! TO.P,Y1,2,2*
G04 #@! TO.N,GND*
X123446539Y-150697000D03*
G04 #@! TO.P,Y1,1,1*
G04 #@! TO.N,Net-(U5-PF1)*
X121696539Y-150697000D03*
G04 #@! TD*
D31*
G04 #@! TO.P,R8,2*
G04 #@! TO.N,PA4*
X125784600Y-139459000D03*
G04 #@! TO.P,R8,1*
G04 #@! TO.N,PB5*
X125784600Y-141109000D03*
G04 #@! TD*
D19*
G04 #@! TO.P,C13,2*
G04 #@! TO.N,unconnected-(C13-Pad2)*
X134243622Y-162284000D03*
G04 #@! TO.P,C13,1*
G04 #@! TO.N,unconnected-(C13-Pad1)*
X134243622Y-160734000D03*
G04 #@! TD*
D10*
G04 #@! TO.P,R3,2*
G04 #@! TO.N,A5*
X110623600Y-111240000D03*
G04 #@! TO.P,R3,1*
G04 #@! TO.N,Net-(J3-CC2)*
X112273600Y-111240000D03*
G04 #@! TD*
D29*
G04 #@! TO.P,C5,2*
G04 #@! TO.N,GND*
X125379600Y-147140000D03*
G04 #@! TO.P,C5,1*
G04 #@! TO.N,+3V3*
X125379600Y-148690000D03*
G04 #@! TD*
D22*
G04 #@! TO.P,C10,2*
G04 #@! TO.N,A5*
X112034600Y-170134000D03*
G04 #@! TO.P,C10,1*
G04 #@! TO.N,CHARGE_RST*
X113584600Y-170134000D03*
G04 #@! TD*
D32*
G04 #@! TO.P,L1,2,2*
G04 #@! TO.N,GNDPWR*
X133618600Y-108286000D03*
G04 #@! TO.P,L1,1,1*
G04 #@! TO.N,GND*
X136768600Y-108286000D03*
G04 #@! TD*
D27*
G04 #@! TO.P,C4,2*
G04 #@! TO.N,GND*
X128656600Y-146999000D03*
G04 #@! TO.P,C4,1*
G04 #@! TO.N,+3V3*
X127106600Y-146999000D03*
G04 #@! TD*
D33*
G04 #@! TO.P,U5,32,VSS*
G04 #@! TO.N,GND*
X127161600Y-148906000D03*
G04 #@! TO.P,U5,31,PB8*
G04 #@! TO.N,I2C1_SCL*
X127961600Y-148906000D03*
G04 #@! TO.P,U5,30,PB7*
G04 #@! TO.N,I2C1_SDA*
X128761600Y-148906000D03*
G04 #@! TO.P,U5,29,PB6*
G04 #@! TO.N,PB6*
X129561600Y-148906000D03*
G04 #@! TO.P,U5,28,PB5*
G04 #@! TO.N,PB5*
X130361600Y-148906000D03*
G04 #@! TO.P,U5,27,PB4*
G04 #@! TO.N,PB4*
X131161600Y-148906000D03*
G04 #@! TO.P,U5,26,PB3*
G04 #@! TO.N,PB3*
X131961600Y-148906000D03*
G04 #@! TO.P,U5,25,PA15*
G04 #@! TO.N,TX0*
X132761600Y-148906000D03*
D34*
G04 #@! TO.P,U5,24,PA14*
G04 #@! TO.N,SWCLK*
X134136600Y-150281000D03*
G04 #@! TO.P,U5,23,PA13*
G04 #@! TO.N,SWDIO*
X134136600Y-151081000D03*
G04 #@! TO.P,U5,22,PA12*
G04 #@! TO.N,D+*
X134136600Y-151881000D03*
G04 #@! TO.P,U5,21,PA11*
G04 #@! TO.N,D-*
X134136600Y-152681000D03*
G04 #@! TO.P,U5,20,PA10*
G04 #@! TO.N,TX1*
X134136600Y-153481000D03*
G04 #@! TO.P,U5,19,PA9*
G04 #@! TO.N,TX2*
X134136600Y-154281000D03*
G04 #@! TO.P,U5,18,PA8*
G04 #@! TO.N,TX3*
X134136600Y-155081000D03*
G04 #@! TO.P,U5,17,VDD*
G04 #@! TO.N,+3V3*
X134136600Y-155881000D03*
D33*
G04 #@! TO.P,U5,16,VSS*
G04 #@! TO.N,GND*
X132761600Y-157256000D03*
G04 #@! TO.P,U5,15,VDDA*
G04 #@! TO.N,VDDA*
X131961600Y-157256000D03*
G04 #@! TO.P,U5,14,VSSA*
G04 #@! TO.N,GND*
X131161600Y-157256000D03*
G04 #@! TO.P,U5,13,PB0*
G04 #@! TO.N,CHARGE_RST*
X130361600Y-157256000D03*
G04 #@! TO.P,U5,12,PA7*
G04 #@! TO.N,ADC*
X129561600Y-157256000D03*
G04 #@! TO.P,U5,11,PA6*
G04 #@! TO.N,CSEL2*
X128761600Y-157256000D03*
G04 #@! TO.P,U5,10,PA5*
G04 #@! TO.N,CSEL1*
X127961600Y-157256000D03*
G04 #@! TO.P,U5,9,PA4*
G04 #@! TO.N,PA4*
X127161600Y-157256000D03*
D34*
G04 #@! TO.P,U5,8,PA3*
G04 #@! TO.N,USART_RX*
X125786600Y-155881000D03*
G04 #@! TO.P,U5,7,PA2*
G04 #@! TO.N,USART_TX*
X125786600Y-155081000D03*
G04 #@! TO.P,U5,6,PA1*
G04 #@! TO.N,CSEL_EN*
X125786600Y-154281000D03*
G04 #@! TO.P,U5,5,PA0*
G04 #@! TO.N,CSEL0*
X125786600Y-153481000D03*
G04 #@! TO.P,U5,4,PG10*
G04 #@! TO.N,/NRST*
X125786600Y-152681000D03*
G04 #@! TO.P,U5,3,PF1*
G04 #@! TO.N,Net-(U5-PF1)*
X125786600Y-151881000D03*
G04 #@! TO.P,U5,2,PF0*
G04 #@! TO.N,Net-(U5-PF0)*
X125786600Y-151081000D03*
G04 #@! TO.P,U5,1,VDD*
G04 #@! TO.N,+3V3*
X125786600Y-150281000D03*
G04 #@! TD*
D35*
G04 #@! TO.P,RN2,8,R1.2*
G04 #@! TO.N,A5*
X113006600Y-180027000D03*
G04 #@! TO.P,RN2,7,R2.2*
X112206600Y-180027000D03*
G04 #@! TO.P,RN2,6,R3.2*
X111406600Y-180027000D03*
G04 #@! TO.P,RN2,5,R4.2*
X110606600Y-180027000D03*
G04 #@! TO.P,RN2,4,R4.1*
G04 #@! TO.N,RN1_4*
X110606600Y-178327000D03*
G04 #@! TO.P,RN2,3,R3.1*
G04 #@! TO.N,A7*
X111406600Y-178327000D03*
G04 #@! TO.P,RN2,2,R2.1*
G04 #@! TO.N,A6*
X112206600Y-178327000D03*
G04 #@! TO.P,RN2,1,R1.1*
G04 #@! TO.N,A4*
X113006600Y-178327000D03*
G04 #@! TD*
D22*
G04 #@! TO.P,C9,2*
G04 #@! TO.N,GND*
X130436661Y-136012000D03*
G04 #@! TO.P,C9,1*
G04 #@! TO.N,+3V3*
X131986661Y-136012000D03*
G04 #@! TD*
D27*
G04 #@! TO.P,C2,2*
G04 #@! TO.N,+3V3*
X110368600Y-160686000D03*
G04 #@! TO.P,C2,1*
G04 #@! TO.N,A5*
X108818600Y-160686000D03*
G04 #@! TD*
D36*
G04 #@! TO.P,RN1,8,R1.2*
G04 #@! TO.N,A5*
X103838600Y-175999000D03*
G04 #@! TO.P,RN1,7,R2.2*
X103838600Y-175199000D03*
G04 #@! TO.P,RN1,6,R3.2*
X103838600Y-174399000D03*
G04 #@! TO.P,RN1,5,R4.2*
X103838600Y-173599000D03*
G04 #@! TO.P,RN1,4,R4.1*
G04 #@! TO.N,A3*
X105538600Y-173599000D03*
G04 #@! TO.P,RN1,3,R3.1*
G04 #@! TO.N,AO*
X105538600Y-174399000D03*
G04 #@! TO.P,RN1,2,R2.1*
G04 #@! TO.N,A1*
X105538600Y-175199000D03*
G04 #@! TO.P,RN1,1,R1.1*
G04 #@! TO.N,A2*
X105538600Y-175999000D03*
G04 #@! TD*
D29*
G04 #@! TO.P,C2,2*
G04 #@! TO.N,+3V3*
X126068622Y-159876000D03*
G04 #@! TO.P,C2,1*
G04 #@! TO.N,GND*
X126068622Y-161426000D03*
G04 #@! TD*
D37*
G04 #@! TO.P,U3,4,VCC*
G04 #@! TO.N,+5V*
X128670600Y-124302000D03*
G04 #@! TO.P,U3,3,I/O2*
G04 #@! TO.N,D-*
X128670600Y-126202000D03*
G04 #@! TO.P,U3,2,I/O1*
G04 #@! TO.N,D+*
X126470600Y-126202000D03*
D38*
G04 #@! TO.P,U3,1,GND*
G04 #@! TO.N,GND*
X126470600Y-124482000D03*
G04 #@! TD*
D39*
G04 #@! TO.P,U1,16,VCC*
G04 #@! TO.N,+3V3*
X108491100Y-176714000D03*
G04 #@! TO.P,U1,15,A2*
G04 #@! TO.N,A2*
X108491100Y-176064000D03*
G04 #@! TO.P,U1,14,A1*
G04 #@! TO.N,A1*
X108491100Y-175414000D03*
G04 #@! TO.P,U1,13,A0*
G04 #@! TO.N,AO*
X108491100Y-174764000D03*
G04 #@! TO.P,U1,12,A3*
G04 #@! TO.N,A3*
X108491100Y-174114000D03*
G04 #@! TO.P,U1,11,S0*
G04 #@! TO.N,CSEL0*
X108491100Y-173464000D03*
G04 #@! TO.P,U1,10,S1*
G04 #@! TO.N,CSEL1*
X108491100Y-172814000D03*
G04 #@! TO.P,U1,9,S2*
G04 #@! TO.N,CSEL2*
X108491100Y-172164000D03*
G04 #@! TO.P,U1,8,GND*
G04 #@! TO.N,A5*
X114216100Y-172164000D03*
G04 #@! TO.P,U1,7,VEE*
X114216100Y-172814000D03*
G04 #@! TO.P,U1,6,~{E}*
G04 #@! TO.N,CSEL_EN*
X114216100Y-173464000D03*
G04 #@! TO.P,U1,5,A5*
G04 #@! TO.N,A5*
X114216100Y-174114000D03*
G04 #@! TO.P,U1,4,A7*
G04 #@! TO.N,A7*
X114216100Y-174764000D03*
G04 #@! TO.P,U1,3,A*
G04 #@! TO.N,CHARGE_RST*
X114216100Y-175414000D03*
G04 #@! TO.P,U1,2,A6*
G04 #@! TO.N,A6*
X114216100Y-176064000D03*
G04 #@! TO.P,U1,1,A4*
G04 #@! TO.N,A4*
X114216100Y-176714000D03*
G04 #@! TD*
D40*
G04 #@! TO.P,J2,T*
G04 #@! TO.N,+5V*
X109767600Y-120184000D03*
G04 #@! TO.P,J2,S*
G04 #@! TO.N,A5*
X108667600Y-113684000D03*
G04 #@! TO.P,J2,R2*
G04 #@! TO.N,USART_TX*
X116767600Y-120184000D03*
G04 #@! TO.P,J2,R1*
G04 #@! TO.N,USART_RX*
X113767600Y-120184000D03*
G04 #@! TD*
D39*
G04 #@! TO.P,U1,16,VCC*
G04 #@! TO.N,+3V3*
X126125100Y-176714000D03*
G04 #@! TO.P,U1,15,A2*
G04 #@! TO.N,A2*
X126125100Y-176064000D03*
G04 #@! TO.P,U1,14,A1*
G04 #@! TO.N,A1*
X126125100Y-175414000D03*
G04 #@! TO.P,U1,13,A0*
G04 #@! TO.N,AO*
X126125100Y-174764000D03*
G04 #@! TO.P,U1,12,A3*
G04 #@! TO.N,A3*
X126125100Y-174114000D03*
G04 #@! TO.P,U1,11,S0*
G04 #@! TO.N,CSEL0*
X126125100Y-173464000D03*
G04 #@! TO.P,U1,10,S1*
G04 #@! TO.N,CSEL1*
X126125100Y-172814000D03*
G04 #@! TO.P,U1,9,S2*
G04 #@! TO.N,CSEL2*
X126125100Y-172164000D03*
G04 #@! TO.P,U1,8,GND*
G04 #@! TO.N,GND*
X131850100Y-172164000D03*
G04 #@! TO.P,U1,7,VEE*
X131850100Y-172814000D03*
G04 #@! TO.P,U1,6,~{E}*
G04 #@! TO.N,CSEL_EN*
X131850100Y-173464000D03*
G04 #@! TO.P,U1,5,A5*
G04 #@! TO.N,A5*
X131850100Y-174114000D03*
G04 #@! TO.P,U1,4,A7*
G04 #@! TO.N,A7*
X131850100Y-174764000D03*
G04 #@! TO.P,U1,3,A*
G04 #@! TO.N,CHARGE_RST*
X131850100Y-175414000D03*
G04 #@! TO.P,U1,2,A6*
G04 #@! TO.N,A6*
X131850100Y-176064000D03*
G04 #@! TO.P,U1,1,A4*
G04 #@! TO.N,A4*
X131850100Y-176714000D03*
G04 #@! TD*
D29*
G04 #@! TO.P,C7,2*
G04 #@! TO.N,Net-(U5-PF1)*
X102658600Y-152429000D03*
G04 #@! TO.P,C7,1*
G04 #@! TO.N,A5*
X102658600Y-153979000D03*
G04 #@! TD*
D27*
G04 #@! TO.P,C3,2*
G04 #@! TO.N,+3V3*
X106356600Y-177725000D03*
G04 #@! TO.P,C3,1*
G04 #@! TO.N,A5*
X104806600Y-177725000D03*
G04 #@! TD*
G04 #@! TO.P,C15,2*
G04 #@! TO.N,A5*
X109674600Y-146999000D03*
G04 #@! TO.P,C15,1*
G04 #@! TO.N,+3V3*
X108124600Y-146999000D03*
G04 #@! TD*
D41*
G04 #@! TO.P,R6,2*
G04 #@! TO.N,GND*
X126011622Y-168718000D03*
G04 #@! TO.P,R6,1*
G04 #@! TO.N,Net-(U2--)*
X126011622Y-167068000D03*
G04 #@! TD*
D11*
G04 #@! TO.P,J3,S4,SHIELD*
G04 #@! TO.N,unconnected-(J3-SHIELD-PadS4)*
X121448600Y-103084000D03*
G04 #@! TO.P,J3,S3,SHIELD*
G04 #@! TO.N,unconnected-(J3-SHIELD-PadS3)*
X130088600Y-103084000D03*
D12*
G04 #@! TO.P,J3,S2,SHIELD*
G04 #@! TO.N,unconnected-(J3-SHIELD-PadS2)*
X121448600Y-107264000D03*
G04 #@! TO.P,J3,S1,SHIELD*
G04 #@! TO.N,GNDPWR*
X130088600Y-107264000D03*
D13*
G04 #@! TO.P,J3,B12,GND*
G04 #@! TO.N,GND*
X129018600Y-108179000D03*
G04 #@! TO.P,J3,B9,VBUS*
G04 #@! TO.N,Net-(F1-Pad2)*
X128218600Y-108179000D03*
D14*
G04 #@! TO.P,J3,B8,SBU2*
G04 #@! TO.N,unconnected-(J3-SBU2-PadB8)*
X127518600Y-108179000D03*
G04 #@! TO.P,J3,B7,D-*
G04 #@! TO.N,D-*
X126518600Y-108179000D03*
G04 #@! TO.P,J3,B6,D+*
G04 #@! TO.N,D+*
X125018600Y-108179000D03*
G04 #@! TO.P,J3,B5,CC2*
G04 #@! TO.N,Net-(J3-CC2)*
X124018600Y-108179000D03*
D13*
G04 #@! TO.P,J3,B4,VBUS*
G04 #@! TO.N,Net-(F1-Pad2)*
X123318600Y-108179000D03*
G04 #@! TO.P,J3,B1,GND*
G04 #@! TO.N,GND*
X122518600Y-108179000D03*
G04 #@! TO.P,J3,A12,GND*
X122518600Y-108179000D03*
G04 #@! TO.P,J3,A9,VBUS*
G04 #@! TO.N,Net-(F1-Pad2)*
X123318600Y-108179000D03*
D14*
G04 #@! TO.P,J3,A8,SBU1*
G04 #@! TO.N,unconnected-(J3-SBU1-PadA8)*
X124518600Y-108179000D03*
G04 #@! TO.P,J3,A7,D-*
G04 #@! TO.N,D-*
X125518600Y-108179000D03*
G04 #@! TO.P,J3,A6,D+*
G04 #@! TO.N,D+*
X126018600Y-108179000D03*
G04 #@! TO.P,J3,A5,CC1*
G04 #@! TO.N,Net-(J3-CC1)*
X127018600Y-108179000D03*
D13*
G04 #@! TO.P,J3,A4,VBUS*
G04 #@! TO.N,Net-(F1-Pad2)*
X128218600Y-108179000D03*
G04 #@! TO.P,J3,A1,GND*
G04 #@! TO.N,GND*
X129018600Y-108179000D03*
G04 #@! TD*
D31*
G04 #@! TO.P,R9,2*
G04 #@! TO.N,+3V3*
X124159600Y-140269000D03*
G04 #@! TO.P,R9,1*
G04 #@! TO.N,I2C1_SDA*
X124159600Y-141919000D03*
G04 #@! TD*
D17*
G04 #@! TO.P,H14,*
G04 #@! TO.N,*
X137068600Y-122709000D03*
G04 #@! TD*
D27*
G04 #@! TO.P,C8,2*
G04 #@! TO.N,A5*
X108983600Y-126726000D03*
G04 #@! TO.P,C8,1*
G04 #@! TO.N,+3V3*
X107433600Y-126726000D03*
G04 #@! TD*
D33*
G04 #@! TO.P,U5,32,VSS*
G04 #@! TO.N,A5*
X108179600Y-148906000D03*
G04 #@! TO.P,U5,31,PB8*
G04 #@! TO.N,I2C1_SCL*
X108979600Y-148906000D03*
G04 #@! TO.P,U5,30,PB7*
G04 #@! TO.N,I2C1_SDA*
X109779600Y-148906000D03*
G04 #@! TO.P,U5,29,PB6*
G04 #@! TO.N,PB6*
X110579600Y-148906000D03*
G04 #@! TO.P,U5,28,PB5*
G04 #@! TO.N,PB5*
X111379600Y-148906000D03*
G04 #@! TO.P,U5,27,PB4*
G04 #@! TO.N,PB4*
X112179600Y-148906000D03*
G04 #@! TO.P,U5,26,PB3*
G04 #@! TO.N,PB3*
X112979600Y-148906000D03*
G04 #@! TO.P,U5,25,PA15*
G04 #@! TO.N,PA15*
X113779600Y-148906000D03*
D34*
G04 #@! TO.P,U5,24,PA14*
G04 #@! TO.N,SWCLK*
X115154600Y-150281000D03*
G04 #@! TO.P,U5,23,PA13*
G04 #@! TO.N,SWDIO*
X115154600Y-151081000D03*
G04 #@! TO.P,U5,22,PA12*
G04 #@! TO.N,D+*
X115154600Y-151881000D03*
G04 #@! TO.P,U5,21,PA11*
G04 #@! TO.N,D-*
X115154600Y-152681000D03*
G04 #@! TO.P,U5,20,PA10*
G04 #@! TO.N,USART_RX*
X115154600Y-153481000D03*
G04 #@! TO.P,U5,19,PA9*
G04 #@! TO.N,USART_TX*
X115154600Y-154281000D03*
G04 #@! TO.P,U5,18,PA8*
G04 #@! TO.N,CSEL_EN*
X115154600Y-155081000D03*
G04 #@! TO.P,U5,17,VDD*
G04 #@! TO.N,+3V3*
X115154600Y-155881000D03*
D33*
G04 #@! TO.P,U5,16,VSS*
G04 #@! TO.N,A5*
X113779600Y-157256000D03*
G04 #@! TO.P,U5,15,VDDA*
G04 #@! TO.N,VDDA*
X112979600Y-157256000D03*
G04 #@! TO.P,U5,14,VSSA*
G04 #@! TO.N,A5*
X112179600Y-157256000D03*
G04 #@! TO.P,U5,13,PB0*
G04 #@! TO.N,CHARGE_RST*
X111379600Y-157256000D03*
G04 #@! TO.P,U5,12,PA7*
G04 #@! TO.N,ADC*
X110579600Y-157256000D03*
G04 #@! TO.P,U5,11,PA6*
G04 #@! TO.N,CSEL2*
X109779600Y-157256000D03*
G04 #@! TO.P,U5,10,PA5*
G04 #@! TO.N,CSEL1*
X108979600Y-157256000D03*
G04 #@! TO.P,U5,9,PA4*
G04 #@! TO.N,CSEL0*
X108179600Y-157256000D03*
D34*
G04 #@! TO.P,U5,8,PA3*
G04 #@! TO.N,TX3*
X106804600Y-155881000D03*
G04 #@! TO.P,U5,7,PA2*
G04 #@! TO.N,TX2*
X106804600Y-155081000D03*
G04 #@! TO.P,U5,6,PA1*
G04 #@! TO.N,TX1*
X106804600Y-154281000D03*
G04 #@! TO.P,U5,5,PA0*
G04 #@! TO.N,TX0*
X106804600Y-153481000D03*
G04 #@! TO.P,U5,4,PG10*
G04 #@! TO.N,/NRST*
X106804600Y-152681000D03*
G04 #@! TO.P,U5,3,PF1*
G04 #@! TO.N,Net-(U5-PF1)*
X106804600Y-151881000D03*
G04 #@! TO.P,U5,2,PF0*
G04 #@! TO.N,Net-(U5-PF0)*
X106804600Y-151081000D03*
G04 #@! TO.P,U5,1,VDD*
G04 #@! TO.N,+3V3*
X106804600Y-150281000D03*
G04 #@! TD*
D42*
G04 #@! TO.P,U2,8,NC*
G04 #@! TO.N,unconnected-(U2-NC-Pad8)*
X109980600Y-162643000D03*
G04 #@! TO.P,U2,7,V+*
G04 #@! TO.N,+3V3*
X111250600Y-162643000D03*
G04 #@! TO.P,U2,6*
G04 #@! TO.N,ADC*
X112520600Y-162643000D03*
G04 #@! TO.P,U2,5,NC*
G04 #@! TO.N,unconnected-(U2-NC-Pad5)*
X113790600Y-162643000D03*
G04 #@! TO.P,U2,4,V-*
G04 #@! TO.N,A5*
X113790600Y-167793000D03*
G04 #@! TO.P,U2,3,+*
G04 #@! TO.N,CHARGE_RST*
X112520600Y-167793000D03*
G04 #@! TO.P,U2,2,-*
G04 #@! TO.N,Net-(U2--)*
X111250600Y-167793000D03*
G04 #@! TO.P,U2,1,NC*
G04 #@! TO.N,unconnected-(U2-NC-Pad1)*
X109980600Y-167793000D03*
G04 #@! TD*
D35*
G04 #@! TO.P,RN2,8,R1.2*
G04 #@! TO.N,GND*
X129734600Y-180027000D03*
G04 #@! TO.P,RN2,7,R2.2*
X128934600Y-180027000D03*
G04 #@! TO.P,RN2,6,R3.2*
X128134600Y-180027000D03*
G04 #@! TO.P,RN2,5,R4.2*
X127334600Y-180027000D03*
G04 #@! TO.P,RN2,4,R4.1*
G04 #@! TO.N,RN1_4*
X127334600Y-178327000D03*
G04 #@! TO.P,RN2,3,R3.1*
G04 #@! TO.N,A2*
X128134600Y-178327000D03*
G04 #@! TO.P,RN2,2,R2.1*
G04 #@! TO.N,A1*
X128934600Y-178327000D03*
G04 #@! TO.P,RN2,1,R1.1*
G04 #@! TO.N,AO*
X129734600Y-178327000D03*
G04 #@! TD*
D43*
G04 #@! TO.P,H4,1*
G04 #@! TO.N,N/C*
X112032999Y-183123000D03*
G04 #@! TD*
D44*
G04 #@! TO.P,L1,2,2*
G04 #@! TO.N,GNDPWR*
X106284600Y-107984000D03*
G04 #@! TO.P,L1,1,1*
G04 #@! TO.N,A5*
X106284600Y-111134000D03*
G04 #@! TD*
D43*
G04 #@! TO.P,H3,1*
G04 #@! TO.N,N/C*
X127833000Y-183122997D03*
G04 #@! TD*
D10*
G04 #@! TO.P,R3,2*
G04 #@! TO.N,GND*
X122130600Y-111299000D03*
G04 #@! TO.P,R3,1*
G04 #@! TO.N,Net-(J3-CC2)*
X123780600Y-111299000D03*
G04 #@! TD*
D41*
G04 #@! TO.P,R10,2*
G04 #@! TO.N,I2C1_SCL*
X125534600Y-145191000D03*
G04 #@! TO.P,R10,1*
G04 #@! TO.N,+3V3*
X125534600Y-143541000D03*
G04 #@! TD*
D15*
G04 #@! TO.P,J4,MP,MountPin*
G04 #@! TO.N,unconnected-(J4-MountPin-PadMP)_1*
X131568601Y-145531993D03*
G04 #@! TO.N,unconnected-(J4-MountPin-PadMP)*
X127068599Y-145531993D03*
D16*
G04 #@! TO.P,J4,6,Pin_6*
G04 #@! TO.N,+3V3*
X130568600Y-143031993D03*
G04 #@! TO.P,J4,5,Pin_5*
G04 #@! TO.N,PA4*
X130068601Y-143031993D03*
G04 #@! TO.P,J4,4,Pin_4*
G04 #@! TO.N,PB3*
X129568600Y-143031993D03*
G04 #@! TO.P,J4,3,Pin_3*
G04 #@! TO.N,PB4*
X129068600Y-143031993D03*
G04 #@! TO.P,J4,2,Pin_2*
G04 #@! TO.N,PB5*
X128568599Y-143031993D03*
G04 #@! TO.P,J4,1,Pin_1*
G04 #@! TO.N,GND*
X128068600Y-143031993D03*
G04 #@! TD*
D45*
G04 #@! TO.P,U4,5,VOUT*
G04 #@! TO.N,+3V3*
X131981600Y-134181000D03*
G04 #@! TO.P,U4,4,NC*
G04 #@! TO.N,unconnected-(U4-NC-Pad4)*
X130081600Y-134181000D03*
G04 #@! TO.P,U4,3,EN*
G04 #@! TO.N,+5V*
X130081600Y-131981000D03*
G04 #@! TO.P,U4,2,GND*
G04 #@! TO.N,GND*
X131031600Y-131981000D03*
G04 #@! TO.P,U4,1,VIN*
G04 #@! TO.N,+5V*
X131981600Y-131981000D03*
G04 #@! TD*
D46*
G04 #@! TO.P,D1,2,A*
G04 #@! TO.N,VBUS*
X136571622Y-113848000D03*
G04 #@! TO.P,D1,1,K*
G04 #@! TO.N,+5V*
X134071622Y-113848000D03*
G04 #@! TD*
D24*
G04 #@! TO.P,SW29,MP,MP*
G04 #@! TO.N,unconnected-(SW29-PadMP)_1*
X103322600Y-102101000D03*
G04 #@! TO.N,unconnected-(SW29-PadMP)*
X107022600Y-102101000D03*
D25*
G04 #@! TO.P,SW29,2,2*
G04 #@! TO.N,/NRST*
X105172600Y-104051000D03*
D26*
G04 #@! TO.P,SW29,1,1*
G04 #@! TO.N,A5*
X103947600Y-104051000D03*
X106397600Y-104051000D03*
G04 #@! TD*
D21*
G04 #@! TO.P,R2,2*
G04 #@! TO.N,A5*
X118763600Y-111217000D03*
G04 #@! TO.P,R2,1*
G04 #@! TO.N,Net-(J3-CC1)*
X117113600Y-111217000D03*
G04 #@! TD*
G04 #@! TO.P,R9,2*
G04 #@! TO.N,+3V3*
X107243600Y-141804000D03*
G04 #@! TO.P,R9,1*
G04 #@! TO.N,I2C1_SDA*
X105593600Y-141804000D03*
G04 #@! TD*
D29*
G04 #@! TO.P,C5,2*
G04 #@! TO.N,A5*
X106397600Y-147140000D03*
G04 #@! TO.P,C5,1*
G04 #@! TO.N,+3V3*
X106397600Y-148690000D03*
G04 #@! TD*
D10*
G04 #@! TO.P,R4,2*
G04 #@! TO.N,VBUS*
X135745600Y-132485000D03*
G04 #@! TO.P,R4,1*
G04 #@! TO.N,PB6*
X137395600Y-132485000D03*
G04 #@! TD*
D22*
G04 #@! TO.P,C14,2*
G04 #@! TO.N,Net-(U6-VCC)*
X102196600Y-141804000D03*
G04 #@! TO.P,C14,1*
G04 #@! TO.N,+3V3*
X103746600Y-141804000D03*
G04 #@! TD*
D41*
G04 #@! TO.P,R10,2*
G04 #@! TO.N,I2C1_SCL*
X106636600Y-144946000D03*
G04 #@! TO.P,R10,1*
G04 #@! TO.N,+3V3*
X106636600Y-143296000D03*
G04 #@! TD*
D36*
G04 #@! TO.P,RN3,8,R1.2*
G04 #@! TO.N,TX3*
X136562622Y-155634000D03*
G04 #@! TO.P,RN3,7,R2.2*
G04 #@! TO.N,TX2*
X136562622Y-154834000D03*
G04 #@! TO.P,RN3,6,R3.2*
G04 #@! TO.N,TX1*
X136562622Y-154034000D03*
G04 #@! TO.P,RN3,5,R4.2*
G04 #@! TO.N,TX0*
X136562622Y-153234000D03*
G04 #@! TO.P,RN3,4,R4.1*
G04 #@! TO.N,ROW0*
X138262622Y-153234000D03*
G04 #@! TO.P,RN3,3,R3.1*
G04 #@! TO.N,ROW1*
X138262622Y-154034000D03*
G04 #@! TO.P,RN3,2,R2.1*
G04 #@! TO.N,ROW2*
X138262622Y-154834000D03*
G04 #@! TO.P,RN3,1,R1.1*
G04 #@! TO.N,ROW3*
X138262622Y-155634000D03*
G04 #@! TD*
D29*
G04 #@! TO.P,C17,2*
G04 #@! TO.N,A5*
X115095600Y-157599000D03*
G04 #@! TO.P,C17,1*
G04 #@! TO.N,VDDA*
X115095600Y-159149000D03*
G04 #@! TD*
D42*
G04 #@! TO.P,U2,8,NC*
G04 #@! TO.N,unconnected-(U2-NC-Pad8)*
X127953622Y-161771000D03*
G04 #@! TO.P,U2,7,V+*
G04 #@! TO.N,+3V3*
X129223622Y-161771000D03*
G04 #@! TO.P,U2,6*
G04 #@! TO.N,ADC*
X130493622Y-161771000D03*
G04 #@! TO.P,U2,5,NC*
G04 #@! TO.N,unconnected-(U2-NC-Pad5)*
X131763622Y-161771000D03*
G04 #@! TO.P,U2,4,V-*
G04 #@! TO.N,GND*
X131763622Y-166921000D03*
G04 #@! TO.P,U2,3,+*
G04 #@! TO.N,CHARGE_RST*
X130493622Y-166921000D03*
G04 #@! TO.P,U2,2,-*
G04 #@! TO.N,Net-(U2--)*
X129223622Y-166921000D03*
G04 #@! TO.P,U2,1,NC*
G04 #@! TO.N,unconnected-(U2-NC-Pad1)*
X127953622Y-166921000D03*
G04 #@! TD*
D41*
G04 #@! TO.P,R8,2*
G04 #@! TO.N,+3V3*
X104345600Y-154061000D03*
G04 #@! TO.P,R8,1*
G04 #@! TO.N,/NRST*
X104345600Y-152411000D03*
G04 #@! TD*
D27*
G04 #@! TO.P,C12,2*
G04 #@! TO.N,GND*
X134994622Y-159123000D03*
G04 #@! TO.P,C12,1*
G04 #@! TO.N,VDDA*
X133444622Y-159123000D03*
G04 #@! TD*
D15*
G04 #@! TO.P,J4,MP,MountPin*
G04 #@! TO.N,unconnected-(J4-MountPin-PadMP)_1*
X117832999Y-180500008D03*
G04 #@! TO.N,unconnected-(J4-MountPin-PadMP)*
X122333001Y-180500008D03*
D16*
G04 #@! TO.P,J4,6,Pin_6*
G04 #@! TO.N,+3.3V*
X118833000Y-183000007D03*
G04 #@! TO.P,J4,5,Pin_5*
G04 #@! TO.N,ACCS_1*
X119332999Y-183000007D03*
G04 #@! TO.P,J4,4,Pin_4*
G04 #@! TO.N,ACCS_2*
X119833000Y-183000007D03*
G04 #@! TO.P,J4,3,Pin_3*
G04 #@! TO.N,unconnected-(J4-Pin_3-Pad3)*
X120333000Y-183000007D03*
G04 #@! TO.P,J4,2,Pin_2*
G04 #@! TO.N,ACCS_4*
X120833001Y-183000007D03*
G04 #@! TO.P,J4,1,Pin_1*
G04 #@! TO.N,GND*
X121333000Y-183000007D03*
G04 #@! TD*
D41*
G04 #@! TO.P,R6,2*
G04 #@! TO.N,A5*
X108091600Y-169197000D03*
G04 #@! TO.P,R6,1*
G04 #@! TO.N,Net-(U2--)*
X108091600Y-167547000D03*
G04 #@! TD*
D27*
G04 #@! TO.P,C4,2*
G04 #@! TO.N,A5*
X118492600Y-155641000D03*
G04 #@! TO.P,C4,1*
G04 #@! TO.N,+3V3*
X116942600Y-155641000D03*
G04 #@! TD*
D47*
G04 #@! TO.P,J1,MP,MountPin*
G04 #@! TO.N,unconnected-(J1-MountPin-PadMP)*
X120170600Y-130964000D03*
G04 #@! TO.N,unconnected-(J1-MountPin-PadMP)_1*
X120170600Y-135564000D03*
D48*
G04 #@! TO.P,J1,3,Pin_3*
G04 #@! TO.N,SWDIO*
X116295600Y-132264000D03*
G04 #@! TO.P,J1,2,Pin_2*
G04 #@! TO.N,A5*
X116295600Y-133264000D03*
G04 #@! TO.P,J1,1,Pin_1*
G04 #@! TO.N,SWCLK*
X116295600Y-134264000D03*
G04 #@! TD*
D41*
G04 #@! TO.P,R1,2*
G04 #@! TO.N,+3V3*
X123357622Y-154074000D03*
G04 #@! TO.P,R1,1*
G04 #@! TO.N,/NRST*
X123357622Y-152424000D03*
G04 #@! TD*
D49*
G04 #@! TO.P,J1,MP,MountPin*
G04 #@! TO.N,unconnected-(J1-MountPin-PadMP)*
X120170600Y-135564000D03*
X120170600Y-130964000D03*
D50*
G04 #@! TO.P,J1,3,Pin_3*
G04 #@! TO.N,SWDIO*
X124045600Y-134264000D03*
G04 #@! TO.P,J1,2,Pin_2*
G04 #@! TO.N,GND*
X124045600Y-133264000D03*
G04 #@! TO.P,J1,1,Pin_1*
G04 #@! TO.N,SWCLK*
X124045600Y-132264000D03*
G04 #@! TD*
D51*
G04 #@! TO.P,FB1,2*
G04 #@! TO.N,+3V3*
X136468622Y-159001500D03*
G04 #@! TO.P,FB1,1*
G04 #@! TO.N,VDDA*
X136468622Y-160576500D03*
G04 #@! TD*
D41*
G04 #@! TO.P,R7,2*
G04 #@! TO.N,Net-(U2--)*
X126037622Y-165055000D03*
G04 #@! TO.P,R7,1*
G04 #@! TO.N,ADC*
X126037622Y-163405000D03*
G04 #@! TD*
D30*
G04 #@! TO.P,Y1,4,4*
G04 #@! TO.N,A5*
X102714539Y-149297000D03*
G04 #@! TO.P,Y1,3,3*
G04 #@! TO.N,Net-(U5-PF0)*
X104464539Y-149297000D03*
G04 #@! TO.P,Y1,2,2*
G04 #@! TO.N,A5*
X104464539Y-150697000D03*
G04 #@! TO.P,Y1,1,1*
G04 #@! TO.N,Net-(U5-PF1)*
X102714539Y-150697000D03*
G04 #@! TD*
D17*
G04 #@! TO.P,H13,*
G04 #@! TO.N,*
X103272600Y-170209000D03*
G04 #@! TD*
D27*
G04 #@! TO.P,C6,2*
G04 #@! TO.N,Net-(U5-PF0)*
X104444600Y-147521000D03*
G04 #@! TO.P,C6,1*
G04 #@! TO.N,A5*
X102894600Y-147521000D03*
G04 #@! TD*
D19*
G04 #@! TO.P,C3,2*
G04 #@! TO.N,+3V3*
X124041622Y-176370000D03*
G04 #@! TO.P,C3,1*
G04 #@! TO.N,GND*
X124041622Y-174820000D03*
G04 #@! TD*
D41*
G04 #@! TO.P,R7,2*
G04 #@! TO.N,Net-(U2--)*
X108081600Y-166059000D03*
G04 #@! TO.P,R7,1*
G04 #@! TO.N,ADC*
X108081600Y-164409000D03*
G04 #@! TD*
D52*
G04 #@! TO.P,F1,2*
G04 #@! TO.N,Net-(F1-Pad2)*
X106284600Y-113241000D03*
G04 #@! TO.P,F1,1*
G04 #@! TO.N,VBUS*
X106284600Y-116041000D03*
G04 #@! TD*
D53*
G04 #@! TO.P,U3,4,VCC*
G04 #@! TO.N,+5V*
X112717600Y-124812000D03*
G04 #@! TO.P,U3,3,I/O2*
G04 #@! TO.N,D+*
X112717600Y-122912000D03*
G04 #@! TO.P,U3,2,I/O1*
G04 #@! TO.N,D-*
X114917600Y-122912000D03*
D54*
G04 #@! TO.P,U3,1,GND*
G04 #@! TO.N,A5*
X114917600Y-124632000D03*
G04 #@! TD*
D36*
G04 #@! TO.P,RN3,8,R1.2*
G04 #@! TO.N,ROW3*
X102395600Y-158873000D03*
G04 #@! TO.P,RN3,7,R2.2*
G04 #@! TO.N,ROW2*
X102395600Y-158073000D03*
G04 #@! TO.P,RN3,6,R3.2*
G04 #@! TO.N,ROW1*
X102395600Y-157273000D03*
G04 #@! TO.P,RN3,5,R4.2*
G04 #@! TO.N,ROW0*
X102395600Y-156473000D03*
G04 #@! TO.P,RN3,4,R4.1*
G04 #@! TO.N,TX0*
X104095600Y-156473000D03*
G04 #@! TO.P,RN3,3,R3.1*
G04 #@! TO.N,TX1*
X104095600Y-157273000D03*
G04 #@! TO.P,RN3,2,R2.1*
G04 #@! TO.N,TX2*
X104095600Y-158073000D03*
G04 #@! TO.P,RN3,1,R1.1*
G04 #@! TO.N,TX3*
X104095600Y-158873000D03*
G04 #@! TD*
D40*
G04 #@! TO.P,J2,T*
G04 #@! TO.N,+5V*
X130573600Y-113684000D03*
G04 #@! TO.P,J2,S*
G04 #@! TO.N,GND*
X131673600Y-120184000D03*
G04 #@! TO.P,J2,R2*
G04 #@! TO.N,USART_RX*
X123573600Y-113684000D03*
G04 #@! TO.P,J2,R1*
G04 #@! TO.N,USART_TX*
X126573600Y-113684000D03*
G04 #@! TD*
D21*
G04 #@! TO.P,R4,2*
G04 #@! TO.N,PB6*
X107393600Y-130249000D03*
G04 #@! TO.P,R4,1*
G04 #@! TO.N,A5*
X105743600Y-130249000D03*
G04 #@! TD*
D17*
G04 #@! TO.P,H14,*
G04 #@! TO.N,*
X103272600Y-122709000D03*
G04 #@! TD*
D27*
G04 #@! TO.P,C6,2*
G04 #@! TO.N,Net-(U5-PF0)*
X123426600Y-147521000D03*
G04 #@! TO.P,C6,1*
G04 #@! TO.N,GND*
X121876600Y-147521000D03*
G04 #@! TD*
D46*
G04 #@! TO.P,D1,2,A*
G04 #@! TO.N,VBUS*
X106284600Y-118065000D03*
G04 #@! TO.P,D1,1,K*
G04 #@! TO.N,+5V*
X106284600Y-120565000D03*
G04 #@! TD*
D55*
G04 #@! TO.P,FB1,2*
G04 #@! TO.N,+3V3*
X118262100Y-157491000D03*
G04 #@! TO.P,FB1,1*
G04 #@! TO.N,VDDA*
X116687100Y-157491000D03*
G04 #@! TD*
M02*
