G04 #@! TF.GenerationSoftware,KiCad,Pcbnew,9.0.4*
G04 #@! TF.CreationDate,2025-09-03T15:16:13-06:00*
G04 #@! TF.ProjectId,stencil,7374656e-6369-46c2-9e6b-696361645f70,1.0*
G04 #@! TF.SameCoordinates,Original*
G04 #@! TF.FileFunction,Legend,Bot*
G04 #@! TF.FilePolarity,Positive*
%FSLAX46Y46*%
G04 Gerber Fmt 4.6, Leading zero omitted, Abs format (unit mm)*
G04 Created by KiCad (PCBNEW 9.0.4) date 2025-09-03 15:16:13*
%MOMM*%
%LPD*%
G01*
G04 APERTURE LIST*
%ADD10C,0.508000*%
%ADD11C,1.000000*%
%ADD12C,0.650000*%
%ADD13C,0.900000*%
G04 APERTURE END LIST*
D10*
G04 #@! TO.C,J4*
X122553000Y-183125000D02*
X122553000Y-183125000D01*
X122553000Y-183125000D01*
X122553000Y-183125000D01*
X122553000Y-183125000D01*
X122553000Y-183125000D01*
X122553000Y-183125001D01*
X122553000Y-183125001D01*
X122553000Y-183125001D01*
X122553000Y-183125001D01*
X122553000Y-183125001D01*
X122553000Y-183125001D01*
X122553000Y-183125001D01*
X122552999Y-183125001D01*
X122552999Y-183125001D01*
X122552999Y-183125001D01*
X122552999Y-183125001D01*
X122552999Y-183125001D01*
X122552999Y-183125001D01*
X122552999Y-183125001D01*
X122552999Y-183125001D01*
X122552999Y-183125001D01*
X122552999Y-183125001D01*
X122552999Y-183125001D01*
X122552999Y-183125001D01*
X122552998Y-183125001D01*
X122552998Y-183125001D01*
X122552998Y-183125001D01*
X122552998Y-183125001D01*
X122552998Y-183125001D01*
X122552998Y-183125001D01*
X122552998Y-183125000D01*
X122552998Y-183125000D01*
X122552998Y-183125000D01*
X122552998Y-183125000D01*
X122552998Y-183125000D01*
X122552998Y-183125000D01*
X122552998Y-183125000D02*
X122552998Y-183125000D01*
X122552998Y-183125000D01*
X122552998Y-183125000D01*
X122552998Y-183125000D01*
X122552998Y-183125000D01*
X122552998Y-183125000D01*
X122552998Y-183124999D01*
X122552998Y-183124999D01*
X122552998Y-183124999D01*
X122552998Y-183124999D01*
X122552998Y-183124999D01*
X122552999Y-183124999D01*
X122552999Y-183124999D01*
X122552999Y-183124999D01*
X122552999Y-183124999D01*
X122552999Y-183124999D01*
X122552999Y-183124999D01*
X122552999Y-183124999D01*
X122552999Y-183124999D01*
X122552999Y-183124999D01*
X122552999Y-183124999D01*
X122552999Y-183124999D01*
X122552999Y-183124999D01*
X122553000Y-183124999D01*
X122553000Y-183124999D01*
X122553000Y-183124999D01*
X122553000Y-183124999D01*
X122553000Y-183124999D01*
X122553000Y-183124999D01*
X122553000Y-183125000D01*
X122553000Y-183125000D01*
X122553000Y-183125000D01*
X122553000Y-183125000D01*
X122553000Y-183125000D01*
X122553000Y-183125000D01*
X122553000Y-183125000D01*
X127848601Y-142907000D02*
X127848601Y-142907000D01*
X127848601Y-142907000D01*
X127848601Y-142907000D01*
X127848601Y-142907000D01*
X127848601Y-142907000D01*
X127848601Y-142907001D01*
X127848601Y-142907001D01*
X127848601Y-142907001D01*
X127848601Y-142907001D01*
X127848601Y-142907001D01*
X127848601Y-142907001D01*
X127848601Y-142907001D01*
X127848600Y-142907001D01*
X127848600Y-142907001D01*
X127848600Y-142907001D01*
X127848600Y-142907001D01*
X127848600Y-142907001D01*
X127848600Y-142907001D01*
X127848600Y-142907001D01*
X127848600Y-142907001D01*
X127848600Y-142907001D01*
X127848600Y-142907001D01*
X127848600Y-142907001D01*
X127848600Y-142907001D01*
X127848599Y-142907001D01*
X127848599Y-142907001D01*
X127848599Y-142907001D01*
X127848599Y-142907001D01*
X127848599Y-142907001D01*
X127848599Y-142907001D01*
X127848599Y-142907000D01*
X127848599Y-142907000D01*
X127848599Y-142907000D01*
X127848599Y-142907000D01*
X127848599Y-142907000D01*
X127848599Y-142907000D01*
X127848599Y-142907000D02*
X127848599Y-142907000D01*
X127848599Y-142907000D01*
X127848599Y-142907000D01*
X127848599Y-142907000D01*
X127848599Y-142907000D01*
X127848599Y-142907000D01*
X127848599Y-142906999D01*
X127848599Y-142906999D01*
X127848599Y-142906999D01*
X127848599Y-142906999D01*
X127848599Y-142906999D01*
X127848600Y-142906999D01*
X127848600Y-142906999D01*
X127848600Y-142906999D01*
X127848600Y-142906999D01*
X127848600Y-142906999D01*
X127848600Y-142906999D01*
X127848600Y-142906999D01*
X127848600Y-142906999D01*
X127848600Y-142906999D01*
X127848600Y-142906999D01*
X127848600Y-142906999D01*
X127848600Y-142906999D01*
X127848601Y-142906999D01*
X127848601Y-142906999D01*
X127848601Y-142906999D01*
X127848601Y-142906999D01*
X127848601Y-142906999D01*
X127848601Y-142906999D01*
X127848601Y-142907000D01*
X127848601Y-142907000D01*
X127848601Y-142907000D01*
X127848601Y-142907000D01*
X127848601Y-142907000D01*
X127848601Y-142907000D01*
X127848601Y-142907000D01*
X109552601Y-142707000D02*
X109552601Y-142707000D01*
X109552601Y-142707000D01*
X109552601Y-142707000D01*
X109552601Y-142707000D01*
X109552601Y-142707000D01*
X109552601Y-142707001D01*
X109552601Y-142707001D01*
X109552601Y-142707001D01*
X109552601Y-142707001D01*
X109552601Y-142707001D01*
X109552601Y-142707001D01*
X109552601Y-142707001D01*
X109552600Y-142707001D01*
X109552600Y-142707001D01*
X109552600Y-142707001D01*
X109552600Y-142707001D01*
X109552600Y-142707001D01*
X109552600Y-142707001D01*
X109552600Y-142707001D01*
X109552600Y-142707001D01*
X109552600Y-142707001D01*
X109552600Y-142707001D01*
X109552600Y-142707001D01*
X109552600Y-142707001D01*
X109552599Y-142707001D01*
X109552599Y-142707001D01*
X109552599Y-142707001D01*
X109552599Y-142707001D01*
X109552599Y-142707001D01*
X109552599Y-142707001D01*
X109552599Y-142707000D01*
X109552599Y-142707000D01*
X109552599Y-142707000D01*
X109552599Y-142707000D01*
X109552599Y-142707000D01*
X109552599Y-142707000D01*
X109552599Y-142707000D02*
X109552599Y-142707000D01*
X109552599Y-142707000D01*
X109552599Y-142707000D01*
X109552599Y-142707000D01*
X109552599Y-142707000D01*
X109552599Y-142707000D01*
X109552599Y-142706999D01*
X109552599Y-142706999D01*
X109552599Y-142706999D01*
X109552599Y-142706999D01*
X109552599Y-142706999D01*
X109552600Y-142706999D01*
X109552600Y-142706999D01*
X109552600Y-142706999D01*
X109552600Y-142706999D01*
X109552600Y-142706999D01*
X109552600Y-142706999D01*
X109552600Y-142706999D01*
X109552600Y-142706999D01*
X109552600Y-142706999D01*
X109552600Y-142706999D01*
X109552600Y-142706999D01*
X109552600Y-142706999D01*
X109552601Y-142706999D01*
X109552601Y-142706999D01*
X109552601Y-142706999D01*
X109552601Y-142706999D01*
X109552601Y-142706999D01*
X109552601Y-142706999D01*
X109552601Y-142707000D01*
X109552601Y-142707000D01*
X109552601Y-142707000D01*
X109552601Y-142707000D01*
X109552601Y-142707000D01*
X109552601Y-142707000D01*
X109552601Y-142707000D01*
G04 #@! TD*
%LPC*%
D11*
G04 #@! TO.C,J2*
X118867600Y-116934000D03*
X111867600Y-116934000D03*
G04 #@! TD*
D12*
G04 #@! TO.C,J3*
X129158600Y-106734000D03*
X123378600Y-106734000D03*
G04 #@! TD*
D13*
G04 #@! TO.C,SW29*
X107797600Y-103151000D03*
X103547600Y-103151000D03*
G04 #@! TD*
D11*
G04 #@! TO.C,J2*
X122473600Y-116934000D03*
X129473600Y-116934000D03*
G04 #@! TD*
D12*
G04 #@! TO.C,J3*
X117962600Y-106734000D03*
X112182600Y-106734000D03*
G04 #@! TD*
D13*
G04 #@! TO.C,SW29*
X137793600Y-103151000D03*
X133543600Y-103151000D03*
G04 #@! TD*
%LPD*%
M02*
