G04 #@! TF.GenerationSoftware,KiCad,Pcbnew,9.0.4*
G04 #@! TF.CreationDate,2025-09-03T15:16:13-06:00*
G04 #@! TF.ProjectId,stencil,7374656e-6369-46c2-9e6b-696361645f70,1.0*
G04 #@! TF.SameCoordinates,Original*
G04 #@! TF.FileFunction,Soldermask,Top*
G04 #@! TF.FilePolarity,Negative*
%FSLAX46Y46*%
G04 Gerber Fmt 4.6, Leading zero omitted, Abs format (unit mm)*
G04 Created by KiCad (PCBNEW 9.0.4) date 2025-09-03 15:16:13*
%MOMM*%
%LPD*%
G01*
G04 APERTURE LIST*
G04 Aperture macros list*
%AMRoundRect*
0 Rectangle with rounded corners*
0 $1 Rounding radius*
0 $2 $3 $4 $5 $6 $7 $8 $9 X,Y pos of 4 corners*
0 Add a 4 corners polygon primitive as box body*
4,1,4,$2,$3,$4,$5,$6,$7,$8,$9,$2,$3,0*
0 Add four circle primitives for the rounded corners*
1,1,$1+$1,$2,$3*
1,1,$1+$1,$4,$5*
1,1,$1+$1,$6,$7*
1,1,$1+$1,$8,$9*
0 Add four rect primitives between the rounded corners*
20,1,$1+$1,$2,$3,$4,$5,0*
20,1,$1+$1,$4,$5,$6,$7,0*
20,1,$1+$1,$6,$7,$8,$9,0*
20,1,$1+$1,$8,$9,$2,$3,0*%
G04 Aperture macros list end*
%ADD10C,2.500000*%
%ADD11R,0.355600X0.838200*%
%ADD12R,0.406400X0.838200*%
%ADD13RoundRect,0.100000X0.637500X0.100000X-0.637500X0.100000X-0.637500X-0.100000X0.637500X-0.100000X0*%
%ADD14C,1.000000*%
%ADD15R,1.200000X2.500000*%
%ADD16RoundRect,0.225000X0.250000X-0.225000X0.250000X0.225000X-0.250000X0.225000X-0.250000X-0.225000X0*%
%ADD17RoundRect,0.225000X-0.225000X-0.250000X0.225000X-0.250000X0.225000X0.250000X-0.225000X0.250000X0*%
%ADD18C,1.650000*%
%ADD19RoundRect,0.200000X-0.275000X0.200000X-0.275000X-0.200000X0.275000X-0.200000X0.275000X0.200000X0*%
%ADD20C,0.650000*%
%ADD21R,0.600000X1.450000*%
%ADD22R,0.300000X1.450000*%
%ADD23O,0.600000X1.700000*%
%ADD24O,0.600000X1.200000*%
%ADD25RoundRect,0.200000X0.275000X-0.200000X0.275000X0.200000X-0.275000X0.200000X-0.275000X-0.200000X0*%
%ADD26RoundRect,0.125000X-0.625000X-0.125000X0.625000X-0.125000X0.625000X0.125000X-0.625000X0.125000X0*%
%ADD27RoundRect,0.125000X-0.125000X-0.625000X0.125000X-0.625000X0.125000X0.625000X-0.125000X0.625000X0*%
%ADD28RoundRect,0.150000X0.150000X-0.725000X0.150000X0.725000X-0.150000X0.725000X-0.150000X-0.725000X0*%
%ADD29RoundRect,0.100000X-0.100000X0.350000X-0.100000X-0.350000X0.100000X-0.350000X0.100000X0.350000X0*%
%ADD30RoundRect,0.250000X0.700000X-0.275000X0.700000X0.275000X-0.700000X0.275000X-0.700000X-0.275000X0*%
%ADD31RoundRect,0.200000X0.200000X0.275000X-0.200000X0.275000X-0.200000X-0.275000X0.200000X-0.275000X0*%
%ADD32RoundRect,0.162500X-0.162500X0.367500X-0.162500X-0.367500X0.162500X-0.367500X0.162500X0.367500X0*%
%ADD33R,1.000000X1.000000*%
%ADD34C,0.900000*%
%ADD35RoundRect,0.187500X0.187500X0.712500X-0.187500X0.712500X-0.187500X-0.712500X0.187500X-0.712500X0*%
%ADD36RoundRect,0.150000X0.150000X0.750000X-0.150000X0.750000X-0.150000X-0.750000X0.150000X-0.750000X0*%
%ADD37RoundRect,0.225000X0.425000X0.225000X-0.425000X0.225000X-0.425000X-0.225000X0.425000X-0.225000X0*%
%ADD38RoundRect,0.200000X-0.200000X-0.275000X0.200000X-0.275000X0.200000X0.275000X-0.200000X0.275000X0*%
%ADD39RoundRect,0.225000X0.225000X0.250000X-0.225000X0.250000X-0.225000X-0.250000X0.225000X-0.250000X0*%
%ADD40RoundRect,0.100000X0.350000X0.100000X-0.350000X0.100000X-0.350000X-0.100000X0.350000X-0.100000X0*%
%ADD41RoundRect,0.150000X0.625000X-0.150000X0.625000X0.150000X-0.625000X0.150000X-0.625000X-0.150000X0*%
%ADD42RoundRect,0.250000X0.650000X-0.350000X0.650000X0.350000X-0.650000X0.350000X-0.650000X-0.350000X0*%
%ADD43RoundRect,0.150000X-0.625000X0.150000X-0.625000X-0.150000X0.625000X-0.150000X0.625000X0.150000X0*%
%ADD44RoundRect,0.250000X-0.650000X0.350000X-0.650000X-0.350000X0.650000X-0.350000X0.650000X0.350000X0*%
%ADD45RoundRect,0.218750X0.256250X-0.218750X0.256250X0.218750X-0.256250X0.218750X-0.256250X-0.218750X0*%
%ADD46RoundRect,0.250000X-0.325000X-0.250000X0.325000X-0.250000X0.325000X0.250000X-0.325000X0.250000X0*%
%ADD47RoundRect,0.225000X-0.250000X0.225000X-0.250000X-0.225000X0.250000X-0.225000X0.250000X0.225000X0*%
%ADD48RoundRect,0.250000X0.625000X-0.375000X0.625000X0.375000X-0.625000X0.375000X-0.625000X-0.375000X0*%
%ADD49RoundRect,0.250000X0.450000X-0.350000X0.450000X0.350000X-0.450000X0.350000X-0.450000X-0.350000X0*%
%ADD50RoundRect,0.250000X0.450000X-0.250000X0.450000X0.250000X-0.450000X0.250000X-0.450000X-0.250000X0*%
%ADD51RoundRect,0.218750X-0.218750X-0.256250X0.218750X-0.256250X0.218750X0.256250X-0.218750X0.256250X0*%
%ADD52RoundRect,0.100000X-0.350000X-0.100000X0.350000X-0.100000X0.350000X0.100000X-0.350000X0.100000X0*%
%ADD53RoundRect,0.250000X0.375000X0.625000X-0.375000X0.625000X-0.375000X-0.625000X0.375000X-0.625000X0*%
%ADD54R,0.952500X0.508000*%
%ADD55RoundRect,0.162500X0.367500X0.162500X-0.367500X0.162500X-0.367500X-0.162500X0.367500X-0.162500X0*%
%ADD56RoundRect,0.250000X0.275000X0.700000X-0.275000X0.700000X-0.275000X-0.700000X0.275000X-0.700000X0*%
%ADD57RoundRect,0.250000X-0.450000X0.350000X-0.450000X-0.350000X0.450000X-0.350000X0.450000X0.350000X0*%
%ADD58RoundRect,0.250000X-0.450000X0.250000X-0.450000X-0.250000X0.450000X-0.250000X0.450000X0.250000X0*%
G04 APERTURE END LIST*
D10*
G04 #@! TO.C,H3*
X128333000Y-183122997D03*
G04 #@! TD*
D11*
G04 #@! TO.C,J4*
X121833000Y-183000007D03*
X121333001Y-183000007D03*
X120833000Y-183000007D03*
X120333000Y-183000007D03*
X119832999Y-183000007D03*
X119333000Y-183000007D03*
D12*
X122833001Y-180500008D03*
X118332999Y-180500008D03*
G04 #@! TD*
D10*
G04 #@! TO.C,H4*
X112532999Y-183123000D03*
G04 #@! TD*
D13*
G04 #@! TO.C,U1*
X114716100Y-176714000D03*
X114716100Y-176064000D03*
X114716100Y-175414000D03*
X114716100Y-174764000D03*
X114716100Y-174114000D03*
X114716100Y-173464000D03*
X114716100Y-172814000D03*
X114716100Y-172164000D03*
X108991100Y-172164000D03*
X108991100Y-172814000D03*
X108991100Y-173464000D03*
X108991100Y-174114000D03*
X108991100Y-174764000D03*
X108991100Y-175414000D03*
X108991100Y-176064000D03*
X108991100Y-176714000D03*
G04 #@! TD*
D14*
G04 #@! TO.C,J2*
X118867600Y-116934000D03*
X111867600Y-116934000D03*
D15*
X114267600Y-120184000D03*
X117267600Y-120184000D03*
X109167600Y-113684000D03*
X110267600Y-120184000D03*
G04 #@! TD*
D13*
G04 #@! TO.C,U1*
X132350100Y-176714000D03*
X132350100Y-176064000D03*
X132350100Y-175414000D03*
X132350100Y-174764000D03*
X132350100Y-174114000D03*
X132350100Y-173464000D03*
X132350100Y-172814000D03*
X132350100Y-172164000D03*
X126625100Y-172164000D03*
X126625100Y-172814000D03*
X126625100Y-173464000D03*
X126625100Y-174114000D03*
X126625100Y-174764000D03*
X126625100Y-175414000D03*
X126625100Y-176064000D03*
X126625100Y-176714000D03*
G04 #@! TD*
D16*
G04 #@! TO.C,C7*
X103158600Y-153979000D03*
X103158600Y-152429000D03*
G04 #@! TD*
D17*
G04 #@! TO.C,C3*
X105306600Y-177725000D03*
X106856600Y-177725000D03*
G04 #@! TD*
D18*
G04 #@! TO.C,H18*
X103772600Y-138709000D03*
G04 #@! TD*
D17*
G04 #@! TO.C,C15*
X108624600Y-146999000D03*
X110174600Y-146999000D03*
G04 #@! TD*
D19*
G04 #@! TO.C,R6*
X126511622Y-167068000D03*
X126511622Y-168718000D03*
G04 #@! TD*
D20*
G04 #@! TO.C,J3*
X129158600Y-106734000D03*
X123378600Y-106734000D03*
D21*
X129518600Y-108179000D03*
X128718600Y-108179000D03*
D22*
X127518600Y-108179000D03*
X126518600Y-108179000D03*
X126018600Y-108179000D03*
X125018600Y-108179000D03*
D21*
X123818600Y-108179000D03*
X123018600Y-108179000D03*
X123018600Y-108179000D03*
X123818600Y-108179000D03*
D22*
X124518600Y-108179000D03*
X125518600Y-108179000D03*
X127018600Y-108179000D03*
X128018600Y-108179000D03*
D21*
X128718600Y-108179000D03*
X129518600Y-108179000D03*
D23*
X130588600Y-107264000D03*
X121948600Y-107264000D03*
D24*
X130588600Y-103084000D03*
X121948600Y-103084000D03*
G04 #@! TD*
D25*
G04 #@! TO.C,R9*
X124659600Y-141919000D03*
X124659600Y-140269000D03*
G04 #@! TD*
D18*
G04 #@! TO.C,H14*
X137568600Y-122709000D03*
G04 #@! TD*
D17*
G04 #@! TO.C,C8*
X107933600Y-126726000D03*
X109483600Y-126726000D03*
G04 #@! TD*
D26*
G04 #@! TO.C,U5*
X107304600Y-150281000D03*
X107304600Y-151081000D03*
X107304600Y-151881000D03*
X107304600Y-152681000D03*
X107304600Y-153481000D03*
X107304600Y-154281000D03*
X107304600Y-155081000D03*
X107304600Y-155881000D03*
D27*
X108679600Y-157256000D03*
X109479600Y-157256000D03*
X110279600Y-157256000D03*
X111079600Y-157256000D03*
X111879600Y-157256000D03*
X112679600Y-157256000D03*
X113479600Y-157256000D03*
X114279600Y-157256000D03*
D26*
X115654600Y-155881000D03*
X115654600Y-155081000D03*
X115654600Y-154281000D03*
X115654600Y-153481000D03*
X115654600Y-152681000D03*
X115654600Y-151881000D03*
X115654600Y-151081000D03*
X115654600Y-150281000D03*
D27*
X114279600Y-148906000D03*
X113479600Y-148906000D03*
X112679600Y-148906000D03*
X111879600Y-148906000D03*
X111079600Y-148906000D03*
X110279600Y-148906000D03*
X109479600Y-148906000D03*
X108679600Y-148906000D03*
G04 #@! TD*
D18*
G04 #@! TO.C,H18*
X121768600Y-138709000D03*
G04 #@! TD*
D28*
G04 #@! TO.C,U2*
X110480600Y-167793000D03*
X111750600Y-167793000D03*
X113020600Y-167793000D03*
X114290600Y-167793000D03*
X114290600Y-162643000D03*
X113020600Y-162643000D03*
X111750600Y-162643000D03*
X110480600Y-162643000D03*
G04 #@! TD*
D29*
G04 #@! TO.C,RN2*
X130234600Y-178327000D03*
X129434600Y-178327000D03*
X128634600Y-178327000D03*
X127834600Y-178327000D03*
X127834600Y-180027000D03*
X128634600Y-180027000D03*
X129434600Y-180027000D03*
X130234600Y-180027000D03*
G04 #@! TD*
D30*
G04 #@! TO.C,L1*
X106784600Y-111134000D03*
X106784600Y-107984000D03*
G04 #@! TD*
D31*
G04 #@! TO.C,R3*
X124280600Y-111299000D03*
X122630600Y-111299000D03*
G04 #@! TD*
D19*
G04 #@! TO.C,R10*
X126034600Y-143541000D03*
X126034600Y-145191000D03*
G04 #@! TD*
D11*
G04 #@! TO.C,J4*
X128568600Y-143031993D03*
X129068599Y-143031993D03*
X129568600Y-143031993D03*
X130068600Y-143031993D03*
X130568601Y-143031993D03*
X131068600Y-143031993D03*
D12*
X127568599Y-145531993D03*
X132068601Y-145531993D03*
G04 #@! TD*
D32*
G04 #@! TO.C,U4*
X132481600Y-131981000D03*
X131531600Y-131981000D03*
X130581600Y-131981000D03*
X130581600Y-134181000D03*
X132481600Y-134181000D03*
G04 #@! TD*
D33*
G04 #@! TO.C,D1*
X134571622Y-113848000D03*
X137071622Y-113848000D03*
G04 #@! TD*
D34*
G04 #@! TO.C,SW29*
X107797600Y-103151000D03*
X103547600Y-103151000D03*
D35*
X106897600Y-104051000D03*
X104447600Y-104051000D03*
D36*
X105672600Y-104051000D03*
D37*
X107522600Y-102101000D03*
X103822600Y-102101000D03*
G04 #@! TD*
D38*
G04 #@! TO.C,R2*
X117613600Y-111217000D03*
X119263600Y-111217000D03*
G04 #@! TD*
G04 #@! TO.C,R9*
X106093600Y-141804000D03*
X107743600Y-141804000D03*
G04 #@! TD*
D16*
G04 #@! TO.C,C5*
X106897600Y-148690000D03*
X106897600Y-147140000D03*
G04 #@! TD*
D31*
G04 #@! TO.C,R4*
X137895600Y-132485000D03*
X136245600Y-132485000D03*
G04 #@! TD*
D39*
G04 #@! TO.C,C14*
X104246600Y-141804000D03*
X102696600Y-141804000D03*
G04 #@! TD*
D19*
G04 #@! TO.C,R10*
X107136600Y-143296000D03*
X107136600Y-144946000D03*
G04 #@! TD*
D40*
G04 #@! TO.C,RN3*
X138762622Y-155634000D03*
X138762622Y-154834000D03*
X138762622Y-154034000D03*
X138762622Y-153234000D03*
X137062622Y-153234000D03*
X137062622Y-154034000D03*
X137062622Y-154834000D03*
X137062622Y-155634000D03*
G04 #@! TD*
D16*
G04 #@! TO.C,C17*
X115595600Y-159149000D03*
X115595600Y-157599000D03*
G04 #@! TD*
D28*
G04 #@! TO.C,U2*
X128453622Y-166921000D03*
X129723622Y-166921000D03*
X130993622Y-166921000D03*
X132263622Y-166921000D03*
X132263622Y-161771000D03*
X130993622Y-161771000D03*
X129723622Y-161771000D03*
X128453622Y-161771000D03*
G04 #@! TD*
D19*
G04 #@! TO.C,R8*
X104845600Y-152411000D03*
X104845600Y-154061000D03*
G04 #@! TD*
D17*
G04 #@! TO.C,C12*
X133944622Y-159123000D03*
X135494622Y-159123000D03*
G04 #@! TD*
D19*
G04 #@! TO.C,R6*
X108591600Y-167547000D03*
X108591600Y-169197000D03*
G04 #@! TD*
D17*
G04 #@! TO.C,C4*
X117442600Y-155641000D03*
X118992600Y-155641000D03*
G04 #@! TD*
D41*
G04 #@! TO.C,J1*
X116795600Y-134264000D03*
X116795600Y-133264000D03*
X116795600Y-132264000D03*
D42*
X120670600Y-135564000D03*
X120670600Y-130964000D03*
G04 #@! TD*
D18*
G04 #@! TO.C,H15*
X121768600Y-122709000D03*
G04 #@! TD*
G04 #@! TO.C,H16*
X119572600Y-170209000D03*
G04 #@! TD*
D19*
G04 #@! TO.C,R1*
X123857622Y-152424000D03*
X123857622Y-154074000D03*
G04 #@! TD*
D43*
G04 #@! TO.C,J1*
X124545600Y-132264000D03*
X124545600Y-133264000D03*
X124545600Y-134264000D03*
D44*
X120670600Y-130964000D03*
X120670600Y-135564000D03*
G04 #@! TD*
D45*
G04 #@! TO.C,FB1*
X136968622Y-160576500D03*
X136968622Y-159001500D03*
G04 #@! TD*
D19*
G04 #@! TO.C,R7*
X126537622Y-163405000D03*
X126537622Y-165055000D03*
G04 #@! TD*
D46*
G04 #@! TO.C,Y1*
X103214539Y-150697000D03*
X104964539Y-150697000D03*
X104964539Y-149297000D03*
X103214539Y-149297000D03*
G04 #@! TD*
D18*
G04 #@! TO.C,H13*
X103772600Y-170209000D03*
G04 #@! TD*
D17*
G04 #@! TO.C,C6*
X103394600Y-147521000D03*
X104944600Y-147521000D03*
G04 #@! TD*
D47*
G04 #@! TO.C,C3*
X124541622Y-174820000D03*
X124541622Y-176370000D03*
G04 #@! TD*
D19*
G04 #@! TO.C,R7*
X108581600Y-164409000D03*
X108581600Y-166059000D03*
G04 #@! TD*
D48*
G04 #@! TO.C,F1*
X106784600Y-116041000D03*
X106784600Y-113241000D03*
G04 #@! TD*
D49*
G04 #@! TO.C,U3*
X115417600Y-124632000D03*
D50*
X115417600Y-122912000D03*
X113217600Y-122912000D03*
X113217600Y-124812000D03*
G04 #@! TD*
D40*
G04 #@! TO.C,RN3*
X104595600Y-158873000D03*
X104595600Y-158073000D03*
X104595600Y-157273000D03*
X104595600Y-156473000D03*
X102895600Y-156473000D03*
X102895600Y-157273000D03*
X102895600Y-158073000D03*
X102895600Y-158873000D03*
G04 #@! TD*
D14*
G04 #@! TO.C,J2*
X122473600Y-116934000D03*
X129473600Y-116934000D03*
D15*
X127073600Y-113684000D03*
X124073600Y-113684000D03*
X132173600Y-120184000D03*
X131073600Y-113684000D03*
G04 #@! TD*
D38*
G04 #@! TO.C,R4*
X106243600Y-130249000D03*
X107893600Y-130249000D03*
G04 #@! TD*
D18*
G04 #@! TO.C,H14*
X103772600Y-122709000D03*
G04 #@! TD*
D17*
G04 #@! TO.C,C6*
X122376600Y-147521000D03*
X123926600Y-147521000D03*
G04 #@! TD*
D33*
G04 #@! TO.C,D1*
X106784600Y-120565000D03*
X106784600Y-118065000D03*
G04 #@! TD*
D51*
G04 #@! TO.C,FB1*
X117187100Y-157491000D03*
X118762100Y-157491000D03*
G04 #@! TD*
D31*
G04 #@! TO.C,R5*
X137895600Y-134242000D03*
X136245600Y-134242000D03*
G04 #@! TD*
D18*
G04 #@! TO.C,H15*
X119572600Y-122709000D03*
G04 #@! TD*
D20*
G04 #@! TO.C,J3*
X117962600Y-106734000D03*
X112182600Y-106734000D03*
D21*
X118322600Y-108179000D03*
X117522600Y-108179000D03*
D22*
X116322600Y-108179000D03*
X115322600Y-108179000D03*
X114822600Y-108179000D03*
X113822600Y-108179000D03*
D21*
X112622600Y-108179000D03*
X111822600Y-108179000D03*
X111822600Y-108179000D03*
X112622600Y-108179000D03*
D22*
X113322600Y-108179000D03*
X114322600Y-108179000D03*
X115822600Y-108179000D03*
X116822600Y-108179000D03*
D21*
X117522600Y-108179000D03*
X118322600Y-108179000D03*
D23*
X119392600Y-107264000D03*
X110752600Y-107264000D03*
D24*
X119392600Y-103084000D03*
X110752600Y-103084000D03*
G04 #@! TD*
D31*
G04 #@! TO.C,R1*
X107893600Y-128458000D03*
X106243600Y-128458000D03*
G04 #@! TD*
D11*
G04 #@! TO.C,J4*
X110272600Y-142831993D03*
X110772599Y-142831993D03*
X111272600Y-142831993D03*
X111772600Y-142831993D03*
X112272601Y-142831993D03*
X112772600Y-142831993D03*
D12*
X109272599Y-145331993D03*
X113772601Y-145331993D03*
G04 #@! TD*
D18*
G04 #@! TO.C,H13*
X137568600Y-170209000D03*
G04 #@! TD*
D52*
G04 #@! TO.C,RN1*
X135302600Y-174099000D03*
X135302600Y-174899000D03*
X135302600Y-175699000D03*
X135302600Y-176499000D03*
X137002600Y-176499000D03*
X137002600Y-175699000D03*
X137002600Y-174899000D03*
X137002600Y-174099000D03*
G04 #@! TD*
D47*
G04 #@! TO.C,C9*
X111302600Y-125313000D03*
X111302600Y-126863000D03*
G04 #@! TD*
D53*
G04 #@! TO.C,F1*
X136893600Y-111073000D03*
X134093600Y-111073000D03*
G04 #@! TD*
D18*
G04 #@! TO.C,H19*
X119572600Y-138709000D03*
G04 #@! TD*
D38*
G04 #@! TO.C,R2*
X127622600Y-111299000D03*
X129272600Y-111299000D03*
G04 #@! TD*
D39*
G04 #@! TO.C,C14*
X123028600Y-141804000D03*
X121478600Y-141804000D03*
G04 #@! TD*
D18*
G04 #@! TO.C,H16*
X121768600Y-170209000D03*
G04 #@! TD*
D54*
G04 #@! TO.C,U6*
X105445950Y-145398001D03*
X105445950Y-144448000D03*
X105445950Y-143497999D03*
X102893250Y-143497999D03*
X102893250Y-145398001D03*
G04 #@! TD*
D34*
G04 #@! TO.C,SW29*
X137793600Y-103151000D03*
X133543600Y-103151000D03*
D35*
X136893600Y-104051000D03*
X134443600Y-104051000D03*
D36*
X135668600Y-104051000D03*
D37*
X137518600Y-102101000D03*
X133818600Y-102101000D03*
G04 #@! TD*
D17*
G04 #@! TO.C,C11*
X135057622Y-157273000D03*
X136607622Y-157273000D03*
G04 #@! TD*
D39*
G04 #@! TO.C,C8*
X132486661Y-130072000D03*
X130936661Y-130072000D03*
G04 #@! TD*
D17*
G04 #@! TO.C,C10*
X130769622Y-169195000D03*
X132319622Y-169195000D03*
G04 #@! TD*
D54*
G04 #@! TO.C,U6*
X124427950Y-145398001D03*
X124427950Y-144448000D03*
X124427950Y-143497999D03*
X121875250Y-143497999D03*
X121875250Y-145398001D03*
G04 #@! TD*
D55*
G04 #@! TO.C,U4*
X109464600Y-124851000D03*
X109464600Y-123901000D03*
X109464600Y-122951000D03*
X107264600Y-122951000D03*
X107264600Y-124851000D03*
G04 #@! TD*
D17*
G04 #@! TO.C,C16*
X117199600Y-159076000D03*
X118749600Y-159076000D03*
G04 #@! TD*
D16*
G04 #@! TO.C,C7*
X122118622Y-154035000D03*
X122118622Y-152485000D03*
G04 #@! TD*
D46*
G04 #@! TO.C,Y1*
X122196539Y-150697000D03*
X123946539Y-150697000D03*
X123946539Y-149297000D03*
X122196539Y-149297000D03*
G04 #@! TD*
D25*
G04 #@! TO.C,R8*
X126284600Y-141109000D03*
X126284600Y-139459000D03*
G04 #@! TD*
D47*
G04 #@! TO.C,C13*
X134743622Y-160734000D03*
X134743622Y-162284000D03*
G04 #@! TD*
D18*
G04 #@! TO.C,H19*
X137568600Y-138709000D03*
G04 #@! TD*
D31*
G04 #@! TO.C,R3*
X112773600Y-111240000D03*
X111123600Y-111240000D03*
G04 #@! TD*
D16*
G04 #@! TO.C,C5*
X125879600Y-148690000D03*
X125879600Y-147140000D03*
G04 #@! TD*
D39*
G04 #@! TO.C,C10*
X114084600Y-170134000D03*
X112534600Y-170134000D03*
G04 #@! TD*
D56*
G04 #@! TO.C,L1*
X137268600Y-108286000D03*
X134118600Y-108286000D03*
G04 #@! TD*
D17*
G04 #@! TO.C,C4*
X127606600Y-146999000D03*
X129156600Y-146999000D03*
G04 #@! TD*
D26*
G04 #@! TO.C,U5*
X126286600Y-150281000D03*
X126286600Y-151081000D03*
X126286600Y-151881000D03*
X126286600Y-152681000D03*
X126286600Y-153481000D03*
X126286600Y-154281000D03*
X126286600Y-155081000D03*
X126286600Y-155881000D03*
D27*
X127661600Y-157256000D03*
X128461600Y-157256000D03*
X129261600Y-157256000D03*
X130061600Y-157256000D03*
X130861600Y-157256000D03*
X131661600Y-157256000D03*
X132461600Y-157256000D03*
X133261600Y-157256000D03*
D26*
X134636600Y-155881000D03*
X134636600Y-155081000D03*
X134636600Y-154281000D03*
X134636600Y-153481000D03*
X134636600Y-152681000D03*
X134636600Y-151881000D03*
X134636600Y-151081000D03*
X134636600Y-150281000D03*
D27*
X133261600Y-148906000D03*
X132461600Y-148906000D03*
X131661600Y-148906000D03*
X130861600Y-148906000D03*
X130061600Y-148906000D03*
X129261600Y-148906000D03*
X128461600Y-148906000D03*
X127661600Y-148906000D03*
G04 #@! TD*
D29*
G04 #@! TO.C,RN2*
X113506600Y-178327000D03*
X112706600Y-178327000D03*
X111906600Y-178327000D03*
X111106600Y-178327000D03*
X111106600Y-180027000D03*
X111906600Y-180027000D03*
X112706600Y-180027000D03*
X113506600Y-180027000D03*
G04 #@! TD*
D39*
G04 #@! TO.C,C9*
X132486661Y-136012000D03*
X130936661Y-136012000D03*
G04 #@! TD*
D17*
G04 #@! TO.C,C2*
X109318600Y-160686000D03*
X110868600Y-160686000D03*
G04 #@! TD*
D40*
G04 #@! TO.C,RN1*
X106038600Y-175999000D03*
X106038600Y-175199000D03*
X106038600Y-174399000D03*
X106038600Y-173599000D03*
X104338600Y-173599000D03*
X104338600Y-174399000D03*
X104338600Y-175199000D03*
X104338600Y-175999000D03*
G04 #@! TD*
D16*
G04 #@! TO.C,C2*
X126568622Y-161426000D03*
X126568622Y-159876000D03*
G04 #@! TD*
D57*
G04 #@! TO.C,U3*
X126970600Y-124482000D03*
D58*
X126970600Y-126202000D03*
X129170600Y-126202000D03*
X129170600Y-124302000D03*
G04 #@! TD*
M02*
