%TF.GenerationSoftware,KiCad,Pcbnew,9.0.4*%
%TF.CreationDate,2025-09-24T17:18:31-07:00*%
%TF.ProjectId,stencil,7374656e-6369-46c2-9e6b-696361645f70,1.0*%
%TF.SameCoordinates,Original*%
%TF.FileFunction,Drillmap*%
%TF.FilePolarity,Positive*%
%FSLAX45Y45*%
G04 Gerber Fmt 4.5, Leading zero omitted, Abs format (unit mm)*
G04 Created by KiCad (PCBNEW 9.0.4) date 2025-09-24 17:18:31*
%MOMM*%
%LPD*%
G01*
G04 APERTURE LIST*
%ADD10C,0.050000*%
%ADD11C,0.200000*%
%ADD12C,0.100000*%
G04 APERTURE END LIST*
D10*
X10000000Y-10000000D02*
X14000000Y-10000000D01*
X14000000Y-18500000D01*
X10000000Y-18500000D01*
X10000000Y-10000000D01*
D11*
D12*
X11135760Y-10640900D02*
X11200760Y-10705900D01*
X11200760Y-10640900D02*
X11135760Y-10705900D01*
X11713760Y-10640900D02*
X11778760Y-10705900D01*
X11778760Y-10640900D02*
X11713760Y-10705900D01*
X12255360Y-10640900D02*
X12320360Y-10705900D01*
X12320360Y-10640900D02*
X12255360Y-10705900D01*
X12833360Y-10640900D02*
X12898360Y-10705900D01*
X12898360Y-10640900D02*
X12833360Y-10705900D01*
X10349760Y-10315100D02*
G75*
G02*
X10259760Y-10315100I-45000J0D01*
G01*
X10259760Y-10315100D02*
G75*
G02*
X10349760Y-10315100I45000J0D01*
G01*
X10774760Y-10315100D02*
G75*
G02*
X10684760Y-10315100I-45000J0D01*
G01*
X10684760Y-10315100D02*
G75*
G02*
X10774760Y-10315100I45000J0D01*
G01*
X13349360Y-10315100D02*
G75*
G02*
X13259360Y-10315100I-45000J0D01*
G01*
X13259360Y-10315100D02*
G75*
G02*
X13349360Y-10315100I45000J0D01*
G01*
X13774360Y-10315100D02*
G75*
G02*
X13684360Y-10315100I-45000J0D01*
G01*
X13684360Y-10315100D02*
G75*
G02*
X13774360Y-10315100I45000J0D01*
G01*
X11136760Y-11643400D02*
X11136760Y-11743400D01*
X11086760Y-11693400D02*
X11186760Y-11693400D01*
X11836760Y-11643400D02*
X11836760Y-11743400D01*
X11786760Y-11693400D02*
X11886760Y-11693400D01*
X12197360Y-11643400D02*
X12197360Y-11743400D01*
X12147360Y-11693400D02*
X12247360Y-11693400D01*
X12897360Y-11643400D02*
X12897360Y-11743400D01*
X12847360Y-11693400D02*
X12947360Y-11693400D01*
D11*
X10258277Y-18813984D02*
X10258277Y-18613984D01*
X10258277Y-18613984D02*
X10305896Y-18613984D01*
X10305896Y-18613984D02*
X10334467Y-18623508D01*
X10334467Y-18623508D02*
X10353515Y-18642555D01*
X10353515Y-18642555D02*
X10363039Y-18661603D01*
X10363039Y-18661603D02*
X10372563Y-18699698D01*
X10372563Y-18699698D02*
X10372563Y-18728270D01*
X10372563Y-18728270D02*
X10363039Y-18766365D01*
X10363039Y-18766365D02*
X10353515Y-18785412D01*
X10353515Y-18785412D02*
X10334467Y-18804460D01*
X10334467Y-18804460D02*
X10305896Y-18813984D01*
X10305896Y-18813984D02*
X10258277Y-18813984D01*
X10458277Y-18813984D02*
X10458277Y-18680650D01*
X10458277Y-18718746D02*
X10467801Y-18699698D01*
X10467801Y-18699698D02*
X10477324Y-18690174D01*
X10477324Y-18690174D02*
X10496372Y-18680650D01*
X10496372Y-18680650D02*
X10515420Y-18680650D01*
X10582086Y-18813984D02*
X10582086Y-18680650D01*
X10582086Y-18613984D02*
X10572563Y-18623508D01*
X10572563Y-18623508D02*
X10582086Y-18633031D01*
X10582086Y-18633031D02*
X10591610Y-18623508D01*
X10591610Y-18623508D02*
X10582086Y-18613984D01*
X10582086Y-18613984D02*
X10582086Y-18633031D01*
X10705896Y-18813984D02*
X10686848Y-18804460D01*
X10686848Y-18804460D02*
X10677324Y-18785412D01*
X10677324Y-18785412D02*
X10677324Y-18613984D01*
X10810658Y-18813984D02*
X10791610Y-18804460D01*
X10791610Y-18804460D02*
X10782086Y-18785412D01*
X10782086Y-18785412D02*
X10782086Y-18613984D01*
X11039229Y-18813984D02*
X11039229Y-18613984D01*
X11039229Y-18613984D02*
X11105896Y-18756841D01*
X11105896Y-18756841D02*
X11172563Y-18613984D01*
X11172563Y-18613984D02*
X11172563Y-18813984D01*
X11353515Y-18813984D02*
X11353515Y-18709222D01*
X11353515Y-18709222D02*
X11343991Y-18690174D01*
X11343991Y-18690174D02*
X11324943Y-18680650D01*
X11324943Y-18680650D02*
X11286848Y-18680650D01*
X11286848Y-18680650D02*
X11267801Y-18690174D01*
X11353515Y-18804460D02*
X11334467Y-18813984D01*
X11334467Y-18813984D02*
X11286848Y-18813984D01*
X11286848Y-18813984D02*
X11267801Y-18804460D01*
X11267801Y-18804460D02*
X11258277Y-18785412D01*
X11258277Y-18785412D02*
X11258277Y-18766365D01*
X11258277Y-18766365D02*
X11267801Y-18747317D01*
X11267801Y-18747317D02*
X11286848Y-18737793D01*
X11286848Y-18737793D02*
X11334467Y-18737793D01*
X11334467Y-18737793D02*
X11353515Y-18728270D01*
X11448753Y-18680650D02*
X11448753Y-18880650D01*
X11448753Y-18690174D02*
X11467801Y-18680650D01*
X11467801Y-18680650D02*
X11505896Y-18680650D01*
X11505896Y-18680650D02*
X11524943Y-18690174D01*
X11524943Y-18690174D02*
X11534467Y-18699698D01*
X11534467Y-18699698D02*
X11543991Y-18718746D01*
X11543991Y-18718746D02*
X11543991Y-18775889D01*
X11543991Y-18775889D02*
X11534467Y-18794936D01*
X11534467Y-18794936D02*
X11524943Y-18804460D01*
X11524943Y-18804460D02*
X11505896Y-18813984D01*
X11505896Y-18813984D02*
X11467801Y-18813984D01*
X11467801Y-18813984D02*
X11448753Y-18804460D01*
X11629705Y-18794936D02*
X11639229Y-18804460D01*
X11639229Y-18804460D02*
X11629705Y-18813984D01*
X11629705Y-18813984D02*
X11620182Y-18804460D01*
X11620182Y-18804460D02*
X11629705Y-18794936D01*
X11629705Y-18794936D02*
X11629705Y-18813984D01*
X11629705Y-18690174D02*
X11639229Y-18699698D01*
X11639229Y-18699698D02*
X11629705Y-18709222D01*
X11629705Y-18709222D02*
X11620182Y-18699698D01*
X11620182Y-18699698D02*
X11629705Y-18690174D01*
X11629705Y-18690174D02*
X11629705Y-18709222D01*
D12*
X9932500Y-19110000D02*
X9997500Y-19175000D01*
X9997500Y-19110000D02*
X9932500Y-19175000D01*
D11*
X10296372Y-19033984D02*
X10315420Y-19033984D01*
X10315420Y-19033984D02*
X10334467Y-19043508D01*
X10334467Y-19043508D02*
X10343991Y-19053031D01*
X10343991Y-19053031D02*
X10353515Y-19072079D01*
X10353515Y-19072079D02*
X10363039Y-19110174D01*
X10363039Y-19110174D02*
X10363039Y-19157793D01*
X10363039Y-19157793D02*
X10353515Y-19195889D01*
X10353515Y-19195889D02*
X10343991Y-19214936D01*
X10343991Y-19214936D02*
X10334467Y-19224460D01*
X10334467Y-19224460D02*
X10315420Y-19233984D01*
X10315420Y-19233984D02*
X10296372Y-19233984D01*
X10296372Y-19233984D02*
X10277324Y-19224460D01*
X10277324Y-19224460D02*
X10267801Y-19214936D01*
X10267801Y-19214936D02*
X10258277Y-19195889D01*
X10258277Y-19195889D02*
X10248753Y-19157793D01*
X10248753Y-19157793D02*
X10248753Y-19110174D01*
X10248753Y-19110174D02*
X10258277Y-19072079D01*
X10258277Y-19072079D02*
X10267801Y-19053031D01*
X10267801Y-19053031D02*
X10277324Y-19043508D01*
X10277324Y-19043508D02*
X10296372Y-19033984D01*
X10448753Y-19214936D02*
X10458277Y-19224460D01*
X10458277Y-19224460D02*
X10448753Y-19233984D01*
X10448753Y-19233984D02*
X10439229Y-19224460D01*
X10439229Y-19224460D02*
X10448753Y-19214936D01*
X10448753Y-19214936D02*
X10448753Y-19233984D01*
X10629705Y-19033984D02*
X10591610Y-19033984D01*
X10591610Y-19033984D02*
X10572563Y-19043508D01*
X10572563Y-19043508D02*
X10563039Y-19053031D01*
X10563039Y-19053031D02*
X10543991Y-19081603D01*
X10543991Y-19081603D02*
X10534467Y-19119698D01*
X10534467Y-19119698D02*
X10534467Y-19195889D01*
X10534467Y-19195889D02*
X10543991Y-19214936D01*
X10543991Y-19214936D02*
X10553515Y-19224460D01*
X10553515Y-19224460D02*
X10572563Y-19233984D01*
X10572563Y-19233984D02*
X10610658Y-19233984D01*
X10610658Y-19233984D02*
X10629705Y-19224460D01*
X10629705Y-19224460D02*
X10639229Y-19214936D01*
X10639229Y-19214936D02*
X10648753Y-19195889D01*
X10648753Y-19195889D02*
X10648753Y-19148270D01*
X10648753Y-19148270D02*
X10639229Y-19129222D01*
X10639229Y-19129222D02*
X10629705Y-19119698D01*
X10629705Y-19119698D02*
X10610658Y-19110174D01*
X10610658Y-19110174D02*
X10572563Y-19110174D01*
X10572563Y-19110174D02*
X10553515Y-19119698D01*
X10553515Y-19119698D02*
X10543991Y-19129222D01*
X10543991Y-19129222D02*
X10534467Y-19148270D01*
X10829705Y-19033984D02*
X10734467Y-19033984D01*
X10734467Y-19033984D02*
X10724944Y-19129222D01*
X10724944Y-19129222D02*
X10734467Y-19119698D01*
X10734467Y-19119698D02*
X10753515Y-19110174D01*
X10753515Y-19110174D02*
X10801134Y-19110174D01*
X10801134Y-19110174D02*
X10820182Y-19119698D01*
X10820182Y-19119698D02*
X10829705Y-19129222D01*
X10829705Y-19129222D02*
X10839229Y-19148270D01*
X10839229Y-19148270D02*
X10839229Y-19195889D01*
X10839229Y-19195889D02*
X10829705Y-19214936D01*
X10829705Y-19214936D02*
X10820182Y-19224460D01*
X10820182Y-19224460D02*
X10801134Y-19233984D01*
X10801134Y-19233984D02*
X10753515Y-19233984D01*
X10753515Y-19233984D02*
X10734467Y-19224460D01*
X10734467Y-19224460D02*
X10724944Y-19214936D01*
X10963039Y-19033984D02*
X10982086Y-19033984D01*
X10982086Y-19033984D02*
X11001134Y-19043508D01*
X11001134Y-19043508D02*
X11010658Y-19053031D01*
X11010658Y-19053031D02*
X11020182Y-19072079D01*
X11020182Y-19072079D02*
X11029705Y-19110174D01*
X11029705Y-19110174D02*
X11029705Y-19157793D01*
X11029705Y-19157793D02*
X11020182Y-19195889D01*
X11020182Y-19195889D02*
X11010658Y-19214936D01*
X11010658Y-19214936D02*
X11001134Y-19224460D01*
X11001134Y-19224460D02*
X10982086Y-19233984D01*
X10982086Y-19233984D02*
X10963039Y-19233984D01*
X10963039Y-19233984D02*
X10943991Y-19224460D01*
X10943991Y-19224460D02*
X10934467Y-19214936D01*
X10934467Y-19214936D02*
X10924944Y-19195889D01*
X10924944Y-19195889D02*
X10915420Y-19157793D01*
X10915420Y-19157793D02*
X10915420Y-19110174D01*
X10915420Y-19110174D02*
X10924944Y-19072079D01*
X10924944Y-19072079D02*
X10934467Y-19053031D01*
X10934467Y-19053031D02*
X10943991Y-19043508D01*
X10943991Y-19043508D02*
X10963039Y-19033984D01*
X11115420Y-19233984D02*
X11115420Y-19100650D01*
X11115420Y-19119698D02*
X11124944Y-19110174D01*
X11124944Y-19110174D02*
X11143991Y-19100650D01*
X11143991Y-19100650D02*
X11172563Y-19100650D01*
X11172563Y-19100650D02*
X11191610Y-19110174D01*
X11191610Y-19110174D02*
X11201134Y-19129222D01*
X11201134Y-19129222D02*
X11201134Y-19233984D01*
X11201134Y-19129222D02*
X11210658Y-19110174D01*
X11210658Y-19110174D02*
X11229705Y-19100650D01*
X11229705Y-19100650D02*
X11258277Y-19100650D01*
X11258277Y-19100650D02*
X11277324Y-19110174D01*
X11277324Y-19110174D02*
X11286848Y-19129222D01*
X11286848Y-19129222D02*
X11286848Y-19233984D01*
X11382086Y-19233984D02*
X11382086Y-19100650D01*
X11382086Y-19119698D02*
X11391610Y-19110174D01*
X11391610Y-19110174D02*
X11410658Y-19100650D01*
X11410658Y-19100650D02*
X11439229Y-19100650D01*
X11439229Y-19100650D02*
X11458277Y-19110174D01*
X11458277Y-19110174D02*
X11467801Y-19129222D01*
X11467801Y-19129222D02*
X11467801Y-19233984D01*
X11467801Y-19129222D02*
X11477324Y-19110174D01*
X11477324Y-19110174D02*
X11496372Y-19100650D01*
X11496372Y-19100650D02*
X11524943Y-19100650D01*
X11524943Y-19100650D02*
X11543991Y-19110174D01*
X11543991Y-19110174D02*
X11553515Y-19129222D01*
X11553515Y-19129222D02*
X11553515Y-19233984D01*
X11943991Y-19024460D02*
X11772563Y-19281603D01*
X12201134Y-19033984D02*
X12220182Y-19033984D01*
X12220182Y-19033984D02*
X12239229Y-19043508D01*
X12239229Y-19043508D02*
X12248753Y-19053031D01*
X12248753Y-19053031D02*
X12258277Y-19072079D01*
X12258277Y-19072079D02*
X12267801Y-19110174D01*
X12267801Y-19110174D02*
X12267801Y-19157793D01*
X12267801Y-19157793D02*
X12258277Y-19195889D01*
X12258277Y-19195889D02*
X12248753Y-19214936D01*
X12248753Y-19214936D02*
X12239229Y-19224460D01*
X12239229Y-19224460D02*
X12220182Y-19233984D01*
X12220182Y-19233984D02*
X12201134Y-19233984D01*
X12201134Y-19233984D02*
X12182086Y-19224460D01*
X12182086Y-19224460D02*
X12172563Y-19214936D01*
X12172563Y-19214936D02*
X12163039Y-19195889D01*
X12163039Y-19195889D02*
X12153515Y-19157793D01*
X12153515Y-19157793D02*
X12153515Y-19110174D01*
X12153515Y-19110174D02*
X12163039Y-19072079D01*
X12163039Y-19072079D02*
X12172563Y-19053031D01*
X12172563Y-19053031D02*
X12182086Y-19043508D01*
X12182086Y-19043508D02*
X12201134Y-19033984D01*
X12353515Y-19214936D02*
X12363039Y-19224460D01*
X12363039Y-19224460D02*
X12353515Y-19233984D01*
X12353515Y-19233984D02*
X12343991Y-19224460D01*
X12343991Y-19224460D02*
X12353515Y-19214936D01*
X12353515Y-19214936D02*
X12353515Y-19233984D01*
X12486848Y-19033984D02*
X12505896Y-19033984D01*
X12505896Y-19033984D02*
X12524944Y-19043508D01*
X12524944Y-19043508D02*
X12534467Y-19053031D01*
X12534467Y-19053031D02*
X12543991Y-19072079D01*
X12543991Y-19072079D02*
X12553515Y-19110174D01*
X12553515Y-19110174D02*
X12553515Y-19157793D01*
X12553515Y-19157793D02*
X12543991Y-19195889D01*
X12543991Y-19195889D02*
X12534467Y-19214936D01*
X12534467Y-19214936D02*
X12524944Y-19224460D01*
X12524944Y-19224460D02*
X12505896Y-19233984D01*
X12505896Y-19233984D02*
X12486848Y-19233984D01*
X12486848Y-19233984D02*
X12467801Y-19224460D01*
X12467801Y-19224460D02*
X12458277Y-19214936D01*
X12458277Y-19214936D02*
X12448753Y-19195889D01*
X12448753Y-19195889D02*
X12439229Y-19157793D01*
X12439229Y-19157793D02*
X12439229Y-19110174D01*
X12439229Y-19110174D02*
X12448753Y-19072079D01*
X12448753Y-19072079D02*
X12458277Y-19053031D01*
X12458277Y-19053031D02*
X12467801Y-19043508D01*
X12467801Y-19043508D02*
X12486848Y-19033984D01*
X12629706Y-19053031D02*
X12639229Y-19043508D01*
X12639229Y-19043508D02*
X12658277Y-19033984D01*
X12658277Y-19033984D02*
X12705896Y-19033984D01*
X12705896Y-19033984D02*
X12724944Y-19043508D01*
X12724944Y-19043508D02*
X12734467Y-19053031D01*
X12734467Y-19053031D02*
X12743991Y-19072079D01*
X12743991Y-19072079D02*
X12743991Y-19091127D01*
X12743991Y-19091127D02*
X12734467Y-19119698D01*
X12734467Y-19119698D02*
X12620182Y-19233984D01*
X12620182Y-19233984D02*
X12743991Y-19233984D01*
X12924944Y-19033984D02*
X12829706Y-19033984D01*
X12829706Y-19033984D02*
X12820182Y-19129222D01*
X12820182Y-19129222D02*
X12829706Y-19119698D01*
X12829706Y-19119698D02*
X12848753Y-19110174D01*
X12848753Y-19110174D02*
X12896372Y-19110174D01*
X12896372Y-19110174D02*
X12915420Y-19119698D01*
X12915420Y-19119698D02*
X12924944Y-19129222D01*
X12924944Y-19129222D02*
X12934467Y-19148270D01*
X12934467Y-19148270D02*
X12934467Y-19195889D01*
X12934467Y-19195889D02*
X12924944Y-19214936D01*
X12924944Y-19214936D02*
X12915420Y-19224460D01*
X12915420Y-19224460D02*
X12896372Y-19233984D01*
X12896372Y-19233984D02*
X12848753Y-19233984D01*
X12848753Y-19233984D02*
X12829706Y-19224460D01*
X12829706Y-19224460D02*
X12820182Y-19214936D01*
X13105896Y-19033984D02*
X13067801Y-19033984D01*
X13067801Y-19033984D02*
X13048753Y-19043508D01*
X13048753Y-19043508D02*
X13039229Y-19053031D01*
X13039229Y-19053031D02*
X13020182Y-19081603D01*
X13020182Y-19081603D02*
X13010658Y-19119698D01*
X13010658Y-19119698D02*
X13010658Y-19195889D01*
X13010658Y-19195889D02*
X13020182Y-19214936D01*
X13020182Y-19214936D02*
X13029706Y-19224460D01*
X13029706Y-19224460D02*
X13048753Y-19233984D01*
X13048753Y-19233984D02*
X13086848Y-19233984D01*
X13086848Y-19233984D02*
X13105896Y-19224460D01*
X13105896Y-19224460D02*
X13115420Y-19214936D01*
X13115420Y-19214936D02*
X13124944Y-19195889D01*
X13124944Y-19195889D02*
X13124944Y-19148270D01*
X13124944Y-19148270D02*
X13115420Y-19129222D01*
X13115420Y-19129222D02*
X13105896Y-19119698D01*
X13105896Y-19119698D02*
X13086848Y-19110174D01*
X13086848Y-19110174D02*
X13048753Y-19110174D01*
X13048753Y-19110174D02*
X13029706Y-19119698D01*
X13029706Y-19119698D02*
X13020182Y-19129222D01*
X13020182Y-19129222D02*
X13010658Y-19148270D01*
X13201134Y-19033984D02*
X13201134Y-19072079D01*
X13277325Y-19033984D02*
X13277325Y-19072079D01*
X13572563Y-19310174D02*
X13563039Y-19300650D01*
X13563039Y-19300650D02*
X13543991Y-19272079D01*
X13543991Y-19272079D02*
X13534468Y-19253031D01*
X13534468Y-19253031D02*
X13524944Y-19224460D01*
X13524944Y-19224460D02*
X13515420Y-19176841D01*
X13515420Y-19176841D02*
X13515420Y-19138746D01*
X13515420Y-19138746D02*
X13524944Y-19091127D01*
X13524944Y-19091127D02*
X13534468Y-19062555D01*
X13534468Y-19062555D02*
X13543991Y-19043508D01*
X13543991Y-19043508D02*
X13563039Y-19014936D01*
X13563039Y-19014936D02*
X13572563Y-19005412D01*
X13734468Y-19100650D02*
X13734468Y-19233984D01*
X13686848Y-19024460D02*
X13639229Y-19167317D01*
X13639229Y-19167317D02*
X13763039Y-19167317D01*
X13991610Y-19233984D02*
X13991610Y-19033984D01*
X14077325Y-19233984D02*
X14077325Y-19129222D01*
X14077325Y-19129222D02*
X14067801Y-19110174D01*
X14067801Y-19110174D02*
X14048753Y-19100650D01*
X14048753Y-19100650D02*
X14020182Y-19100650D01*
X14020182Y-19100650D02*
X14001134Y-19110174D01*
X14001134Y-19110174D02*
X13991610Y-19119698D01*
X14201134Y-19233984D02*
X14182087Y-19224460D01*
X14182087Y-19224460D02*
X14172563Y-19214936D01*
X14172563Y-19214936D02*
X14163039Y-19195889D01*
X14163039Y-19195889D02*
X14163039Y-19138746D01*
X14163039Y-19138746D02*
X14172563Y-19119698D01*
X14172563Y-19119698D02*
X14182087Y-19110174D01*
X14182087Y-19110174D02*
X14201134Y-19100650D01*
X14201134Y-19100650D02*
X14229706Y-19100650D01*
X14229706Y-19100650D02*
X14248753Y-19110174D01*
X14248753Y-19110174D02*
X14258277Y-19119698D01*
X14258277Y-19119698D02*
X14267801Y-19138746D01*
X14267801Y-19138746D02*
X14267801Y-19195889D01*
X14267801Y-19195889D02*
X14258277Y-19214936D01*
X14258277Y-19214936D02*
X14248753Y-19224460D01*
X14248753Y-19224460D02*
X14229706Y-19233984D01*
X14229706Y-19233984D02*
X14201134Y-19233984D01*
X14382087Y-19233984D02*
X14363039Y-19224460D01*
X14363039Y-19224460D02*
X14353515Y-19205412D01*
X14353515Y-19205412D02*
X14353515Y-19033984D01*
X14534468Y-19224460D02*
X14515420Y-19233984D01*
X14515420Y-19233984D02*
X14477325Y-19233984D01*
X14477325Y-19233984D02*
X14458277Y-19224460D01*
X14458277Y-19224460D02*
X14448753Y-19205412D01*
X14448753Y-19205412D02*
X14448753Y-19129222D01*
X14448753Y-19129222D02*
X14458277Y-19110174D01*
X14458277Y-19110174D02*
X14477325Y-19100650D01*
X14477325Y-19100650D02*
X14515420Y-19100650D01*
X14515420Y-19100650D02*
X14534468Y-19110174D01*
X14534468Y-19110174D02*
X14543991Y-19129222D01*
X14543991Y-19129222D02*
X14543991Y-19148270D01*
X14543991Y-19148270D02*
X14448753Y-19167317D01*
X14620182Y-19224460D02*
X14639230Y-19233984D01*
X14639230Y-19233984D02*
X14677325Y-19233984D01*
X14677325Y-19233984D02*
X14696372Y-19224460D01*
X14696372Y-19224460D02*
X14705896Y-19205412D01*
X14705896Y-19205412D02*
X14705896Y-19195889D01*
X14705896Y-19195889D02*
X14696372Y-19176841D01*
X14696372Y-19176841D02*
X14677325Y-19167317D01*
X14677325Y-19167317D02*
X14648753Y-19167317D01*
X14648753Y-19167317D02*
X14629706Y-19157793D01*
X14629706Y-19157793D02*
X14620182Y-19138746D01*
X14620182Y-19138746D02*
X14620182Y-19129222D01*
X14620182Y-19129222D02*
X14629706Y-19110174D01*
X14629706Y-19110174D02*
X14648753Y-19100650D01*
X14648753Y-19100650D02*
X14677325Y-19100650D01*
X14677325Y-19100650D02*
X14696372Y-19110174D01*
X14772563Y-19310174D02*
X14782087Y-19300650D01*
X14782087Y-19300650D02*
X14801134Y-19272079D01*
X14801134Y-19272079D02*
X14810658Y-19253031D01*
X14810658Y-19253031D02*
X14820182Y-19224460D01*
X14820182Y-19224460D02*
X14829706Y-19176841D01*
X14829706Y-19176841D02*
X14829706Y-19138746D01*
X14829706Y-19138746D02*
X14820182Y-19091127D01*
X14820182Y-19091127D02*
X14810658Y-19062555D01*
X14810658Y-19062555D02*
X14801134Y-19043508D01*
X14801134Y-19043508D02*
X14782087Y-19014936D01*
X14782087Y-19014936D02*
X14772563Y-19005412D01*
X15134468Y-19310174D02*
X15124944Y-19300650D01*
X15124944Y-19300650D02*
X15105896Y-19272079D01*
X15105896Y-19272079D02*
X15096372Y-19253031D01*
X15096372Y-19253031D02*
X15086849Y-19224460D01*
X15086849Y-19224460D02*
X15077325Y-19176841D01*
X15077325Y-19176841D02*
X15077325Y-19138746D01*
X15077325Y-19138746D02*
X15086849Y-19091127D01*
X15086849Y-19091127D02*
X15096372Y-19062555D01*
X15096372Y-19062555D02*
X15105896Y-19043508D01*
X15105896Y-19043508D02*
X15124944Y-19014936D01*
X15124944Y-19014936D02*
X15134468Y-19005412D01*
X15210658Y-19100650D02*
X15210658Y-19233984D01*
X15210658Y-19119698D02*
X15220182Y-19110174D01*
X15220182Y-19110174D02*
X15239230Y-19100650D01*
X15239230Y-19100650D02*
X15267801Y-19100650D01*
X15267801Y-19100650D02*
X15286849Y-19110174D01*
X15286849Y-19110174D02*
X15296372Y-19129222D01*
X15296372Y-19129222D02*
X15296372Y-19233984D01*
X15420182Y-19233984D02*
X15401134Y-19224460D01*
X15401134Y-19224460D02*
X15391611Y-19214936D01*
X15391611Y-19214936D02*
X15382087Y-19195889D01*
X15382087Y-19195889D02*
X15382087Y-19138746D01*
X15382087Y-19138746D02*
X15391611Y-19119698D01*
X15391611Y-19119698D02*
X15401134Y-19110174D01*
X15401134Y-19110174D02*
X15420182Y-19100650D01*
X15420182Y-19100650D02*
X15448753Y-19100650D01*
X15448753Y-19100650D02*
X15467801Y-19110174D01*
X15467801Y-19110174D02*
X15477325Y-19119698D01*
X15477325Y-19119698D02*
X15486849Y-19138746D01*
X15486849Y-19138746D02*
X15486849Y-19195889D01*
X15486849Y-19195889D02*
X15477325Y-19214936D01*
X15477325Y-19214936D02*
X15467801Y-19224460D01*
X15467801Y-19224460D02*
X15448753Y-19233984D01*
X15448753Y-19233984D02*
X15420182Y-19233984D01*
X15543992Y-19100650D02*
X15620182Y-19100650D01*
X15572563Y-19033984D02*
X15572563Y-19205412D01*
X15572563Y-19205412D02*
X15582087Y-19224460D01*
X15582087Y-19224460D02*
X15601134Y-19233984D01*
X15601134Y-19233984D02*
X15620182Y-19233984D01*
X15839230Y-19100650D02*
X15839230Y-19300650D01*
X15839230Y-19110174D02*
X15858277Y-19100650D01*
X15858277Y-19100650D02*
X15896373Y-19100650D01*
X15896373Y-19100650D02*
X15915420Y-19110174D01*
X15915420Y-19110174D02*
X15924944Y-19119698D01*
X15924944Y-19119698D02*
X15934468Y-19138746D01*
X15934468Y-19138746D02*
X15934468Y-19195889D01*
X15934468Y-19195889D02*
X15924944Y-19214936D01*
X15924944Y-19214936D02*
X15915420Y-19224460D01*
X15915420Y-19224460D02*
X15896373Y-19233984D01*
X15896373Y-19233984D02*
X15858277Y-19233984D01*
X15858277Y-19233984D02*
X15839230Y-19224460D01*
X16048753Y-19233984D02*
X16029706Y-19224460D01*
X16029706Y-19224460D02*
X16020182Y-19205412D01*
X16020182Y-19205412D02*
X16020182Y-19033984D01*
X16210658Y-19233984D02*
X16210658Y-19129222D01*
X16210658Y-19129222D02*
X16201134Y-19110174D01*
X16201134Y-19110174D02*
X16182087Y-19100650D01*
X16182087Y-19100650D02*
X16143992Y-19100650D01*
X16143992Y-19100650D02*
X16124944Y-19110174D01*
X16210658Y-19224460D02*
X16191611Y-19233984D01*
X16191611Y-19233984D02*
X16143992Y-19233984D01*
X16143992Y-19233984D02*
X16124944Y-19224460D01*
X16124944Y-19224460D02*
X16115420Y-19205412D01*
X16115420Y-19205412D02*
X16115420Y-19186365D01*
X16115420Y-19186365D02*
X16124944Y-19167317D01*
X16124944Y-19167317D02*
X16143992Y-19157793D01*
X16143992Y-19157793D02*
X16191611Y-19157793D01*
X16191611Y-19157793D02*
X16210658Y-19148270D01*
X16277325Y-19100650D02*
X16353515Y-19100650D01*
X16305896Y-19033984D02*
X16305896Y-19205412D01*
X16305896Y-19205412D02*
X16315420Y-19224460D01*
X16315420Y-19224460D02*
X16334468Y-19233984D01*
X16334468Y-19233984D02*
X16353515Y-19233984D01*
X16496373Y-19224460D02*
X16477325Y-19233984D01*
X16477325Y-19233984D02*
X16439230Y-19233984D01*
X16439230Y-19233984D02*
X16420182Y-19224460D01*
X16420182Y-19224460D02*
X16410658Y-19205412D01*
X16410658Y-19205412D02*
X16410658Y-19129222D01*
X16410658Y-19129222D02*
X16420182Y-19110174D01*
X16420182Y-19110174D02*
X16439230Y-19100650D01*
X16439230Y-19100650D02*
X16477325Y-19100650D01*
X16477325Y-19100650D02*
X16496373Y-19110174D01*
X16496373Y-19110174D02*
X16505896Y-19129222D01*
X16505896Y-19129222D02*
X16505896Y-19148270D01*
X16505896Y-19148270D02*
X16410658Y-19167317D01*
X16677325Y-19233984D02*
X16677325Y-19033984D01*
X16677325Y-19224460D02*
X16658277Y-19233984D01*
X16658277Y-19233984D02*
X16620182Y-19233984D01*
X16620182Y-19233984D02*
X16601134Y-19224460D01*
X16601134Y-19224460D02*
X16591611Y-19214936D01*
X16591611Y-19214936D02*
X16582087Y-19195889D01*
X16582087Y-19195889D02*
X16582087Y-19138746D01*
X16582087Y-19138746D02*
X16591611Y-19119698D01*
X16591611Y-19119698D02*
X16601134Y-19110174D01*
X16601134Y-19110174D02*
X16620182Y-19100650D01*
X16620182Y-19100650D02*
X16658277Y-19100650D01*
X16658277Y-19100650D02*
X16677325Y-19110174D01*
X16753515Y-19310174D02*
X16763039Y-19300650D01*
X16763039Y-19300650D02*
X16782087Y-19272079D01*
X16782087Y-19272079D02*
X16791611Y-19253031D01*
X16791611Y-19253031D02*
X16801135Y-19224460D01*
X16801135Y-19224460D02*
X16810658Y-19176841D01*
X16810658Y-19176841D02*
X16810658Y-19138746D01*
X16810658Y-19138746D02*
X16801135Y-19091127D01*
X16801135Y-19091127D02*
X16791611Y-19062555D01*
X16791611Y-19062555D02*
X16782087Y-19043508D01*
X16782087Y-19043508D02*
X16763039Y-19014936D01*
X16763039Y-19014936D02*
X16753515Y-19005412D01*
D12*
X9997500Y-19406500D02*
G75*
G02*
X9907500Y-19406500I-45000J0D01*
G01*
X9907500Y-19406500D02*
G75*
G02*
X9997500Y-19406500I45000J0D01*
G01*
D11*
X10296372Y-19297984D02*
X10315420Y-19297984D01*
X10315420Y-19297984D02*
X10334467Y-19307508D01*
X10334467Y-19307508D02*
X10343991Y-19317031D01*
X10343991Y-19317031D02*
X10353515Y-19336079D01*
X10353515Y-19336079D02*
X10363039Y-19374174D01*
X10363039Y-19374174D02*
X10363039Y-19421793D01*
X10363039Y-19421793D02*
X10353515Y-19459889D01*
X10353515Y-19459889D02*
X10343991Y-19478936D01*
X10343991Y-19478936D02*
X10334467Y-19488460D01*
X10334467Y-19488460D02*
X10315420Y-19497984D01*
X10315420Y-19497984D02*
X10296372Y-19497984D01*
X10296372Y-19497984D02*
X10277324Y-19488460D01*
X10277324Y-19488460D02*
X10267801Y-19478936D01*
X10267801Y-19478936D02*
X10258277Y-19459889D01*
X10258277Y-19459889D02*
X10248753Y-19421793D01*
X10248753Y-19421793D02*
X10248753Y-19374174D01*
X10248753Y-19374174D02*
X10258277Y-19336079D01*
X10258277Y-19336079D02*
X10267801Y-19317031D01*
X10267801Y-19317031D02*
X10277324Y-19307508D01*
X10277324Y-19307508D02*
X10296372Y-19297984D01*
X10448753Y-19478936D02*
X10458277Y-19488460D01*
X10458277Y-19488460D02*
X10448753Y-19497984D01*
X10448753Y-19497984D02*
X10439229Y-19488460D01*
X10439229Y-19488460D02*
X10448753Y-19478936D01*
X10448753Y-19478936D02*
X10448753Y-19497984D01*
X10553515Y-19497984D02*
X10591610Y-19497984D01*
X10591610Y-19497984D02*
X10610658Y-19488460D01*
X10610658Y-19488460D02*
X10620182Y-19478936D01*
X10620182Y-19478936D02*
X10639229Y-19450365D01*
X10639229Y-19450365D02*
X10648753Y-19412270D01*
X10648753Y-19412270D02*
X10648753Y-19336079D01*
X10648753Y-19336079D02*
X10639229Y-19317031D01*
X10639229Y-19317031D02*
X10629705Y-19307508D01*
X10629705Y-19307508D02*
X10610658Y-19297984D01*
X10610658Y-19297984D02*
X10572563Y-19297984D01*
X10572563Y-19297984D02*
X10553515Y-19307508D01*
X10553515Y-19307508D02*
X10543991Y-19317031D01*
X10543991Y-19317031D02*
X10534467Y-19336079D01*
X10534467Y-19336079D02*
X10534467Y-19383698D01*
X10534467Y-19383698D02*
X10543991Y-19402746D01*
X10543991Y-19402746D02*
X10553515Y-19412270D01*
X10553515Y-19412270D02*
X10572563Y-19421793D01*
X10572563Y-19421793D02*
X10610658Y-19421793D01*
X10610658Y-19421793D02*
X10629705Y-19412270D01*
X10629705Y-19412270D02*
X10639229Y-19402746D01*
X10639229Y-19402746D02*
X10648753Y-19383698D01*
X10772563Y-19297984D02*
X10791610Y-19297984D01*
X10791610Y-19297984D02*
X10810658Y-19307508D01*
X10810658Y-19307508D02*
X10820182Y-19317031D01*
X10820182Y-19317031D02*
X10829705Y-19336079D01*
X10829705Y-19336079D02*
X10839229Y-19374174D01*
X10839229Y-19374174D02*
X10839229Y-19421793D01*
X10839229Y-19421793D02*
X10829705Y-19459889D01*
X10829705Y-19459889D02*
X10820182Y-19478936D01*
X10820182Y-19478936D02*
X10810658Y-19488460D01*
X10810658Y-19488460D02*
X10791610Y-19497984D01*
X10791610Y-19497984D02*
X10772563Y-19497984D01*
X10772563Y-19497984D02*
X10753515Y-19488460D01*
X10753515Y-19488460D02*
X10743991Y-19478936D01*
X10743991Y-19478936D02*
X10734467Y-19459889D01*
X10734467Y-19459889D02*
X10724944Y-19421793D01*
X10724944Y-19421793D02*
X10724944Y-19374174D01*
X10724944Y-19374174D02*
X10734467Y-19336079D01*
X10734467Y-19336079D02*
X10743991Y-19317031D01*
X10743991Y-19317031D02*
X10753515Y-19307508D01*
X10753515Y-19307508D02*
X10772563Y-19297984D01*
X10963039Y-19297984D02*
X10982086Y-19297984D01*
X10982086Y-19297984D02*
X11001134Y-19307508D01*
X11001134Y-19307508D02*
X11010658Y-19317031D01*
X11010658Y-19317031D02*
X11020182Y-19336079D01*
X11020182Y-19336079D02*
X11029705Y-19374174D01*
X11029705Y-19374174D02*
X11029705Y-19421793D01*
X11029705Y-19421793D02*
X11020182Y-19459889D01*
X11020182Y-19459889D02*
X11010658Y-19478936D01*
X11010658Y-19478936D02*
X11001134Y-19488460D01*
X11001134Y-19488460D02*
X10982086Y-19497984D01*
X10982086Y-19497984D02*
X10963039Y-19497984D01*
X10963039Y-19497984D02*
X10943991Y-19488460D01*
X10943991Y-19488460D02*
X10934467Y-19478936D01*
X10934467Y-19478936D02*
X10924944Y-19459889D01*
X10924944Y-19459889D02*
X10915420Y-19421793D01*
X10915420Y-19421793D02*
X10915420Y-19374174D01*
X10915420Y-19374174D02*
X10924944Y-19336079D01*
X10924944Y-19336079D02*
X10934467Y-19317031D01*
X10934467Y-19317031D02*
X10943991Y-19307508D01*
X10943991Y-19307508D02*
X10963039Y-19297984D01*
X11115420Y-19497984D02*
X11115420Y-19364650D01*
X11115420Y-19383698D02*
X11124944Y-19374174D01*
X11124944Y-19374174D02*
X11143991Y-19364650D01*
X11143991Y-19364650D02*
X11172563Y-19364650D01*
X11172563Y-19364650D02*
X11191610Y-19374174D01*
X11191610Y-19374174D02*
X11201134Y-19393222D01*
X11201134Y-19393222D02*
X11201134Y-19497984D01*
X11201134Y-19393222D02*
X11210658Y-19374174D01*
X11210658Y-19374174D02*
X11229705Y-19364650D01*
X11229705Y-19364650D02*
X11258277Y-19364650D01*
X11258277Y-19364650D02*
X11277324Y-19374174D01*
X11277324Y-19374174D02*
X11286848Y-19393222D01*
X11286848Y-19393222D02*
X11286848Y-19497984D01*
X11382086Y-19497984D02*
X11382086Y-19364650D01*
X11382086Y-19383698D02*
X11391610Y-19374174D01*
X11391610Y-19374174D02*
X11410658Y-19364650D01*
X11410658Y-19364650D02*
X11439229Y-19364650D01*
X11439229Y-19364650D02*
X11458277Y-19374174D01*
X11458277Y-19374174D02*
X11467801Y-19393222D01*
X11467801Y-19393222D02*
X11467801Y-19497984D01*
X11467801Y-19393222D02*
X11477324Y-19374174D01*
X11477324Y-19374174D02*
X11496372Y-19364650D01*
X11496372Y-19364650D02*
X11524943Y-19364650D01*
X11524943Y-19364650D02*
X11543991Y-19374174D01*
X11543991Y-19374174D02*
X11553515Y-19393222D01*
X11553515Y-19393222D02*
X11553515Y-19497984D01*
X11943991Y-19288460D02*
X11772563Y-19545603D01*
X12201134Y-19297984D02*
X12220182Y-19297984D01*
X12220182Y-19297984D02*
X12239229Y-19307508D01*
X12239229Y-19307508D02*
X12248753Y-19317031D01*
X12248753Y-19317031D02*
X12258277Y-19336079D01*
X12258277Y-19336079D02*
X12267801Y-19374174D01*
X12267801Y-19374174D02*
X12267801Y-19421793D01*
X12267801Y-19421793D02*
X12258277Y-19459889D01*
X12258277Y-19459889D02*
X12248753Y-19478936D01*
X12248753Y-19478936D02*
X12239229Y-19488460D01*
X12239229Y-19488460D02*
X12220182Y-19497984D01*
X12220182Y-19497984D02*
X12201134Y-19497984D01*
X12201134Y-19497984D02*
X12182086Y-19488460D01*
X12182086Y-19488460D02*
X12172563Y-19478936D01*
X12172563Y-19478936D02*
X12163039Y-19459889D01*
X12163039Y-19459889D02*
X12153515Y-19421793D01*
X12153515Y-19421793D02*
X12153515Y-19374174D01*
X12153515Y-19374174D02*
X12163039Y-19336079D01*
X12163039Y-19336079D02*
X12172563Y-19317031D01*
X12172563Y-19317031D02*
X12182086Y-19307508D01*
X12182086Y-19307508D02*
X12201134Y-19297984D01*
X12353515Y-19478936D02*
X12363039Y-19488460D01*
X12363039Y-19488460D02*
X12353515Y-19497984D01*
X12353515Y-19497984D02*
X12343991Y-19488460D01*
X12343991Y-19488460D02*
X12353515Y-19478936D01*
X12353515Y-19478936D02*
X12353515Y-19497984D01*
X12486848Y-19297984D02*
X12505896Y-19297984D01*
X12505896Y-19297984D02*
X12524944Y-19307508D01*
X12524944Y-19307508D02*
X12534467Y-19317031D01*
X12534467Y-19317031D02*
X12543991Y-19336079D01*
X12543991Y-19336079D02*
X12553515Y-19374174D01*
X12553515Y-19374174D02*
X12553515Y-19421793D01*
X12553515Y-19421793D02*
X12543991Y-19459889D01*
X12543991Y-19459889D02*
X12534467Y-19478936D01*
X12534467Y-19478936D02*
X12524944Y-19488460D01*
X12524944Y-19488460D02*
X12505896Y-19497984D01*
X12505896Y-19497984D02*
X12486848Y-19497984D01*
X12486848Y-19497984D02*
X12467801Y-19488460D01*
X12467801Y-19488460D02*
X12458277Y-19478936D01*
X12458277Y-19478936D02*
X12448753Y-19459889D01*
X12448753Y-19459889D02*
X12439229Y-19421793D01*
X12439229Y-19421793D02*
X12439229Y-19374174D01*
X12439229Y-19374174D02*
X12448753Y-19336079D01*
X12448753Y-19336079D02*
X12458277Y-19317031D01*
X12458277Y-19317031D02*
X12467801Y-19307508D01*
X12467801Y-19307508D02*
X12486848Y-19297984D01*
X12620182Y-19297984D02*
X12743991Y-19297984D01*
X12743991Y-19297984D02*
X12677325Y-19374174D01*
X12677325Y-19374174D02*
X12705896Y-19374174D01*
X12705896Y-19374174D02*
X12724944Y-19383698D01*
X12724944Y-19383698D02*
X12734467Y-19393222D01*
X12734467Y-19393222D02*
X12743991Y-19412270D01*
X12743991Y-19412270D02*
X12743991Y-19459889D01*
X12743991Y-19459889D02*
X12734467Y-19478936D01*
X12734467Y-19478936D02*
X12724944Y-19488460D01*
X12724944Y-19488460D02*
X12705896Y-19497984D01*
X12705896Y-19497984D02*
X12648753Y-19497984D01*
X12648753Y-19497984D02*
X12629706Y-19488460D01*
X12629706Y-19488460D02*
X12620182Y-19478936D01*
X12924944Y-19297984D02*
X12829706Y-19297984D01*
X12829706Y-19297984D02*
X12820182Y-19393222D01*
X12820182Y-19393222D02*
X12829706Y-19383698D01*
X12829706Y-19383698D02*
X12848753Y-19374174D01*
X12848753Y-19374174D02*
X12896372Y-19374174D01*
X12896372Y-19374174D02*
X12915420Y-19383698D01*
X12915420Y-19383698D02*
X12924944Y-19393222D01*
X12924944Y-19393222D02*
X12934467Y-19412270D01*
X12934467Y-19412270D02*
X12934467Y-19459889D01*
X12934467Y-19459889D02*
X12924944Y-19478936D01*
X12924944Y-19478936D02*
X12915420Y-19488460D01*
X12915420Y-19488460D02*
X12896372Y-19497984D01*
X12896372Y-19497984D02*
X12848753Y-19497984D01*
X12848753Y-19497984D02*
X12829706Y-19488460D01*
X12829706Y-19488460D02*
X12820182Y-19478936D01*
X13105896Y-19364650D02*
X13105896Y-19497984D01*
X13058277Y-19288460D02*
X13010658Y-19431317D01*
X13010658Y-19431317D02*
X13134467Y-19431317D01*
X13201134Y-19297984D02*
X13201134Y-19336079D01*
X13277325Y-19297984D02*
X13277325Y-19336079D01*
X13572563Y-19574174D02*
X13563039Y-19564650D01*
X13563039Y-19564650D02*
X13543991Y-19536079D01*
X13543991Y-19536079D02*
X13534468Y-19517031D01*
X13534468Y-19517031D02*
X13524944Y-19488460D01*
X13524944Y-19488460D02*
X13515420Y-19440841D01*
X13515420Y-19440841D02*
X13515420Y-19402746D01*
X13515420Y-19402746D02*
X13524944Y-19355127D01*
X13524944Y-19355127D02*
X13534468Y-19326555D01*
X13534468Y-19326555D02*
X13543991Y-19307508D01*
X13543991Y-19307508D02*
X13563039Y-19278936D01*
X13563039Y-19278936D02*
X13572563Y-19269412D01*
X13734468Y-19364650D02*
X13734468Y-19497984D01*
X13686848Y-19288460D02*
X13639229Y-19431317D01*
X13639229Y-19431317D02*
X13763039Y-19431317D01*
X13991610Y-19497984D02*
X13991610Y-19297984D01*
X14077325Y-19497984D02*
X14077325Y-19393222D01*
X14077325Y-19393222D02*
X14067801Y-19374174D01*
X14067801Y-19374174D02*
X14048753Y-19364650D01*
X14048753Y-19364650D02*
X14020182Y-19364650D01*
X14020182Y-19364650D02*
X14001134Y-19374174D01*
X14001134Y-19374174D02*
X13991610Y-19383698D01*
X14201134Y-19497984D02*
X14182087Y-19488460D01*
X14182087Y-19488460D02*
X14172563Y-19478936D01*
X14172563Y-19478936D02*
X14163039Y-19459889D01*
X14163039Y-19459889D02*
X14163039Y-19402746D01*
X14163039Y-19402746D02*
X14172563Y-19383698D01*
X14172563Y-19383698D02*
X14182087Y-19374174D01*
X14182087Y-19374174D02*
X14201134Y-19364650D01*
X14201134Y-19364650D02*
X14229706Y-19364650D01*
X14229706Y-19364650D02*
X14248753Y-19374174D01*
X14248753Y-19374174D02*
X14258277Y-19383698D01*
X14258277Y-19383698D02*
X14267801Y-19402746D01*
X14267801Y-19402746D02*
X14267801Y-19459889D01*
X14267801Y-19459889D02*
X14258277Y-19478936D01*
X14258277Y-19478936D02*
X14248753Y-19488460D01*
X14248753Y-19488460D02*
X14229706Y-19497984D01*
X14229706Y-19497984D02*
X14201134Y-19497984D01*
X14382087Y-19497984D02*
X14363039Y-19488460D01*
X14363039Y-19488460D02*
X14353515Y-19469412D01*
X14353515Y-19469412D02*
X14353515Y-19297984D01*
X14534468Y-19488460D02*
X14515420Y-19497984D01*
X14515420Y-19497984D02*
X14477325Y-19497984D01*
X14477325Y-19497984D02*
X14458277Y-19488460D01*
X14458277Y-19488460D02*
X14448753Y-19469412D01*
X14448753Y-19469412D02*
X14448753Y-19393222D01*
X14448753Y-19393222D02*
X14458277Y-19374174D01*
X14458277Y-19374174D02*
X14477325Y-19364650D01*
X14477325Y-19364650D02*
X14515420Y-19364650D01*
X14515420Y-19364650D02*
X14534468Y-19374174D01*
X14534468Y-19374174D02*
X14543991Y-19393222D01*
X14543991Y-19393222D02*
X14543991Y-19412270D01*
X14543991Y-19412270D02*
X14448753Y-19431317D01*
X14620182Y-19488460D02*
X14639230Y-19497984D01*
X14639230Y-19497984D02*
X14677325Y-19497984D01*
X14677325Y-19497984D02*
X14696372Y-19488460D01*
X14696372Y-19488460D02*
X14705896Y-19469412D01*
X14705896Y-19469412D02*
X14705896Y-19459889D01*
X14705896Y-19459889D02*
X14696372Y-19440841D01*
X14696372Y-19440841D02*
X14677325Y-19431317D01*
X14677325Y-19431317D02*
X14648753Y-19431317D01*
X14648753Y-19431317D02*
X14629706Y-19421793D01*
X14629706Y-19421793D02*
X14620182Y-19402746D01*
X14620182Y-19402746D02*
X14620182Y-19393222D01*
X14620182Y-19393222D02*
X14629706Y-19374174D01*
X14629706Y-19374174D02*
X14648753Y-19364650D01*
X14648753Y-19364650D02*
X14677325Y-19364650D01*
X14677325Y-19364650D02*
X14696372Y-19374174D01*
X14772563Y-19574174D02*
X14782087Y-19564650D01*
X14782087Y-19564650D02*
X14801134Y-19536079D01*
X14801134Y-19536079D02*
X14810658Y-19517031D01*
X14810658Y-19517031D02*
X14820182Y-19488460D01*
X14820182Y-19488460D02*
X14829706Y-19440841D01*
X14829706Y-19440841D02*
X14829706Y-19402746D01*
X14829706Y-19402746D02*
X14820182Y-19355127D01*
X14820182Y-19355127D02*
X14810658Y-19326555D01*
X14810658Y-19326555D02*
X14801134Y-19307508D01*
X14801134Y-19307508D02*
X14782087Y-19278936D01*
X14782087Y-19278936D02*
X14772563Y-19269412D01*
X15134468Y-19574174D02*
X15124944Y-19564650D01*
X15124944Y-19564650D02*
X15105896Y-19536079D01*
X15105896Y-19536079D02*
X15096372Y-19517031D01*
X15096372Y-19517031D02*
X15086849Y-19488460D01*
X15086849Y-19488460D02*
X15077325Y-19440841D01*
X15077325Y-19440841D02*
X15077325Y-19402746D01*
X15077325Y-19402746D02*
X15086849Y-19355127D01*
X15086849Y-19355127D02*
X15096372Y-19326555D01*
X15096372Y-19326555D02*
X15105896Y-19307508D01*
X15105896Y-19307508D02*
X15124944Y-19278936D01*
X15124944Y-19278936D02*
X15134468Y-19269412D01*
X15210658Y-19364650D02*
X15210658Y-19497984D01*
X15210658Y-19383698D02*
X15220182Y-19374174D01*
X15220182Y-19374174D02*
X15239230Y-19364650D01*
X15239230Y-19364650D02*
X15267801Y-19364650D01*
X15267801Y-19364650D02*
X15286849Y-19374174D01*
X15286849Y-19374174D02*
X15296372Y-19393222D01*
X15296372Y-19393222D02*
X15296372Y-19497984D01*
X15420182Y-19497984D02*
X15401134Y-19488460D01*
X15401134Y-19488460D02*
X15391611Y-19478936D01*
X15391611Y-19478936D02*
X15382087Y-19459889D01*
X15382087Y-19459889D02*
X15382087Y-19402746D01*
X15382087Y-19402746D02*
X15391611Y-19383698D01*
X15391611Y-19383698D02*
X15401134Y-19374174D01*
X15401134Y-19374174D02*
X15420182Y-19364650D01*
X15420182Y-19364650D02*
X15448753Y-19364650D01*
X15448753Y-19364650D02*
X15467801Y-19374174D01*
X15467801Y-19374174D02*
X15477325Y-19383698D01*
X15477325Y-19383698D02*
X15486849Y-19402746D01*
X15486849Y-19402746D02*
X15486849Y-19459889D01*
X15486849Y-19459889D02*
X15477325Y-19478936D01*
X15477325Y-19478936D02*
X15467801Y-19488460D01*
X15467801Y-19488460D02*
X15448753Y-19497984D01*
X15448753Y-19497984D02*
X15420182Y-19497984D01*
X15543992Y-19364650D02*
X15620182Y-19364650D01*
X15572563Y-19297984D02*
X15572563Y-19469412D01*
X15572563Y-19469412D02*
X15582087Y-19488460D01*
X15582087Y-19488460D02*
X15601134Y-19497984D01*
X15601134Y-19497984D02*
X15620182Y-19497984D01*
X15839230Y-19364650D02*
X15839230Y-19564650D01*
X15839230Y-19374174D02*
X15858277Y-19364650D01*
X15858277Y-19364650D02*
X15896373Y-19364650D01*
X15896373Y-19364650D02*
X15915420Y-19374174D01*
X15915420Y-19374174D02*
X15924944Y-19383698D01*
X15924944Y-19383698D02*
X15934468Y-19402746D01*
X15934468Y-19402746D02*
X15934468Y-19459889D01*
X15934468Y-19459889D02*
X15924944Y-19478936D01*
X15924944Y-19478936D02*
X15915420Y-19488460D01*
X15915420Y-19488460D02*
X15896373Y-19497984D01*
X15896373Y-19497984D02*
X15858277Y-19497984D01*
X15858277Y-19497984D02*
X15839230Y-19488460D01*
X16048753Y-19497984D02*
X16029706Y-19488460D01*
X16029706Y-19488460D02*
X16020182Y-19469412D01*
X16020182Y-19469412D02*
X16020182Y-19297984D01*
X16210658Y-19497984D02*
X16210658Y-19393222D01*
X16210658Y-19393222D02*
X16201134Y-19374174D01*
X16201134Y-19374174D02*
X16182087Y-19364650D01*
X16182087Y-19364650D02*
X16143992Y-19364650D01*
X16143992Y-19364650D02*
X16124944Y-19374174D01*
X16210658Y-19488460D02*
X16191611Y-19497984D01*
X16191611Y-19497984D02*
X16143992Y-19497984D01*
X16143992Y-19497984D02*
X16124944Y-19488460D01*
X16124944Y-19488460D02*
X16115420Y-19469412D01*
X16115420Y-19469412D02*
X16115420Y-19450365D01*
X16115420Y-19450365D02*
X16124944Y-19431317D01*
X16124944Y-19431317D02*
X16143992Y-19421793D01*
X16143992Y-19421793D02*
X16191611Y-19421793D01*
X16191611Y-19421793D02*
X16210658Y-19412270D01*
X16277325Y-19364650D02*
X16353515Y-19364650D01*
X16305896Y-19297984D02*
X16305896Y-19469412D01*
X16305896Y-19469412D02*
X16315420Y-19488460D01*
X16315420Y-19488460D02*
X16334468Y-19497984D01*
X16334468Y-19497984D02*
X16353515Y-19497984D01*
X16496373Y-19488460D02*
X16477325Y-19497984D01*
X16477325Y-19497984D02*
X16439230Y-19497984D01*
X16439230Y-19497984D02*
X16420182Y-19488460D01*
X16420182Y-19488460D02*
X16410658Y-19469412D01*
X16410658Y-19469412D02*
X16410658Y-19393222D01*
X16410658Y-19393222D02*
X16420182Y-19374174D01*
X16420182Y-19374174D02*
X16439230Y-19364650D01*
X16439230Y-19364650D02*
X16477325Y-19364650D01*
X16477325Y-19364650D02*
X16496373Y-19374174D01*
X16496373Y-19374174D02*
X16505896Y-19393222D01*
X16505896Y-19393222D02*
X16505896Y-19412270D01*
X16505896Y-19412270D02*
X16410658Y-19431317D01*
X16677325Y-19497984D02*
X16677325Y-19297984D01*
X16677325Y-19488460D02*
X16658277Y-19497984D01*
X16658277Y-19497984D02*
X16620182Y-19497984D01*
X16620182Y-19497984D02*
X16601134Y-19488460D01*
X16601134Y-19488460D02*
X16591611Y-19478936D01*
X16591611Y-19478936D02*
X16582087Y-19459889D01*
X16582087Y-19459889D02*
X16582087Y-19402746D01*
X16582087Y-19402746D02*
X16591611Y-19383698D01*
X16591611Y-19383698D02*
X16601134Y-19374174D01*
X16601134Y-19374174D02*
X16620182Y-19364650D01*
X16620182Y-19364650D02*
X16658277Y-19364650D01*
X16658277Y-19364650D02*
X16677325Y-19374174D01*
X16753515Y-19574174D02*
X16763039Y-19564650D01*
X16763039Y-19564650D02*
X16782087Y-19536079D01*
X16782087Y-19536079D02*
X16791611Y-19517031D01*
X16791611Y-19517031D02*
X16801135Y-19488460D01*
X16801135Y-19488460D02*
X16810658Y-19440841D01*
X16810658Y-19440841D02*
X16810658Y-19402746D01*
X16810658Y-19402746D02*
X16801135Y-19355127D01*
X16801135Y-19355127D02*
X16791611Y-19326555D01*
X16791611Y-19326555D02*
X16782087Y-19307508D01*
X16782087Y-19307508D02*
X16763039Y-19278936D01*
X16763039Y-19278936D02*
X16753515Y-19269412D01*
D12*
X9947500Y-19620500D02*
X9947500Y-19720500D01*
X9897500Y-19670500D02*
X9997500Y-19670500D01*
D11*
X10363039Y-19761984D02*
X10248753Y-19761984D01*
X10305896Y-19761984D02*
X10305896Y-19561984D01*
X10305896Y-19561984D02*
X10286848Y-19590555D01*
X10286848Y-19590555D02*
X10267801Y-19609603D01*
X10267801Y-19609603D02*
X10248753Y-19619127D01*
X10448753Y-19742936D02*
X10458277Y-19752460D01*
X10458277Y-19752460D02*
X10448753Y-19761984D01*
X10448753Y-19761984D02*
X10439229Y-19752460D01*
X10439229Y-19752460D02*
X10448753Y-19742936D01*
X10448753Y-19742936D02*
X10448753Y-19761984D01*
X10582086Y-19561984D02*
X10601134Y-19561984D01*
X10601134Y-19561984D02*
X10620182Y-19571508D01*
X10620182Y-19571508D02*
X10629705Y-19581031D01*
X10629705Y-19581031D02*
X10639229Y-19600079D01*
X10639229Y-19600079D02*
X10648753Y-19638174D01*
X10648753Y-19638174D02*
X10648753Y-19685793D01*
X10648753Y-19685793D02*
X10639229Y-19723889D01*
X10639229Y-19723889D02*
X10629705Y-19742936D01*
X10629705Y-19742936D02*
X10620182Y-19752460D01*
X10620182Y-19752460D02*
X10601134Y-19761984D01*
X10601134Y-19761984D02*
X10582086Y-19761984D01*
X10582086Y-19761984D02*
X10563039Y-19752460D01*
X10563039Y-19752460D02*
X10553515Y-19742936D01*
X10553515Y-19742936D02*
X10543991Y-19723889D01*
X10543991Y-19723889D02*
X10534467Y-19685793D01*
X10534467Y-19685793D02*
X10534467Y-19638174D01*
X10534467Y-19638174D02*
X10543991Y-19600079D01*
X10543991Y-19600079D02*
X10553515Y-19581031D01*
X10553515Y-19581031D02*
X10563039Y-19571508D01*
X10563039Y-19571508D02*
X10582086Y-19561984D01*
X10772563Y-19561984D02*
X10791610Y-19561984D01*
X10791610Y-19561984D02*
X10810658Y-19571508D01*
X10810658Y-19571508D02*
X10820182Y-19581031D01*
X10820182Y-19581031D02*
X10829705Y-19600079D01*
X10829705Y-19600079D02*
X10839229Y-19638174D01*
X10839229Y-19638174D02*
X10839229Y-19685793D01*
X10839229Y-19685793D02*
X10829705Y-19723889D01*
X10829705Y-19723889D02*
X10820182Y-19742936D01*
X10820182Y-19742936D02*
X10810658Y-19752460D01*
X10810658Y-19752460D02*
X10791610Y-19761984D01*
X10791610Y-19761984D02*
X10772563Y-19761984D01*
X10772563Y-19761984D02*
X10753515Y-19752460D01*
X10753515Y-19752460D02*
X10743991Y-19742936D01*
X10743991Y-19742936D02*
X10734467Y-19723889D01*
X10734467Y-19723889D02*
X10724944Y-19685793D01*
X10724944Y-19685793D02*
X10724944Y-19638174D01*
X10724944Y-19638174D02*
X10734467Y-19600079D01*
X10734467Y-19600079D02*
X10743991Y-19581031D01*
X10743991Y-19581031D02*
X10753515Y-19571508D01*
X10753515Y-19571508D02*
X10772563Y-19561984D01*
X10963039Y-19561984D02*
X10982086Y-19561984D01*
X10982086Y-19561984D02*
X11001134Y-19571508D01*
X11001134Y-19571508D02*
X11010658Y-19581031D01*
X11010658Y-19581031D02*
X11020182Y-19600079D01*
X11020182Y-19600079D02*
X11029705Y-19638174D01*
X11029705Y-19638174D02*
X11029705Y-19685793D01*
X11029705Y-19685793D02*
X11020182Y-19723889D01*
X11020182Y-19723889D02*
X11010658Y-19742936D01*
X11010658Y-19742936D02*
X11001134Y-19752460D01*
X11001134Y-19752460D02*
X10982086Y-19761984D01*
X10982086Y-19761984D02*
X10963039Y-19761984D01*
X10963039Y-19761984D02*
X10943991Y-19752460D01*
X10943991Y-19752460D02*
X10934467Y-19742936D01*
X10934467Y-19742936D02*
X10924944Y-19723889D01*
X10924944Y-19723889D02*
X10915420Y-19685793D01*
X10915420Y-19685793D02*
X10915420Y-19638174D01*
X10915420Y-19638174D02*
X10924944Y-19600079D01*
X10924944Y-19600079D02*
X10934467Y-19581031D01*
X10934467Y-19581031D02*
X10943991Y-19571508D01*
X10943991Y-19571508D02*
X10963039Y-19561984D01*
X11115420Y-19761984D02*
X11115420Y-19628650D01*
X11115420Y-19647698D02*
X11124944Y-19638174D01*
X11124944Y-19638174D02*
X11143991Y-19628650D01*
X11143991Y-19628650D02*
X11172563Y-19628650D01*
X11172563Y-19628650D02*
X11191610Y-19638174D01*
X11191610Y-19638174D02*
X11201134Y-19657222D01*
X11201134Y-19657222D02*
X11201134Y-19761984D01*
X11201134Y-19657222D02*
X11210658Y-19638174D01*
X11210658Y-19638174D02*
X11229705Y-19628650D01*
X11229705Y-19628650D02*
X11258277Y-19628650D01*
X11258277Y-19628650D02*
X11277324Y-19638174D01*
X11277324Y-19638174D02*
X11286848Y-19657222D01*
X11286848Y-19657222D02*
X11286848Y-19761984D01*
X11382086Y-19761984D02*
X11382086Y-19628650D01*
X11382086Y-19647698D02*
X11391610Y-19638174D01*
X11391610Y-19638174D02*
X11410658Y-19628650D01*
X11410658Y-19628650D02*
X11439229Y-19628650D01*
X11439229Y-19628650D02*
X11458277Y-19638174D01*
X11458277Y-19638174D02*
X11467801Y-19657222D01*
X11467801Y-19657222D02*
X11467801Y-19761984D01*
X11467801Y-19657222D02*
X11477324Y-19638174D01*
X11477324Y-19638174D02*
X11496372Y-19628650D01*
X11496372Y-19628650D02*
X11524943Y-19628650D01*
X11524943Y-19628650D02*
X11543991Y-19638174D01*
X11543991Y-19638174D02*
X11553515Y-19657222D01*
X11553515Y-19657222D02*
X11553515Y-19761984D01*
X11943991Y-19552460D02*
X11772563Y-19809603D01*
X12201134Y-19561984D02*
X12220182Y-19561984D01*
X12220182Y-19561984D02*
X12239229Y-19571508D01*
X12239229Y-19571508D02*
X12248753Y-19581031D01*
X12248753Y-19581031D02*
X12258277Y-19600079D01*
X12258277Y-19600079D02*
X12267801Y-19638174D01*
X12267801Y-19638174D02*
X12267801Y-19685793D01*
X12267801Y-19685793D02*
X12258277Y-19723889D01*
X12258277Y-19723889D02*
X12248753Y-19742936D01*
X12248753Y-19742936D02*
X12239229Y-19752460D01*
X12239229Y-19752460D02*
X12220182Y-19761984D01*
X12220182Y-19761984D02*
X12201134Y-19761984D01*
X12201134Y-19761984D02*
X12182086Y-19752460D01*
X12182086Y-19752460D02*
X12172563Y-19742936D01*
X12172563Y-19742936D02*
X12163039Y-19723889D01*
X12163039Y-19723889D02*
X12153515Y-19685793D01*
X12153515Y-19685793D02*
X12153515Y-19638174D01*
X12153515Y-19638174D02*
X12163039Y-19600079D01*
X12163039Y-19600079D02*
X12172563Y-19581031D01*
X12172563Y-19581031D02*
X12182086Y-19571508D01*
X12182086Y-19571508D02*
X12201134Y-19561984D01*
X12353515Y-19742936D02*
X12363039Y-19752460D01*
X12363039Y-19752460D02*
X12353515Y-19761984D01*
X12353515Y-19761984D02*
X12343991Y-19752460D01*
X12343991Y-19752460D02*
X12353515Y-19742936D01*
X12353515Y-19742936D02*
X12353515Y-19761984D01*
X12486848Y-19561984D02*
X12505896Y-19561984D01*
X12505896Y-19561984D02*
X12524944Y-19571508D01*
X12524944Y-19571508D02*
X12534467Y-19581031D01*
X12534467Y-19581031D02*
X12543991Y-19600079D01*
X12543991Y-19600079D02*
X12553515Y-19638174D01*
X12553515Y-19638174D02*
X12553515Y-19685793D01*
X12553515Y-19685793D02*
X12543991Y-19723889D01*
X12543991Y-19723889D02*
X12534467Y-19742936D01*
X12534467Y-19742936D02*
X12524944Y-19752460D01*
X12524944Y-19752460D02*
X12505896Y-19761984D01*
X12505896Y-19761984D02*
X12486848Y-19761984D01*
X12486848Y-19761984D02*
X12467801Y-19752460D01*
X12467801Y-19752460D02*
X12458277Y-19742936D01*
X12458277Y-19742936D02*
X12448753Y-19723889D01*
X12448753Y-19723889D02*
X12439229Y-19685793D01*
X12439229Y-19685793D02*
X12439229Y-19638174D01*
X12439229Y-19638174D02*
X12448753Y-19600079D01*
X12448753Y-19600079D02*
X12458277Y-19581031D01*
X12458277Y-19581031D02*
X12467801Y-19571508D01*
X12467801Y-19571508D02*
X12486848Y-19561984D01*
X12620182Y-19561984D02*
X12743991Y-19561984D01*
X12743991Y-19561984D02*
X12677325Y-19638174D01*
X12677325Y-19638174D02*
X12705896Y-19638174D01*
X12705896Y-19638174D02*
X12724944Y-19647698D01*
X12724944Y-19647698D02*
X12734467Y-19657222D01*
X12734467Y-19657222D02*
X12743991Y-19676270D01*
X12743991Y-19676270D02*
X12743991Y-19723889D01*
X12743991Y-19723889D02*
X12734467Y-19742936D01*
X12734467Y-19742936D02*
X12724944Y-19752460D01*
X12724944Y-19752460D02*
X12705896Y-19761984D01*
X12705896Y-19761984D02*
X12648753Y-19761984D01*
X12648753Y-19761984D02*
X12629706Y-19752460D01*
X12629706Y-19752460D02*
X12620182Y-19742936D01*
X12839229Y-19761984D02*
X12877325Y-19761984D01*
X12877325Y-19761984D02*
X12896372Y-19752460D01*
X12896372Y-19752460D02*
X12905896Y-19742936D01*
X12905896Y-19742936D02*
X12924944Y-19714365D01*
X12924944Y-19714365D02*
X12934467Y-19676270D01*
X12934467Y-19676270D02*
X12934467Y-19600079D01*
X12934467Y-19600079D02*
X12924944Y-19581031D01*
X12924944Y-19581031D02*
X12915420Y-19571508D01*
X12915420Y-19571508D02*
X12896372Y-19561984D01*
X12896372Y-19561984D02*
X12858277Y-19561984D01*
X12858277Y-19561984D02*
X12839229Y-19571508D01*
X12839229Y-19571508D02*
X12829706Y-19581031D01*
X12829706Y-19581031D02*
X12820182Y-19600079D01*
X12820182Y-19600079D02*
X12820182Y-19647698D01*
X12820182Y-19647698D02*
X12829706Y-19666746D01*
X12829706Y-19666746D02*
X12839229Y-19676270D01*
X12839229Y-19676270D02*
X12858277Y-19685793D01*
X12858277Y-19685793D02*
X12896372Y-19685793D01*
X12896372Y-19685793D02*
X12915420Y-19676270D01*
X12915420Y-19676270D02*
X12924944Y-19666746D01*
X12924944Y-19666746D02*
X12934467Y-19647698D01*
X13105896Y-19628650D02*
X13105896Y-19761984D01*
X13058277Y-19552460D02*
X13010658Y-19695317D01*
X13010658Y-19695317D02*
X13134467Y-19695317D01*
X13201134Y-19561984D02*
X13201134Y-19600079D01*
X13277325Y-19561984D02*
X13277325Y-19600079D01*
X13572563Y-19838174D02*
X13563039Y-19828650D01*
X13563039Y-19828650D02*
X13543991Y-19800079D01*
X13543991Y-19800079D02*
X13534468Y-19781031D01*
X13534468Y-19781031D02*
X13524944Y-19752460D01*
X13524944Y-19752460D02*
X13515420Y-19704841D01*
X13515420Y-19704841D02*
X13515420Y-19666746D01*
X13515420Y-19666746D02*
X13524944Y-19619127D01*
X13524944Y-19619127D02*
X13534468Y-19590555D01*
X13534468Y-19590555D02*
X13543991Y-19571508D01*
X13543991Y-19571508D02*
X13563039Y-19542936D01*
X13563039Y-19542936D02*
X13572563Y-19533412D01*
X13734468Y-19628650D02*
X13734468Y-19761984D01*
X13686848Y-19552460D02*
X13639229Y-19695317D01*
X13639229Y-19695317D02*
X13763039Y-19695317D01*
X13991610Y-19761984D02*
X13991610Y-19561984D01*
X14077325Y-19761984D02*
X14077325Y-19657222D01*
X14077325Y-19657222D02*
X14067801Y-19638174D01*
X14067801Y-19638174D02*
X14048753Y-19628650D01*
X14048753Y-19628650D02*
X14020182Y-19628650D01*
X14020182Y-19628650D02*
X14001134Y-19638174D01*
X14001134Y-19638174D02*
X13991610Y-19647698D01*
X14201134Y-19761984D02*
X14182087Y-19752460D01*
X14182087Y-19752460D02*
X14172563Y-19742936D01*
X14172563Y-19742936D02*
X14163039Y-19723889D01*
X14163039Y-19723889D02*
X14163039Y-19666746D01*
X14163039Y-19666746D02*
X14172563Y-19647698D01*
X14172563Y-19647698D02*
X14182087Y-19638174D01*
X14182087Y-19638174D02*
X14201134Y-19628650D01*
X14201134Y-19628650D02*
X14229706Y-19628650D01*
X14229706Y-19628650D02*
X14248753Y-19638174D01*
X14248753Y-19638174D02*
X14258277Y-19647698D01*
X14258277Y-19647698D02*
X14267801Y-19666746D01*
X14267801Y-19666746D02*
X14267801Y-19723889D01*
X14267801Y-19723889D02*
X14258277Y-19742936D01*
X14258277Y-19742936D02*
X14248753Y-19752460D01*
X14248753Y-19752460D02*
X14229706Y-19761984D01*
X14229706Y-19761984D02*
X14201134Y-19761984D01*
X14382087Y-19761984D02*
X14363039Y-19752460D01*
X14363039Y-19752460D02*
X14353515Y-19733412D01*
X14353515Y-19733412D02*
X14353515Y-19561984D01*
X14534468Y-19752460D02*
X14515420Y-19761984D01*
X14515420Y-19761984D02*
X14477325Y-19761984D01*
X14477325Y-19761984D02*
X14458277Y-19752460D01*
X14458277Y-19752460D02*
X14448753Y-19733412D01*
X14448753Y-19733412D02*
X14448753Y-19657222D01*
X14448753Y-19657222D02*
X14458277Y-19638174D01*
X14458277Y-19638174D02*
X14477325Y-19628650D01*
X14477325Y-19628650D02*
X14515420Y-19628650D01*
X14515420Y-19628650D02*
X14534468Y-19638174D01*
X14534468Y-19638174D02*
X14543991Y-19657222D01*
X14543991Y-19657222D02*
X14543991Y-19676270D01*
X14543991Y-19676270D02*
X14448753Y-19695317D01*
X14620182Y-19752460D02*
X14639230Y-19761984D01*
X14639230Y-19761984D02*
X14677325Y-19761984D01*
X14677325Y-19761984D02*
X14696372Y-19752460D01*
X14696372Y-19752460D02*
X14705896Y-19733412D01*
X14705896Y-19733412D02*
X14705896Y-19723889D01*
X14705896Y-19723889D02*
X14696372Y-19704841D01*
X14696372Y-19704841D02*
X14677325Y-19695317D01*
X14677325Y-19695317D02*
X14648753Y-19695317D01*
X14648753Y-19695317D02*
X14629706Y-19685793D01*
X14629706Y-19685793D02*
X14620182Y-19666746D01*
X14620182Y-19666746D02*
X14620182Y-19657222D01*
X14620182Y-19657222D02*
X14629706Y-19638174D01*
X14629706Y-19638174D02*
X14648753Y-19628650D01*
X14648753Y-19628650D02*
X14677325Y-19628650D01*
X14677325Y-19628650D02*
X14696372Y-19638174D01*
X14772563Y-19838174D02*
X14782087Y-19828650D01*
X14782087Y-19828650D02*
X14801134Y-19800079D01*
X14801134Y-19800079D02*
X14810658Y-19781031D01*
X14810658Y-19781031D02*
X14820182Y-19752460D01*
X14820182Y-19752460D02*
X14829706Y-19704841D01*
X14829706Y-19704841D02*
X14829706Y-19666746D01*
X14829706Y-19666746D02*
X14820182Y-19619127D01*
X14820182Y-19619127D02*
X14810658Y-19590555D01*
X14810658Y-19590555D02*
X14801134Y-19571508D01*
X14801134Y-19571508D02*
X14782087Y-19542936D01*
X14782087Y-19542936D02*
X14772563Y-19533412D01*
X15134468Y-19838174D02*
X15124944Y-19828650D01*
X15124944Y-19828650D02*
X15105896Y-19800079D01*
X15105896Y-19800079D02*
X15096372Y-19781031D01*
X15096372Y-19781031D02*
X15086849Y-19752460D01*
X15086849Y-19752460D02*
X15077325Y-19704841D01*
X15077325Y-19704841D02*
X15077325Y-19666746D01*
X15077325Y-19666746D02*
X15086849Y-19619127D01*
X15086849Y-19619127D02*
X15096372Y-19590555D01*
X15096372Y-19590555D02*
X15105896Y-19571508D01*
X15105896Y-19571508D02*
X15124944Y-19542936D01*
X15124944Y-19542936D02*
X15134468Y-19533412D01*
X15210658Y-19628650D02*
X15210658Y-19761984D01*
X15210658Y-19647698D02*
X15220182Y-19638174D01*
X15220182Y-19638174D02*
X15239230Y-19628650D01*
X15239230Y-19628650D02*
X15267801Y-19628650D01*
X15267801Y-19628650D02*
X15286849Y-19638174D01*
X15286849Y-19638174D02*
X15296372Y-19657222D01*
X15296372Y-19657222D02*
X15296372Y-19761984D01*
X15420182Y-19761984D02*
X15401134Y-19752460D01*
X15401134Y-19752460D02*
X15391611Y-19742936D01*
X15391611Y-19742936D02*
X15382087Y-19723889D01*
X15382087Y-19723889D02*
X15382087Y-19666746D01*
X15382087Y-19666746D02*
X15391611Y-19647698D01*
X15391611Y-19647698D02*
X15401134Y-19638174D01*
X15401134Y-19638174D02*
X15420182Y-19628650D01*
X15420182Y-19628650D02*
X15448753Y-19628650D01*
X15448753Y-19628650D02*
X15467801Y-19638174D01*
X15467801Y-19638174D02*
X15477325Y-19647698D01*
X15477325Y-19647698D02*
X15486849Y-19666746D01*
X15486849Y-19666746D02*
X15486849Y-19723889D01*
X15486849Y-19723889D02*
X15477325Y-19742936D01*
X15477325Y-19742936D02*
X15467801Y-19752460D01*
X15467801Y-19752460D02*
X15448753Y-19761984D01*
X15448753Y-19761984D02*
X15420182Y-19761984D01*
X15543992Y-19628650D02*
X15620182Y-19628650D01*
X15572563Y-19561984D02*
X15572563Y-19733412D01*
X15572563Y-19733412D02*
X15582087Y-19752460D01*
X15582087Y-19752460D02*
X15601134Y-19761984D01*
X15601134Y-19761984D02*
X15620182Y-19761984D01*
X15839230Y-19628650D02*
X15839230Y-19828650D01*
X15839230Y-19638174D02*
X15858277Y-19628650D01*
X15858277Y-19628650D02*
X15896373Y-19628650D01*
X15896373Y-19628650D02*
X15915420Y-19638174D01*
X15915420Y-19638174D02*
X15924944Y-19647698D01*
X15924944Y-19647698D02*
X15934468Y-19666746D01*
X15934468Y-19666746D02*
X15934468Y-19723889D01*
X15934468Y-19723889D02*
X15924944Y-19742936D01*
X15924944Y-19742936D02*
X15915420Y-19752460D01*
X15915420Y-19752460D02*
X15896373Y-19761984D01*
X15896373Y-19761984D02*
X15858277Y-19761984D01*
X15858277Y-19761984D02*
X15839230Y-19752460D01*
X16048753Y-19761984D02*
X16029706Y-19752460D01*
X16029706Y-19752460D02*
X16020182Y-19733412D01*
X16020182Y-19733412D02*
X16020182Y-19561984D01*
X16210658Y-19761984D02*
X16210658Y-19657222D01*
X16210658Y-19657222D02*
X16201134Y-19638174D01*
X16201134Y-19638174D02*
X16182087Y-19628650D01*
X16182087Y-19628650D02*
X16143992Y-19628650D01*
X16143992Y-19628650D02*
X16124944Y-19638174D01*
X16210658Y-19752460D02*
X16191611Y-19761984D01*
X16191611Y-19761984D02*
X16143992Y-19761984D01*
X16143992Y-19761984D02*
X16124944Y-19752460D01*
X16124944Y-19752460D02*
X16115420Y-19733412D01*
X16115420Y-19733412D02*
X16115420Y-19714365D01*
X16115420Y-19714365D02*
X16124944Y-19695317D01*
X16124944Y-19695317D02*
X16143992Y-19685793D01*
X16143992Y-19685793D02*
X16191611Y-19685793D01*
X16191611Y-19685793D02*
X16210658Y-19676270D01*
X16277325Y-19628650D02*
X16353515Y-19628650D01*
X16305896Y-19561984D02*
X16305896Y-19733412D01*
X16305896Y-19733412D02*
X16315420Y-19752460D01*
X16315420Y-19752460D02*
X16334468Y-19761984D01*
X16334468Y-19761984D02*
X16353515Y-19761984D01*
X16496373Y-19752460D02*
X16477325Y-19761984D01*
X16477325Y-19761984D02*
X16439230Y-19761984D01*
X16439230Y-19761984D02*
X16420182Y-19752460D01*
X16420182Y-19752460D02*
X16410658Y-19733412D01*
X16410658Y-19733412D02*
X16410658Y-19657222D01*
X16410658Y-19657222D02*
X16420182Y-19638174D01*
X16420182Y-19638174D02*
X16439230Y-19628650D01*
X16439230Y-19628650D02*
X16477325Y-19628650D01*
X16477325Y-19628650D02*
X16496373Y-19638174D01*
X16496373Y-19638174D02*
X16505896Y-19657222D01*
X16505896Y-19657222D02*
X16505896Y-19676270D01*
X16505896Y-19676270D02*
X16410658Y-19695317D01*
X16677325Y-19761984D02*
X16677325Y-19561984D01*
X16677325Y-19752460D02*
X16658277Y-19761984D01*
X16658277Y-19761984D02*
X16620182Y-19761984D01*
X16620182Y-19761984D02*
X16601134Y-19752460D01*
X16601134Y-19752460D02*
X16591611Y-19742936D01*
X16591611Y-19742936D02*
X16582087Y-19723889D01*
X16582087Y-19723889D02*
X16582087Y-19666746D01*
X16582087Y-19666746D02*
X16591611Y-19647698D01*
X16591611Y-19647698D02*
X16601134Y-19638174D01*
X16601134Y-19638174D02*
X16620182Y-19628650D01*
X16620182Y-19628650D02*
X16658277Y-19628650D01*
X16658277Y-19628650D02*
X16677325Y-19638174D01*
X16753515Y-19838174D02*
X16763039Y-19828650D01*
X16763039Y-19828650D02*
X16782087Y-19800079D01*
X16782087Y-19800079D02*
X16791611Y-19781031D01*
X16791611Y-19781031D02*
X16801135Y-19752460D01*
X16801135Y-19752460D02*
X16810658Y-19704841D01*
X16810658Y-19704841D02*
X16810658Y-19666746D01*
X16810658Y-19666746D02*
X16801135Y-19619127D01*
X16801135Y-19619127D02*
X16791611Y-19590555D01*
X16791611Y-19590555D02*
X16782087Y-19571508D01*
X16782087Y-19571508D02*
X16763039Y-19542936D01*
X16763039Y-19542936D02*
X16753515Y-19533412D01*
M02*
