G04 #@! TF.GenerationSoftware,KiCad,Pcbnew,9.0.4*
G04 #@! TF.CreationDate,2025-09-03T15:16:13-06:00*
G04 #@! TF.ProjectId,stencil,7374656e-6369-46c2-9e6b-696361645f70,1.0*
G04 #@! TF.SameCoordinates,Original*
G04 #@! TF.FileFunction,Copper,L1,Top*
G04 #@! TF.FilePolarity,Positive*
%FSLAX46Y46*%
G04 Gerber Fmt 4.6, Leading zero omitted, Abs format (unit mm)*
G04 Created by KiCad (PCBNEW 9.0.4) date 2025-09-03 15:16:13*
%MOMM*%
%LPD*%
G01*
G04 APERTURE LIST*
G04 Aperture macros list*
%AMRoundRect*
0 Rectangle with rounded corners*
0 $1 Rounding radius*
0 $2 $3 $4 $5 $6 $7 $8 $9 X,Y pos of 4 corners*
0 Add a 4 corners polygon primitive as box body*
4,1,4,$2,$3,$4,$5,$6,$7,$8,$9,$2,$3,0*
0 Add four circle primitives for the rounded corners*
1,1,$1+$1,$2,$3*
1,1,$1+$1,$4,$5*
1,1,$1+$1,$6,$7*
1,1,$1+$1,$8,$9*
0 Add four rect primitives between the rounded corners*
20,1,$1+$1,$2,$3,$4,$5,0*
20,1,$1+$1,$4,$5,$6,$7,0*
20,1,$1+$1,$6,$7,$8,$9,0*
20,1,$1+$1,$8,$9,$2,$3,0*%
G04 Aperture macros list end*
G04 #@! TA.AperFunction,SMDPad,CuDef*
%ADD10C,2.500000*%
G04 #@! TD*
G04 #@! TA.AperFunction,SMDPad,CuDef*
%ADD11R,0.355600X0.838200*%
G04 #@! TD*
G04 #@! TA.AperFunction,SMDPad,CuDef*
%ADD12R,0.406400X0.838200*%
G04 #@! TD*
G04 #@! TA.AperFunction,SMDPad,CuDef*
%ADD13RoundRect,0.100000X0.637500X0.100000X-0.637500X0.100000X-0.637500X-0.100000X0.637500X-0.100000X0*%
G04 #@! TD*
G04 #@! TA.AperFunction,SMDPad,CuDef*
%ADD14R,1.200000X2.500000*%
G04 #@! TD*
G04 #@! TA.AperFunction,SMDPad,CuDef*
%ADD15RoundRect,0.225000X0.250000X-0.225000X0.250000X0.225000X-0.250000X0.225000X-0.250000X-0.225000X0*%
G04 #@! TD*
G04 #@! TA.AperFunction,SMDPad,CuDef*
%ADD16RoundRect,0.225000X-0.225000X-0.250000X0.225000X-0.250000X0.225000X0.250000X-0.225000X0.250000X0*%
G04 #@! TD*
G04 #@! TA.AperFunction,SMDPad,CuDef*
%ADD17C,1.650000*%
G04 #@! TD*
G04 #@! TA.AperFunction,SMDPad,CuDef*
%ADD18RoundRect,0.200000X-0.275000X0.200000X-0.275000X-0.200000X0.275000X-0.200000X0.275000X0.200000X0*%
G04 #@! TD*
G04 #@! TA.AperFunction,SMDPad,CuDef*
%ADD19R,0.600000X1.450000*%
G04 #@! TD*
G04 #@! TA.AperFunction,SMDPad,CuDef*
%ADD20R,0.300000X1.450000*%
G04 #@! TD*
G04 #@! TA.AperFunction,SMDPad,CuDef*
%ADD21O,0.600000X1.700000*%
G04 #@! TD*
G04 #@! TA.AperFunction,SMDPad,CuDef*
%ADD22O,0.600000X1.200000*%
G04 #@! TD*
G04 #@! TA.AperFunction,SMDPad,CuDef*
%ADD23RoundRect,0.200000X0.275000X-0.200000X0.275000X0.200000X-0.275000X0.200000X-0.275000X-0.200000X0*%
G04 #@! TD*
G04 #@! TA.AperFunction,SMDPad,CuDef*
%ADD24RoundRect,0.125000X-0.625000X-0.125000X0.625000X-0.125000X0.625000X0.125000X-0.625000X0.125000X0*%
G04 #@! TD*
G04 #@! TA.AperFunction,SMDPad,CuDef*
%ADD25RoundRect,0.125000X-0.125000X-0.625000X0.125000X-0.625000X0.125000X0.625000X-0.125000X0.625000X0*%
G04 #@! TD*
G04 #@! TA.AperFunction,SMDPad,CuDef*
%ADD26RoundRect,0.150000X0.150000X-0.725000X0.150000X0.725000X-0.150000X0.725000X-0.150000X-0.725000X0*%
G04 #@! TD*
G04 #@! TA.AperFunction,SMDPad,CuDef*
%ADD27RoundRect,0.100000X-0.100000X0.350000X-0.100000X-0.350000X0.100000X-0.350000X0.100000X0.350000X0*%
G04 #@! TD*
G04 #@! TA.AperFunction,SMDPad,CuDef*
%ADD28RoundRect,0.250000X0.700000X-0.275000X0.700000X0.275000X-0.700000X0.275000X-0.700000X-0.275000X0*%
G04 #@! TD*
G04 #@! TA.AperFunction,SMDPad,CuDef*
%ADD29RoundRect,0.200000X0.200000X0.275000X-0.200000X0.275000X-0.200000X-0.275000X0.200000X-0.275000X0*%
G04 #@! TD*
G04 #@! TA.AperFunction,SMDPad,CuDef*
%ADD30RoundRect,0.162500X-0.162500X0.367500X-0.162500X-0.367500X0.162500X-0.367500X0.162500X0.367500X0*%
G04 #@! TD*
G04 #@! TA.AperFunction,SMDPad,CuDef*
%ADD31R,1.000000X1.000000*%
G04 #@! TD*
G04 #@! TA.AperFunction,SMDPad,CuDef*
%ADD32RoundRect,0.187500X0.187500X0.712500X-0.187500X0.712500X-0.187500X-0.712500X0.187500X-0.712500X0*%
G04 #@! TD*
G04 #@! TA.AperFunction,SMDPad,CuDef*
%ADD33RoundRect,0.150000X0.150000X0.750000X-0.150000X0.750000X-0.150000X-0.750000X0.150000X-0.750000X0*%
G04 #@! TD*
G04 #@! TA.AperFunction,SMDPad,CuDef*
%ADD34RoundRect,0.225000X0.425000X0.225000X-0.425000X0.225000X-0.425000X-0.225000X0.425000X-0.225000X0*%
G04 #@! TD*
G04 #@! TA.AperFunction,SMDPad,CuDef*
%ADD35RoundRect,0.200000X-0.200000X-0.275000X0.200000X-0.275000X0.200000X0.275000X-0.200000X0.275000X0*%
G04 #@! TD*
G04 #@! TA.AperFunction,SMDPad,CuDef*
%ADD36RoundRect,0.225000X0.225000X0.250000X-0.225000X0.250000X-0.225000X-0.250000X0.225000X-0.250000X0*%
G04 #@! TD*
G04 #@! TA.AperFunction,SMDPad,CuDef*
%ADD37RoundRect,0.100000X0.350000X0.100000X-0.350000X0.100000X-0.350000X-0.100000X0.350000X-0.100000X0*%
G04 #@! TD*
G04 #@! TA.AperFunction,SMDPad,CuDef*
%ADD38RoundRect,0.150000X0.625000X-0.150000X0.625000X0.150000X-0.625000X0.150000X-0.625000X-0.150000X0*%
G04 #@! TD*
G04 #@! TA.AperFunction,SMDPad,CuDef*
%ADD39RoundRect,0.250000X0.650000X-0.350000X0.650000X0.350000X-0.650000X0.350000X-0.650000X-0.350000X0*%
G04 #@! TD*
G04 #@! TA.AperFunction,SMDPad,CuDef*
%ADD40RoundRect,0.150000X-0.625000X0.150000X-0.625000X-0.150000X0.625000X-0.150000X0.625000X0.150000X0*%
G04 #@! TD*
G04 #@! TA.AperFunction,SMDPad,CuDef*
%ADD41RoundRect,0.250000X-0.650000X0.350000X-0.650000X-0.350000X0.650000X-0.350000X0.650000X0.350000X0*%
G04 #@! TD*
G04 #@! TA.AperFunction,SMDPad,CuDef*
%ADD42RoundRect,0.218750X0.256250X-0.218750X0.256250X0.218750X-0.256250X0.218750X-0.256250X-0.218750X0*%
G04 #@! TD*
G04 #@! TA.AperFunction,SMDPad,CuDef*
%ADD43RoundRect,0.250000X-0.325000X-0.250000X0.325000X-0.250000X0.325000X0.250000X-0.325000X0.250000X0*%
G04 #@! TD*
G04 #@! TA.AperFunction,SMDPad,CuDef*
%ADD44RoundRect,0.225000X-0.250000X0.225000X-0.250000X-0.225000X0.250000X-0.225000X0.250000X0.225000X0*%
G04 #@! TD*
G04 #@! TA.AperFunction,SMDPad,CuDef*
%ADD45RoundRect,0.250000X0.625000X-0.375000X0.625000X0.375000X-0.625000X0.375000X-0.625000X-0.375000X0*%
G04 #@! TD*
G04 #@! TA.AperFunction,SMDPad,CuDef*
%ADD46RoundRect,0.250000X0.450000X-0.350000X0.450000X0.350000X-0.450000X0.350000X-0.450000X-0.350000X0*%
G04 #@! TD*
G04 #@! TA.AperFunction,SMDPad,CuDef*
%ADD47RoundRect,0.250000X0.450000X-0.250000X0.450000X0.250000X-0.450000X0.250000X-0.450000X-0.250000X0*%
G04 #@! TD*
G04 #@! TA.AperFunction,SMDPad,CuDef*
%ADD48RoundRect,0.218750X-0.218750X-0.256250X0.218750X-0.256250X0.218750X0.256250X-0.218750X0.256250X0*%
G04 #@! TD*
G04 #@! TA.AperFunction,SMDPad,CuDef*
%ADD49RoundRect,0.100000X-0.350000X-0.100000X0.350000X-0.100000X0.350000X0.100000X-0.350000X0.100000X0*%
G04 #@! TD*
G04 #@! TA.AperFunction,SMDPad,CuDef*
%ADD50RoundRect,0.250000X0.375000X0.625000X-0.375000X0.625000X-0.375000X-0.625000X0.375000X-0.625000X0*%
G04 #@! TD*
G04 #@! TA.AperFunction,SMDPad,CuDef*
%ADD51R,0.952500X0.508000*%
G04 #@! TD*
G04 #@! TA.AperFunction,SMDPad,CuDef*
%ADD52RoundRect,0.162500X0.367500X0.162500X-0.367500X0.162500X-0.367500X-0.162500X0.367500X-0.162500X0*%
G04 #@! TD*
G04 #@! TA.AperFunction,SMDPad,CuDef*
%ADD53RoundRect,0.250000X0.275000X0.700000X-0.275000X0.700000X-0.275000X-0.700000X0.275000X-0.700000X0*%
G04 #@! TD*
G04 #@! TA.AperFunction,SMDPad,CuDef*
%ADD54RoundRect,0.250000X-0.450000X0.350000X-0.450000X-0.350000X0.450000X-0.350000X0.450000X0.350000X0*%
G04 #@! TD*
G04 #@! TA.AperFunction,SMDPad,CuDef*
%ADD55RoundRect,0.250000X-0.450000X0.250000X-0.450000X-0.250000X0.450000X-0.250000X0.450000X0.250000X0*%
G04 #@! TD*
G04 APERTURE END LIST*
D10*
G04 #@! TO.P,H3,1*
G04 #@! TO.N,N/C*
X128333000Y-183122997D03*
G04 #@! TD*
D11*
G04 #@! TO.P,J4,1,Pin_1*
G04 #@! TO.N,GND*
X121833000Y-183000007D03*
G04 #@! TO.P,J4,2,Pin_2*
G04 #@! TO.N,ACCS_4*
X121333001Y-183000007D03*
G04 #@! TO.P,J4,3,Pin_3*
G04 #@! TO.N,unconnected-(J4-Pin_3-Pad3)*
X120833000Y-183000007D03*
G04 #@! TO.P,J4,4,Pin_4*
G04 #@! TO.N,ACCS_2*
X120333000Y-183000007D03*
G04 #@! TO.P,J4,5,Pin_5*
G04 #@! TO.N,ACCS_1*
X119832999Y-183000007D03*
G04 #@! TO.P,J4,6,Pin_6*
G04 #@! TO.N,+3.3V*
X119333000Y-183000007D03*
D12*
G04 #@! TO.P,J4,MP,MountPin*
G04 #@! TO.N,unconnected-(J4-MountPin-PadMP)*
X122833001Y-180500008D03*
G04 #@! TO.N,unconnected-(J4-MountPin-PadMP)_1*
X118332999Y-180500008D03*
G04 #@! TD*
D10*
G04 #@! TO.P,H4,1*
G04 #@! TO.N,N/C*
X112532999Y-183123000D03*
G04 #@! TD*
D13*
G04 #@! TO.P,U1,1,A4*
G04 #@! TO.N,A4*
X114716100Y-176714000D03*
G04 #@! TO.P,U1,2,A6*
G04 #@! TO.N,A6*
X114716100Y-176064000D03*
G04 #@! TO.P,U1,3,A*
G04 #@! TO.N,CHARGE_RST*
X114716100Y-175414000D03*
G04 #@! TO.P,U1,4,A7*
G04 #@! TO.N,A7*
X114716100Y-174764000D03*
G04 #@! TO.P,U1,5,A5*
G04 #@! TO.N,A5*
X114716100Y-174114000D03*
G04 #@! TO.P,U1,6,~{E}*
G04 #@! TO.N,CSEL_EN*
X114716100Y-173464000D03*
G04 #@! TO.P,U1,7,VEE*
G04 #@! TO.N,A5*
X114716100Y-172814000D03*
G04 #@! TO.P,U1,8,GND*
X114716100Y-172164000D03*
G04 #@! TO.P,U1,9,S2*
G04 #@! TO.N,CSEL2*
X108991100Y-172164000D03*
G04 #@! TO.P,U1,10,S1*
G04 #@! TO.N,CSEL1*
X108991100Y-172814000D03*
G04 #@! TO.P,U1,11,S0*
G04 #@! TO.N,CSEL0*
X108991100Y-173464000D03*
G04 #@! TO.P,U1,12,A3*
G04 #@! TO.N,A3*
X108991100Y-174114000D03*
G04 #@! TO.P,U1,13,A0*
G04 #@! TO.N,AO*
X108991100Y-174764000D03*
G04 #@! TO.P,U1,14,A1*
G04 #@! TO.N,A1*
X108991100Y-175414000D03*
G04 #@! TO.P,U1,15,A2*
G04 #@! TO.N,A2*
X108991100Y-176064000D03*
G04 #@! TO.P,U1,16,VCC*
G04 #@! TO.N,+3V3*
X108991100Y-176714000D03*
G04 #@! TD*
D14*
G04 #@! TO.P,J2,R1*
G04 #@! TO.N,USART_RX*
X114267600Y-120184000D03*
G04 #@! TO.P,J2,R2*
G04 #@! TO.N,USART_TX*
X117267600Y-120184000D03*
G04 #@! TO.P,J2,S*
G04 #@! TO.N,A5*
X109167600Y-113684000D03*
G04 #@! TO.P,J2,T*
G04 #@! TO.N,+5V*
X110267600Y-120184000D03*
G04 #@! TD*
D13*
G04 #@! TO.P,U1,1,A4*
G04 #@! TO.N,A4*
X132350100Y-176714000D03*
G04 #@! TO.P,U1,2,A6*
G04 #@! TO.N,A6*
X132350100Y-176064000D03*
G04 #@! TO.P,U1,3,A*
G04 #@! TO.N,CHARGE_RST*
X132350100Y-175414000D03*
G04 #@! TO.P,U1,4,A7*
G04 #@! TO.N,A7*
X132350100Y-174764000D03*
G04 #@! TO.P,U1,5,A5*
G04 #@! TO.N,A5*
X132350100Y-174114000D03*
G04 #@! TO.P,U1,6,~{E}*
G04 #@! TO.N,CSEL_EN*
X132350100Y-173464000D03*
G04 #@! TO.P,U1,7,VEE*
G04 #@! TO.N,GND*
X132350100Y-172814000D03*
G04 #@! TO.P,U1,8,GND*
X132350100Y-172164000D03*
G04 #@! TO.P,U1,9,S2*
G04 #@! TO.N,CSEL2*
X126625100Y-172164000D03*
G04 #@! TO.P,U1,10,S1*
G04 #@! TO.N,CSEL1*
X126625100Y-172814000D03*
G04 #@! TO.P,U1,11,S0*
G04 #@! TO.N,CSEL0*
X126625100Y-173464000D03*
G04 #@! TO.P,U1,12,A3*
G04 #@! TO.N,A3*
X126625100Y-174114000D03*
G04 #@! TO.P,U1,13,A0*
G04 #@! TO.N,AO*
X126625100Y-174764000D03*
G04 #@! TO.P,U1,14,A1*
G04 #@! TO.N,A1*
X126625100Y-175414000D03*
G04 #@! TO.P,U1,15,A2*
G04 #@! TO.N,A2*
X126625100Y-176064000D03*
G04 #@! TO.P,U1,16,VCC*
G04 #@! TO.N,+3V3*
X126625100Y-176714000D03*
G04 #@! TD*
D15*
G04 #@! TO.P,C7,1*
G04 #@! TO.N,A5*
X103158600Y-153979000D03*
G04 #@! TO.P,C7,2*
G04 #@! TO.N,Net-(U5-PF1)*
X103158600Y-152429000D03*
G04 #@! TD*
D16*
G04 #@! TO.P,C3,1*
G04 #@! TO.N,A5*
X105306600Y-177725000D03*
G04 #@! TO.P,C3,2*
G04 #@! TO.N,+3V3*
X106856600Y-177725000D03*
G04 #@! TD*
D17*
G04 #@! TO.P,H18,*
G04 #@! TO.N,*
X103772600Y-138709000D03*
G04 #@! TD*
D16*
G04 #@! TO.P,C15,1*
G04 #@! TO.N,+3V3*
X108624600Y-146999000D03*
G04 #@! TO.P,C15,2*
G04 #@! TO.N,A5*
X110174600Y-146999000D03*
G04 #@! TD*
D18*
G04 #@! TO.P,R6,1*
G04 #@! TO.N,Net-(U2--)*
X126511622Y-167068000D03*
G04 #@! TO.P,R6,2*
G04 #@! TO.N,GND*
X126511622Y-168718000D03*
G04 #@! TD*
D19*
G04 #@! TO.P,J3,A1,GND*
G04 #@! TO.N,GND*
X129518600Y-108179000D03*
G04 #@! TO.P,J3,A4,VBUS*
G04 #@! TO.N,Net-(F1-Pad2)*
X128718600Y-108179000D03*
D20*
G04 #@! TO.P,J3,A5,CC1*
G04 #@! TO.N,Net-(J3-CC1)*
X127518600Y-108179000D03*
G04 #@! TO.P,J3,A6,D+*
G04 #@! TO.N,D+*
X126518600Y-108179000D03*
G04 #@! TO.P,J3,A7,D-*
G04 #@! TO.N,D-*
X126018600Y-108179000D03*
G04 #@! TO.P,J3,A8,SBU1*
G04 #@! TO.N,unconnected-(J3-SBU1-PadA8)*
X125018600Y-108179000D03*
D19*
G04 #@! TO.P,J3,A9,VBUS*
G04 #@! TO.N,Net-(F1-Pad2)*
X123818600Y-108179000D03*
G04 #@! TO.P,J3,A12,GND*
G04 #@! TO.N,GND*
X123018600Y-108179000D03*
G04 #@! TO.P,J3,B1,GND*
X123018600Y-108179000D03*
G04 #@! TO.P,J3,B4,VBUS*
G04 #@! TO.N,Net-(F1-Pad2)*
X123818600Y-108179000D03*
D20*
G04 #@! TO.P,J3,B5,CC2*
G04 #@! TO.N,Net-(J3-CC2)*
X124518600Y-108179000D03*
G04 #@! TO.P,J3,B6,D+*
G04 #@! TO.N,D+*
X125518600Y-108179000D03*
G04 #@! TO.P,J3,B7,D-*
G04 #@! TO.N,D-*
X127018600Y-108179000D03*
G04 #@! TO.P,J3,B8,SBU2*
G04 #@! TO.N,unconnected-(J3-SBU2-PadB8)*
X128018600Y-108179000D03*
D19*
G04 #@! TO.P,J3,B9,VBUS*
G04 #@! TO.N,Net-(F1-Pad2)*
X128718600Y-108179000D03*
G04 #@! TO.P,J3,B12,GND*
G04 #@! TO.N,GND*
X129518600Y-108179000D03*
D21*
G04 #@! TO.P,J3,S1,SHIELD*
G04 #@! TO.N,GNDPWR*
X130588600Y-107264000D03*
G04 #@! TO.P,J3,S2,SHIELD*
G04 #@! TO.N,unconnected-(J3-SHIELD-PadS2)*
X121948600Y-107264000D03*
D22*
G04 #@! TO.P,J3,S3,SHIELD*
G04 #@! TO.N,unconnected-(J3-SHIELD-PadS3)*
X130588600Y-103084000D03*
G04 #@! TO.P,J3,S4,SHIELD*
G04 #@! TO.N,unconnected-(J3-SHIELD-PadS4)*
X121948600Y-103084000D03*
G04 #@! TD*
D23*
G04 #@! TO.P,R9,1*
G04 #@! TO.N,I2C1_SDA*
X124659600Y-141919000D03*
G04 #@! TO.P,R9,2*
G04 #@! TO.N,+3V3*
X124659600Y-140269000D03*
G04 #@! TD*
D17*
G04 #@! TO.P,H14,*
G04 #@! TO.N,*
X137568600Y-122709000D03*
G04 #@! TD*
D16*
G04 #@! TO.P,C8,1*
G04 #@! TO.N,+3V3*
X107933600Y-126726000D03*
G04 #@! TO.P,C8,2*
G04 #@! TO.N,A5*
X109483600Y-126726000D03*
G04 #@! TD*
D24*
G04 #@! TO.P,U5,1,VDD*
G04 #@! TO.N,+3V3*
X107304600Y-150281000D03*
G04 #@! TO.P,U5,2,PF0*
G04 #@! TO.N,Net-(U5-PF0)*
X107304600Y-151081000D03*
G04 #@! TO.P,U5,3,PF1*
G04 #@! TO.N,Net-(U5-PF1)*
X107304600Y-151881000D03*
G04 #@! TO.P,U5,4,PG10*
G04 #@! TO.N,/NRST*
X107304600Y-152681000D03*
G04 #@! TO.P,U5,5,PA0*
G04 #@! TO.N,TX0*
X107304600Y-153481000D03*
G04 #@! TO.P,U5,6,PA1*
G04 #@! TO.N,TX1*
X107304600Y-154281000D03*
G04 #@! TO.P,U5,7,PA2*
G04 #@! TO.N,TX2*
X107304600Y-155081000D03*
G04 #@! TO.P,U5,8,PA3*
G04 #@! TO.N,TX3*
X107304600Y-155881000D03*
D25*
G04 #@! TO.P,U5,9,PA4*
G04 #@! TO.N,CSEL0*
X108679600Y-157256000D03*
G04 #@! TO.P,U5,10,PA5*
G04 #@! TO.N,CSEL1*
X109479600Y-157256000D03*
G04 #@! TO.P,U5,11,PA6*
G04 #@! TO.N,CSEL2*
X110279600Y-157256000D03*
G04 #@! TO.P,U5,12,PA7*
G04 #@! TO.N,ADC*
X111079600Y-157256000D03*
G04 #@! TO.P,U5,13,PB0*
G04 #@! TO.N,CHARGE_RST*
X111879600Y-157256000D03*
G04 #@! TO.P,U5,14,VSSA*
G04 #@! TO.N,A5*
X112679600Y-157256000D03*
G04 #@! TO.P,U5,15,VDDA*
G04 #@! TO.N,VDDA*
X113479600Y-157256000D03*
G04 #@! TO.P,U5,16,VSS*
G04 #@! TO.N,A5*
X114279600Y-157256000D03*
D24*
G04 #@! TO.P,U5,17,VDD*
G04 #@! TO.N,+3V3*
X115654600Y-155881000D03*
G04 #@! TO.P,U5,18,PA8*
G04 #@! TO.N,CSEL_EN*
X115654600Y-155081000D03*
G04 #@! TO.P,U5,19,PA9*
G04 #@! TO.N,USART_TX*
X115654600Y-154281000D03*
G04 #@! TO.P,U5,20,PA10*
G04 #@! TO.N,USART_RX*
X115654600Y-153481000D03*
G04 #@! TO.P,U5,21,PA11*
G04 #@! TO.N,D-*
X115654600Y-152681000D03*
G04 #@! TO.P,U5,22,PA12*
G04 #@! TO.N,D+*
X115654600Y-151881000D03*
G04 #@! TO.P,U5,23,PA13*
G04 #@! TO.N,SWDIO*
X115654600Y-151081000D03*
G04 #@! TO.P,U5,24,PA14*
G04 #@! TO.N,SWCLK*
X115654600Y-150281000D03*
D25*
G04 #@! TO.P,U5,25,PA15*
G04 #@! TO.N,PA15*
X114279600Y-148906000D03*
G04 #@! TO.P,U5,26,PB3*
G04 #@! TO.N,PB3*
X113479600Y-148906000D03*
G04 #@! TO.P,U5,27,PB4*
G04 #@! TO.N,PB4*
X112679600Y-148906000D03*
G04 #@! TO.P,U5,28,PB5*
G04 #@! TO.N,PB5*
X111879600Y-148906000D03*
G04 #@! TO.P,U5,29,PB6*
G04 #@! TO.N,PB6*
X111079600Y-148906000D03*
G04 #@! TO.P,U5,30,PB7*
G04 #@! TO.N,I2C1_SDA*
X110279600Y-148906000D03*
G04 #@! TO.P,U5,31,PB8*
G04 #@! TO.N,I2C1_SCL*
X109479600Y-148906000D03*
G04 #@! TO.P,U5,32,VSS*
G04 #@! TO.N,A5*
X108679600Y-148906000D03*
G04 #@! TD*
D17*
G04 #@! TO.P,H18,*
G04 #@! TO.N,*
X121768600Y-138709000D03*
G04 #@! TD*
D26*
G04 #@! TO.P,U2,1,NC*
G04 #@! TO.N,unconnected-(U2-NC-Pad1)*
X110480600Y-167793000D03*
G04 #@! TO.P,U2,2,-*
G04 #@! TO.N,Net-(U2--)*
X111750600Y-167793000D03*
G04 #@! TO.P,U2,3,+*
G04 #@! TO.N,CHARGE_RST*
X113020600Y-167793000D03*
G04 #@! TO.P,U2,4,V-*
G04 #@! TO.N,A5*
X114290600Y-167793000D03*
G04 #@! TO.P,U2,5,NC*
G04 #@! TO.N,unconnected-(U2-NC-Pad5)*
X114290600Y-162643000D03*
G04 #@! TO.P,U2,6*
G04 #@! TO.N,ADC*
X113020600Y-162643000D03*
G04 #@! TO.P,U2,7,V+*
G04 #@! TO.N,+3V3*
X111750600Y-162643000D03*
G04 #@! TO.P,U2,8,NC*
G04 #@! TO.N,unconnected-(U2-NC-Pad8)*
X110480600Y-162643000D03*
G04 #@! TD*
D27*
G04 #@! TO.P,RN2,1,R1.1*
G04 #@! TO.N,AO*
X130234600Y-178327000D03*
G04 #@! TO.P,RN2,2,R2.1*
G04 #@! TO.N,A1*
X129434600Y-178327000D03*
G04 #@! TO.P,RN2,3,R3.1*
G04 #@! TO.N,A2*
X128634600Y-178327000D03*
G04 #@! TO.P,RN2,4,R4.1*
G04 #@! TO.N,RN1_4*
X127834600Y-178327000D03*
G04 #@! TO.P,RN2,5,R4.2*
G04 #@! TO.N,GND*
X127834600Y-180027000D03*
G04 #@! TO.P,RN2,6,R3.2*
X128634600Y-180027000D03*
G04 #@! TO.P,RN2,7,R2.2*
X129434600Y-180027000D03*
G04 #@! TO.P,RN2,8,R1.2*
X130234600Y-180027000D03*
G04 #@! TD*
D28*
G04 #@! TO.P,L1,1,1*
G04 #@! TO.N,A5*
X106784600Y-111134000D03*
G04 #@! TO.P,L1,2,2*
G04 #@! TO.N,GNDPWR*
X106784600Y-107984000D03*
G04 #@! TD*
D29*
G04 #@! TO.P,R3,1*
G04 #@! TO.N,Net-(J3-CC2)*
X124280600Y-111299000D03*
G04 #@! TO.P,R3,2*
G04 #@! TO.N,GND*
X122630600Y-111299000D03*
G04 #@! TD*
D18*
G04 #@! TO.P,R10,1*
G04 #@! TO.N,+3V3*
X126034600Y-143541000D03*
G04 #@! TO.P,R10,2*
G04 #@! TO.N,I2C1_SCL*
X126034600Y-145191000D03*
G04 #@! TD*
D11*
G04 #@! TO.P,J4,1,Pin_1*
G04 #@! TO.N,GND*
X128568600Y-143031993D03*
G04 #@! TO.P,J4,2,Pin_2*
G04 #@! TO.N,PB5*
X129068599Y-143031993D03*
G04 #@! TO.P,J4,3,Pin_3*
G04 #@! TO.N,PB4*
X129568600Y-143031993D03*
G04 #@! TO.P,J4,4,Pin_4*
G04 #@! TO.N,PB3*
X130068600Y-143031993D03*
G04 #@! TO.P,J4,5,Pin_5*
G04 #@! TO.N,PA4*
X130568601Y-143031993D03*
G04 #@! TO.P,J4,6,Pin_6*
G04 #@! TO.N,+3V3*
X131068600Y-143031993D03*
D12*
G04 #@! TO.P,J4,MP,MountPin*
G04 #@! TO.N,unconnected-(J4-MountPin-PadMP)*
X127568599Y-145531993D03*
G04 #@! TO.N,unconnected-(J4-MountPin-PadMP)_1*
X132068601Y-145531993D03*
G04 #@! TD*
D30*
G04 #@! TO.P,U4,1,VIN*
G04 #@! TO.N,+5V*
X132481600Y-131981000D03*
G04 #@! TO.P,U4,2,GND*
G04 #@! TO.N,GND*
X131531600Y-131981000D03*
G04 #@! TO.P,U4,3,EN*
G04 #@! TO.N,+5V*
X130581600Y-131981000D03*
G04 #@! TO.P,U4,4,NC*
G04 #@! TO.N,unconnected-(U4-NC-Pad4)*
X130581600Y-134181000D03*
G04 #@! TO.P,U4,5,VOUT*
G04 #@! TO.N,+3V3*
X132481600Y-134181000D03*
G04 #@! TD*
D31*
G04 #@! TO.P,D1,1,K*
G04 #@! TO.N,+5V*
X134571622Y-113848000D03*
G04 #@! TO.P,D1,2,A*
G04 #@! TO.N,VBUS*
X137071622Y-113848000D03*
G04 #@! TD*
D32*
G04 #@! TO.P,SW29,1,1*
G04 #@! TO.N,A5*
X106897600Y-104051000D03*
X104447600Y-104051000D03*
D33*
G04 #@! TO.P,SW29,2,2*
G04 #@! TO.N,/NRST*
X105672600Y-104051000D03*
D34*
G04 #@! TO.P,SW29,MP,MP*
G04 #@! TO.N,unconnected-(SW29-PadMP)*
X107522600Y-102101000D03*
G04 #@! TO.N,unconnected-(SW29-PadMP)_1*
X103822600Y-102101000D03*
G04 #@! TD*
D35*
G04 #@! TO.P,R2,1*
G04 #@! TO.N,Net-(J3-CC1)*
X117613600Y-111217000D03*
G04 #@! TO.P,R2,2*
G04 #@! TO.N,A5*
X119263600Y-111217000D03*
G04 #@! TD*
G04 #@! TO.P,R9,1*
G04 #@! TO.N,I2C1_SDA*
X106093600Y-141804000D03*
G04 #@! TO.P,R9,2*
G04 #@! TO.N,+3V3*
X107743600Y-141804000D03*
G04 #@! TD*
D15*
G04 #@! TO.P,C5,1*
G04 #@! TO.N,+3V3*
X106897600Y-148690000D03*
G04 #@! TO.P,C5,2*
G04 #@! TO.N,A5*
X106897600Y-147140000D03*
G04 #@! TD*
D29*
G04 #@! TO.P,R4,1*
G04 #@! TO.N,PB6*
X137895600Y-132485000D03*
G04 #@! TO.P,R4,2*
G04 #@! TO.N,VBUS*
X136245600Y-132485000D03*
G04 #@! TD*
D36*
G04 #@! TO.P,C14,1*
G04 #@! TO.N,+3V3*
X104246600Y-141804000D03*
G04 #@! TO.P,C14,2*
G04 #@! TO.N,Net-(U6-VCC)*
X102696600Y-141804000D03*
G04 #@! TD*
D18*
G04 #@! TO.P,R10,1*
G04 #@! TO.N,+3V3*
X107136600Y-143296000D03*
G04 #@! TO.P,R10,2*
G04 #@! TO.N,I2C1_SCL*
X107136600Y-144946000D03*
G04 #@! TD*
D37*
G04 #@! TO.P,RN3,1,R1.1*
G04 #@! TO.N,ROW3*
X138762622Y-155634000D03*
G04 #@! TO.P,RN3,2,R2.1*
G04 #@! TO.N,ROW2*
X138762622Y-154834000D03*
G04 #@! TO.P,RN3,3,R3.1*
G04 #@! TO.N,ROW1*
X138762622Y-154034000D03*
G04 #@! TO.P,RN3,4,R4.1*
G04 #@! TO.N,ROW0*
X138762622Y-153234000D03*
G04 #@! TO.P,RN3,5,R4.2*
G04 #@! TO.N,TX0*
X137062622Y-153234000D03*
G04 #@! TO.P,RN3,6,R3.2*
G04 #@! TO.N,TX1*
X137062622Y-154034000D03*
G04 #@! TO.P,RN3,7,R2.2*
G04 #@! TO.N,TX2*
X137062622Y-154834000D03*
G04 #@! TO.P,RN3,8,R1.2*
G04 #@! TO.N,TX3*
X137062622Y-155634000D03*
G04 #@! TD*
D15*
G04 #@! TO.P,C17,1*
G04 #@! TO.N,VDDA*
X115595600Y-159149000D03*
G04 #@! TO.P,C17,2*
G04 #@! TO.N,A5*
X115595600Y-157599000D03*
G04 #@! TD*
D26*
G04 #@! TO.P,U2,1,NC*
G04 #@! TO.N,unconnected-(U2-NC-Pad1)*
X128453622Y-166921000D03*
G04 #@! TO.P,U2,2,-*
G04 #@! TO.N,Net-(U2--)*
X129723622Y-166921000D03*
G04 #@! TO.P,U2,3,+*
G04 #@! TO.N,CHARGE_RST*
X130993622Y-166921000D03*
G04 #@! TO.P,U2,4,V-*
G04 #@! TO.N,GND*
X132263622Y-166921000D03*
G04 #@! TO.P,U2,5,NC*
G04 #@! TO.N,unconnected-(U2-NC-Pad5)*
X132263622Y-161771000D03*
G04 #@! TO.P,U2,6*
G04 #@! TO.N,ADC*
X130993622Y-161771000D03*
G04 #@! TO.P,U2,7,V+*
G04 #@! TO.N,+3V3*
X129723622Y-161771000D03*
G04 #@! TO.P,U2,8,NC*
G04 #@! TO.N,unconnected-(U2-NC-Pad8)*
X128453622Y-161771000D03*
G04 #@! TD*
D18*
G04 #@! TO.P,R8,1*
G04 #@! TO.N,/NRST*
X104845600Y-152411000D03*
G04 #@! TO.P,R8,2*
G04 #@! TO.N,+3V3*
X104845600Y-154061000D03*
G04 #@! TD*
D16*
G04 #@! TO.P,C12,1*
G04 #@! TO.N,VDDA*
X133944622Y-159123000D03*
G04 #@! TO.P,C12,2*
G04 #@! TO.N,GND*
X135494622Y-159123000D03*
G04 #@! TD*
D18*
G04 #@! TO.P,R6,1*
G04 #@! TO.N,Net-(U2--)*
X108591600Y-167547000D03*
G04 #@! TO.P,R6,2*
G04 #@! TO.N,A5*
X108591600Y-169197000D03*
G04 #@! TD*
D16*
G04 #@! TO.P,C4,1*
G04 #@! TO.N,+3V3*
X117442600Y-155641000D03*
G04 #@! TO.P,C4,2*
G04 #@! TO.N,A5*
X118992600Y-155641000D03*
G04 #@! TD*
D38*
G04 #@! TO.P,J1,1,Pin_1*
G04 #@! TO.N,SWCLK*
X116795600Y-134264000D03*
G04 #@! TO.P,J1,2,Pin_2*
G04 #@! TO.N,A5*
X116795600Y-133264000D03*
G04 #@! TO.P,J1,3,Pin_3*
G04 #@! TO.N,SWDIO*
X116795600Y-132264000D03*
D39*
G04 #@! TO.P,J1,MP,MountPin*
G04 #@! TO.N,unconnected-(J1-MountPin-PadMP)_1*
X120670600Y-135564000D03*
G04 #@! TO.N,unconnected-(J1-MountPin-PadMP)*
X120670600Y-130964000D03*
G04 #@! TD*
D17*
G04 #@! TO.P,H15,*
G04 #@! TO.N,*
X121768600Y-122709000D03*
G04 #@! TD*
G04 #@! TO.P,H16,*
G04 #@! TO.N,*
X119572600Y-170209000D03*
G04 #@! TD*
D18*
G04 #@! TO.P,R1,1*
G04 #@! TO.N,/NRST*
X123857622Y-152424000D03*
G04 #@! TO.P,R1,2*
G04 #@! TO.N,+3V3*
X123857622Y-154074000D03*
G04 #@! TD*
D40*
G04 #@! TO.P,J1,1,Pin_1*
G04 #@! TO.N,SWCLK*
X124545600Y-132264000D03*
G04 #@! TO.P,J1,2,Pin_2*
G04 #@! TO.N,GND*
X124545600Y-133264000D03*
G04 #@! TO.P,J1,3,Pin_3*
G04 #@! TO.N,SWDIO*
X124545600Y-134264000D03*
D41*
G04 #@! TO.P,J1,MP,MountPin*
G04 #@! TO.N,unconnected-(J1-MountPin-PadMP)*
X120670600Y-130964000D03*
X120670600Y-135564000D03*
G04 #@! TD*
D42*
G04 #@! TO.P,FB1,1*
G04 #@! TO.N,VDDA*
X136968622Y-160576500D03*
G04 #@! TO.P,FB1,2*
G04 #@! TO.N,+3V3*
X136968622Y-159001500D03*
G04 #@! TD*
D18*
G04 #@! TO.P,R7,1*
G04 #@! TO.N,ADC*
X126537622Y-163405000D03*
G04 #@! TO.P,R7,2*
G04 #@! TO.N,Net-(U2--)*
X126537622Y-165055000D03*
G04 #@! TD*
D43*
G04 #@! TO.P,Y1,1,1*
G04 #@! TO.N,Net-(U5-PF1)*
X103214539Y-150697000D03*
G04 #@! TO.P,Y1,2,2*
G04 #@! TO.N,A5*
X104964539Y-150697000D03*
G04 #@! TO.P,Y1,3,3*
G04 #@! TO.N,Net-(U5-PF0)*
X104964539Y-149297000D03*
G04 #@! TO.P,Y1,4,4*
G04 #@! TO.N,A5*
X103214539Y-149297000D03*
G04 #@! TD*
D17*
G04 #@! TO.P,H13,*
G04 #@! TO.N,*
X103772600Y-170209000D03*
G04 #@! TD*
D16*
G04 #@! TO.P,C6,1*
G04 #@! TO.N,A5*
X103394600Y-147521000D03*
G04 #@! TO.P,C6,2*
G04 #@! TO.N,Net-(U5-PF0)*
X104944600Y-147521000D03*
G04 #@! TD*
D44*
G04 #@! TO.P,C3,1*
G04 #@! TO.N,GND*
X124541622Y-174820000D03*
G04 #@! TO.P,C3,2*
G04 #@! TO.N,+3V3*
X124541622Y-176370000D03*
G04 #@! TD*
D18*
G04 #@! TO.P,R7,1*
G04 #@! TO.N,ADC*
X108581600Y-164409000D03*
G04 #@! TO.P,R7,2*
G04 #@! TO.N,Net-(U2--)*
X108581600Y-166059000D03*
G04 #@! TD*
D45*
G04 #@! TO.P,F1,1*
G04 #@! TO.N,VBUS*
X106784600Y-116041000D03*
G04 #@! TO.P,F1,2*
G04 #@! TO.N,Net-(F1-Pad2)*
X106784600Y-113241000D03*
G04 #@! TD*
D46*
G04 #@! TO.P,U3,1,GND*
G04 #@! TO.N,A5*
X115417600Y-124632000D03*
D47*
G04 #@! TO.P,U3,2,I/O1*
G04 #@! TO.N,D-*
X115417600Y-122912000D03*
G04 #@! TO.P,U3,3,I/O2*
G04 #@! TO.N,D+*
X113217600Y-122912000D03*
G04 #@! TO.P,U3,4,VCC*
G04 #@! TO.N,+5V*
X113217600Y-124812000D03*
G04 #@! TD*
D37*
G04 #@! TO.P,RN3,1,R1.1*
G04 #@! TO.N,TX3*
X104595600Y-158873000D03*
G04 #@! TO.P,RN3,2,R2.1*
G04 #@! TO.N,TX2*
X104595600Y-158073000D03*
G04 #@! TO.P,RN3,3,R3.1*
G04 #@! TO.N,TX1*
X104595600Y-157273000D03*
G04 #@! TO.P,RN3,4,R4.1*
G04 #@! TO.N,TX0*
X104595600Y-156473000D03*
G04 #@! TO.P,RN3,5,R4.2*
G04 #@! TO.N,ROW0*
X102895600Y-156473000D03*
G04 #@! TO.P,RN3,6,R3.2*
G04 #@! TO.N,ROW1*
X102895600Y-157273000D03*
G04 #@! TO.P,RN3,7,R2.2*
G04 #@! TO.N,ROW2*
X102895600Y-158073000D03*
G04 #@! TO.P,RN3,8,R1.2*
G04 #@! TO.N,ROW3*
X102895600Y-158873000D03*
G04 #@! TD*
D14*
G04 #@! TO.P,J2,R1*
G04 #@! TO.N,USART_TX*
X127073600Y-113684000D03*
G04 #@! TO.P,J2,R2*
G04 #@! TO.N,USART_RX*
X124073600Y-113684000D03*
G04 #@! TO.P,J2,S*
G04 #@! TO.N,GND*
X132173600Y-120184000D03*
G04 #@! TO.P,J2,T*
G04 #@! TO.N,+5V*
X131073600Y-113684000D03*
G04 #@! TD*
D35*
G04 #@! TO.P,R4,1*
G04 #@! TO.N,A5*
X106243600Y-130249000D03*
G04 #@! TO.P,R4,2*
G04 #@! TO.N,PB6*
X107893600Y-130249000D03*
G04 #@! TD*
D17*
G04 #@! TO.P,H14,*
G04 #@! TO.N,*
X103772600Y-122709000D03*
G04 #@! TD*
D16*
G04 #@! TO.P,C6,1*
G04 #@! TO.N,GND*
X122376600Y-147521000D03*
G04 #@! TO.P,C6,2*
G04 #@! TO.N,Net-(U5-PF0)*
X123926600Y-147521000D03*
G04 #@! TD*
D31*
G04 #@! TO.P,D1,1,K*
G04 #@! TO.N,+5V*
X106784600Y-120565000D03*
G04 #@! TO.P,D1,2,A*
G04 #@! TO.N,VBUS*
X106784600Y-118065000D03*
G04 #@! TD*
D48*
G04 #@! TO.P,FB1,1*
G04 #@! TO.N,VDDA*
X117187100Y-157491000D03*
G04 #@! TO.P,FB1,2*
G04 #@! TO.N,+3V3*
X118762100Y-157491000D03*
G04 #@! TD*
D29*
G04 #@! TO.P,R5,1*
G04 #@! TO.N,GND*
X137895600Y-134242000D03*
G04 #@! TO.P,R5,2*
G04 #@! TO.N,PB6*
X136245600Y-134242000D03*
G04 #@! TD*
D17*
G04 #@! TO.P,H15,*
G04 #@! TO.N,*
X119572600Y-122709000D03*
G04 #@! TD*
D19*
G04 #@! TO.P,J3,A1,GND*
G04 #@! TO.N,A5*
X118322600Y-108179000D03*
G04 #@! TO.P,J3,A4,VBUS*
G04 #@! TO.N,Net-(F1-Pad2)*
X117522600Y-108179000D03*
D20*
G04 #@! TO.P,J3,A5,CC1*
G04 #@! TO.N,Net-(J3-CC1)*
X116322600Y-108179000D03*
G04 #@! TO.P,J3,A6,D+*
G04 #@! TO.N,D+*
X115322600Y-108179000D03*
G04 #@! TO.P,J3,A7,D-*
G04 #@! TO.N,D-*
X114822600Y-108179000D03*
G04 #@! TO.P,J3,A8,SBU1*
G04 #@! TO.N,unconnected-(J3-SBU1-PadA8)*
X113822600Y-108179000D03*
D19*
G04 #@! TO.P,J3,A9,VBUS*
G04 #@! TO.N,Net-(F1-Pad2)*
X112622600Y-108179000D03*
G04 #@! TO.P,J3,A12,GND*
G04 #@! TO.N,A5*
X111822600Y-108179000D03*
G04 #@! TO.P,J3,B1,GND*
X111822600Y-108179000D03*
G04 #@! TO.P,J3,B4,VBUS*
G04 #@! TO.N,Net-(F1-Pad2)*
X112622600Y-108179000D03*
D20*
G04 #@! TO.P,J3,B5,CC2*
G04 #@! TO.N,Net-(J3-CC2)*
X113322600Y-108179000D03*
G04 #@! TO.P,J3,B6,D+*
G04 #@! TO.N,D+*
X114322600Y-108179000D03*
G04 #@! TO.P,J3,B7,D-*
G04 #@! TO.N,D-*
X115822600Y-108179000D03*
G04 #@! TO.P,J3,B8,SBU2*
G04 #@! TO.N,unconnected-(J3-SBU2-PadB8)*
X116822600Y-108179000D03*
D19*
G04 #@! TO.P,J3,B9,VBUS*
G04 #@! TO.N,Net-(F1-Pad2)*
X117522600Y-108179000D03*
G04 #@! TO.P,J3,B12,GND*
G04 #@! TO.N,A5*
X118322600Y-108179000D03*
D21*
G04 #@! TO.P,J3,S1,SHIELD*
G04 #@! TO.N,unconnected-(J3-SHIELD-PadS1)*
X119392600Y-107264000D03*
G04 #@! TO.P,J3,S2,SHIELD*
G04 #@! TO.N,GNDPWR*
X110752600Y-107264000D03*
D22*
G04 #@! TO.P,J3,S3,SHIELD*
G04 #@! TO.N,unconnected-(J3-SHIELD-PadS3)*
X119392600Y-103084000D03*
G04 #@! TO.P,J3,S4,SHIELD*
G04 #@! TO.N,unconnected-(J3-SHIELD-PadS4)*
X110752600Y-103084000D03*
G04 #@! TD*
D29*
G04 #@! TO.P,R1,1*
G04 #@! TO.N,PB6*
X107893600Y-128458000D03*
G04 #@! TO.P,R1,2*
G04 #@! TO.N,VBUS*
X106243600Y-128458000D03*
G04 #@! TD*
D11*
G04 #@! TO.P,J4,1,Pin_1*
G04 #@! TO.N,A5*
X110272600Y-142831993D03*
G04 #@! TO.P,J4,2,Pin_2*
G04 #@! TO.N,PB5*
X110772599Y-142831993D03*
G04 #@! TO.P,J4,3,Pin_3*
G04 #@! TO.N,PB4*
X111272600Y-142831993D03*
G04 #@! TO.P,J4,4,Pin_4*
G04 #@! TO.N,PB3*
X111772600Y-142831993D03*
G04 #@! TO.P,J4,5,Pin_5*
G04 #@! TO.N,PA15*
X112272601Y-142831993D03*
G04 #@! TO.P,J4,6,Pin_6*
G04 #@! TO.N,+3V3*
X112772600Y-142831993D03*
D12*
G04 #@! TO.P,J4,MP,MountPin*
G04 #@! TO.N,unconnected-(J4-MountPin-PadMP)*
X109272599Y-145331993D03*
G04 #@! TO.N,unconnected-(J4-MountPin-PadMP)_1*
X113772601Y-145331993D03*
G04 #@! TD*
D17*
G04 #@! TO.P,H13,*
G04 #@! TO.N,*
X137568600Y-170209000D03*
G04 #@! TD*
D49*
G04 #@! TO.P,RN1,1,R1.1*
G04 #@! TO.N,A5*
X135302600Y-174099000D03*
G04 #@! TO.P,RN1,2,R2.1*
G04 #@! TO.N,A7*
X135302600Y-174899000D03*
G04 #@! TO.P,RN1,3,R3.1*
G04 #@! TO.N,A6*
X135302600Y-175699000D03*
G04 #@! TO.P,RN1,4,R4.1*
G04 #@! TO.N,A4*
X135302600Y-176499000D03*
G04 #@! TO.P,RN1,5,R4.2*
G04 #@! TO.N,GND*
X137002600Y-176499000D03*
G04 #@! TO.P,RN1,6,R3.2*
X137002600Y-175699000D03*
G04 #@! TO.P,RN1,7,R2.2*
X137002600Y-174899000D03*
G04 #@! TO.P,RN1,8,R1.2*
X137002600Y-174099000D03*
G04 #@! TD*
D44*
G04 #@! TO.P,C9,1*
G04 #@! TO.N,+5V*
X111302600Y-125313000D03*
G04 #@! TO.P,C9,2*
G04 #@! TO.N,A5*
X111302600Y-126863000D03*
G04 #@! TD*
D50*
G04 #@! TO.P,F1,1*
G04 #@! TO.N,VBUS*
X136893600Y-111073000D03*
G04 #@! TO.P,F1,2*
G04 #@! TO.N,Net-(F1-Pad2)*
X134093600Y-111073000D03*
G04 #@! TD*
D17*
G04 #@! TO.P,H19,*
G04 #@! TO.N,*
X119572600Y-138709000D03*
G04 #@! TD*
D35*
G04 #@! TO.P,R2,1*
G04 #@! TO.N,Net-(J3-CC1)*
X127622600Y-111299000D03*
G04 #@! TO.P,R2,2*
G04 #@! TO.N,GND*
X129272600Y-111299000D03*
G04 #@! TD*
D36*
G04 #@! TO.P,C14,1*
G04 #@! TO.N,+3V3*
X123028600Y-141804000D03*
G04 #@! TO.P,C14,2*
G04 #@! TO.N,Net-(U6-VCC)*
X121478600Y-141804000D03*
G04 #@! TD*
D17*
G04 #@! TO.P,H16,*
G04 #@! TO.N,*
X121768600Y-170209000D03*
G04 #@! TD*
D51*
G04 #@! TO.P,U6,1,SCL*
G04 #@! TO.N,I2C1_SCL*
X105445950Y-145398001D03*
G04 #@! TO.P,U6,2,VSS*
G04 #@! TO.N,A5*
X105445950Y-144448000D03*
G04 #@! TO.P,U6,3,SDA*
G04 #@! TO.N,I2C1_SDA*
X105445950Y-143497999D03*
G04 #@! TO.P,U6,4,VCC*
G04 #@! TO.N,Net-(U6-VCC)*
X102893250Y-143497999D03*
G04 #@! TO.P,U6,5,WP*
G04 #@! TO.N,A5*
X102893250Y-145398001D03*
G04 #@! TD*
D32*
G04 #@! TO.P,SW29,1,1*
G04 #@! TO.N,GND*
X136893600Y-104051000D03*
X134443600Y-104051000D03*
D33*
G04 #@! TO.P,SW29,2,2*
G04 #@! TO.N,/NRST*
X135668600Y-104051000D03*
D34*
G04 #@! TO.P,SW29,MP,MP*
G04 #@! TO.N,unconnected-(SW29-PadMP)*
X137518600Y-102101000D03*
G04 #@! TO.N,unconnected-(SW29-PadMP)_1*
X133818600Y-102101000D03*
G04 #@! TD*
D16*
G04 #@! TO.P,C11,1*
G04 #@! TO.N,+3V3*
X135057622Y-157273000D03*
G04 #@! TO.P,C11,2*
G04 #@! TO.N,GND*
X136607622Y-157273000D03*
G04 #@! TD*
D36*
G04 #@! TO.P,C8,1*
G04 #@! TO.N,+5V*
X132486661Y-130072000D03*
G04 #@! TO.P,C8,2*
G04 #@! TO.N,GND*
X130936661Y-130072000D03*
G04 #@! TD*
D16*
G04 #@! TO.P,C10,1*
G04 #@! TO.N,CHARGE_RST*
X130769622Y-169195000D03*
G04 #@! TO.P,C10,2*
G04 #@! TO.N,GND*
X132319622Y-169195000D03*
G04 #@! TD*
D51*
G04 #@! TO.P,U6,1,SCL*
G04 #@! TO.N,I2C1_SCL*
X124427950Y-145398001D03*
G04 #@! TO.P,U6,2,VSS*
G04 #@! TO.N,GND*
X124427950Y-144448000D03*
G04 #@! TO.P,U6,3,SDA*
G04 #@! TO.N,I2C1_SDA*
X124427950Y-143497999D03*
G04 #@! TO.P,U6,4,VCC*
G04 #@! TO.N,Net-(U6-VCC)*
X121875250Y-143497999D03*
G04 #@! TO.P,U6,5,WP*
G04 #@! TO.N,GND*
X121875250Y-145398001D03*
G04 #@! TD*
D52*
G04 #@! TO.P,U4,1,VIN*
G04 #@! TO.N,+5V*
X109464600Y-124851000D03*
G04 #@! TO.P,U4,2,GND*
G04 #@! TO.N,A5*
X109464600Y-123901000D03*
G04 #@! TO.P,U4,3,EN*
G04 #@! TO.N,+5V*
X109464600Y-122951000D03*
G04 #@! TO.P,U4,4,NC*
G04 #@! TO.N,unconnected-(U4-NC-Pad4)*
X107264600Y-122951000D03*
G04 #@! TO.P,U4,5,VOUT*
G04 #@! TO.N,+3V3*
X107264600Y-124851000D03*
G04 #@! TD*
D16*
G04 #@! TO.P,C16,1*
G04 #@! TO.N,VDDA*
X117199600Y-159076000D03*
G04 #@! TO.P,C16,2*
G04 #@! TO.N,A5*
X118749600Y-159076000D03*
G04 #@! TD*
D15*
G04 #@! TO.P,C7,1*
G04 #@! TO.N,GND*
X122118622Y-154035000D03*
G04 #@! TO.P,C7,2*
G04 #@! TO.N,Net-(U5-PF1)*
X122118622Y-152485000D03*
G04 #@! TD*
D43*
G04 #@! TO.P,Y1,1,1*
G04 #@! TO.N,Net-(U5-PF1)*
X122196539Y-150697000D03*
G04 #@! TO.P,Y1,2,2*
G04 #@! TO.N,GND*
X123946539Y-150697000D03*
G04 #@! TO.P,Y1,3,3*
G04 #@! TO.N,Net-(U5-PF0)*
X123946539Y-149297000D03*
G04 #@! TO.P,Y1,4,4*
G04 #@! TO.N,GND*
X122196539Y-149297000D03*
G04 #@! TD*
D23*
G04 #@! TO.P,R8,1*
G04 #@! TO.N,PB5*
X126284600Y-141109000D03*
G04 #@! TO.P,R8,2*
G04 #@! TO.N,PA4*
X126284600Y-139459000D03*
G04 #@! TD*
D44*
G04 #@! TO.P,C13,1*
G04 #@! TO.N,unconnected-(C13-Pad1)*
X134743622Y-160734000D03*
G04 #@! TO.P,C13,2*
G04 #@! TO.N,unconnected-(C13-Pad2)*
X134743622Y-162284000D03*
G04 #@! TD*
D17*
G04 #@! TO.P,H19,*
G04 #@! TO.N,*
X137568600Y-138709000D03*
G04 #@! TD*
D29*
G04 #@! TO.P,R3,1*
G04 #@! TO.N,Net-(J3-CC2)*
X112773600Y-111240000D03*
G04 #@! TO.P,R3,2*
G04 #@! TO.N,A5*
X111123600Y-111240000D03*
G04 #@! TD*
D15*
G04 #@! TO.P,C5,1*
G04 #@! TO.N,+3V3*
X125879600Y-148690000D03*
G04 #@! TO.P,C5,2*
G04 #@! TO.N,GND*
X125879600Y-147140000D03*
G04 #@! TD*
D36*
G04 #@! TO.P,C10,1*
G04 #@! TO.N,CHARGE_RST*
X114084600Y-170134000D03*
G04 #@! TO.P,C10,2*
G04 #@! TO.N,A5*
X112534600Y-170134000D03*
G04 #@! TD*
D53*
G04 #@! TO.P,L1,1,1*
G04 #@! TO.N,GND*
X137268600Y-108286000D03*
G04 #@! TO.P,L1,2,2*
G04 #@! TO.N,GNDPWR*
X134118600Y-108286000D03*
G04 #@! TD*
D16*
G04 #@! TO.P,C4,1*
G04 #@! TO.N,+3V3*
X127606600Y-146999000D03*
G04 #@! TO.P,C4,2*
G04 #@! TO.N,GND*
X129156600Y-146999000D03*
G04 #@! TD*
D24*
G04 #@! TO.P,U5,1,VDD*
G04 #@! TO.N,+3V3*
X126286600Y-150281000D03*
G04 #@! TO.P,U5,2,PF0*
G04 #@! TO.N,Net-(U5-PF0)*
X126286600Y-151081000D03*
G04 #@! TO.P,U5,3,PF1*
G04 #@! TO.N,Net-(U5-PF1)*
X126286600Y-151881000D03*
G04 #@! TO.P,U5,4,PG10*
G04 #@! TO.N,/NRST*
X126286600Y-152681000D03*
G04 #@! TO.P,U5,5,PA0*
G04 #@! TO.N,CSEL0*
X126286600Y-153481000D03*
G04 #@! TO.P,U5,6,PA1*
G04 #@! TO.N,CSEL_EN*
X126286600Y-154281000D03*
G04 #@! TO.P,U5,7,PA2*
G04 #@! TO.N,USART_TX*
X126286600Y-155081000D03*
G04 #@! TO.P,U5,8,PA3*
G04 #@! TO.N,USART_RX*
X126286600Y-155881000D03*
D25*
G04 #@! TO.P,U5,9,PA4*
G04 #@! TO.N,PA4*
X127661600Y-157256000D03*
G04 #@! TO.P,U5,10,PA5*
G04 #@! TO.N,CSEL1*
X128461600Y-157256000D03*
G04 #@! TO.P,U5,11,PA6*
G04 #@! TO.N,CSEL2*
X129261600Y-157256000D03*
G04 #@! TO.P,U5,12,PA7*
G04 #@! TO.N,ADC*
X130061600Y-157256000D03*
G04 #@! TO.P,U5,13,PB0*
G04 #@! TO.N,CHARGE_RST*
X130861600Y-157256000D03*
G04 #@! TO.P,U5,14,VSSA*
G04 #@! TO.N,GND*
X131661600Y-157256000D03*
G04 #@! TO.P,U5,15,VDDA*
G04 #@! TO.N,VDDA*
X132461600Y-157256000D03*
G04 #@! TO.P,U5,16,VSS*
G04 #@! TO.N,GND*
X133261600Y-157256000D03*
D24*
G04 #@! TO.P,U5,17,VDD*
G04 #@! TO.N,+3V3*
X134636600Y-155881000D03*
G04 #@! TO.P,U5,18,PA8*
G04 #@! TO.N,TX3*
X134636600Y-155081000D03*
G04 #@! TO.P,U5,19,PA9*
G04 #@! TO.N,TX2*
X134636600Y-154281000D03*
G04 #@! TO.P,U5,20,PA10*
G04 #@! TO.N,TX1*
X134636600Y-153481000D03*
G04 #@! TO.P,U5,21,PA11*
G04 #@! TO.N,D-*
X134636600Y-152681000D03*
G04 #@! TO.P,U5,22,PA12*
G04 #@! TO.N,D+*
X134636600Y-151881000D03*
G04 #@! TO.P,U5,23,PA13*
G04 #@! TO.N,SWDIO*
X134636600Y-151081000D03*
G04 #@! TO.P,U5,24,PA14*
G04 #@! TO.N,SWCLK*
X134636600Y-150281000D03*
D25*
G04 #@! TO.P,U5,25,PA15*
G04 #@! TO.N,TX0*
X133261600Y-148906000D03*
G04 #@! TO.P,U5,26,PB3*
G04 #@! TO.N,PB3*
X132461600Y-148906000D03*
G04 #@! TO.P,U5,27,PB4*
G04 #@! TO.N,PB4*
X131661600Y-148906000D03*
G04 #@! TO.P,U5,28,PB5*
G04 #@! TO.N,PB5*
X130861600Y-148906000D03*
G04 #@! TO.P,U5,29,PB6*
G04 #@! TO.N,PB6*
X130061600Y-148906000D03*
G04 #@! TO.P,U5,30,PB7*
G04 #@! TO.N,I2C1_SDA*
X129261600Y-148906000D03*
G04 #@! TO.P,U5,31,PB8*
G04 #@! TO.N,I2C1_SCL*
X128461600Y-148906000D03*
G04 #@! TO.P,U5,32,VSS*
G04 #@! TO.N,GND*
X127661600Y-148906000D03*
G04 #@! TD*
D27*
G04 #@! TO.P,RN2,1,R1.1*
G04 #@! TO.N,A4*
X113506600Y-178327000D03*
G04 #@! TO.P,RN2,2,R2.1*
G04 #@! TO.N,A6*
X112706600Y-178327000D03*
G04 #@! TO.P,RN2,3,R3.1*
G04 #@! TO.N,A7*
X111906600Y-178327000D03*
G04 #@! TO.P,RN2,4,R4.1*
G04 #@! TO.N,RN1_4*
X111106600Y-178327000D03*
G04 #@! TO.P,RN2,5,R4.2*
G04 #@! TO.N,A5*
X111106600Y-180027000D03*
G04 #@! TO.P,RN2,6,R3.2*
X111906600Y-180027000D03*
G04 #@! TO.P,RN2,7,R2.2*
X112706600Y-180027000D03*
G04 #@! TO.P,RN2,8,R1.2*
X113506600Y-180027000D03*
G04 #@! TD*
D36*
G04 #@! TO.P,C9,1*
G04 #@! TO.N,+3V3*
X132486661Y-136012000D03*
G04 #@! TO.P,C9,2*
G04 #@! TO.N,GND*
X130936661Y-136012000D03*
G04 #@! TD*
D16*
G04 #@! TO.P,C2,1*
G04 #@! TO.N,A5*
X109318600Y-160686000D03*
G04 #@! TO.P,C2,2*
G04 #@! TO.N,+3V3*
X110868600Y-160686000D03*
G04 #@! TD*
D37*
G04 #@! TO.P,RN1,1,R1.1*
G04 #@! TO.N,A2*
X106038600Y-175999000D03*
G04 #@! TO.P,RN1,2,R2.1*
G04 #@! TO.N,A1*
X106038600Y-175199000D03*
G04 #@! TO.P,RN1,3,R3.1*
G04 #@! TO.N,AO*
X106038600Y-174399000D03*
G04 #@! TO.P,RN1,4,R4.1*
G04 #@! TO.N,A3*
X106038600Y-173599000D03*
G04 #@! TO.P,RN1,5,R4.2*
G04 #@! TO.N,A5*
X104338600Y-173599000D03*
G04 #@! TO.P,RN1,6,R3.2*
X104338600Y-174399000D03*
G04 #@! TO.P,RN1,7,R2.2*
X104338600Y-175199000D03*
G04 #@! TO.P,RN1,8,R1.2*
X104338600Y-175999000D03*
G04 #@! TD*
D15*
G04 #@! TO.P,C2,1*
G04 #@! TO.N,GND*
X126568622Y-161426000D03*
G04 #@! TO.P,C2,2*
G04 #@! TO.N,+3V3*
X126568622Y-159876000D03*
G04 #@! TD*
D54*
G04 #@! TO.P,U3,1,GND*
G04 #@! TO.N,GND*
X126970600Y-124482000D03*
D55*
G04 #@! TO.P,U3,2,I/O1*
G04 #@! TO.N,D+*
X126970600Y-126202000D03*
G04 #@! TO.P,U3,3,I/O2*
G04 #@! TO.N,D-*
X129170600Y-126202000D03*
G04 #@! TO.P,U3,4,VCC*
G04 #@! TO.N,+5V*
X129170600Y-124302000D03*
G04 #@! TD*
M02*
