  0
SECTION
  2
HEADER
  9
$ANGBASE
  50
0.0
  9
$ANGDIR
  70
1
  9
$MEASUREMENT
  70
1
  0
ENDSEC
  0
SECTION
  2
TABLES
  0
TABLE
  2
LTYPE
  70
4
  0
LTYPE
  5
40F
  2
CONTINUOUS
  70
0
  3
Solid line
  72
65
  73
0
  40
0.0
  0
LTYPE
  5
410
  2
DASHDOT
 70
0
  3
Dash Dot ____ _ ____ _
 72
65
 73
4
 40
2.0
 49
1.25
 49
-0.25
 49
0.25
 49
-0.25
  0
LTYPE
  5
411
  2
DASHED
 70
0
  3
Dashed __ __ __ __ __
 72
65
 73
2
 40
0.75
 49
0.5
 49
-0.25
  0
LTYPE
  5
43B
  2
DOTTED
 70
0
  3
Dotted .  .  .  .
 72
65
 73
2
 40
0.2
 49
0.0
 49
-0.2
  0
ENDTAB
  0
TABLE
  2
STYLE
  70
4
  0
STYLE
  2
KICAD
  70
0
  40
0
  41
1
  42
1
  50
0
  71
0
  3
isocp.shx
  0
STYLE
  2
KICADB
  70
0
  40
0
  41
1
  42
1
  50
0
  71
0
  3
isocp.shx
  0
STYLE
  2
KICADI
  70
0
  40
0
  41
1
  42
1
  50
15
  71
0
  3
isocp.shx
  0
STYLE
  2
KICADBI
  70
0
  40
0
  41
1
  42
1
  50
15
  71
0
  3
isocp.shx
  0
ENDTAB
  0
TABLE
  2
LAYER
  70
1
  0
LAYER
  2
BLACK
  70
0
  62
7
  6
CONTINUOUS
  0
ENDTAB
  0
ENDSEC
  0
SECTION
  2
ENTITIES
0
LINE
8
BLACK
6
CONTINUOUS
10
60.7425
20
-138.885
11
61.2322
21
-138.964
0
LINE
8
BLACK
6
CONTINUOUS
10
61.2322
20
-138.964
11
61.7138
21
-139.083
0
LINE
8
BLACK
6
CONTINUOUS
10
61.7138
20
-139.083
11
62.1844
21
-139.24
0
LINE
8
BLACK
6
CONTINUOUS
10
62.1844
20
-139.24
11
62.6407
21
-139.435
0
LINE
8
BLACK
6
CONTINUOUS
10
62.6407
20
-139.435
11
63.08
21
-139.665
0
LINE
8
BLACK
6
CONTINUOUS
10
63.08
20
-139.665
11
63.4993
21
-139.93
0
LINE
8
BLACK
6
CONTINUOUS
10
63.4993
20
-139.93
11
63.8959
21
-140.228
0
LINE
8
BLACK
6
CONTINUOUS
10
63.8959
20
-140.228
11
64.2672
21
-140.557
0
LINE
8
BLACK
6
CONTINUOUS
10
64.2672
20
-140.557
11
64.6108
21
-140.915
0
LINE
8
BLACK
6
CONTINUOUS
10
64.6108
20
-140.915
11
64.9246
21
-141.299
0
LINE
8
BLACK
6
CONTINUOUS
10
64.9246
20
-141.299
11
65.2064
21
-141.708
0
LINE
8
BLACK
6
CONTINUOUS
10
65.2064
20
-141.708
11
65.4544
21
-142.137
0
LINE
8
BLACK
6
CONTINUOUS
10
65.4544
20
-142.137
11
65.6671
21
-142.585
0
LINE
8
BLACK
6
CONTINUOUS
10
65.6671
20
-142.585
11
65.843
21
-143.049
0
LINE
8
BLACK
6
CONTINUOUS
10
65.843
20
-143.049
11
65.981
21
-143.526
0
LINE
8
BLACK
6
CONTINUOUS
10
65.981
20
-143.526
11
66.0802
21
-144.012
0
LINE
8
BLACK
6
CONTINUOUS
10
66.0802
20
-144.012
11
66.14
21
-144.504
0
LINE
8
BLACK
6
CONTINUOUS
10
66.14
20
-144.504
11
66.16
21
-145
0
LINE
8
BLACK
6
CONTINUOUS
10
66.16
20
-145
11
66.14
21
-145.496
0
LINE
8
BLACK
6
CONTINUOUS
10
66.14
20
-145.496
11
66.0802
21
-145.988
0
LINE
8
BLACK
6
CONTINUOUS
10
66.0802
20
-145.988
11
65.981
21
-146.474
0
LINE
8
BLACK
6
CONTINUOUS
10
65.981
20
-146.474
11
65.843
21
-146.951
0
LINE
8
BLACK
6
CONTINUOUS
10
65.843
20
-146.951
11
65.6671
21
-147.415
0
LINE
8
BLACK
6
CONTINUOUS
10
65.6671
20
-147.415
11
65.4544
21
-147.863
0
LINE
8
BLACK
6
CONTINUOUS
10
65.4544
20
-147.863
11
65.2064
21
-148.292
0
LINE
8
BLACK
6
CONTINUOUS
10
65.2064
20
-148.292
11
64.9246
21
-148.701
0
LINE
8
BLACK
6
CONTINUOUS
10
64.9246
20
-148.701
11
64.6108
21
-149.085
0
LINE
8
BLACK
6
CONTINUOUS
10
64.6108
20
-149.085
11
64.2672
21
-149.443
0
LINE
8
BLACK
6
CONTINUOUS
10
64.2672
20
-149.443
11
63.8959
21
-149.772
0
LINE
8
BLACK
6
CONTINUOUS
10
63.8959
20
-149.772
11
63.4993
21
-150.07
0
LINE
8
BLACK
6
CONTINUOUS
10
63.4993
20
-150.07
11
63.08
21
-150.335
0
LINE
8
BLACK
6
CONTINUOUS
10
63.08
20
-150.335
11
62.6407
21
-150.565
0
LINE
8
BLACK
6
CONTINUOUS
10
62.6407
20
-150.565
11
62.1844
21
-150.76
0
LINE
8
BLACK
6
CONTINUOUS
10
62.1844
20
-150.76
11
61.7138
21
-150.917
0
LINE
8
BLACK
6
CONTINUOUS
10
61.7138
20
-150.917
11
61.2322
21
-151.036
0
LINE
8
BLACK
6
CONTINUOUS
10
61.2322
20
-151.036
11
60.7425
21
-151.115
0
LINE
8
BLACK
6
CONTINUOUS
10
60.7425
20
-151.115
11
60.248
21
-151.155
0
LINE
8
BLACK
6
CONTINUOUS
10
60.248
20
-151.155
11
59.752
21
-151.155
0
LINE
8
BLACK
6
CONTINUOUS
10
59.752
20
-151.155
11
59.2575
21
-151.115
0
LINE
8
BLACK
6
CONTINUOUS
10
59.2575
20
-151.115
11
58.7678
21
-151.036
0
LINE
8
BLACK
6
CONTINUOUS
10
58.7678
20
-151.036
11
58.2862
21
-150.917
0
LINE
8
BLACK
6
CONTINUOUS
10
58.2862
20
-150.917
11
57.8156
21
-150.76
0
LINE
8
BLACK
6
CONTINUOUS
10
57.8156
20
-150.76
11
57.3593
21
-150.565
0
LINE
8
BLACK
6
CONTINUOUS
10
57.3593
20
-150.565
11
56.92
21
-150.335
0
LINE
8
BLACK
6
CONTINUOUS
10
56.92
20
-150.335
11
56.5007
21
-150.07
0
LINE
8
BLACK
6
CONTINUOUS
10
56.5007
20
-150.07
11
56.1041
21
-149.772
0
LINE
8
BLACK
6
CONTINUOUS
10
56.1041
20
-149.772
11
55.7328
21
-149.443
0
LINE
8
BLACK
6
CONTINUOUS
10
55.7328
20
-149.443
11
55.3892
21
-149.085
0
LINE
8
BLACK
6
CONTINUOUS
10
55.3892
20
-149.085
11
55.0754
21
-148.701
0
LINE
8
BLACK
6
CONTINUOUS
10
55.0754
20
-148.701
11
54.7936
21
-148.292
0
LINE
8
BLACK
6
CONTINUOUS
10
54.7936
20
-148.292
11
54.5456
21
-147.863
0
LINE
8
BLACK
6
CONTINUOUS
10
54.5456
20
-147.863
11
54.3329
21
-147.415
0
LINE
8
BLACK
6
CONTINUOUS
10
54.3329
20
-147.415
11
54.157
21
-146.951
0
LINE
8
BLACK
6
CONTINUOUS
10
54.157
20
-146.951
11
54.019
21
-146.474
0
LINE
8
BLACK
6
CONTINUOUS
10
54.019
20
-146.474
11
53.9198
21
-145.988
0
LINE
8
BLACK
6
CONTINUOUS
10
53.9198
20
-145.988
11
53.86
21
-145.496
0
LINE
8
BLACK
6
CONTINUOUS
10
53.86
20
-145.496
11
53.84
21
-145
0
LINE
8
BLACK
6
CONTINUOUS
10
53.84
20
-145
11
53.86
21
-144.504
0
LINE
8
BLACK
6
CONTINUOUS
10
53.86
20
-144.504
11
53.9198
21
-144.012
0
LINE
8
BLACK
6
CONTINUOUS
10
53.9198
20
-144.012
11
54.019
21
-143.526
0
LINE
8
BLACK
6
CONTINUOUS
10
54.019
20
-143.526
11
54.157
21
-143.049
0
LINE
8
BLACK
6
CONTINUOUS
10
54.157
20
-143.049
11
54.3329
21
-142.585
0
LINE
8
BLACK
6
CONTINUOUS
10
54.3329
20
-142.585
11
54.5456
21
-142.137
0
LINE
8
BLACK
6
CONTINUOUS
10
54.5456
20
-142.137
11
54.7936
21
-141.708
0
LINE
8
BLACK
6
CONTINUOUS
10
54.7936
20
-141.708
11
55.0754
21
-141.299
0
LINE
8
BLACK
6
CONTINUOUS
10
55.0754
20
-141.299
11
55.3892
21
-140.915
0
LINE
8
BLACK
6
CONTINUOUS
10
55.3892
20
-140.915
11
55.7328
21
-140.557
0
LINE
8
BLACK
6
CONTINUOUS
10
55.7328
20
-140.557
11
56.1041
21
-140.228
0
LINE
8
BLACK
6
CONTINUOUS
10
56.1041
20
-140.228
11
56.5007
21
-139.93
0
LINE
8
BLACK
6
CONTINUOUS
10
56.5007
20
-139.93
11
56.92
21
-139.665
0
LINE
8
BLACK
6
CONTINUOUS
10
56.92
20
-139.665
11
57.3593
21
-139.435
0
LINE
8
BLACK
6
CONTINUOUS
10
57.3593
20
-139.435
11
57.8156
21
-139.24
0
LINE
8
BLACK
6
CONTINUOUS
10
57.8156
20
-139.24
11
58.2862
21
-139.083
0
LINE
8
BLACK
6
CONTINUOUS
10
58.2862
20
-139.083
11
58.7678
21
-138.964
0
LINE
8
BLACK
6
CONTINUOUS
10
58.7678
20
-138.964
11
59.2575
21
-138.885
0
LINE
8
BLACK
6
CONTINUOUS
10
59.2575
20
-138.885
11
59.752
21
-138.845
0
LINE
8
BLACK
6
CONTINUOUS
10
59.752
20
-138.845
11
60.248
21
-138.845
0
LINE
8
BLACK
6
CONTINUOUS
10
60.248
20
-138.845
11
60.7425
21
-138.885
0
LINE
8
BLACK
6
CONTINUOUS
10
53.9747
20
-145.486
11
54.0334
21
-145.97
0
LINE
8
BLACK
6
CONTINUOUS
10
54.0334
20
-145.97
11
54.1308
21
-146.447
0
LINE
8
BLACK
6
CONTINUOUS
10
54.1308
20
-146.447
11
54.2662
21
-146.914
0
LINE
8
BLACK
6
CONTINUOUS
10
54.2662
20
-146.914
11
54.4388
21
-147.369
0
LINE
8
BLACK
6
CONTINUOUS
10
54.4388
20
-147.369
11
54.6475
21
-147.809
0
LINE
8
BLACK
6
CONTINUOUS
10
54.6475
20
-147.809
11
54.8909
21
-148.231
0
LINE
8
BLACK
6
CONTINUOUS
10
54.8909
20
-148.231
11
55.1674
21
-148.631
0
LINE
8
BLACK
6
CONTINUOUS
10
55.1674
20
-148.631
11
55.4753
21
-149.009
0
LINE
8
BLACK
6
CONTINUOUS
10
55.4753
20
-149.009
11
55.8125
21
-149.36
0
LINE
8
BLACK
6
CONTINUOUS
10
55.8125
20
-149.36
11
56.1769
21
-149.682
0
LINE
8
BLACK
6
CONTINUOUS
10
56.1769
20
-149.682
11
56.5661
21
-149.975
0
LINE
8
BLACK
6
CONTINUOUS
10
56.5661
20
-149.975
11
56.9775
21
-150.235
0
LINE
8
BLACK
6
CONTINUOUS
10
56.9775
20
-150.235
11
57.4086
21
-150.461
0
LINE
8
BLACK
6
CONTINUOUS
10
57.4086
20
-150.461
11
57.8564
21
-150.652
0
LINE
8
BLACK
6
CONTINUOUS
10
57.8564
20
-150.652
11
58.3182
21
-150.806
0
LINE
8
BLACK
6
CONTINUOUS
10
58.3182
20
-150.806
11
58.7909
21
-150.923
0
LINE
8
BLACK
6
CONTINUOUS
10
58.7909
20
-150.923
11
59.2714
21
-151.001
0
LINE
8
BLACK
6
CONTINUOUS
10
59.2714
20
-151.001
11
59.7566
21
-151.04
0
LINE
8
BLACK
6
CONTINUOUS
10
59.7566
20
-151.04
11
60.2434
21
-151.04
0
LINE
8
BLACK
6
CONTINUOUS
10
60.2434
20
-151.04
11
60.7286
21
-151.001
0
LINE
8
BLACK
6
CONTINUOUS
10
60.7286
20
-151.001
11
61.2091
21
-150.923
0
LINE
8
BLACK
6
CONTINUOUS
10
61.2091
20
-150.923
11
61.6818
21
-150.806
0
LINE
8
BLACK
6
CONTINUOUS
10
61.6818
20
-150.806
11
62.1436
21
-150.652
0
LINE
8
BLACK
6
CONTINUOUS
10
62.1436
20
-150.652
11
62.5914
21
-150.461
0
LINE
8
BLACK
6
CONTINUOUS
10
62.5914
20
-150.461
11
63.0225
21
-150.235
0
LINE
8
BLACK
6
CONTINUOUS
10
63.0225
20
-150.235
11
63.4339
21
-149.975
0
LINE
8
BLACK
6
CONTINUOUS
10
63.4339
20
-149.975
11
63.8231
21
-149.682
0
LINE
8
BLACK
6
CONTINUOUS
10
63.8231
20
-149.682
11
64.1875
21
-149.36
0
LINE
8
BLACK
6
CONTINUOUS
10
64.1875
20
-149.36
11
64.5247
21
-149.009
0
LINE
8
BLACK
6
CONTINUOUS
10
64.5247
20
-149.009
11
64.8326
21
-148.631
0
LINE
8
BLACK
6
CONTINUOUS
10
64.8326
20
-148.631
11
65.1091
21
-148.231
0
LINE
8
BLACK
6
CONTINUOUS
10
65.1091
20
-148.231
11
65.3525
21
-147.809
0
LINE
8
BLACK
6
CONTINUOUS
10
65.3525
20
-147.809
11
65.5612
21
-147.369
0
LINE
8
BLACK
6
CONTINUOUS
10
65.5612
20
-147.369
11
65.7338
21
-146.914
0
LINE
8
BLACK
6
CONTINUOUS
10
65.7338
20
-146.914
11
65.8692
21
-146.447
0
LINE
8
BLACK
6
CONTINUOUS
10
65.8692
20
-146.447
11
65.9666
21
-145.97
0
LINE
8
BLACK
6
CONTINUOUS
10
65.9666
20
-145.97
11
66.0253
21
-145.486
0
LINE
8
BLACK
6
CONTINUOUS
10
66.0253
20
-145.486
11
66.0449
21
-145
0
LINE
8
BLACK
6
CONTINUOUS
10
66.0449
20
-145
11
66.0253
21
-144.514
0
LINE
8
BLACK
6
CONTINUOUS
10
66.0253
20
-144.514
11
65.9666
21
-144.03
0
LINE
8
BLACK
6
CONTINUOUS
10
65.9666
20
-144.03
11
65.8692
21
-143.553
0
LINE
8
BLACK
6
CONTINUOUS
10
65.8692
20
-143.553
11
65.7338
21
-143.086
0
LINE
8
BLACK
6
CONTINUOUS
10
65.7338
20
-143.086
11
65.5612
21
-142.631
0
LINE
8
BLACK
6
CONTINUOUS
10
65.5612
20
-142.631
11
65.3525
21
-142.191
0
LINE
8
BLACK
6
CONTINUOUS
10
65.3525
20
-142.191
11
65.1091
21
-141.769
0
LINE
8
BLACK
6
CONTINUOUS
10
65.1091
20
-141.769
11
64.8326
21
-141.369
0
LINE
8
BLACK
6
CONTINUOUS
10
64.8326
20
-141.369
11
64.5247
21
-140.991
0
LINE
8
BLACK
6
CONTINUOUS
10
64.5247
20
-140.991
11
64.1875
21
-140.64
0
LINE
8
BLACK
6
CONTINUOUS
10
64.1875
20
-140.64
11
63.8231
21
-140.318
0
LINE
8
BLACK
6
CONTINUOUS
10
63.8231
20
-140.318
11
63.4339
21
-140.025
0
LINE
8
BLACK
6
CONTINUOUS
10
63.4339
20
-140.025
11
63.0225
21
-139.765
0
LINE
8
BLACK
6
CONTINUOUS
10
63.0225
20
-139.765
11
62.5914
21
-139.539
0
LINE
8
BLACK
6
CONTINUOUS
10
62.5914
20
-139.539
11
62.1436
21
-139.348
0
LINE
8
BLACK
6
CONTINUOUS
10
62.1436
20
-139.348
11
61.6818
21
-139.194
0
LINE
8
BLACK
6
CONTINUOUS
10
61.6818
20
-139.194
11
61.2091
21
-139.077
0
LINE
8
BLACK
6
CONTINUOUS
10
61.2091
20
-139.077
11
60.7286
21
-138.999
0
LINE
8
BLACK
6
CONTINUOUS
10
60.7286
20
-138.999
11
60.2434
21
-138.96
0
LINE
8
BLACK
6
CONTINUOUS
10
60.2434
20
-138.96
11
59.7566
21
-138.96
0
LINE
8
BLACK
6
CONTINUOUS
10
59.7566
20
-138.96
11
59.2714
21
-138.999
0
LINE
8
BLACK
6
CONTINUOUS
10
59.2714
20
-138.999
11
58.7909
21
-139.077
0
LINE
8
BLACK
6
CONTINUOUS
10
58.7909
20
-139.077
11
58.3182
21
-139.194
0
LINE
8
BLACK
6
CONTINUOUS
10
58.3182
20
-139.194
11
57.8564
21
-139.348
0
LINE
8
BLACK
6
CONTINUOUS
10
57.8564
20
-139.348
11
57.4086
21
-139.539
0
LINE
8
BLACK
6
CONTINUOUS
10
57.4086
20
-139.539
11
56.9775
21
-139.765
0
LINE
8
BLACK
6
CONTINUOUS
10
56.9775
20
-139.765
11
56.5661
21
-140.025
0
LINE
8
BLACK
6
CONTINUOUS
10
56.5661
20
-140.025
11
56.1769
21
-140.318
0
LINE
8
BLACK
6
CONTINUOUS
10
56.1769
20
-140.318
11
55.8125
21
-140.64
0
LINE
8
BLACK
6
CONTINUOUS
10
55.8125
20
-140.64
11
55.4753
21
-140.991
0
LINE
8
BLACK
6
CONTINUOUS
10
55.4753
20
-140.991
11
55.1674
21
-141.369
0
LINE
8
BLACK
6
CONTINUOUS
10
55.1674
20
-141.369
11
54.8909
21
-141.769
0
LINE
8
BLACK
6
CONTINUOUS
10
54.8909
20
-141.769
11
54.6475
21
-142.191
0
LINE
8
BLACK
6
CONTINUOUS
10
54.6475
20
-142.191
11
54.4388
21
-142.631
0
LINE
8
BLACK
6
CONTINUOUS
10
54.4388
20
-142.631
11
54.2662
21
-143.086
0
LINE
8
BLACK
6
CONTINUOUS
10
54.2662
20
-143.086
11
54.1308
21
-143.553
0
LINE
8
BLACK
6
CONTINUOUS
10
54.1308
20
-143.553
11
54.0334
21
-144.03
0
LINE
8
BLACK
6
CONTINUOUS
10
54.0334
20
-144.03
11
53.9747
21
-144.514
0
LINE
8
BLACK
6
CONTINUOUS
10
53.9747
20
-144.514
11
53.9551
21
-145
0
LINE
8
BLACK
6
CONTINUOUS
10
53.9551
20
-145
11
53.9747
21
-145.486
0
LINE
8
BLACK
6
CONTINUOUS
10
200.743
20
-138.885
11
201.232
21
-138.964
0
LINE
8
BLACK
6
CONTINUOUS
10
201.232
20
-138.964
11
201.714
21
-139.083
0
LINE
8
BLACK
6
CONTINUOUS
10
201.714
20
-139.083
11
202.184
21
-139.24
0
LINE
8
BLACK
6
CONTINUOUS
10
202.184
20
-139.24
11
202.641
21
-139.435
0
LINE
8
BLACK
6
CONTINUOUS
10
202.641
20
-139.435
11
203.08
21
-139.665
0
LINE
8
BLACK
6
CONTINUOUS
10
203.08
20
-139.665
11
203.499
21
-139.93
0
LINE
8
BLACK
6
CONTINUOUS
10
203.499
20
-139.93
11
203.896
21
-140.228
0
LINE
8
BLACK
6
CONTINUOUS
10
203.896
20
-140.228
11
204.267
21
-140.557
0
LINE
8
BLACK
6
CONTINUOUS
10
204.267
20
-140.557
11
204.611
21
-140.915
0
LINE
8
BLACK
6
CONTINUOUS
10
204.611
20
-140.915
11
204.925
21
-141.299
0
LINE
8
BLACK
6
CONTINUOUS
10
204.925
20
-141.299
11
205.206
21
-141.708
0
LINE
8
BLACK
6
CONTINUOUS
10
205.206
20
-141.708
11
205.454
21
-142.137
0
LINE
8
BLACK
6
CONTINUOUS
10
205.454
20
-142.137
11
205.667
21
-142.585
0
LINE
8
BLACK
6
CONTINUOUS
10
205.667
20
-142.585
11
205.843
21
-143.049
0
LINE
8
BLACK
6
CONTINUOUS
10
205.843
20
-143.049
11
205.981
21
-143.526
0
LINE
8
BLACK
6
CONTINUOUS
10
205.981
20
-143.526
11
206.08
21
-144.012
0
LINE
8
BLACK
6
CONTINUOUS
10
206.08
20
-144.012
11
206.14
21
-144.504
0
LINE
8
BLACK
6
CONTINUOUS
10
206.14
20
-144.504
11
206.16
21
-145
0
LINE
8
BLACK
6
CONTINUOUS
10
206.16
20
-145
11
206.14
21
-145.496
0
LINE
8
BLACK
6
CONTINUOUS
10
206.14
20
-145.496
11
206.08
21
-145.988
0
LINE
8
BLACK
6
CONTINUOUS
10
206.08
20
-145.988
11
205.981
21
-146.474
0
LINE
8
BLACK
6
CONTINUOUS
10
205.981
20
-146.474
11
205.843
21
-146.951
0
LINE
8
BLACK
6
CONTINUOUS
10
205.843
20
-146.951
11
205.667
21
-147.415
0
LINE
8
BLACK
6
CONTINUOUS
10
205.667
20
-147.415
11
205.454
21
-147.863
0
LINE
8
BLACK
6
CONTINUOUS
10
205.454
20
-147.863
11
205.206
21
-148.292
0
LINE
8
BLACK
6
CONTINUOUS
10
205.206
20
-148.292
11
204.925
21
-148.701
0
LINE
8
BLACK
6
CONTINUOUS
10
204.925
20
-148.701
11
204.611
21
-149.085
0
LINE
8
BLACK
6
CONTINUOUS
10
204.611
20
-149.085
11
204.267
21
-149.443
0
LINE
8
BLACK
6
CONTINUOUS
10
204.267
20
-149.443
11
203.896
21
-149.772
0
LINE
8
BLACK
6
CONTINUOUS
10
203.896
20
-149.772
11
203.499
21
-150.07
0
LINE
8
BLACK
6
CONTINUOUS
10
203.499
20
-150.07
11
203.08
21
-150.335
0
LINE
8
BLACK
6
CONTINUOUS
10
203.08
20
-150.335
11
202.641
21
-150.565
0
LINE
8
BLACK
6
CONTINUOUS
10
202.641
20
-150.565
11
202.184
21
-150.76
0
LINE
8
BLACK
6
CONTINUOUS
10
202.184
20
-150.76
11
201.714
21
-150.917
0
LINE
8
BLACK
6
CONTINUOUS
10
201.714
20
-150.917
11
201.232
21
-151.036
0
LINE
8
BLACK
6
CONTINUOUS
10
201.232
20
-151.036
11
200.743
21
-151.115
0
LINE
8
BLACK
6
CONTINUOUS
10
200.743
20
-151.115
11
200.248
21
-151.155
0
LINE
8
BLACK
6
CONTINUOUS
10
200.248
20
-151.155
11
199.752
21
-151.155
0
LINE
8
BLACK
6
CONTINUOUS
10
199.752
20
-151.155
11
199.257
21
-151.115
0
LINE
8
BLACK
6
CONTINUOUS
10
199.257
20
-151.115
11
198.768
21
-151.036
0
LINE
8
BLACK
6
CONTINUOUS
10
198.768
20
-151.036
11
198.286
21
-150.917
0
LINE
8
BLACK
6
CONTINUOUS
10
198.286
20
-150.917
11
197.816
21
-150.76
0
LINE
8
BLACK
6
CONTINUOUS
10
197.816
20
-150.76
11
197.359
21
-150.565
0
LINE
8
BLACK
6
CONTINUOUS
10
197.359
20
-150.565
11
196.92
21
-150.335
0
LINE
8
BLACK
6
CONTINUOUS
10
196.92
20
-150.335
11
196.501
21
-150.07
0
LINE
8
BLACK
6
CONTINUOUS
10
196.501
20
-150.07
11
196.104
21
-149.772
0
LINE
8
BLACK
6
CONTINUOUS
10
196.104
20
-149.772
11
195.733
21
-149.443
0
LINE
8
BLACK
6
CONTINUOUS
10
195.733
20
-149.443
11
195.389
21
-149.085
0
LINE
8
BLACK
6
CONTINUOUS
10
195.389
20
-149.085
11
195.075
21
-148.701
0
LINE
8
BLACK
6
CONTINUOUS
10
195.075
20
-148.701
11
194.794
21
-148.292
0
LINE
8
BLACK
6
CONTINUOUS
10
194.794
20
-148.292
11
194.546
21
-147.863
0
LINE
8
BLACK
6
CONTINUOUS
10
194.546
20
-147.863
11
194.333
21
-147.415
0
LINE
8
BLACK
6
CONTINUOUS
10
194.333
20
-147.415
11
194.157
21
-146.951
0
LINE
8
BLACK
6
CONTINUOUS
10
194.157
20
-146.951
11
194.019
21
-146.474
0
LINE
8
BLACK
6
CONTINUOUS
10
194.019
20
-146.474
11
193.92
21
-145.988
0
LINE
8
BLACK
6
CONTINUOUS
10
193.92
20
-145.988
11
193.86
21
-145.496
0
LINE
8
BLACK
6
CONTINUOUS
10
193.86
20
-145.496
11
193.84
21
-145
0
LINE
8
BLACK
6
CONTINUOUS
10
193.84
20
-145
11
193.86
21
-144.504
0
LINE
8
BLACK
6
CONTINUOUS
10
193.86
20
-144.504
11
193.92
21
-144.012
0
LINE
8
BLACK
6
CONTINUOUS
10
193.92
20
-144.012
11
194.019
21
-143.526
0
LINE
8
BLACK
6
CONTINUOUS
10
194.019
20
-143.526
11
194.157
21
-143.049
0
LINE
8
BLACK
6
CONTINUOUS
10
194.157
20
-143.049
11
194.333
21
-142.585
0
LINE
8
BLACK
6
CONTINUOUS
10
194.333
20
-142.585
11
194.546
21
-142.137
0
LINE
8
BLACK
6
CONTINUOUS
10
194.546
20
-142.137
11
194.794
21
-141.708
0
LINE
8
BLACK
6
CONTINUOUS
10
194.794
20
-141.708
11
195.075
21
-141.299
0
LINE
8
BLACK
6
CONTINUOUS
10
195.075
20
-141.299
11
195.389
21
-140.915
0
LINE
8
BLACK
6
CONTINUOUS
10
195.389
20
-140.915
11
195.733
21
-140.557
0
LINE
8
BLACK
6
CONTINUOUS
10
195.733
20
-140.557
11
196.104
21
-140.228
0
LINE
8
BLACK
6
CONTINUOUS
10
196.104
20
-140.228
11
196.501
21
-139.93
0
LINE
8
BLACK
6
CONTINUOUS
10
196.501
20
-139.93
11
196.92
21
-139.665
0
LINE
8
BLACK
6
CONTINUOUS
10
196.92
20
-139.665
11
197.359
21
-139.435
0
LINE
8
BLACK
6
CONTINUOUS
10
197.359
20
-139.435
11
197.816
21
-139.24
0
LINE
8
BLACK
6
CONTINUOUS
10
197.816
20
-139.24
11
198.286
21
-139.083
0
LINE
8
BLACK
6
CONTINUOUS
10
198.286
20
-139.083
11
198.768
21
-138.964
0
LINE
8
BLACK
6
CONTINUOUS
10
198.768
20
-138.964
11
199.257
21
-138.885
0
LINE
8
BLACK
6
CONTINUOUS
10
199.257
20
-138.885
11
199.752
21
-138.845
0
LINE
8
BLACK
6
CONTINUOUS
10
199.752
20
-138.845
11
200.248
21
-138.845
0
LINE
8
BLACK
6
CONTINUOUS
10
200.248
20
-138.845
11
200.743
21
-138.885
0
LINE
8
BLACK
6
CONTINUOUS
10
193.975
20
-145.486
11
194.033
21
-145.97
0
LINE
8
BLACK
6
CONTINUOUS
10
194.033
20
-145.97
11
194.131
21
-146.447
0
LINE
8
BLACK
6
CONTINUOUS
10
194.131
20
-146.447
11
194.266
21
-146.914
0
LINE
8
BLACK
6
CONTINUOUS
10
194.266
20
-146.914
11
194.439
21
-147.369
0
LINE
8
BLACK
6
CONTINUOUS
10
194.439
20
-147.369
11
194.648
21
-147.809
0
LINE
8
BLACK
6
CONTINUOUS
10
194.648
20
-147.809
11
194.891
21
-148.231
0
LINE
8
BLACK
6
CONTINUOUS
10
194.891
20
-148.231
11
195.167
21
-148.631
0
LINE
8
BLACK
6
CONTINUOUS
10
195.167
20
-148.631
11
195.475
21
-149.009
0
LINE
8
BLACK
6
CONTINUOUS
10
195.475
20
-149.009
11
195.813
21
-149.36
0
LINE
8
BLACK
6
CONTINUOUS
10
195.813
20
-149.36
11
196.177
21
-149.682
0
LINE
8
BLACK
6
CONTINUOUS
10
196.177
20
-149.682
11
196.566
21
-149.975
0
LINE
8
BLACK
6
CONTINUOUS
10
196.566
20
-149.975
11
196.978
21
-150.235
0
LINE
8
BLACK
6
CONTINUOUS
10
196.978
20
-150.235
11
197.409
21
-150.461
0
LINE
8
BLACK
6
CONTINUOUS
10
197.409
20
-150.461
11
197.856
21
-150.652
0
LINE
8
BLACK
6
CONTINUOUS
10
197.856
20
-150.652
11
198.318
21
-150.806
0
LINE
8
BLACK
6
CONTINUOUS
10
198.318
20
-150.806
11
198.791
21
-150.923
0
LINE
8
BLACK
6
CONTINUOUS
10
198.791
20
-150.923
11
199.271
21
-151.001
0
LINE
8
BLACK
6
CONTINUOUS
10
199.271
20
-151.001
11
199.757
21
-151.04
0
LINE
8
BLACK
6
CONTINUOUS
10
199.757
20
-151.04
11
200.243
21
-151.04
0
LINE
8
BLACK
6
CONTINUOUS
10
200.243
20
-151.04
11
200.729
21
-151.001
0
LINE
8
BLACK
6
CONTINUOUS
10
200.729
20
-151.001
11
201.209
21
-150.923
0
LINE
8
BLACK
6
CONTINUOUS
10
201.209
20
-150.923
11
201.682
21
-150.806
0
LINE
8
BLACK
6
CONTINUOUS
10
201.682
20
-150.806
11
202.144
21
-150.652
0
LINE
8
BLACK
6
CONTINUOUS
10
202.144
20
-150.652
11
202.591
21
-150.461
0
LINE
8
BLACK
6
CONTINUOUS
10
202.591
20
-150.461
11
203.022
21
-150.235
0
LINE
8
BLACK
6
CONTINUOUS
10
203.022
20
-150.235
11
203.434
21
-149.975
0
LINE
8
BLACK
6
CONTINUOUS
10
203.434
20
-149.975
11
203.823
21
-149.682
0
LINE
8
BLACK
6
CONTINUOUS
10
203.823
20
-149.682
11
204.187
21
-149.36
0
LINE
8
BLACK
6
CONTINUOUS
10
204.187
20
-149.36
11
204.525
21
-149.009
0
LINE
8
BLACK
6
CONTINUOUS
10
204.525
20
-149.009
11
204.833
21
-148.631
0
LINE
8
BLACK
6
CONTINUOUS
10
204.833
20
-148.631
11
205.109
21
-148.231
0
LINE
8
BLACK
6
CONTINUOUS
10
205.109
20
-148.231
11
205.352
21
-147.809
0
LINE
8
BLACK
6
CONTINUOUS
10
205.352
20
-147.809
11
205.561
21
-147.369
0
LINE
8
BLACK
6
CONTINUOUS
10
205.561
20
-147.369
11
205.734
21
-146.914
0
LINE
8
BLACK
6
CONTINUOUS
10
205.734
20
-146.914
11
205.869
21
-146.447
0
LINE
8
BLACK
6
CONTINUOUS
10
205.869
20
-146.447
11
205.967
21
-145.97
0
LINE
8
BLACK
6
CONTINUOUS
10
205.967
20
-145.97
11
206.025
21
-145.486
0
LINE
8
BLACK
6
CONTINUOUS
10
206.025
20
-145.486
11
206.045
21
-145
0
LINE
8
BLACK
6
CONTINUOUS
10
206.045
20
-145
11
206.025
21
-144.514
0
LINE
8
BLACK
6
CONTINUOUS
10
206.025
20
-144.514
11
205.967
21
-144.03
0
LINE
8
BLACK
6
CONTINUOUS
10
205.967
20
-144.03
11
205.869
21
-143.553
0
LINE
8
BLACK
6
CONTINUOUS
10
205.869
20
-143.553
11
205.734
21
-143.086
0
LINE
8
BLACK
6
CONTINUOUS
10
205.734
20
-143.086
11
205.561
21
-142.631
0
LINE
8
BLACK
6
CONTINUOUS
10
205.561
20
-142.631
11
205.352
21
-142.191
0
LINE
8
BLACK
6
CONTINUOUS
10
205.352
20
-142.191
11
205.109
21
-141.769
0
LINE
8
BLACK
6
CONTINUOUS
10
205.109
20
-141.769
11
204.833
21
-141.369
0
LINE
8
BLACK
6
CONTINUOUS
10
204.833
20
-141.369
11
204.525
21
-140.991
0
LINE
8
BLACK
6
CONTINUOUS
10
204.525
20
-140.991
11
204.187
21
-140.64
0
LINE
8
BLACK
6
CONTINUOUS
10
204.187
20
-140.64
11
203.823
21
-140.318
0
LINE
8
BLACK
6
CONTINUOUS
10
203.823
20
-140.318
11
203.434
21
-140.025
0
LINE
8
BLACK
6
CONTINUOUS
10
203.434
20
-140.025
11
203.022
21
-139.765
0
LINE
8
BLACK
6
CONTINUOUS
10
203.022
20
-139.765
11
202.591
21
-139.539
0
LINE
8
BLACK
6
CONTINUOUS
10
202.591
20
-139.539
11
202.144
21
-139.348
0
LINE
8
BLACK
6
CONTINUOUS
10
202.144
20
-139.348
11
201.682
21
-139.194
0
LINE
8
BLACK
6
CONTINUOUS
10
201.682
20
-139.194
11
201.209
21
-139.077
0
LINE
8
BLACK
6
CONTINUOUS
10
201.209
20
-139.077
11
200.729
21
-138.999
0
LINE
8
BLACK
6
CONTINUOUS
10
200.729
20
-138.999
11
200.243
21
-138.96
0
LINE
8
BLACK
6
CONTINUOUS
10
200.243
20
-138.96
11
199.757
21
-138.96
0
LINE
8
BLACK
6
CONTINUOUS
10
199.757
20
-138.96
11
199.271
21
-138.999
0
LINE
8
BLACK
6
CONTINUOUS
10
199.271
20
-138.999
11
198.791
21
-139.077
0
LINE
8
BLACK
6
CONTINUOUS
10
198.791
20
-139.077
11
198.318
21
-139.194
0
LINE
8
BLACK
6
CONTINUOUS
10
198.318
20
-139.194
11
197.856
21
-139.348
0
LINE
8
BLACK
6
CONTINUOUS
10
197.856
20
-139.348
11
197.409
21
-139.539
0
LINE
8
BLACK
6
CONTINUOUS
10
197.409
20
-139.539
11
196.978
21
-139.765
0
LINE
8
BLACK
6
CONTINUOUS
10
196.978
20
-139.765
11
196.566
21
-140.025
0
LINE
8
BLACK
6
CONTINUOUS
10
196.566
20
-140.025
11
196.177
21
-140.318
0
LINE
8
BLACK
6
CONTINUOUS
10
196.177
20
-140.318
11
195.813
21
-140.64
0
LINE
8
BLACK
6
CONTINUOUS
10
195.813
20
-140.64
11
195.475
21
-140.991
0
LINE
8
BLACK
6
CONTINUOUS
10
195.475
20
-140.991
11
195.167
21
-141.369
0
LINE
8
BLACK
6
CONTINUOUS
10
195.167
20
-141.369
11
194.891
21
-141.769
0
LINE
8
BLACK
6
CONTINUOUS
10
194.891
20
-141.769
11
194.648
21
-142.191
0
LINE
8
BLACK
6
CONTINUOUS
10
194.648
20
-142.191
11
194.439
21
-142.631
0
LINE
8
BLACK
6
CONTINUOUS
10
194.439
20
-142.631
11
194.266
21
-143.086
0
LINE
8
BLACK
6
CONTINUOUS
10
194.266
20
-143.086
11
194.131
21
-143.553
0
LINE
8
BLACK
6
CONTINUOUS
10
194.131
20
-143.553
11
194.033
21
-144.03
0
LINE
8
BLACK
6
CONTINUOUS
10
194.033
20
-144.03
11
193.975
21
-144.514
0
LINE
8
BLACK
6
CONTINUOUS
10
193.975
20
-144.514
11
193.955
21
-145
0
LINE
8
BLACK
6
CONTINUOUS
10
193.955
20
-145
11
193.975
21
-145.486
0
LINE
8
BLACK
6
CONTINUOUS
10
182.056
20
-111.089
11
182.102
21
-111.095
0
LINE
8
BLACK
6
CONTINUOUS
10
182.102
20
-111.095
11
195.958
21
-119.095
0
LINE
8
BLACK
6
CONTINUOUS
10
195.958
20
-119.095
11
195.958
21
-119.095
0
LINE
8
BLACK
6
CONTINUOUS
10
195.958
20
-119.095
11
195.986
21
-119.132
0
LINE
8
BLACK
6
CONTINUOUS
10
195.986
20
-119.132
11
195.98
21
-119.177
0
LINE
8
BLACK
6
CONTINUOUS
10
195.98
20
-119.177
11
187.98
21
-133.034
0
LINE
8
BLACK
6
CONTINUOUS
10
187.98
20
-133.034
11
187.98
21
-133.034
0
LINE
8
BLACK
6
CONTINUOUS
10
187.98
20
-133.034
11
187.944
21
-133.062
0
LINE
8
BLACK
6
CONTINUOUS
10
187.944
20
-133.062
11
187.898
21
-133.056
0
LINE
8
BLACK
6
CONTINUOUS
10
187.898
20
-133.056
11
174.042
21
-125.056
0
LINE
8
BLACK
6
CONTINUOUS
10
174.042
20
-125.056
11
174.014
21
-125.019
0
LINE
8
BLACK
6
CONTINUOUS
10
174.014
20
-125.019
11
174.02
21
-124.974
0
LINE
8
BLACK
6
CONTINUOUS
10
174.02
20
-124.974
11
174.02
21
-124.974
0
LINE
8
BLACK
6
CONTINUOUS
10
174.02
20
-124.974
11
182.02
21
-111.117
0
LINE
8
BLACK
6
CONTINUOUS
10
182.02
20
-111.117
11
182.02
21
-111.117
0
LINE
8
BLACK
6
CONTINUOUS
10
182.02
20
-111.117
11
182.056
21
-111.089
0
LINE
8
BLACK
6
CONTINUOUS
10
174.154
20
-124.982
11
187.906
21
-132.922
0
LINE
8
BLACK
6
CONTINUOUS
10
187.906
20
-132.922
11
195.846
21
-119.169
0
LINE
8
BLACK
6
CONTINUOUS
10
195.846
20
-119.169
11
182.094
21
-111.229
0
LINE
8
BLACK
6
CONTINUOUS
10
182.094
20
-111.229
11
174.154
21
-124.982
0
LINE
8
BLACK
6
CONTINUOUS
10
172.563
20
-112.611
11
172.6
21
-112.638
0
LINE
8
BLACK
6
CONTINUOUS
10
172.6
20
-112.638
11
172.606
21
-112.684
0
LINE
8
BLACK
6
CONTINUOUS
10
172.606
20
-112.684
11
168.465
21
-128.139
0
LINE
8
BLACK
6
CONTINUOUS
10
168.465
20
-128.139
11
168.437
21
-128.175
0
LINE
8
BLACK
6
CONTINUOUS
10
168.437
20
-128.175
11
168.391
21
-128.181
0
LINE
8
BLACK
6
CONTINUOUS
10
168.391
20
-128.181
11
152.936
21
-124.04
0
LINE
8
BLACK
6
CONTINUOUS
10
152.936
20
-124.04
11
152.9
21
-124.012
0
LINE
8
BLACK
6
CONTINUOUS
10
152.9
20
-124.012
11
152.894
21
-123.967
0
LINE
8
BLACK
6
CONTINUOUS
10
152.894
20
-123.967
11
157.035
21
-108.512
0
LINE
8
BLACK
6
CONTINUOUS
10
157.035
20
-108.512
11
157.063
21
-108.475
0
LINE
8
BLACK
6
CONTINUOUS
10
157.063
20
-108.475
11
157.108
21
-108.469
0
LINE
8
BLACK
6
CONTINUOUS
10
157.108
20
-108.469
11
172.563
21
-112.611
0
LINE
8
BLACK
6
CONTINUOUS
10
153.025
20
-123.94
11
168.364
21
-128.05
0
LINE
8
BLACK
6
CONTINUOUS
10
168.364
20
-128.05
11
172.474
21
-112.711
0
LINE
8
BLACK
6
CONTINUOUS
10
172.474
20
-112.711
11
157.135
21
-108.601
0
LINE
8
BLACK
6
CONTINUOUS
10
157.135
20
-108.601
11
153.025
21
-123.94
0
LINE
8
BLACK
6
CONTINUOUS
10
130.75
20
-107.515
11
130.792
21
-107.533
0
LINE
8
BLACK
6
CONTINUOUS
10
130.792
20
-107.533
11
130.81
21
-107.575
0
LINE
8
BLACK
6
CONTINUOUS
10
130.81
20
-107.575
11
130.81
21
-123.575
0
LINE
8
BLACK
6
CONTINUOUS
10
130.81
20
-123.575
11
130.792
21
-123.617
0
LINE
8
BLACK
6
CONTINUOUS
10
130.792
20
-123.617
11
130.75
21
-123.635
0
LINE
8
BLACK
6
CONTINUOUS
10
130.75
20
-123.635
11
114.75
21
-123.635
0
LINE
8
BLACK
6
CONTINUOUS
10
114.75
20
-123.635
11
114.708
21
-123.617
0
LINE
8
BLACK
6
CONTINUOUS
10
114.708
20
-123.617
11
114.69
21
-123.575
0
LINE
8
BLACK
6
CONTINUOUS
10
114.69
20
-123.575
11
114.69
21
-107.575
0
LINE
8
BLACK
6
CONTINUOUS
10
114.69
20
-107.575
11
114.708
21
-107.533
0
LINE
8
BLACK
6
CONTINUOUS
10
114.708
20
-107.533
11
114.75
21
-107.515
0
LINE
8
BLACK
6
CONTINUOUS
10
114.75
20
-107.515
11
130.75
21
-107.515
0
LINE
8
BLACK
6
CONTINUOUS
10
114.81
20
-107.635
11
114.81
21
-123.515
0
LINE
8
BLACK
6
CONTINUOUS
10
114.81
20
-123.515
11
130.69
21
-123.515
0
LINE
8
BLACK
6
CONTINUOUS
10
130.69
20
-123.515
11
130.69
21
-107.635
0
LINE
8
BLACK
6
CONTINUOUS
10
130.69
20
-107.635
11
114.81
21
-107.635
0
LINE
8
BLACK
6
CONTINUOUS
10
149.75
20
-107.515
11
149.792
21
-107.533
0
LINE
8
BLACK
6
CONTINUOUS
10
149.792
20
-107.533
11
149.81
21
-107.575
0
LINE
8
BLACK
6
CONTINUOUS
10
149.81
20
-107.575
11
149.81
21
-123.575
0
LINE
8
BLACK
6
CONTINUOUS
10
149.81
20
-123.575
11
149.792
21
-123.617
0
LINE
8
BLACK
6
CONTINUOUS
10
149.792
20
-123.617
11
149.75
21
-123.635
0
LINE
8
BLACK
6
CONTINUOUS
10
149.75
20
-123.635
11
133.75
21
-123.635
0
LINE
8
BLACK
6
CONTINUOUS
10
133.75
20
-123.635
11
133.708
21
-123.617
0
LINE
8
BLACK
6
CONTINUOUS
10
133.708
20
-123.617
11
133.69
21
-123.575
0
LINE
8
BLACK
6
CONTINUOUS
10
133.69
20
-123.575
11
133.69
21
-107.575
0
LINE
8
BLACK
6
CONTINUOUS
10
133.69
20
-107.575
11
133.708
21
-107.533
0
LINE
8
BLACK
6
CONTINUOUS
10
133.708
20
-107.533
11
133.75
21
-107.515
0
LINE
8
BLACK
6
CONTINUOUS
10
133.75
20
-107.515
11
149.75
21
-107.515
0
LINE
8
BLACK
6
CONTINUOUS
10
133.81
20
-107.635
11
133.81
21
-123.515
0
LINE
8
BLACK
6
CONTINUOUS
10
133.81
20
-123.515
11
149.69
21
-123.515
0
LINE
8
BLACK
6
CONTINUOUS
10
149.69
20
-123.515
11
149.69
21
-107.635
0
LINE
8
BLACK
6
CONTINUOUS
10
149.69
20
-107.635
11
133.81
21
-107.635
0
LINE
8
BLACK
6
CONTINUOUS
10
83.25
20
-92.64
11
83.2924
21
-92.6576
0
LINE
8
BLACK
6
CONTINUOUS
10
83.2924
20
-92.6576
11
83.31
21
-92.7
0
LINE
8
BLACK
6
CONTINUOUS
10
83.31
20
-92.7
11
83.31
21
-108.7
0
LINE
8
BLACK
6
CONTINUOUS
10
83.31
20
-108.7
11
83.2924
21
-108.742
0
LINE
8
BLACK
6
CONTINUOUS
10
83.2924
20
-108.742
11
83.25
21
-108.76
0
LINE
8
BLACK
6
CONTINUOUS
10
83.25
20
-108.76
11
67.25
21
-108.76
0
LINE
8
BLACK
6
CONTINUOUS
10
67.25
20
-108.76
11
67.2076
21
-108.742
0
LINE
8
BLACK
6
CONTINUOUS
10
67.2076
20
-108.742
11
67.19
21
-108.7
0
LINE
8
BLACK
6
CONTINUOUS
10
67.19
20
-108.7
11
67.19
21
-92.7
0
LINE
8
BLACK
6
CONTINUOUS
10
67.19
20
-92.7
11
67.2076
21
-92.6576
0
LINE
8
BLACK
6
CONTINUOUS
10
67.2076
20
-92.6576
11
67.25
21
-92.64
0
LINE
8
BLACK
6
CONTINUOUS
10
67.25
20
-92.64
11
83.25
21
-92.64
0
LINE
8
BLACK
6
CONTINUOUS
10
67.31
20
-92.76
11
67.31
21
-108.64
0
LINE
8
BLACK
6
CONTINUOUS
10
67.31
20
-108.64
11
83.19
21
-108.64
0
LINE
8
BLACK
6
CONTINUOUS
10
83.19
20
-108.64
11
83.19
21
-92.76
0
LINE
8
BLACK
6
CONTINUOUS
10
83.19
20
-92.76
11
67.31
21
-92.76
0
LINE
8
BLACK
6
CONTINUOUS
10
102.25
20
-92.64
11
102.292
21
-92.6576
0
LINE
8
BLACK
6
CONTINUOUS
10
102.292
20
-92.6576
11
102.31
21
-92.7
0
LINE
8
BLACK
6
CONTINUOUS
10
102.31
20
-92.7
11
102.31
21
-108.7
0
LINE
8
BLACK
6
CONTINUOUS
10
102.31
20
-108.7
11
102.292
21
-108.742
0
LINE
8
BLACK
6
CONTINUOUS
10
102.292
20
-108.742
11
102.25
21
-108.76
0
LINE
8
BLACK
6
CONTINUOUS
10
102.25
20
-108.76
11
86.25
21
-108.76
0
LINE
8
BLACK
6
CONTINUOUS
10
86.25
20
-108.76
11
86.2076
21
-108.742
0
LINE
8
BLACK
6
CONTINUOUS
10
86.2076
20
-108.742
11
86.19
21
-108.7
0
LINE
8
BLACK
6
CONTINUOUS
10
86.19
20
-108.7
11
86.19
21
-92.7
0
LINE
8
BLACK
6
CONTINUOUS
10
86.19
20
-92.7
11
86.2076
21
-92.6576
0
LINE
8
BLACK
6
CONTINUOUS
10
86.2076
20
-92.6576
11
86.25
21
-92.64
0
LINE
8
BLACK
6
CONTINUOUS
10
86.25
20
-92.64
11
102.25
21
-92.64
0
LINE
8
BLACK
6
CONTINUOUS
10
86.31
20
-92.76
11
86.31
21
-108.64
0
LINE
8
BLACK
6
CONTINUOUS
10
86.31
20
-108.64
11
102.19
21
-108.64
0
LINE
8
BLACK
6
CONTINUOUS
10
102.19
20
-108.64
11
102.19
21
-92.76
0
LINE
8
BLACK
6
CONTINUOUS
10
102.19
20
-92.76
11
86.31
21
-92.76
0
LINE
8
BLACK
6
CONTINUOUS
10
178.25
20
-90.265
11
178.292
21
-90.2826
0
LINE
8
BLACK
6
CONTINUOUS
10
178.292
20
-90.2826
11
178.31
21
-90.325
0
LINE
8
BLACK
6
CONTINUOUS
10
178.31
20
-90.325
11
178.31
21
-106.325
0
LINE
8
BLACK
6
CONTINUOUS
10
178.31
20
-106.325
11
178.292
21
-106.367
0
LINE
8
BLACK
6
CONTINUOUS
10
178.292
20
-106.367
11
178.25
21
-106.385
0
LINE
8
BLACK
6
CONTINUOUS
10
178.25
20
-106.385
11
162.25
21
-106.385
0
LINE
8
BLACK
6
CONTINUOUS
10
162.25
20
-106.385
11
162.208
21
-106.367
0
LINE
8
BLACK
6
CONTINUOUS
10
162.208
20
-106.367
11
162.19
21
-106.325
0
LINE
8
BLACK
6
CONTINUOUS
10
162.19
20
-106.325
11
162.19
21
-90.325
0
LINE
8
BLACK
6
CONTINUOUS
10
162.19
20
-90.325
11
162.208
21
-90.2826
0
LINE
8
BLACK
6
CONTINUOUS
10
162.208
20
-90.2826
11
162.25
21
-90.265
0
LINE
8
BLACK
6
CONTINUOUS
10
162.25
20
-90.265
11
178.25
21
-90.265
0
LINE
8
BLACK
6
CONTINUOUS
10
162.31
20
-90.385
11
162.31
21
-106.265
0
LINE
8
BLACK
6
CONTINUOUS
10
162.31
20
-106.265
11
178.19
21
-106.265
0
LINE
8
BLACK
6
CONTINUOUS
10
178.19
20
-106.265
11
178.19
21
-90.385
0
LINE
8
BLACK
6
CONTINUOUS
10
178.19
20
-90.385
11
162.31
21
-90.385
0
LINE
8
BLACK
6
CONTINUOUS
10
121.25
20
-87.89
11
121.292
21
-87.9076
0
LINE
8
BLACK
6
CONTINUOUS
10
121.292
20
-87.9076
11
121.31
21
-87.95
0
LINE
8
BLACK
6
CONTINUOUS
10
121.31
20
-87.95
11
121.31
21
-103.95
0
LINE
8
BLACK
6
CONTINUOUS
10
121.31
20
-103.95
11
121.292
21
-103.992
0
LINE
8
BLACK
6
CONTINUOUS
10
121.292
20
-103.992
11
121.25
21
-104.01
0
LINE
8
BLACK
6
CONTINUOUS
10
121.25
20
-104.01
11
105.25
21
-104.01
0
LINE
8
BLACK
6
CONTINUOUS
10
105.25
20
-104.01
11
105.208
21
-103.992
0
LINE
8
BLACK
6
CONTINUOUS
10
105.208
20
-103.992
11
105.19
21
-103.95
0
LINE
8
BLACK
6
CONTINUOUS
10
105.19
20
-103.95
11
105.19
21
-87.95
0
LINE
8
BLACK
6
CONTINUOUS
10
105.19
20
-87.95
11
105.208
21
-87.9076
0
LINE
8
BLACK
6
CONTINUOUS
10
105.208
20
-87.9076
11
105.25
21
-87.89
0
LINE
8
BLACK
6
CONTINUOUS
10
105.25
20
-87.89
11
121.25
21
-87.89
0
LINE
8
BLACK
6
CONTINUOUS
10
105.31
20
-88.01
11
105.31
21
-103.89
0
LINE
8
BLACK
6
CONTINUOUS
10
105.31
20
-103.89
11
121.19
21
-103.89
0
LINE
8
BLACK
6
CONTINUOUS
10
121.19
20
-103.89
11
121.19
21
-88.01
0
LINE
8
BLACK
6
CONTINUOUS
10
121.19
20
-88.01
11
105.31
21
-88.01
0
LINE
8
BLACK
6
CONTINUOUS
10
159.25
20
-87.89
11
159.292
21
-87.9076
0
LINE
8
BLACK
6
CONTINUOUS
10
159.292
20
-87.9076
11
159.31
21
-87.95
0
LINE
8
BLACK
6
CONTINUOUS
10
159.31
20
-87.95
11
159.31
21
-103.95
0
LINE
8
BLACK
6
CONTINUOUS
10
159.31
20
-103.95
11
159.292
21
-103.992
0
LINE
8
BLACK
6
CONTINUOUS
10
159.292
20
-103.992
11
159.25
21
-104.01
0
LINE
8
BLACK
6
CONTINUOUS
10
159.25
20
-104.01
11
143.25
21
-104.01
0
LINE
8
BLACK
6
CONTINUOUS
10
143.25
20
-104.01
11
143.208
21
-103.992
0
LINE
8
BLACK
6
CONTINUOUS
10
143.208
20
-103.992
11
143.19
21
-103.95
0
LINE
8
BLACK
6
CONTINUOUS
10
143.19
20
-103.95
11
143.19
21
-87.95
0
LINE
8
BLACK
6
CONTINUOUS
10
143.19
20
-87.95
11
143.208
21
-87.9076
0
LINE
8
BLACK
6
CONTINUOUS
10
143.208
20
-87.9076
11
143.25
21
-87.89
0
LINE
8
BLACK
6
CONTINUOUS
10
143.25
20
-87.89
11
159.25
21
-87.89
0
LINE
8
BLACK
6
CONTINUOUS
10
143.31
20
-88.01
11
143.31
21
-103.89
0
LINE
8
BLACK
6
CONTINUOUS
10
143.31
20
-103.89
11
159.19
21
-103.89
0
LINE
8
BLACK
6
CONTINUOUS
10
159.19
20
-103.89
11
159.19
21
-88.01
0
LINE
8
BLACK
6
CONTINUOUS
10
159.19
20
-88.01
11
143.31
21
-88.01
0
LINE
8
BLACK
6
CONTINUOUS
10
140.25
20
-85.515
11
140.292
21
-85.5326
0
LINE
8
BLACK
6
CONTINUOUS
10
140.292
20
-85.5326
11
140.31
21
-85.575
0
LINE
8
BLACK
6
CONTINUOUS
10
140.31
20
-85.575
11
140.31
21
-101.575
0
LINE
8
BLACK
6
CONTINUOUS
10
140.31
20
-101.575
11
140.292
21
-101.617
0
LINE
8
BLACK
6
CONTINUOUS
10
140.292
20
-101.617
11
140.25
21
-101.635
0
LINE
8
BLACK
6
CONTINUOUS
10
140.25
20
-101.635
11
124.25
21
-101.635
0
LINE
8
BLACK
6
CONTINUOUS
10
124.25
20
-101.635
11
124.208
21
-101.617
0
LINE
8
BLACK
6
CONTINUOUS
10
124.208
20
-101.617
11
124.19
21
-101.575
0
LINE
8
BLACK
6
CONTINUOUS
10
124.19
20
-101.575
11
124.19
21
-85.575
0
LINE
8
BLACK
6
CONTINUOUS
10
124.19
20
-85.575
11
124.208
21
-85.5326
0
LINE
8
BLACK
6
CONTINUOUS
10
124.208
20
-85.5326
11
124.25
21
-85.515
0
LINE
8
BLACK
6
CONTINUOUS
10
124.25
20
-85.515
11
140.25
21
-85.515
0
LINE
8
BLACK
6
CONTINUOUS
10
124.31
20
-85.635
11
124.31
21
-101.515
0
LINE
8
BLACK
6
CONTINUOUS
10
124.31
20
-101.515
11
140.19
21
-101.515
0
LINE
8
BLACK
6
CONTINUOUS
10
140.19
20
-101.515
11
140.19
21
-85.635
0
LINE
8
BLACK
6
CONTINUOUS
10
140.19
20
-85.635
11
124.31
21
-85.635
0
LINE
8
BLACK
6
CONTINUOUS
10
83.25
20
-73.64
11
83.2924
21
-73.6576
0
LINE
8
BLACK
6
CONTINUOUS
10
83.2924
20
-73.6576
11
83.31
21
-73.7
0
LINE
8
BLACK
6
CONTINUOUS
10
83.31
20
-73.7
11
83.31
21
-89.7
0
LINE
8
BLACK
6
CONTINUOUS
10
83.31
20
-89.7
11
83.2924
21
-89.7424
0
LINE
8
BLACK
6
CONTINUOUS
10
83.2924
20
-89.7424
11
83.25
21
-89.76
0
LINE
8
BLACK
6
CONTINUOUS
10
83.25
20
-89.76
11
67.25
21
-89.76
0
LINE
8
BLACK
6
CONTINUOUS
10
67.25
20
-89.76
11
67.2076
21
-89.7424
0
LINE
8
BLACK
6
CONTINUOUS
10
67.2076
20
-89.7424
11
67.19
21
-89.7
0
LINE
8
BLACK
6
CONTINUOUS
10
67.19
20
-89.7
11
67.19
21
-73.7
0
LINE
8
BLACK
6
CONTINUOUS
10
67.19
20
-73.7
11
67.2076
21
-73.6576
0
LINE
8
BLACK
6
CONTINUOUS
10
67.2076
20
-73.6576
11
67.25
21
-73.64
0
LINE
8
BLACK
6
CONTINUOUS
10
67.25
20
-73.64
11
83.25
21
-73.64
0
LINE
8
BLACK
6
CONTINUOUS
10
67.31
20
-73.76
11
67.31
21
-89.64
0
LINE
8
BLACK
6
CONTINUOUS
10
67.31
20
-89.64
11
83.19
21
-89.64
0
LINE
8
BLACK
6
CONTINUOUS
10
83.19
20
-89.64
11
83.19
21
-73.76
0
LINE
8
BLACK
6
CONTINUOUS
10
83.19
20
-73.76
11
67.31
21
-73.76
0
LINE
8
BLACK
6
CONTINUOUS
10
102.25
20
-73.64
11
102.292
21
-73.6576
0
LINE
8
BLACK
6
CONTINUOUS
10
102.292
20
-73.6576
11
102.31
21
-73.7
0
LINE
8
BLACK
6
CONTINUOUS
10
102.31
20
-73.7
11
102.31
21
-89.7
0
LINE
8
BLACK
6
CONTINUOUS
10
102.31
20
-89.7
11
102.292
21
-89.7424
0
LINE
8
BLACK
6
CONTINUOUS
10
102.292
20
-89.7424
11
102.25
21
-89.76
0
LINE
8
BLACK
6
CONTINUOUS
10
102.25
20
-89.76
11
86.25
21
-89.76
0
LINE
8
BLACK
6
CONTINUOUS
10
86.25
20
-89.76
11
86.2076
21
-89.7424
0
LINE
8
BLACK
6
CONTINUOUS
10
86.2076
20
-89.7424
11
86.19
21
-89.7
0
LINE
8
BLACK
6
CONTINUOUS
10
86.19
20
-89.7
11
86.19
21
-73.7
0
LINE
8
BLACK
6
CONTINUOUS
10
86.19
20
-73.7
11
86.2076
21
-73.6576
0
LINE
8
BLACK
6
CONTINUOUS
10
86.2076
20
-73.6576
11
86.25
21
-73.64
0
LINE
8
BLACK
6
CONTINUOUS
10
86.25
20
-73.64
11
102.25
21
-73.64
0
LINE
8
BLACK
6
CONTINUOUS
10
86.31
20
-73.76
11
86.31
21
-89.64
0
LINE
8
BLACK
6
CONTINUOUS
10
86.31
20
-89.64
11
102.19
21
-89.64
0
LINE
8
BLACK
6
CONTINUOUS
10
102.19
20
-89.64
11
102.19
21
-73.76
0
LINE
8
BLACK
6
CONTINUOUS
10
102.19
20
-73.76
11
86.31
21
-73.76
0
LINE
8
BLACK
6
CONTINUOUS
10
178.25
20
-71.265
11
178.292
21
-71.2826
0
LINE
8
BLACK
6
CONTINUOUS
10
178.292
20
-71.2826
11
178.31
21
-71.325
0
LINE
8
BLACK
6
CONTINUOUS
10
178.31
20
-71.325
11
178.31
21
-87.325
0
LINE
8
BLACK
6
CONTINUOUS
10
178.31
20
-87.325
11
178.292
21
-87.3674
0
LINE
8
BLACK
6
CONTINUOUS
10
178.292
20
-87.3674
11
178.25
21
-87.385
0
LINE
8
BLACK
6
CONTINUOUS
10
178.25
20
-87.385
11
162.25
21
-87.385
0
LINE
8
BLACK
6
CONTINUOUS
10
162.25
20
-87.385
11
162.208
21
-87.3674
0
LINE
8
BLACK
6
CONTINUOUS
10
162.208
20
-87.3674
11
162.19
21
-87.325
0
LINE
8
BLACK
6
CONTINUOUS
10
162.19
20
-87.325
11
162.19
21
-71.325
0
LINE
8
BLACK
6
CONTINUOUS
10
162.19
20
-71.325
11
162.208
21
-71.2826
0
LINE
8
BLACK
6
CONTINUOUS
10
162.208
20
-71.2826
11
162.25
21
-71.265
0
LINE
8
BLACK
6
CONTINUOUS
10
162.25
20
-71.265
11
178.25
21
-71.265
0
LINE
8
BLACK
6
CONTINUOUS
10
162.31
20
-71.385
11
162.31
21
-87.265
0
LINE
8
BLACK
6
CONTINUOUS
10
162.31
20
-87.265
11
178.19
21
-87.265
0
LINE
8
BLACK
6
CONTINUOUS
10
178.19
20
-87.265
11
178.19
21
-71.385
0
LINE
8
BLACK
6
CONTINUOUS
10
178.19
20
-71.385
11
162.31
21
-71.385
0
LINE
8
BLACK
6
CONTINUOUS
10
121.25
20
-68.89
11
121.292
21
-68.9076
0
LINE
8
BLACK
6
CONTINUOUS
10
121.292
20
-68.9076
11
121.31
21
-68.95
0
LINE
8
BLACK
6
CONTINUOUS
10
121.31
20
-68.95
11
121.31
21
-84.95
0
LINE
8
BLACK
6
CONTINUOUS
10
121.31
20
-84.95
11
121.292
21
-84.9924
0
LINE
8
BLACK
6
CONTINUOUS
10
121.292
20
-84.9924
11
121.25
21
-85.01
0
LINE
8
BLACK
6
CONTINUOUS
10
121.25
20
-85.01
11
105.25
21
-85.01
0
LINE
8
BLACK
6
CONTINUOUS
10
105.25
20
-85.01
11
105.208
21
-84.9924
0
LINE
8
BLACK
6
CONTINUOUS
10
105.208
20
-84.9924
11
105.19
21
-84.95
0
LINE
8
BLACK
6
CONTINUOUS
10
105.19
20
-84.95
11
105.19
21
-68.95
0
LINE
8
BLACK
6
CONTINUOUS
10
105.19
20
-68.95
11
105.208
21
-68.9076
0
LINE
8
BLACK
6
CONTINUOUS
10
105.208
20
-68.9076
11
105.25
21
-68.89
0
LINE
8
BLACK
6
CONTINUOUS
10
105.25
20
-68.89
11
121.25
21
-68.89
0
LINE
8
BLACK
6
CONTINUOUS
10
105.31
20
-69.01
11
105.31
21
-84.89
0
LINE
8
BLACK
6
CONTINUOUS
10
105.31
20
-84.89
11
121.19
21
-84.89
0
LINE
8
BLACK
6
CONTINUOUS
10
121.19
20
-84.89
11
121.19
21
-69.01
0
LINE
8
BLACK
6
CONTINUOUS
10
121.19
20
-69.01
11
105.31
21
-69.01
0
LINE
8
BLACK
6
CONTINUOUS
10
159.25
20
-68.89
11
159.292
21
-68.9076
0
LINE
8
BLACK
6
CONTINUOUS
10
159.292
20
-68.9076
11
159.31
21
-68.95
0
LINE
8
BLACK
6
CONTINUOUS
10
159.31
20
-68.95
11
159.31
21
-84.95
0
LINE
8
BLACK
6
CONTINUOUS
10
159.31
20
-84.95
11
159.292
21
-84.9924
0
LINE
8
BLACK
6
CONTINUOUS
10
159.292
20
-84.9924
11
159.25
21
-85.01
0
LINE
8
BLACK
6
CONTINUOUS
10
159.25
20
-85.01
11
143.25
21
-85.01
0
LINE
8
BLACK
6
CONTINUOUS
10
143.25
20
-85.01
11
143.208
21
-84.9924
0
LINE
8
BLACK
6
CONTINUOUS
10
143.208
20
-84.9924
11
143.19
21
-84.95
0
LINE
8
BLACK
6
CONTINUOUS
10
143.19
20
-84.95
11
143.19
21
-68.95
0
LINE
8
BLACK
6
CONTINUOUS
10
143.19
20
-68.95
11
143.208
21
-68.9076
0
LINE
8
BLACK
6
CONTINUOUS
10
143.208
20
-68.9076
11
143.25
21
-68.89
0
LINE
8
BLACK
6
CONTINUOUS
10
143.25
20
-68.89
11
159.25
21
-68.89
0
LINE
8
BLACK
6
CONTINUOUS
10
143.31
20
-69.01
11
143.31
21
-84.89
0
LINE
8
BLACK
6
CONTINUOUS
10
143.31
20
-84.89
11
159.19
21
-84.89
0
LINE
8
BLACK
6
CONTINUOUS
10
159.19
20
-84.89
11
159.19
21
-69.01
0
LINE
8
BLACK
6
CONTINUOUS
10
159.19
20
-69.01
11
143.31
21
-69.01
0
LINE
8
BLACK
6
CONTINUOUS
10
140.25
20
-66.515
11
140.292
21
-66.5326
0
LINE
8
BLACK
6
CONTINUOUS
10
140.292
20
-66.5326
11
140.31
21
-66.575
0
LINE
8
BLACK
6
CONTINUOUS
10
140.31
20
-66.575
11
140.31
21
-82.575
0
LINE
8
BLACK
6
CONTINUOUS
10
140.31
20
-82.575
11
140.292
21
-82.6174
0
LINE
8
BLACK
6
CONTINUOUS
10
140.292
20
-82.6174
11
140.25
21
-82.635
0
LINE
8
BLACK
6
CONTINUOUS
10
140.25
20
-82.635
11
124.25
21
-82.635
0
LINE
8
BLACK
6
CONTINUOUS
10
124.25
20
-82.635
11
124.208
21
-82.6174
0
LINE
8
BLACK
6
CONTINUOUS
10
124.208
20
-82.6174
11
124.19
21
-82.575
0
LINE
8
BLACK
6
CONTINUOUS
10
124.19
20
-82.575
11
124.19
21
-66.575
0
LINE
8
BLACK
6
CONTINUOUS
10
124.19
20
-66.575
11
124.208
21
-66.5326
0
LINE
8
BLACK
6
CONTINUOUS
10
124.208
20
-66.5326
11
124.25
21
-66.515
0
LINE
8
BLACK
6
CONTINUOUS
10
124.25
20
-66.515
11
140.25
21
-66.515
0
LINE
8
BLACK
6
CONTINUOUS
10
124.31
20
-66.635
11
124.31
21
-82.515
0
LINE
8
BLACK
6
CONTINUOUS
10
124.31
20
-82.515
11
140.19
21
-82.515
0
LINE
8
BLACK
6
CONTINUOUS
10
140.19
20
-82.515
11
140.19
21
-66.635
0
LINE
8
BLACK
6
CONTINUOUS
10
140.19
20
-66.635
11
124.31
21
-66.635
0
LINE
8
BLACK
6
CONTINUOUS
10
83.25
20
-54.64
11
83.2924
21
-54.6576
0
LINE
8
BLACK
6
CONTINUOUS
10
83.2924
20
-54.6576
11
83.31
21
-54.7
0
LINE
8
BLACK
6
CONTINUOUS
10
83.31
20
-54.7
11
83.31
21
-70.7
0
LINE
8
BLACK
6
CONTINUOUS
10
83.31
20
-70.7
11
83.2924
21
-70.7424
0
LINE
8
BLACK
6
CONTINUOUS
10
83.2924
20
-70.7424
11
83.25
21
-70.76
0
LINE
8
BLACK
6
CONTINUOUS
10
83.25
20
-70.76
11
67.25
21
-70.76
0
LINE
8
BLACK
6
CONTINUOUS
10
67.25
20
-70.76
11
67.2076
21
-70.7424
0
LINE
8
BLACK
6
CONTINUOUS
10
67.2076
20
-70.7424
11
67.19
21
-70.7
0
LINE
8
BLACK
6
CONTINUOUS
10
67.19
20
-70.7
11
67.19
21
-54.7
0
LINE
8
BLACK
6
CONTINUOUS
10
67.19
20
-54.7
11
67.2076
21
-54.6576
0
LINE
8
BLACK
6
CONTINUOUS
10
67.2076
20
-54.6576
11
67.25
21
-54.64
0
LINE
8
BLACK
6
CONTINUOUS
10
67.25
20
-54.64
11
83.25
21
-54.64
0
LINE
8
BLACK
6
CONTINUOUS
10
67.31
20
-54.76
11
67.31
21
-70.64
0
LINE
8
BLACK
6
CONTINUOUS
10
67.31
20
-70.64
11
83.19
21
-70.64
0
LINE
8
BLACK
6
CONTINUOUS
10
83.19
20
-70.64
11
83.19
21
-54.76
0
LINE
8
BLACK
6
CONTINUOUS
10
83.19
20
-54.76
11
67.31
21
-54.76
0
LINE
8
BLACK
6
CONTINUOUS
10
102.25
20
-54.64
11
102.292
21
-54.6576
0
LINE
8
BLACK
6
CONTINUOUS
10
102.292
20
-54.6576
11
102.31
21
-54.7
0
LINE
8
BLACK
6
CONTINUOUS
10
102.31
20
-54.7
11
102.31
21
-70.7
0
LINE
8
BLACK
6
CONTINUOUS
10
102.31
20
-70.7
11
102.292
21
-70.7424
0
LINE
8
BLACK
6
CONTINUOUS
10
102.292
20
-70.7424
11
102.25
21
-70.76
0
LINE
8
BLACK
6
CONTINUOUS
10
102.25
20
-70.76
11
86.25
21
-70.76
0
LINE
8
BLACK
6
CONTINUOUS
10
86.25
20
-70.76
11
86.2076
21
-70.7424
0
LINE
8
BLACK
6
CONTINUOUS
10
86.2076
20
-70.7424
11
86.19
21
-70.7
0
LINE
8
BLACK
6
CONTINUOUS
10
86.19
20
-70.7
11
86.19
21
-54.7
0
LINE
8
BLACK
6
CONTINUOUS
10
86.19
20
-54.7
11
86.2076
21
-54.6576
0
LINE
8
BLACK
6
CONTINUOUS
10
86.2076
20
-54.6576
11
86.25
21
-54.64
0
LINE
8
BLACK
6
CONTINUOUS
10
86.25
20
-54.64
11
102.25
21
-54.64
0
LINE
8
BLACK
6
CONTINUOUS
10
86.31
20
-54.76
11
86.31
21
-70.64
0
LINE
8
BLACK
6
CONTINUOUS
10
86.31
20
-70.64
11
102.19
21
-70.64
0
LINE
8
BLACK
6
CONTINUOUS
10
102.19
20
-70.64
11
102.19
21
-54.76
0
LINE
8
BLACK
6
CONTINUOUS
10
102.19
20
-54.76
11
86.31
21
-54.76
0
LINE
8
BLACK
6
CONTINUOUS
10
178.25
20
-52.265
11
178.292
21
-52.2826
0
LINE
8
BLACK
6
CONTINUOUS
10
178.292
20
-52.2826
11
178.31
21
-52.325
0
LINE
8
BLACK
6
CONTINUOUS
10
178.31
20
-52.325
11
178.31
21
-68.325
0
LINE
8
BLACK
6
CONTINUOUS
10
178.31
20
-68.325
11
178.292
21
-68.3674
0
LINE
8
BLACK
6
CONTINUOUS
10
178.292
20
-68.3674
11
178.25
21
-68.385
0
LINE
8
BLACK
6
CONTINUOUS
10
178.25
20
-68.385
11
162.25
21
-68.385
0
LINE
8
BLACK
6
CONTINUOUS
10
162.25
20
-68.385
11
162.208
21
-68.3674
0
LINE
8
BLACK
6
CONTINUOUS
10
162.208
20
-68.3674
11
162.19
21
-68.325
0
LINE
8
BLACK
6
CONTINUOUS
10
162.19
20
-68.325
11
162.19
21
-52.325
0
LINE
8
BLACK
6
CONTINUOUS
10
162.19
20
-52.325
11
162.208
21
-52.2826
0
LINE
8
BLACK
6
CONTINUOUS
10
162.208
20
-52.2826
11
162.25
21
-52.265
0
LINE
8
BLACK
6
CONTINUOUS
10
162.25
20
-52.265
11
178.25
21
-52.265
0
LINE
8
BLACK
6
CONTINUOUS
10
162.31
20
-52.385
11
162.31
21
-68.265
0
LINE
8
BLACK
6
CONTINUOUS
10
162.31
20
-68.265
11
178.19
21
-68.265
0
LINE
8
BLACK
6
CONTINUOUS
10
178.19
20
-68.265
11
178.19
21
-52.385
0
LINE
8
BLACK
6
CONTINUOUS
10
178.19
20
-52.385
11
162.31
21
-52.385
0
LINE
8
BLACK
6
CONTINUOUS
10
121.25
20
-49.89
11
121.292
21
-49.9076
0
LINE
8
BLACK
6
CONTINUOUS
10
121.292
20
-49.9076
11
121.31
21
-49.95
0
LINE
8
BLACK
6
CONTINUOUS
10
121.31
20
-49.95
11
121.31
21
-65.95
0
LINE
8
BLACK
6
CONTINUOUS
10
121.31
20
-65.95
11
121.292
21
-65.9924
0
LINE
8
BLACK
6
CONTINUOUS
10
121.292
20
-65.9924
11
121.25
21
-66.01
0
LINE
8
BLACK
6
CONTINUOUS
10
121.25
20
-66.01
11
105.25
21
-66.01
0
LINE
8
BLACK
6
CONTINUOUS
10
105.25
20
-66.01
11
105.208
21
-65.9924
0
LINE
8
BLACK
6
CONTINUOUS
10
105.208
20
-65.9924
11
105.19
21
-65.95
0
LINE
8
BLACK
6
CONTINUOUS
10
105.19
20
-65.95
11
105.19
21
-49.95
0
LINE
8
BLACK
6
CONTINUOUS
10
105.19
20
-49.95
11
105.208
21
-49.9076
0
LINE
8
BLACK
6
CONTINUOUS
10
105.208
20
-49.9076
11
105.25
21
-49.89
0
LINE
8
BLACK
6
CONTINUOUS
10
105.25
20
-49.89
11
121.25
21
-49.89
0
LINE
8
BLACK
6
CONTINUOUS
10
105.31
20
-50.01
11
105.31
21
-65.89
0
LINE
8
BLACK
6
CONTINUOUS
10
105.31
20
-65.89
11
121.19
21
-65.89
0
LINE
8
BLACK
6
CONTINUOUS
10
121.19
20
-65.89
11
121.19
21
-50.01
0
LINE
8
BLACK
6
CONTINUOUS
10
121.19
20
-50.01
11
105.31
21
-50.01
0
LINE
8
BLACK
6
CONTINUOUS
10
159.25
20
-49.89
11
159.292
21
-49.9076
0
LINE
8
BLACK
6
CONTINUOUS
10
159.292
20
-49.9076
11
159.31
21
-49.95
0
LINE
8
BLACK
6
CONTINUOUS
10
159.31
20
-49.95
11
159.31
21
-65.95
0
LINE
8
BLACK
6
CONTINUOUS
10
159.31
20
-65.95
11
159.292
21
-65.9924
0
LINE
8
BLACK
6
CONTINUOUS
10
159.292
20
-65.9924
11
159.25
21
-66.01
0
LINE
8
BLACK
6
CONTINUOUS
10
159.25
20
-66.01
11
143.25
21
-66.01
0
LINE
8
BLACK
6
CONTINUOUS
10
143.25
20
-66.01
11
143.208
21
-65.9924
0
LINE
8
BLACK
6
CONTINUOUS
10
143.208
20
-65.9924
11
143.19
21
-65.95
0
LINE
8
BLACK
6
CONTINUOUS
10
143.19
20
-65.95
11
143.19
21
-49.95
0
LINE
8
BLACK
6
CONTINUOUS
10
143.19
20
-49.95
11
143.208
21
-49.9076
0
LINE
8
BLACK
6
CONTINUOUS
10
143.208
20
-49.9076
11
143.25
21
-49.89
0
LINE
8
BLACK
6
CONTINUOUS
10
143.25
20
-49.89
11
159.25
21
-49.89
0
LINE
8
BLACK
6
CONTINUOUS
10
143.31
20
-50.01
11
143.31
21
-65.89
0
LINE
8
BLACK
6
CONTINUOUS
10
143.31
20
-65.89
11
159.19
21
-65.89
0
LINE
8
BLACK
6
CONTINUOUS
10
159.19
20
-65.89
11
159.19
21
-50.01
0
LINE
8
BLACK
6
CONTINUOUS
10
159.19
20
-50.01
11
143.31
21
-50.01
0
LINE
8
BLACK
6
CONTINUOUS
10
140.25
20
-47.515
11
140.292
21
-47.5326
0
LINE
8
BLACK
6
CONTINUOUS
10
140.292
20
-47.5326
11
140.31
21
-47.575
0
LINE
8
BLACK
6
CONTINUOUS
10
140.31
20
-47.575
11
140.31
21
-63.575
0
LINE
8
BLACK
6
CONTINUOUS
10
140.31
20
-63.575
11
140.292
21
-63.6174
0
LINE
8
BLACK
6
CONTINUOUS
10
140.292
20
-63.6174
11
140.25
21
-63.635
0
LINE
8
BLACK
6
CONTINUOUS
10
140.25
20
-63.635
11
124.25
21
-63.635
0
LINE
8
BLACK
6
CONTINUOUS
10
124.25
20
-63.635
11
124.208
21
-63.6174
0
LINE
8
BLACK
6
CONTINUOUS
10
124.208
20
-63.6174
11
124.19
21
-63.575
0
LINE
8
BLACK
6
CONTINUOUS
10
124.19
20
-63.575
11
124.19
21
-47.575
0
LINE
8
BLACK
6
CONTINUOUS
10
124.19
20
-47.575
11
124.208
21
-47.5326
0
LINE
8
BLACK
6
CONTINUOUS
10
124.208
20
-47.5326
11
124.25
21
-47.515
0
LINE
8
BLACK
6
CONTINUOUS
10
124.25
20
-47.515
11
140.25
21
-47.515
0
LINE
8
BLACK
6
CONTINUOUS
10
124.31
20
-47.635
11
124.31
21
-63.515
0
LINE
8
BLACK
6
CONTINUOUS
10
124.31
20
-63.515
11
140.19
21
-63.515
0
LINE
8
BLACK
6
CONTINUOUS
10
140.19
20
-63.515
11
140.19
21
-47.635
0
LINE
8
BLACK
6
CONTINUOUS
10
140.19
20
-47.635
11
124.31
21
-47.635
0
LINE
8
BLACK
6
CONTINUOUS
10
83.25
20
-35.64
11
83.2924
21
-35.6576
0
LINE
8
BLACK
6
CONTINUOUS
10
83.2924
20
-35.6576
11
83.31
21
-35.7
0
LINE
8
BLACK
6
CONTINUOUS
10
83.31
20
-35.7
11
83.31
21
-51.7
0
LINE
8
BLACK
6
CONTINUOUS
10
83.31
20
-51.7
11
83.2924
21
-51.7424
0
LINE
8
BLACK
6
CONTINUOUS
10
83.2924
20
-51.7424
11
83.25
21
-51.76
0
LINE
8
BLACK
6
CONTINUOUS
10
83.25
20
-51.76
11
67.25
21
-51.76
0
LINE
8
BLACK
6
CONTINUOUS
10
67.25
20
-51.76
11
67.2076
21
-51.7424
0
LINE
8
BLACK
6
CONTINUOUS
10
67.2076
20
-51.7424
11
67.19
21
-51.7
0
LINE
8
BLACK
6
CONTINUOUS
10
67.19
20
-51.7
11
67.19
21
-35.7
0
LINE
8
BLACK
6
CONTINUOUS
10
67.19
20
-35.7
11
67.2076
21
-35.6576
0
LINE
8
BLACK
6
CONTINUOUS
10
67.2076
20
-35.6576
11
67.25
21
-35.64
0
LINE
8
BLACK
6
CONTINUOUS
10
67.25
20
-35.64
11
83.25
21
-35.64
0
LINE
8
BLACK
6
CONTINUOUS
10
67.31
20
-35.76
11
67.31
21
-51.64
0
LINE
8
BLACK
6
CONTINUOUS
10
67.31
20
-51.64
11
83.19
21
-51.64
0
LINE
8
BLACK
6
CONTINUOUS
10
83.19
20
-51.64
11
83.19
21
-35.76
0
LINE
8
BLACK
6
CONTINUOUS
10
83.19
20
-35.76
11
67.31
21
-35.76
0
LINE
8
BLACK
6
CONTINUOUS
10
102.25
20
-35.64
11
102.292
21
-35.6576
0
LINE
8
BLACK
6
CONTINUOUS
10
102.292
20
-35.6576
11
102.31
21
-35.7
0
LINE
8
BLACK
6
CONTINUOUS
10
102.31
20
-35.7
11
102.31
21
-51.7
0
LINE
8
BLACK
6
CONTINUOUS
10
102.31
20
-51.7
11
102.292
21
-51.7424
0
LINE
8
BLACK
6
CONTINUOUS
10
102.292
20
-51.7424
11
102.25
21
-51.76
0
LINE
8
BLACK
6
CONTINUOUS
10
102.25
20
-51.76
11
86.25
21
-51.76
0
LINE
8
BLACK
6
CONTINUOUS
10
86.25
20
-51.76
11
86.2076
21
-51.7424
0
LINE
8
BLACK
6
CONTINUOUS
10
86.2076
20
-51.7424
11
86.19
21
-51.7
0
LINE
8
BLACK
6
CONTINUOUS
10
86.19
20
-51.7
11
86.19
21
-35.7
0
LINE
8
BLACK
6
CONTINUOUS
10
86.19
20
-35.7
11
86.2076
21
-35.6576
0
LINE
8
BLACK
6
CONTINUOUS
10
86.2076
20
-35.6576
11
86.25
21
-35.64
0
LINE
8
BLACK
6
CONTINUOUS
10
86.25
20
-35.64
11
102.25
21
-35.64
0
LINE
8
BLACK
6
CONTINUOUS
10
86.31
20
-35.76
11
86.31
21
-51.64
0
LINE
8
BLACK
6
CONTINUOUS
10
86.31
20
-51.64
11
102.19
21
-51.64
0
LINE
8
BLACK
6
CONTINUOUS
10
102.19
20
-51.64
11
102.19
21
-35.76
0
LINE
8
BLACK
6
CONTINUOUS
10
102.19
20
-35.76
11
86.31
21
-35.76
0
LINE
8
BLACK
6
CONTINUOUS
10
178.25
20
-33.265
11
178.292
21
-33.2826
0
LINE
8
BLACK
6
CONTINUOUS
10
178.292
20
-33.2826
11
178.31
21
-33.325
0
LINE
8
BLACK
6
CONTINUOUS
10
178.31
20
-33.325
11
178.31
21
-49.325
0
LINE
8
BLACK
6
CONTINUOUS
10
178.31
20
-49.325
11
178.292
21
-49.3674
0
LINE
8
BLACK
6
CONTINUOUS
10
178.292
20
-49.3674
11
178.25
21
-49.385
0
LINE
8
BLACK
6
CONTINUOUS
10
178.25
20
-49.385
11
162.25
21
-49.385
0
LINE
8
BLACK
6
CONTINUOUS
10
162.25
20
-49.385
11
162.208
21
-49.3674
0
LINE
8
BLACK
6
CONTINUOUS
10
162.208
20
-49.3674
11
162.19
21
-49.325
0
LINE
8
BLACK
6
CONTINUOUS
10
162.19
20
-49.325
11
162.19
21
-33.325
0
LINE
8
BLACK
6
CONTINUOUS
10
162.19
20
-33.325
11
162.208
21
-33.2826
0
LINE
8
BLACK
6
CONTINUOUS
10
162.208
20
-33.2826
11
162.25
21
-33.265
0
LINE
8
BLACK
6
CONTINUOUS
10
162.25
20
-33.265
11
178.25
21
-33.265
0
LINE
8
BLACK
6
CONTINUOUS
10
162.31
20
-33.385
11
162.31
21
-49.265
0
LINE
8
BLACK
6
CONTINUOUS
10
162.31
20
-49.265
11
178.19
21
-49.265
0
LINE
8
BLACK
6
CONTINUOUS
10
178.19
20
-49.265
11
178.19
21
-33.385
0
LINE
8
BLACK
6
CONTINUOUS
10
178.19
20
-33.385
11
162.31
21
-33.385
0
LINE
8
BLACK
6
CONTINUOUS
10
121.25
20
-30.89
11
121.292
21
-30.9076
0
LINE
8
BLACK
6
CONTINUOUS
10
121.292
20
-30.9076
11
121.31
21
-30.95
0
LINE
8
BLACK
6
CONTINUOUS
10
121.31
20
-30.95
11
121.31
21
-46.95
0
LINE
8
BLACK
6
CONTINUOUS
10
121.31
20
-46.95
11
121.292
21
-46.9924
0
LINE
8
BLACK
6
CONTINUOUS
10
121.292
20
-46.9924
11
121.25
21
-47.01
0
LINE
8
BLACK
6
CONTINUOUS
10
121.25
20
-47.01
11
105.25
21
-47.01
0
LINE
8
BLACK
6
CONTINUOUS
10
105.25
20
-47.01
11
105.208
21
-46.9924
0
LINE
8
BLACK
6
CONTINUOUS
10
105.208
20
-46.9924
11
105.19
21
-46.95
0
LINE
8
BLACK
6
CONTINUOUS
10
105.19
20
-46.95
11
105.19
21
-30.95
0
LINE
8
BLACK
6
CONTINUOUS
10
105.19
20
-30.95
11
105.208
21
-30.9076
0
LINE
8
BLACK
6
CONTINUOUS
10
105.208
20
-30.9076
11
105.25
21
-30.89
0
LINE
8
BLACK
6
CONTINUOUS
10
105.25
20
-30.89
11
121.25
21
-30.89
0
LINE
8
BLACK
6
CONTINUOUS
10
105.31
20
-31.01
11
105.31
21
-46.89
0
LINE
8
BLACK
6
CONTINUOUS
10
105.31
20
-46.89
11
121.19
21
-46.89
0
LINE
8
BLACK
6
CONTINUOUS
10
121.19
20
-46.89
11
121.19
21
-31.01
0
LINE
8
BLACK
6
CONTINUOUS
10
121.19
20
-31.01
11
105.31
21
-31.01
0
LINE
8
BLACK
6
CONTINUOUS
10
159.25
20
-30.89
11
159.292
21
-30.9076
0
LINE
8
BLACK
6
CONTINUOUS
10
159.292
20
-30.9076
11
159.31
21
-30.95
0
LINE
8
BLACK
6
CONTINUOUS
10
159.31
20
-30.95
11
159.31
21
-46.95
0
LINE
8
BLACK
6
CONTINUOUS
10
159.31
20
-46.95
11
159.292
21
-46.9924
0
LINE
8
BLACK
6
CONTINUOUS
10
159.292
20
-46.9924
11
159.25
21
-47.01
0
LINE
8
BLACK
6
CONTINUOUS
10
159.25
20
-47.01
11
143.25
21
-47.01
0
LINE
8
BLACK
6
CONTINUOUS
10
143.25
20
-47.01
11
143.208
21
-46.9924
0
LINE
8
BLACK
6
CONTINUOUS
10
143.208
20
-46.9924
11
143.19
21
-46.95
0
LINE
8
BLACK
6
CONTINUOUS
10
143.19
20
-46.95
11
143.19
21
-30.95
0
LINE
8
BLACK
6
CONTINUOUS
10
143.19
20
-30.95
11
143.208
21
-30.9076
0
LINE
8
BLACK
6
CONTINUOUS
10
143.208
20
-30.9076
11
143.25
21
-30.89
0
LINE
8
BLACK
6
CONTINUOUS
10
143.25
20
-30.89
11
159.25
21
-30.89
0
LINE
8
BLACK
6
CONTINUOUS
10
143.31
20
-31.01
11
143.31
21
-46.89
0
LINE
8
BLACK
6
CONTINUOUS
10
143.31
20
-46.89
11
159.19
21
-46.89
0
LINE
8
BLACK
6
CONTINUOUS
10
159.19
20
-46.89
11
159.19
21
-31.01
0
LINE
8
BLACK
6
CONTINUOUS
10
159.19
20
-31.01
11
143.31
21
-31.01
0
LINE
8
BLACK
6
CONTINUOUS
10
140.25
20
-28.515
11
140.292
21
-28.5326
0
LINE
8
BLACK
6
CONTINUOUS
10
140.292
20
-28.5326
11
140.31
21
-28.575
0
LINE
8
BLACK
6
CONTINUOUS
10
140.31
20
-28.575
11
140.31
21
-44.575
0
LINE
8
BLACK
6
CONTINUOUS
10
140.31
20
-44.575
11
140.292
21
-44.6174
0
LINE
8
BLACK
6
CONTINUOUS
10
140.292
20
-44.6174
11
140.25
21
-44.635
0
LINE
8
BLACK
6
CONTINUOUS
10
140.25
20
-44.635
11
124.25
21
-44.635
0
LINE
8
BLACK
6
CONTINUOUS
10
124.25
20
-44.635
11
124.208
21
-44.6174
0
LINE
8
BLACK
6
CONTINUOUS
10
124.208
20
-44.6174
11
124.19
21
-44.575
0
LINE
8
BLACK
6
CONTINUOUS
10
124.19
20
-44.575
11
124.19
21
-28.575
0
LINE
8
BLACK
6
CONTINUOUS
10
124.19
20
-28.575
11
124.208
21
-28.5326
0
LINE
8
BLACK
6
CONTINUOUS
10
124.208
20
-28.5326
11
124.25
21
-28.515
0
LINE
8
BLACK
6
CONTINUOUS
10
124.25
20
-28.515
11
140.25
21
-28.515
0
LINE
8
BLACK
6
CONTINUOUS
10
124.31
20
-28.635
11
124.31
21
-44.515
0
LINE
8
BLACK
6
CONTINUOUS
10
124.31
20
-44.515
11
140.19
21
-44.515
0
LINE
8
BLACK
6
CONTINUOUS
10
140.19
20
-44.515
11
140.19
21
-28.635
0
LINE
8
BLACK
6
CONTINUOUS
10
140.19
20
-28.635
11
124.31
21
-28.635
0
LINE
8
BLACK
6
CONTINUOUS
10
60.7425
20
-13.8849
11
61.2322
21
-13.9645
0
LINE
8
BLACK
6
CONTINUOUS
10
61.2322
20
-13.9645
11
61.7138
21
-14.0832
0
LINE
8
BLACK
6
CONTINUOUS
10
61.7138
20
-14.0832
11
62.1844
21
-14.2403
0
LINE
8
BLACK
6
CONTINUOUS
10
62.1844
20
-14.2403
11
62.6407
21
-14.4347
0
LINE
8
BLACK
6
CONTINUOUS
10
62.6407
20
-14.4347
11
63.08
21
-14.6653
0
LINE
8
BLACK
6
CONTINUOUS
10
63.08
20
-14.6653
11
63.4993
21
-14.9304
0
LINE
8
BLACK
6
CONTINUOUS
10
63.4993
20
-14.9304
11
63.8959
21
-15.2284
0
LINE
8
BLACK
6
CONTINUOUS
10
63.8959
20
-15.2284
11
64.2672
21
-15.5574
0
LINE
8
BLACK
6
CONTINUOUS
10
64.2672
20
-15.5574
11
64.6108
21
-15.9152
0
LINE
8
BLACK
6
CONTINUOUS
10
64.6108
20
-15.9152
11
64.9246
21
-16.2994
0
LINE
8
BLACK
6
CONTINUOUS
10
64.9246
20
-16.2994
11
65.2064
21
-16.7077
0
LINE
8
BLACK
6
CONTINUOUS
10
65.2064
20
-16.7077
11
65.4544
21
-17.1373
0
LINE
8
BLACK
6
CONTINUOUS
10
65.4544
20
-17.1373
11
65.6671
21
-17.5855
0
LINE
8
BLACK
6
CONTINUOUS
10
65.6671
20
-17.5855
11
65.843
21
-18.0493
0
LINE
8
BLACK
6
CONTINUOUS
10
65.843
20
-18.0493
11
65.981
21
-18.5258
0
LINE
8
BLACK
6
CONTINUOUS
10
65.981
20
-18.5258
11
66.0802
21
-19.0119
0
LINE
8
BLACK
6
CONTINUOUS
10
66.0802
20
-19.0119
11
66.14
21
-19.5043
0
LINE
8
BLACK
6
CONTINUOUS
10
66.14
20
-19.5043
11
66.16
21
-20
0
LINE
8
BLACK
6
CONTINUOUS
10
66.16
20
-20
11
66.14
21
-20.4957
0
LINE
8
BLACK
6
CONTINUOUS
10
66.14
20
-20.4957
11
66.0802
21
-20.9881
0
LINE
8
BLACK
6
CONTINUOUS
10
66.0802
20
-20.9881
11
65.981
21
-21.4742
0
LINE
8
BLACK
6
CONTINUOUS
10
65.981
20
-21.4742
11
65.843
21
-21.9507
0
LINE
8
BLACK
6
CONTINUOUS
10
65.843
20
-21.9507
11
65.6671
21
-22.4145
0
LINE
8
BLACK
6
CONTINUOUS
10
65.6671
20
-22.4145
11
65.4544
21
-22.8627
0
LINE
8
BLACK
6
CONTINUOUS
10
65.4544
20
-22.8627
11
65.2064
21
-23.2923
0
LINE
8
BLACK
6
CONTINUOUS
10
65.2064
20
-23.2923
11
64.9246
21
-23.7006
0
LINE
8
BLACK
6
CONTINUOUS
10
64.9246
20
-23.7006
11
64.6108
21
-24.0848
0
LINE
8
BLACK
6
CONTINUOUS
10
64.6108
20
-24.0848
11
64.2672
21
-24.4426
0
LINE
8
BLACK
6
CONTINUOUS
10
64.2672
20
-24.4426
11
63.8959
21
-24.7716
0
LINE
8
BLACK
6
CONTINUOUS
10
63.8959
20
-24.7716
11
63.4993
21
-25.0696
0
LINE
8
BLACK
6
CONTINUOUS
10
63.4993
20
-25.0696
11
63.08
21
-25.3347
0
LINE
8
BLACK
6
CONTINUOUS
10
63.08
20
-25.3347
11
62.6407
21
-25.5653
0
LINE
8
BLACK
6
CONTINUOUS
10
62.6407
20
-25.5653
11
62.1844
21
-25.7597
0
LINE
8
BLACK
6
CONTINUOUS
10
62.1844
20
-25.7597
11
61.7138
21
-25.9168
0
LINE
8
BLACK
6
CONTINUOUS
10
61.7138
20
-25.9168
11
61.2322
21
-26.0355
0
LINE
8
BLACK
6
CONTINUOUS
10
61.2322
20
-26.0355
11
60.7425
21
-26.1151
0
LINE
8
BLACK
6
CONTINUOUS
10
60.7425
20
-26.1151
11
60.248
21
-26.155
0
LINE
8
BLACK
6
CONTINUOUS
10
60.248
20
-26.155
11
59.752
21
-26.155
0
LINE
8
BLACK
6
CONTINUOUS
10
59.752
20
-26.155
11
59.2575
21
-26.1151
0
LINE
8
BLACK
6
CONTINUOUS
10
59.2575
20
-26.1151
11
58.7678
21
-26.0355
0
LINE
8
BLACK
6
CONTINUOUS
10
58.7678
20
-26.0355
11
58.2862
21
-25.9168
0
LINE
8
BLACK
6
CONTINUOUS
10
58.2862
20
-25.9168
11
57.8156
21
-25.7597
0
LINE
8
BLACK
6
CONTINUOUS
10
57.8156
20
-25.7597
11
57.3593
21
-25.5653
0
LINE
8
BLACK
6
CONTINUOUS
10
57.3593
20
-25.5653
11
56.92
21
-25.3347
0
LINE
8
BLACK
6
CONTINUOUS
10
56.92
20
-25.3347
11
56.5007
21
-25.0696
0
LINE
8
BLACK
6
CONTINUOUS
10
56.5007
20
-25.0696
11
56.1041
21
-24.7716
0
LINE
8
BLACK
6
CONTINUOUS
10
56.1041
20
-24.7716
11
55.7328
21
-24.4426
0
LINE
8
BLACK
6
CONTINUOUS
10
55.7328
20
-24.4426
11
55.3892
21
-24.0848
0
LINE
8
BLACK
6
CONTINUOUS
10
55.3892
20
-24.0848
11
55.0754
21
-23.7006
0
LINE
8
BLACK
6
CONTINUOUS
10
55.0754
20
-23.7006
11
54.7936
21
-23.2923
0
LINE
8
BLACK
6
CONTINUOUS
10
54.7936
20
-23.2923
11
54.5456
21
-22.8627
0
LINE
8
BLACK
6
CONTINUOUS
10
54.5456
20
-22.8627
11
54.3329
21
-22.4145
0
LINE
8
BLACK
6
CONTINUOUS
10
54.3329
20
-22.4145
11
54.157
21
-21.9507
0
LINE
8
BLACK
6
CONTINUOUS
10
54.157
20
-21.9507
11
54.019
21
-21.4742
0
LINE
8
BLACK
6
CONTINUOUS
10
54.019
20
-21.4742
11
53.9198
21
-20.9881
0
LINE
8
BLACK
6
CONTINUOUS
10
53.9198
20
-20.9881
11
53.86
21
-20.4957
0
LINE
8
BLACK
6
CONTINUOUS
10
53.86
20
-20.4957
11
53.84
21
-20
0
LINE
8
BLACK
6
CONTINUOUS
10
53.84
20
-20
11
53.86
21
-19.5043
0
LINE
8
BLACK
6
CONTINUOUS
10
53.86
20
-19.5043
11
53.9198
21
-19.0119
0
LINE
8
BLACK
6
CONTINUOUS
10
53.9198
20
-19.0119
11
54.019
21
-18.5258
0
LINE
8
BLACK
6
CONTINUOUS
10
54.019
20
-18.5258
11
54.157
21
-18.0493
0
LINE
8
BLACK
6
CONTINUOUS
10
54.157
20
-18.0493
11
54.3329
21
-17.5855
0
LINE
8
BLACK
6
CONTINUOUS
10
54.3329
20
-17.5855
11
54.5456
21
-17.1373
0
LINE
8
BLACK
6
CONTINUOUS
10
54.5456
20
-17.1373
11
54.7936
21
-16.7077
0
LINE
8
BLACK
6
CONTINUOUS
10
54.7936
20
-16.7077
11
55.0754
21
-16.2994
0
LINE
8
BLACK
6
CONTINUOUS
10
55.0754
20
-16.2994
11
55.3892
21
-15.9152
0
LINE
8
BLACK
6
CONTINUOUS
10
55.3892
20
-15.9152
11
55.7328
21
-15.5574
0
LINE
8
BLACK
6
CONTINUOUS
10
55.7328
20
-15.5574
11
56.1041
21
-15.2284
0
LINE
8
BLACK
6
CONTINUOUS
10
56.1041
20
-15.2284
11
56.5007
21
-14.9304
0
LINE
8
BLACK
6
CONTINUOUS
10
56.5007
20
-14.9304
11
56.92
21
-14.6653
0
LINE
8
BLACK
6
CONTINUOUS
10
56.92
20
-14.6653
11
57.3593
21
-14.4347
0
LINE
8
BLACK
6
CONTINUOUS
10
57.3593
20
-14.4347
11
57.8156
21
-14.2403
0
LINE
8
BLACK
6
CONTINUOUS
10
57.8156
20
-14.2403
11
58.2862
21
-14.0832
0
LINE
8
BLACK
6
CONTINUOUS
10
58.2862
20
-14.0832
11
58.7678
21
-13.9645
0
LINE
8
BLACK
6
CONTINUOUS
10
58.7678
20
-13.9645
11
59.2575
21
-13.8849
0
LINE
8
BLACK
6
CONTINUOUS
10
59.2575
20
-13.8849
11
59.752
21
-13.845
0
LINE
8
BLACK
6
CONTINUOUS
10
59.752
20
-13.845
11
60.248
21
-13.845
0
LINE
8
BLACK
6
CONTINUOUS
10
60.248
20
-13.845
11
60.7425
21
-13.8849
0
LINE
8
BLACK
6
CONTINUOUS
10
53.9747
20
-20.4864
11
54.0334
21
-20.9697
0
LINE
8
BLACK
6
CONTINUOUS
10
54.0334
20
-20.9697
11
54.1308
21
-21.4466
0
LINE
8
BLACK
6
CONTINUOUS
10
54.1308
20
-21.4466
11
54.2662
21
-21.9142
0
LINE
8
BLACK
6
CONTINUOUS
10
54.2662
20
-21.9142
11
54.4388
21
-22.3694
0
LINE
8
BLACK
6
CONTINUOUS
10
54.4388
20
-22.3694
11
54.6475
21
-22.8092
0
LINE
8
BLACK
6
CONTINUOUS
10
54.6475
20
-22.8092
11
54.8909
21
-23.2308
0
LINE
8
BLACK
6
CONTINUOUS
10
54.8909
20
-23.2308
11
55.1674
21
-23.6314
0
LINE
8
BLACK
6
CONTINUOUS
10
55.1674
20
-23.6314
11
55.4753
21
-24.0085
0
LINE
8
BLACK
6
CONTINUOUS
10
55.4753
20
-24.0085
11
55.8125
21
-24.3596
0
LINE
8
BLACK
6
CONTINUOUS
10
55.8125
20
-24.3596
11
56.1769
21
-24.6824
0
LINE
8
BLACK
6
CONTINUOUS
10
56.1769
20
-24.6824
11
56.5661
21
-24.9749
0
LINE
8
BLACK
6
CONTINUOUS
10
56.5661
20
-24.9749
11
56.9775
21
-25.235
0
LINE
8
BLACK
6
CONTINUOUS
10
56.9775
20
-25.235
11
57.4086
21
-25.4613
0
LINE
8
BLACK
6
CONTINUOUS
10
57.4086
20
-25.4613
11
57.8564
21
-25.6521
0
LINE
8
BLACK
6
CONTINUOUS
10
57.8564
20
-25.6521
11
58.3182
21
-25.8062
0
LINE
8
BLACK
6
CONTINUOUS
10
58.3182
20
-25.8062
11
58.7909
21
-25.9227
0
LINE
8
BLACK
6
CONTINUOUS
10
58.7909
20
-25.9227
11
59.2714
21
-26.0008
0
LINE
8
BLACK
6
CONTINUOUS
10
59.2714
20
-26.0008
11
59.7566
21
-26.04
0
LINE
8
BLACK
6
CONTINUOUS
10
59.7566
20
-26.04
11
60.2434
21
-26.04
0
LINE
8
BLACK
6
CONTINUOUS
10
60.2434
20
-26.04
11
60.7286
21
-26.0008
0
LINE
8
BLACK
6
CONTINUOUS
10
60.7286
20
-26.0008
11
61.2091
21
-25.9227
0
LINE
8
BLACK
6
CONTINUOUS
10
61.2091
20
-25.9227
11
61.6818
21
-25.8062
0
LINE
8
BLACK
6
CONTINUOUS
10
61.6818
20
-25.8062
11
62.1436
21
-25.6521
0
LINE
8
BLACK
6
CONTINUOUS
10
62.1436
20
-25.6521
11
62.5914
21
-25.4613
0
LINE
8
BLACK
6
CONTINUOUS
10
62.5914
20
-25.4613
11
63.0225
21
-25.235
0
LINE
8
BLACK
6
CONTINUOUS
10
63.0225
20
-25.235
11
63.4339
21
-24.9749
0
LINE
8
BLACK
6
CONTINUOUS
10
63.4339
20
-24.9749
11
63.8231
21
-24.6824
0
LINE
8
BLACK
6
CONTINUOUS
10
63.8231
20
-24.6824
11
64.1875
21
-24.3596
0
LINE
8
BLACK
6
CONTINUOUS
10
64.1875
20
-24.3596
11
64.5247
21
-24.0085
0
LINE
8
BLACK
6
CONTINUOUS
10
64.5247
20
-24.0085
11
64.8326
21
-23.6314
0
LINE
8
BLACK
6
CONTINUOUS
10
64.8326
20
-23.6314
11
65.1091
21
-23.2308
0
LINE
8
BLACK
6
CONTINUOUS
10
65.1091
20
-23.2308
11
65.3525
21
-22.8092
0
LINE
8
BLACK
6
CONTINUOUS
10
65.3525
20
-22.8092
11
65.5612
21
-22.3694
0
LINE
8
BLACK
6
CONTINUOUS
10
65.5612
20
-22.3694
11
65.7338
21
-21.9142
0
LINE
8
BLACK
6
CONTINUOUS
10
65.7338
20
-21.9142
11
65.8692
21
-21.4466
0
LINE
8
BLACK
6
CONTINUOUS
10
65.8692
20
-21.4466
11
65.9666
21
-20.9697
0
LINE
8
BLACK
6
CONTINUOUS
10
65.9666
20
-20.9697
11
66.0253
21
-20.4864
0
LINE
8
BLACK
6
CONTINUOUS
10
66.0253
20
-20.4864
11
66.0449
21
-20
0
LINE
8
BLACK
6
CONTINUOUS
10
66.0449
20
-20
11
66.0253
21
-19.5136
0
LINE
8
BLACK
6
CONTINUOUS
10
66.0253
20
-19.5136
11
65.9666
21
-19.0303
0
LINE
8
BLACK
6
CONTINUOUS
10
65.9666
20
-19.0303
11
65.8692
21
-18.5534
0
LINE
8
BLACK
6
CONTINUOUS
10
65.8692
20
-18.5534
11
65.7338
21
-18.0858
0
LINE
8
BLACK
6
CONTINUOUS
10
65.7338
20
-18.0858
11
65.5612
21
-17.6306
0
LINE
8
BLACK
6
CONTINUOUS
10
65.5612
20
-17.6306
11
65.3525
21
-17.1908
0
LINE
8
BLACK
6
CONTINUOUS
10
65.3525
20
-17.1908
11
65.1091
21
-16.7692
0
LINE
8
BLACK
6
CONTINUOUS
10
65.1091
20
-16.7692
11
64.8326
21
-16.3686
0
LINE
8
BLACK
6
CONTINUOUS
10
64.8326
20
-16.3686
11
64.5247
21
-15.9915
0
LINE
8
BLACK
6
CONTINUOUS
10
64.5247
20
-15.9915
11
64.1875
21
-15.6404
0
LINE
8
BLACK
6
CONTINUOUS
10
64.1875
20
-15.6404
11
63.8231
21
-15.3176
0
LINE
8
BLACK
6
CONTINUOUS
10
63.8231
20
-15.3176
11
63.4339
21
-15.0251
0
LINE
8
BLACK
6
CONTINUOUS
10
63.4339
20
-15.0251
11
63.0225
21
-14.765
0
LINE
8
BLACK
6
CONTINUOUS
10
63.0225
20
-14.765
11
62.5914
21
-14.5387
0
LINE
8
BLACK
6
CONTINUOUS
10
62.5914
20
-14.5387
11
62.1436
21
-14.3479
0
LINE
8
BLACK
6
CONTINUOUS
10
62.1436
20
-14.3479
11
61.6818
21
-14.1938
0
LINE
8
BLACK
6
CONTINUOUS
10
61.6818
20
-14.1938
11
61.2091
21
-14.0773
0
LINE
8
BLACK
6
CONTINUOUS
10
61.2091
20
-14.0773
11
60.7286
21
-13.9992
0
LINE
8
BLACK
6
CONTINUOUS
10
60.7286
20
-13.9992
11
60.2434
21
-13.96
0
LINE
8
BLACK
6
CONTINUOUS
10
60.2434
20
-13.96
11
59.7566
21
-13.96
0
LINE
8
BLACK
6
CONTINUOUS
10
59.7566
20
-13.96
11
59.2714
21
-13.9992
0
LINE
8
BLACK
6
CONTINUOUS
10
59.2714
20
-13.9992
11
58.7909
21
-14.0773
0
LINE
8
BLACK
6
CONTINUOUS
10
58.7909
20
-14.0773
11
58.3182
21
-14.1938
0
LINE
8
BLACK
6
CONTINUOUS
10
58.3182
20
-14.1938
11
57.8564
21
-14.3479
0
LINE
8
BLACK
6
CONTINUOUS
10
57.8564
20
-14.3479
11
57.4086
21
-14.5387
0
LINE
8
BLACK
6
CONTINUOUS
10
57.4086
20
-14.5387
11
56.9775
21
-14.765
0
LINE
8
BLACK
6
CONTINUOUS
10
56.9775
20
-14.765
11
56.5661
21
-15.0251
0
LINE
8
BLACK
6
CONTINUOUS
10
56.5661
20
-15.0251
11
56.1769
21
-15.3176
0
LINE
8
BLACK
6
CONTINUOUS
10
56.1769
20
-15.3176
11
55.8125
21
-15.6404
0
LINE
8
BLACK
6
CONTINUOUS
10
55.8125
20
-15.6404
11
55.4753
21
-15.9915
0
LINE
8
BLACK
6
CONTINUOUS
10
55.4753
20
-15.9915
11
55.1674
21
-16.3686
0
LINE
8
BLACK
6
CONTINUOUS
10
55.1674
20
-16.3686
11
54.8909
21
-16.7692
0
LINE
8
BLACK
6
CONTINUOUS
10
54.8909
20
-16.7692
11
54.6475
21
-17.1908
0
LINE
8
BLACK
6
CONTINUOUS
10
54.6475
20
-17.1908
11
54.4388
21
-17.6306
0
LINE
8
BLACK
6
CONTINUOUS
10
54.4388
20
-17.6306
11
54.2662
21
-18.0858
0
LINE
8
BLACK
6
CONTINUOUS
10
54.2662
20
-18.0858
11
54.1308
21
-18.5534
0
LINE
8
BLACK
6
CONTINUOUS
10
54.1308
20
-18.5534
11
54.0334
21
-19.0303
0
LINE
8
BLACK
6
CONTINUOUS
10
54.0334
20
-19.0303
11
53.9747
21
-19.5136
0
LINE
8
BLACK
6
CONTINUOUS
10
53.9747
20
-19.5136
11
53.9551
21
-20
0
LINE
8
BLACK
6
CONTINUOUS
10
53.9551
20
-20
11
53.9747
21
-20.4864
0
LINE
8
BLACK
6
CONTINUOUS
10
200.743
20
-13.8849
11
201.232
21
-13.9645
0
LINE
8
BLACK
6
CONTINUOUS
10
201.232
20
-13.9645
11
201.714
21
-14.0832
0
LINE
8
BLACK
6
CONTINUOUS
10
201.714
20
-14.0832
11
202.184
21
-14.2403
0
LINE
8
BLACK
6
CONTINUOUS
10
202.184
20
-14.2403
11
202.641
21
-14.4347
0
LINE
8
BLACK
6
CONTINUOUS
10
202.641
20
-14.4347
11
203.08
21
-14.6653
0
LINE
8
BLACK
6
CONTINUOUS
10
203.08
20
-14.6653
11
203.499
21
-14.9304
0
LINE
8
BLACK
6
CONTINUOUS
10
203.499
20
-14.9304
11
203.896
21
-15.2284
0
LINE
8
BLACK
6
CONTINUOUS
10
203.896
20
-15.2284
11
204.267
21
-15.5574
0
LINE
8
BLACK
6
CONTINUOUS
10
204.267
20
-15.5574
11
204.611
21
-15.9152
0
LINE
8
BLACK
6
CONTINUOUS
10
204.611
20
-15.9152
11
204.925
21
-16.2994
0
LINE
8
BLACK
6
CONTINUOUS
10
204.925
20
-16.2994
11
205.206
21
-16.7077
0
LINE
8
BLACK
6
CONTINUOUS
10
205.206
20
-16.7077
11
205.454
21
-17.1373
0
LINE
8
BLACK
6
CONTINUOUS
10
205.454
20
-17.1373
11
205.667
21
-17.5855
0
LINE
8
BLACK
6
CONTINUOUS
10
205.667
20
-17.5855
11
205.843
21
-18.0493
0
LINE
8
BLACK
6
CONTINUOUS
10
205.843
20
-18.0493
11
205.981
21
-18.5258
0
LINE
8
BLACK
6
CONTINUOUS
10
205.981
20
-18.5258
11
206.08
21
-19.0119
0
LINE
8
BLACK
6
CONTINUOUS
10
206.08
20
-19.0119
11
206.14
21
-19.5043
0
LINE
8
BLACK
6
CONTINUOUS
10
206.14
20
-19.5043
11
206.16
21
-20
0
LINE
8
BLACK
6
CONTINUOUS
10
206.16
20
-20
11
206.14
21
-20.4957
0
LINE
8
BLACK
6
CONTINUOUS
10
206.14
20
-20.4957
11
206.08
21
-20.9881
0
LINE
8
BLACK
6
CONTINUOUS
10
206.08
20
-20.9881
11
205.981
21
-21.4742
0
LINE
8
BLACK
6
CONTINUOUS
10
205.981
20
-21.4742
11
205.843
21
-21.9507
0
LINE
8
BLACK
6
CONTINUOUS
10
205.843
20
-21.9507
11
205.667
21
-22.4145
0
LINE
8
BLACK
6
CONTINUOUS
10
205.667
20
-22.4145
11
205.454
21
-22.8627
0
LINE
8
BLACK
6
CONTINUOUS
10
205.454
20
-22.8627
11
205.206
21
-23.2923
0
LINE
8
BLACK
6
CONTINUOUS
10
205.206
20
-23.2923
11
204.925
21
-23.7006
0
LINE
8
BLACK
6
CONTINUOUS
10
204.925
20
-23.7006
11
204.611
21
-24.0848
0
LINE
8
BLACK
6
CONTINUOUS
10
204.611
20
-24.0848
11
204.267
21
-24.4426
0
LINE
8
BLACK
6
CONTINUOUS
10
204.267
20
-24.4426
11
203.896
21
-24.7716
0
LINE
8
BLACK
6
CONTINUOUS
10
203.896
20
-24.7716
11
203.499
21
-25.0696
0
LINE
8
BLACK
6
CONTINUOUS
10
203.499
20
-25.0696
11
203.08
21
-25.3347
0
LINE
8
BLACK
6
CONTINUOUS
10
203.08
20
-25.3347
11
202.641
21
-25.5653
0
LINE
8
BLACK
6
CONTINUOUS
10
202.641
20
-25.5653
11
202.184
21
-25.7597
0
LINE
8
BLACK
6
CONTINUOUS
10
202.184
20
-25.7597
11
201.714
21
-25.9168
0
LINE
8
BLACK
6
CONTINUOUS
10
201.714
20
-25.9168
11
201.232
21
-26.0355
0
LINE
8
BLACK
6
CONTINUOUS
10
201.232
20
-26.0355
11
200.743
21
-26.1151
0
LINE
8
BLACK
6
CONTINUOUS
10
200.743
20
-26.1151
11
200.248
21
-26.155
0
LINE
8
BLACK
6
CONTINUOUS
10
200.248
20
-26.155
11
199.752
21
-26.155
0
LINE
8
BLACK
6
CONTINUOUS
10
199.752
20
-26.155
11
199.257
21
-26.1151
0
LINE
8
BLACK
6
CONTINUOUS
10
199.257
20
-26.1151
11
198.768
21
-26.0355
0
LINE
8
BLACK
6
CONTINUOUS
10
198.768
20
-26.0355
11
198.286
21
-25.9168
0
LINE
8
BLACK
6
CONTINUOUS
10
198.286
20
-25.9168
11
197.816
21
-25.7597
0
LINE
8
BLACK
6
CONTINUOUS
10
197.816
20
-25.7597
11
197.359
21
-25.5653
0
LINE
8
BLACK
6
CONTINUOUS
10
197.359
20
-25.5653
11
196.92
21
-25.3347
0
LINE
8
BLACK
6
CONTINUOUS
10
196.92
20
-25.3347
11
196.501
21
-25.0696
0
LINE
8
BLACK
6
CONTINUOUS
10
196.501
20
-25.0696
11
196.104
21
-24.7716
0
LINE
8
BLACK
6
CONTINUOUS
10
196.104
20
-24.7716
11
195.733
21
-24.4426
0
LINE
8
BLACK
6
CONTINUOUS
10
195.733
20
-24.4426
11
195.389
21
-24.0848
0
LINE
8
BLACK
6
CONTINUOUS
10
195.389
20
-24.0848
11
195.075
21
-23.7006
0
LINE
8
BLACK
6
CONTINUOUS
10
195.075
20
-23.7006
11
194.794
21
-23.2923
0
LINE
8
BLACK
6
CONTINUOUS
10
194.794
20
-23.2923
11
194.546
21
-22.8627
0
LINE
8
BLACK
6
CONTINUOUS
10
194.546
20
-22.8627
11
194.333
21
-22.4145
0
LINE
8
BLACK
6
CONTINUOUS
10
194.333
20
-22.4145
11
194.157
21
-21.9507
0
LINE
8
BLACK
6
CONTINUOUS
10
194.157
20
-21.9507
11
194.019
21
-21.4742
0
LINE
8
BLACK
6
CONTINUOUS
10
194.019
20
-21.4742
11
193.92
21
-20.9881
0
LINE
8
BLACK
6
CONTINUOUS
10
193.92
20
-20.9881
11
193.86
21
-20.4957
0
LINE
8
BLACK
6
CONTINUOUS
10
193.86
20
-20.4957
11
193.84
21
-20
0
LINE
8
BLACK
6
CONTINUOUS
10
193.84
20
-20
11
193.86
21
-19.5043
0
LINE
8
BLACK
6
CONTINUOUS
10
193.86
20
-19.5043
11
193.92
21
-19.0119
0
LINE
8
BLACK
6
CONTINUOUS
10
193.92
20
-19.0119
11
194.019
21
-18.5258
0
LINE
8
BLACK
6
CONTINUOUS
10
194.019
20
-18.5258
11
194.157
21
-18.0493
0
LINE
8
BLACK
6
CONTINUOUS
10
194.157
20
-18.0493
11
194.333
21
-17.5855
0
LINE
8
BLACK
6
CONTINUOUS
10
194.333
20
-17.5855
11
194.546
21
-17.1373
0
LINE
8
BLACK
6
CONTINUOUS
10
194.546
20
-17.1373
11
194.794
21
-16.7077
0
LINE
8
BLACK
6
CONTINUOUS
10
194.794
20
-16.7077
11
195.075
21
-16.2994
0
LINE
8
BLACK
6
CONTINUOUS
10
195.075
20
-16.2994
11
195.389
21
-15.9152
0
LINE
8
BLACK
6
CONTINUOUS
10
195.389
20
-15.9152
11
195.733
21
-15.5574
0
LINE
8
BLACK
6
CONTINUOUS
10
195.733
20
-15.5574
11
196.104
21
-15.2284
0
LINE
8
BLACK
6
CONTINUOUS
10
196.104
20
-15.2284
11
196.501
21
-14.9304
0
LINE
8
BLACK
6
CONTINUOUS
10
196.501
20
-14.9304
11
196.92
21
-14.6653
0
LINE
8
BLACK
6
CONTINUOUS
10
196.92
20
-14.6653
11
197.359
21
-14.4347
0
LINE
8
BLACK
6
CONTINUOUS
10
197.359
20
-14.4347
11
197.816
21
-14.2403
0
LINE
8
BLACK
6
CONTINUOUS
10
197.816
20
-14.2403
11
198.286
21
-14.0832
0
LINE
8
BLACK
6
CONTINUOUS
10
198.286
20
-14.0832
11
198.768
21
-13.9645
0
LINE
8
BLACK
6
CONTINUOUS
10
198.768
20
-13.9645
11
199.257
21
-13.8849
0
LINE
8
BLACK
6
CONTINUOUS
10
199.257
20
-13.8849
11
199.752
21
-13.845
0
LINE
8
BLACK
6
CONTINUOUS
10
199.752
20
-13.845
11
200.248
21
-13.845
0
LINE
8
BLACK
6
CONTINUOUS
10
200.248
20
-13.845
11
200.743
21
-13.8849
0
LINE
8
BLACK
6
CONTINUOUS
10
193.975
20
-20.4864
11
194.033
21
-20.9697
0
LINE
8
BLACK
6
CONTINUOUS
10
194.033
20
-20.9697
11
194.131
21
-21.4466
0
LINE
8
BLACK
6
CONTINUOUS
10
194.131
20
-21.4466
11
194.266
21
-21.9142
0
LINE
8
BLACK
6
CONTINUOUS
10
194.266
20
-21.9142
11
194.439
21
-22.3694
0
LINE
8
BLACK
6
CONTINUOUS
10
194.439
20
-22.3694
11
194.648
21
-22.8092
0
LINE
8
BLACK
6
CONTINUOUS
10
194.648
20
-22.8092
11
194.891
21
-23.2308
0
LINE
8
BLACK
6
CONTINUOUS
10
194.891
20
-23.2308
11
195.167
21
-23.6314
0
LINE
8
BLACK
6
CONTINUOUS
10
195.167
20
-23.6314
11
195.475
21
-24.0085
0
LINE
8
BLACK
6
CONTINUOUS
10
195.475
20
-24.0085
11
195.813
21
-24.3596
0
LINE
8
BLACK
6
CONTINUOUS
10
195.813
20
-24.3596
11
196.177
21
-24.6824
0
LINE
8
BLACK
6
CONTINUOUS
10
196.177
20
-24.6824
11
196.566
21
-24.9749
0
LINE
8
BLACK
6
CONTINUOUS
10
196.566
20
-24.9749
11
196.978
21
-25.235
0
LINE
8
BLACK
6
CONTINUOUS
10
196.978
20
-25.235
11
197.409
21
-25.4613
0
LINE
8
BLACK
6
CONTINUOUS
10
197.409
20
-25.4613
11
197.856
21
-25.6521
0
LINE
8
BLACK
6
CONTINUOUS
10
197.856
20
-25.6521
11
198.318
21
-25.8062
0
LINE
8
BLACK
6
CONTINUOUS
10
198.318
20
-25.8062
11
198.791
21
-25.9227
0
LINE
8
BLACK
6
CONTINUOUS
10
198.791
20
-25.9227
11
199.271
21
-26.0008
0
LINE
8
BLACK
6
CONTINUOUS
10
199.271
20
-26.0008
11
199.757
21
-26.04
0
LINE
8
BLACK
6
CONTINUOUS
10
199.757
20
-26.04
11
200.243
21
-26.04
0
LINE
8
BLACK
6
CONTINUOUS
10
200.243
20
-26.04
11
200.729
21
-26.0008
0
LINE
8
BLACK
6
CONTINUOUS
10
200.729
20
-26.0008
11
201.209
21
-25.9227
0
LINE
8
BLACK
6
CONTINUOUS
10
201.209
20
-25.9227
11
201.682
21
-25.8062
0
LINE
8
BLACK
6
CONTINUOUS
10
201.682
20
-25.8062
11
202.144
21
-25.6521
0
LINE
8
BLACK
6
CONTINUOUS
10
202.144
20
-25.6521
11
202.591
21
-25.4613
0
LINE
8
BLACK
6
CONTINUOUS
10
202.591
20
-25.4613
11
203.022
21
-25.235
0
LINE
8
BLACK
6
CONTINUOUS
10
203.022
20
-25.235
11
203.434
21
-24.9749
0
LINE
8
BLACK
6
CONTINUOUS
10
203.434
20
-24.9749
11
203.823
21
-24.6824
0
LINE
8
BLACK
6
CONTINUOUS
10
203.823
20
-24.6824
11
204.187
21
-24.3596
0
LINE
8
BLACK
6
CONTINUOUS
10
204.187
20
-24.3596
11
204.525
21
-24.0085
0
LINE
8
BLACK
6
CONTINUOUS
10
204.525
20
-24.0085
11
204.833
21
-23.6314
0
LINE
8
BLACK
6
CONTINUOUS
10
204.833
20
-23.6314
11
205.109
21
-23.2308
0
LINE
8
BLACK
6
CONTINUOUS
10
205.109
20
-23.2308
11
205.352
21
-22.8092
0
LINE
8
BLACK
6
CONTINUOUS
10
205.352
20
-22.8092
11
205.561
21
-22.3694
0
LINE
8
BLACK
6
CONTINUOUS
10
205.561
20
-22.3694
11
205.734
21
-21.9142
0
LINE
8
BLACK
6
CONTINUOUS
10
205.734
20
-21.9142
11
205.869
21
-21.4466
0
LINE
8
BLACK
6
CONTINUOUS
10
205.869
20
-21.4466
11
205.967
21
-20.9697
0
LINE
8
BLACK
6
CONTINUOUS
10
205.967
20
-20.9697
11
206.025
21
-20.4864
0
LINE
8
BLACK
6
CONTINUOUS
10
206.025
20
-20.4864
11
206.045
21
-20
0
LINE
8
BLACK
6
CONTINUOUS
10
206.045
20
-20
11
206.025
21
-19.5136
0
LINE
8
BLACK
6
CONTINUOUS
10
206.025
20
-19.5136
11
205.967
21
-19.0303
0
LINE
8
BLACK
6
CONTINUOUS
10
205.967
20
-19.0303
11
205.869
21
-18.5534
0
LINE
8
BLACK
6
CONTINUOUS
10
205.869
20
-18.5534
11
205.734
21
-18.0858
0
LINE
8
BLACK
6
CONTINUOUS
10
205.734
20
-18.0858
11
205.561
21
-17.6306
0
LINE
8
BLACK
6
CONTINUOUS
10
205.561
20
-17.6306
11
205.352
21
-17.1908
0
LINE
8
BLACK
6
CONTINUOUS
10
205.352
20
-17.1908
11
205.109
21
-16.7692
0
LINE
8
BLACK
6
CONTINUOUS
10
205.109
20
-16.7692
11
204.833
21
-16.3686
0
LINE
8
BLACK
6
CONTINUOUS
10
204.833
20
-16.3686
11
204.525
21
-15.9915
0
LINE
8
BLACK
6
CONTINUOUS
10
204.525
20
-15.9915
11
204.187
21
-15.6404
0
LINE
8
BLACK
6
CONTINUOUS
10
204.187
20
-15.6404
11
203.823
21
-15.3176
0
LINE
8
BLACK
6
CONTINUOUS
10
203.823
20
-15.3176
11
203.434
21
-15.0251
0
LINE
8
BLACK
6
CONTINUOUS
10
203.434
20
-15.0251
11
203.022
21
-14.765
0
LINE
8
BLACK
6
CONTINUOUS
10
203.022
20
-14.765
11
202.591
21
-14.5387
0
LINE
8
BLACK
6
CONTINUOUS
10
202.591
20
-14.5387
11
202.144
21
-14.3479
0
LINE
8
BLACK
6
CONTINUOUS
10
202.144
20
-14.3479
11
201.682
21
-14.1938
0
LINE
8
BLACK
6
CONTINUOUS
10
201.682
20
-14.1938
11
201.209
21
-14.0773
0
LINE
8
BLACK
6
CONTINUOUS
10
201.209
20
-14.0773
11
200.729
21
-13.9992
0
LINE
8
BLACK
6
CONTINUOUS
10
200.729
20
-13.9992
11
200.243
21
-13.96
0
LINE
8
BLACK
6
CONTINUOUS
10
200.243
20
-13.96
11
199.757
21
-13.96
0
LINE
8
BLACK
6
CONTINUOUS
10
199.757
20
-13.96
11
199.271
21
-13.9992
0
LINE
8
BLACK
6
CONTINUOUS
10
199.271
20
-13.9992
11
198.791
21
-14.0773
0
LINE
8
BLACK
6
CONTINUOUS
10
198.791
20
-14.0773
11
198.318
21
-14.1938
0
LINE
8
BLACK
6
CONTINUOUS
10
198.318
20
-14.1938
11
197.856
21
-14.3479
0
LINE
8
BLACK
6
CONTINUOUS
10
197.856
20
-14.3479
11
197.409
21
-14.5387
0
LINE
8
BLACK
6
CONTINUOUS
10
197.409
20
-14.5387
11
196.978
21
-14.765
0
LINE
8
BLACK
6
CONTINUOUS
10
196.978
20
-14.765
11
196.566
21
-15.0251
0
LINE
8
BLACK
6
CONTINUOUS
10
196.566
20
-15.0251
11
196.177
21
-15.3176
0
LINE
8
BLACK
6
CONTINUOUS
10
196.177
20
-15.3176
11
195.813
21
-15.6404
0
LINE
8
BLACK
6
CONTINUOUS
10
195.813
20
-15.6404
11
195.475
21
-15.9915
0
LINE
8
BLACK
6
CONTINUOUS
10
195.475
20
-15.9915
11
195.167
21
-16.3686
0
LINE
8
BLACK
6
CONTINUOUS
10
195.167
20
-16.3686
11
194.891
21
-16.7692
0
LINE
8
BLACK
6
CONTINUOUS
10
194.891
20
-16.7692
11
194.648
21
-17.1908
0
LINE
8
BLACK
6
CONTINUOUS
10
194.648
20
-17.1908
11
194.439
21
-17.6306
0
LINE
8
BLACK
6
CONTINUOUS
10
194.439
20
-17.6306
11
194.266
21
-18.0858
0
LINE
8
BLACK
6
CONTINUOUS
10
194.266
20
-18.0858
11
194.131
21
-18.5534
0
LINE
8
BLACK
6
CONTINUOUS
10
194.131
20
-18.5534
11
194.033
21
-19.0303
0
LINE
8
BLACK
6
CONTINUOUS
10
194.033
20
-19.0303
11
193.975
21
-19.5136
0
LINE
8
BLACK
6
CONTINUOUS
10
193.975
20
-19.5136
11
193.955
21
-20
0
LINE
8
BLACK
6
CONTINUOUS
10
193.955
20
-20
11
193.975
21
-20.4864
0
LINE
8
BLACK
6
CONTINUOUS
10
210
20
-9.975
11
210.018
21
-9.98232
0
LINE
8
BLACK
6
CONTINUOUS
10
210.018
20
-9.98232
11
210.025
21
-10
0
LINE
8
BLACK
6
CONTINUOUS
10
210.025
20
-10
11
210.025
21
-155
0
LINE
8
BLACK
6
CONTINUOUS
10
210.025
20
-155
11
210.018
21
-155.018
0
LINE
8
BLACK
6
CONTINUOUS
10
210.018
20
-155.018
11
210
21
-155.025
0
LINE
8
BLACK
6
CONTINUOUS
10
210
20
-155.025
11
50
21
-155.025
0
LINE
8
BLACK
6
CONTINUOUS
10
50
20
-155.025
11
49.9823
21
-155.018
0
LINE
8
BLACK
6
CONTINUOUS
10
49.9823
20
-155.018
11
49.975
21
-155
0
LINE
8
BLACK
6
CONTINUOUS
10
49.975
20
-155
11
49.975
21
-10
0
LINE
8
BLACK
6
CONTINUOUS
10
49.975
20
-10
11
49.9823
21
-9.98232
0
LINE
8
BLACK
6
CONTINUOUS
10
49.9823
20
-9.98232
11
50
21
-9.975
0
LINE
8
BLACK
6
CONTINUOUS
10
50
20
-9.975
11
210
21
-9.975
0
LINE
8
BLACK
6
CONTINUOUS
10
50.025
20
-10.025
11
50.025
21
-154.975
0
LINE
8
BLACK
6
CONTINUOUS
10
50.025
20
-154.975
11
209.975
21
-154.975
0
LINE
8
BLACK
6
CONTINUOUS
10
209.975
20
-154.975
11
209.975
21
-10.025
0
LINE
8
BLACK
6
CONTINUOUS
10
209.975
20
-10.025
11
50.025
21
-10.025
  0
ENDSEC
  0
EOF
