  0
SECTION
  2
HEADER
  9
$ANGBASE
  50
0.0
  9
$ANGDIR
  70
1
  9
$MEASUREMENT
  70
1
  0
ENDSEC
  0
SECTION
  2
TABLES
  0
TABLE
  2
LTYPE
  70
4
  0
LTYPE
  5
40F
  2
CONTINUOUS
  70
0
  3
Solid line
  72
65
  73
0
  40
0.0
  0
LTYPE
  5
410
  2
DASHDOT
 70
0
  3
Dash Dot ____ _ ____ _
 72
65
 73
4
 40
2.0
 49
1.25
 49
-0.25
 49
0.25
 49
-0.25
  0
LTYPE
  5
411
  2
DASHED
 70
0
  3
Dashed __ __ __ __ __
 72
65
 73
2
 40
0.75
 49
0.5
 49
-0.25
  0
LTYPE
  5
43B
  2
DOTTED
 70
0
  3
Dotted .  .  .  .
 72
65
 73
2
 40
0.2
 49
0.0
 49
-0.2
  0
ENDTAB
  0
TABLE
  2
STYLE
  70
4
  0
STYLE
  2
KICAD
  70
0
  40
0
  41
1
  42
1
  50
0
  71
0
  3
isocp.shx
  0
STYLE
  2
KICADB
  70
0
  40
0
  41
1
  42
1
  50
0
  71
0
  3
isocp.shx
  0
STYLE
  2
KICADI
  70
0
  40
0
  41
1
  42
1
  50
15
  71
0
  3
isocp.shx
  0
STYLE
  2
KICADBI
  70
0
  40
0
  41
1
  42
1
  50
15
  71
0
  3
isocp.shx
  0
ENDTAB
  0
TABLE
  2
LAYER
  70
1
  0
LAYER
  2
BLACK
  70
0
  62
7
  6
CONTINUOUS
  0
ENDTAB
  0
ENDSEC
  0
SECTION
  2
ENTITIES
0
LINE
8
BLACK
6
CONTINUOUS
10
132.455
20
-109.545
11
132.652
21
-109.605
0
LINE
8
BLACK
6
CONTINUOUS
10
132.652
20
-109.605
11
132.833
21
-109.702
0
LINE
8
BLACK
6
CONTINUOUS
10
132.833
20
-109.702
11
132.992
21
-109.833
0
LINE
8
BLACK
6
CONTINUOUS
10
132.992
20
-109.833
11
133.123
21
-109.992
0
LINE
8
BLACK
6
CONTINUOUS
10
133.123
20
-109.992
11
133.22
21
-110.173
0
LINE
8
BLACK
6
CONTINUOUS
10
133.22
20
-110.173
11
133.28
21
-110.37
0
LINE
8
BLACK
6
CONTINUOUS
10
133.28
20
-110.37
11
133.3
21
-110.575
0
LINE
8
BLACK
6
CONTINUOUS
10
133.3
20
-110.575
11
133.28
21
-110.78
0
LINE
8
BLACK
6
CONTINUOUS
10
133.28
20
-110.78
11
133.22
21
-110.977
0
LINE
8
BLACK
6
CONTINUOUS
10
133.22
20
-110.977
11
133.123
21
-111.158
0
LINE
8
BLACK
6
CONTINUOUS
10
133.123
20
-111.158
11
132.992
21
-111.317
0
LINE
8
BLACK
6
CONTINUOUS
10
132.992
20
-111.317
11
132.833
21
-111.448
0
LINE
8
BLACK
6
CONTINUOUS
10
132.833
20
-111.448
11
132.652
21
-111.545
0
LINE
8
BLACK
6
CONTINUOUS
10
132.652
20
-111.545
11
132.455
21
-111.605
0
LINE
8
BLACK
6
CONTINUOUS
10
132.455
20
-111.605
11
132.25
21
-111.625
0
LINE
8
BLACK
6
CONTINUOUS
10
132.25
20
-111.625
11
132.045
21
-111.605
0
LINE
8
BLACK
6
CONTINUOUS
10
132.045
20
-111.605
11
131.848
21
-111.545
0
LINE
8
BLACK
6
CONTINUOUS
10
131.848
20
-111.545
11
131.667
21
-111.448
0
LINE
8
BLACK
6
CONTINUOUS
10
131.667
20
-111.448
11
131.508
21
-111.317
0
LINE
8
BLACK
6
CONTINUOUS
10
131.508
20
-111.317
11
131.377
21
-111.158
0
LINE
8
BLACK
6
CONTINUOUS
10
131.377
20
-111.158
11
131.28
21
-110.977
0
LINE
8
BLACK
6
CONTINUOUS
10
131.28
20
-110.977
11
131.22
21
-110.78
0
LINE
8
BLACK
6
CONTINUOUS
10
131.22
20
-110.78
11
131.2
21
-110.575
0
LINE
8
BLACK
6
CONTINUOUS
10
131.2
20
-110.575
11
131.22
21
-110.37
0
LINE
8
BLACK
6
CONTINUOUS
10
131.22
20
-110.37
11
131.28
21
-110.173
0
LINE
8
BLACK
6
CONTINUOUS
10
131.28
20
-110.173
11
131.377
21
-109.992
0
LINE
8
BLACK
6
CONTINUOUS
10
131.377
20
-109.992
11
131.508
21
-109.833
0
LINE
8
BLACK
6
CONTINUOUS
10
131.508
20
-109.833
11
131.667
21
-109.702
0
LINE
8
BLACK
6
CONTINUOUS
10
131.667
20
-109.702
11
131.848
21
-109.605
0
LINE
8
BLACK
6
CONTINUOUS
10
131.848
20
-109.605
11
132.045
21
-109.545
0
LINE
8
BLACK
6
CONTINUOUS
10
132.045
20
-109.545
11
132.25
21
-109.525
0
LINE
8
BLACK
6
CONTINUOUS
10
132.25
20
-109.525
11
132.455
21
-109.545
0
LINE
8
BLACK
6
CONTINUOUS
10
131.264
20
-110.771
11
131.322
21
-110.96
0
LINE
8
BLACK
6
CONTINUOUS
10
131.322
20
-110.96
11
131.415
21
-111.133
0
LINE
8
BLACK
6
CONTINUOUS
10
131.415
20
-111.133
11
131.539
21
-111.286
0
LINE
8
BLACK
6
CONTINUOUS
10
131.539
20
-111.286
11
131.692
21
-111.41
0
LINE
8
BLACK
6
CONTINUOUS
10
131.692
20
-111.41
11
131.865
21
-111.503
0
LINE
8
BLACK
6
CONTINUOUS
10
131.865
20
-111.503
11
132.054
21
-111.561
0
LINE
8
BLACK
6
CONTINUOUS
10
132.054
20
-111.561
11
132.25
21
-111.58
0
LINE
8
BLACK
6
CONTINUOUS
10
132.25
20
-111.58
11
132.446
21
-111.561
0
LINE
8
BLACK
6
CONTINUOUS
10
132.446
20
-111.561
11
132.635
21
-111.503
0
LINE
8
BLACK
6
CONTINUOUS
10
132.635
20
-111.503
11
132.808
21
-111.41
0
LINE
8
BLACK
6
CONTINUOUS
10
132.808
20
-111.41
11
132.961
21
-111.286
0
LINE
8
BLACK
6
CONTINUOUS
10
132.961
20
-111.286
11
133.085
21
-111.133
0
LINE
8
BLACK
6
CONTINUOUS
10
133.085
20
-111.133
11
133.178
21
-110.96
0
LINE
8
BLACK
6
CONTINUOUS
10
133.178
20
-110.96
11
133.236
21
-110.771
0
LINE
8
BLACK
6
CONTINUOUS
10
133.236
20
-110.771
11
133.255
21
-110.575
0
LINE
8
BLACK
6
CONTINUOUS
10
133.255
20
-110.575
11
133.236
21
-110.379
0
LINE
8
BLACK
6
CONTINUOUS
10
133.236
20
-110.379
11
133.178
21
-110.19
0
LINE
8
BLACK
6
CONTINUOUS
10
133.178
20
-110.19
11
133.085
21
-110.017
0
LINE
8
BLACK
6
CONTINUOUS
10
133.085
20
-110.017
11
132.961
21
-109.864
0
LINE
8
BLACK
6
CONTINUOUS
10
132.961
20
-109.864
11
132.808
21
-109.74
0
LINE
8
BLACK
6
CONTINUOUS
10
132.808
20
-109.74
11
132.635
21
-109.647
0
LINE
8
BLACK
6
CONTINUOUS
10
132.635
20
-109.647
11
132.446
21
-109.589
0
LINE
8
BLACK
6
CONTINUOUS
10
132.446
20
-109.589
11
132.25
21
-109.57
0
LINE
8
BLACK
6
CONTINUOUS
10
132.25
20
-109.57
11
132.054
21
-109.589
0
LINE
8
BLACK
6
CONTINUOUS
10
132.054
20
-109.589
11
131.865
21
-109.647
0
LINE
8
BLACK
6
CONTINUOUS
10
131.865
20
-109.647
11
131.692
21
-109.74
0
LINE
8
BLACK
6
CONTINUOUS
10
131.692
20
-109.74
11
131.539
21
-109.864
0
LINE
8
BLACK
6
CONTINUOUS
10
131.539
20
-109.864
11
131.415
21
-110.017
0
LINE
8
BLACK
6
CONTINUOUS
10
131.415
20
-110.017
11
131.322
21
-110.19
0
LINE
8
BLACK
6
CONTINUOUS
10
131.322
20
-110.19
11
131.264
21
-110.379
0
LINE
8
BLACK
6
CONTINUOUS
10
131.264
20
-110.379
11
131.245
21
-110.575
0
LINE
8
BLACK
6
CONTINUOUS
10
131.245
20
-110.575
11
131.264
21
-110.771
0
LINE
8
BLACK
6
CONTINUOUS
10
176.42
20
-106.118
11
176.617
21
-106.178
0
LINE
8
BLACK
6
CONTINUOUS
10
176.617
20
-106.178
11
176.799
21
-106.275
0
LINE
8
BLACK
6
CONTINUOUS
10
176.799
20
-106.275
11
176.958
21
-106.405
0
LINE
8
BLACK
6
CONTINUOUS
10
176.958
20
-106.405
11
177.088
21
-106.564
0
LINE
8
BLACK
6
CONTINUOUS
10
177.088
20
-106.564
11
177.185
21
-106.746
0
LINE
8
BLACK
6
CONTINUOUS
10
177.185
20
-106.746
11
177.245
21
-106.943
0
LINE
8
BLACK
6
CONTINUOUS
10
177.245
20
-106.943
11
177.265
21
-107.148
0
LINE
8
BLACK
6
CONTINUOUS
10
177.265
20
-107.148
11
177.245
21
-107.353
0
LINE
8
BLACK
6
CONTINUOUS
10
177.245
20
-107.353
11
177.185
21
-107.55
0
LINE
8
BLACK
6
CONTINUOUS
10
177.185
20
-107.55
11
177.088
21
-107.731
0
LINE
8
BLACK
6
CONTINUOUS
10
177.088
20
-107.731
11
176.958
21
-107.89
0
LINE
8
BLACK
6
CONTINUOUS
10
176.958
20
-107.89
11
176.799
21
-108.021
0
LINE
8
BLACK
6
CONTINUOUS
10
176.799
20
-108.021
11
176.617
21
-108.118
0
LINE
8
BLACK
6
CONTINUOUS
10
176.617
20
-108.118
11
176.42
21
-108.178
0
LINE
8
BLACK
6
CONTINUOUS
10
176.42
20
-108.178
11
176.215
21
-108.198
0
LINE
8
BLACK
6
CONTINUOUS
10
176.215
20
-108.198
11
176.011
21
-108.178
0
LINE
8
BLACK
6
CONTINUOUS
10
176.011
20
-108.178
11
175.814
21
-108.118
0
LINE
8
BLACK
6
CONTINUOUS
10
175.814
20
-108.118
11
175.632
21
-108.021
0
LINE
8
BLACK
6
CONTINUOUS
10
175.632
20
-108.021
11
175.473
21
-107.89
0
LINE
8
BLACK
6
CONTINUOUS
10
175.473
20
-107.89
11
175.342
21
-107.731
0
LINE
8
BLACK
6
CONTINUOUS
10
175.342
20
-107.731
11
175.245
21
-107.55
0
LINE
8
BLACK
6
CONTINUOUS
10
175.245
20
-107.55
11
175.186
21
-107.353
0
LINE
8
BLACK
6
CONTINUOUS
10
175.186
20
-107.353
11
175.165
21
-107.148
0
LINE
8
BLACK
6
CONTINUOUS
10
175.165
20
-107.148
11
175.186
21
-106.943
0
LINE
8
BLACK
6
CONTINUOUS
10
175.186
20
-106.943
11
175.245
21
-106.746
0
LINE
8
BLACK
6
CONTINUOUS
10
175.245
20
-106.746
11
175.342
21
-106.564
0
LINE
8
BLACK
6
CONTINUOUS
10
175.342
20
-106.564
11
175.473
21
-106.405
0
LINE
8
BLACK
6
CONTINUOUS
10
175.473
20
-106.405
11
175.632
21
-106.275
0
LINE
8
BLACK
6
CONTINUOUS
10
175.632
20
-106.275
11
175.814
21
-106.178
0
LINE
8
BLACK
6
CONTINUOUS
10
175.814
20
-106.178
11
176.011
21
-106.118
0
LINE
8
BLACK
6
CONTINUOUS
10
176.011
20
-106.118
11
176.215
21
-106.098
0
LINE
8
BLACK
6
CONTINUOUS
10
176.215
20
-106.098
11
176.42
21
-106.118
0
LINE
8
BLACK
6
CONTINUOUS
10
175.23
20
-107.344
11
175.287
21
-107.532
0
LINE
8
BLACK
6
CONTINUOUS
10
175.287
20
-107.532
11
175.38
21
-107.706
0
LINE
8
BLACK
6
CONTINUOUS
10
175.38
20
-107.706
11
175.505
21
-107.858
0
LINE
8
BLACK
6
CONTINUOUS
10
175.505
20
-107.858
11
175.657
21
-107.983
0
LINE
8
BLACK
6
CONTINUOUS
10
175.657
20
-107.983
11
175.831
21
-108.076
0
LINE
8
BLACK
6
CONTINUOUS
10
175.831
20
-108.076
11
176.019
21
-108.133
0
LINE
8
BLACK
6
CONTINUOUS
10
176.019
20
-108.133
11
176.215
21
-108.153
0
LINE
8
BLACK
6
CONTINUOUS
10
176.215
20
-108.153
11
176.411
21
-108.133
0
LINE
8
BLACK
6
CONTINUOUS
10
176.411
20
-108.133
11
176.6
21
-108.076
0
LINE
8
BLACK
6
CONTINUOUS
10
176.6
20
-108.076
11
176.774
21
-107.983
0
LINE
8
BLACK
6
CONTINUOUS
10
176.774
20
-107.983
11
176.926
21
-107.858
0
LINE
8
BLACK
6
CONTINUOUS
10
176.926
20
-107.858
11
177.051
21
-107.706
0
LINE
8
BLACK
6
CONTINUOUS
10
177.051
20
-107.706
11
177.144
21
-107.532
0
LINE
8
BLACK
6
CONTINUOUS
10
177.144
20
-107.532
11
177.201
21
-107.344
0
LINE
8
BLACK
6
CONTINUOUS
10
177.201
20
-107.344
11
177.22
21
-107.148
0
LINE
8
BLACK
6
CONTINUOUS
10
177.22
20
-107.148
11
177.201
21
-106.952
0
LINE
8
BLACK
6
CONTINUOUS
10
177.201
20
-106.952
11
177.144
21
-106.763
0
LINE
8
BLACK
6
CONTINUOUS
10
177.144
20
-106.763
11
177.051
21
-106.59
0
LINE
8
BLACK
6
CONTINUOUS
10
177.051
20
-106.59
11
176.926
21
-106.437
0
LINE
8
BLACK
6
CONTINUOUS
10
176.926
20
-106.437
11
176.774
21
-106.312
0
LINE
8
BLACK
6
CONTINUOUS
10
176.774
20
-106.312
11
176.6
21
-106.219
0
LINE
8
BLACK
6
CONTINUOUS
10
176.6
20
-106.219
11
176.411
21
-106.162
0
LINE
8
BLACK
6
CONTINUOUS
10
176.411
20
-106.162
11
176.215
21
-106.143
0
LINE
8
BLACK
6
CONTINUOUS
10
176.215
20
-106.143
11
176.019
21
-106.162
0
LINE
8
BLACK
6
CONTINUOUS
10
176.019
20
-106.162
11
175.831
21
-106.219
0
LINE
8
BLACK
6
CONTINUOUS
10
175.831
20
-106.219
11
175.657
21
-106.312
0
LINE
8
BLACK
6
CONTINUOUS
10
175.657
20
-106.312
11
175.505
21
-106.437
0
LINE
8
BLACK
6
CONTINUOUS
10
175.505
20
-106.437
11
175.38
21
-106.59
0
LINE
8
BLACK
6
CONTINUOUS
10
175.38
20
-106.59
11
175.287
21
-106.763
0
LINE
8
BLACK
6
CONTINUOUS
10
175.287
20
-106.763
11
175.23
21
-106.952
0
LINE
8
BLACK
6
CONTINUOUS
10
175.23
20
-106.952
11
175.211
21
-107.148
0
LINE
8
BLACK
6
CONTINUOUS
10
175.211
20
-107.148
11
175.23
21
-107.344
0
LINE
8
BLACK
6
CONTINUOUS
10
75.4548
20
-85.1702
11
75.6518
21
-85.2299
0
LINE
8
BLACK
6
CONTINUOUS
10
75.6518
20
-85.2299
11
75.8333
21
-85.327
0
LINE
8
BLACK
6
CONTINUOUS
10
75.8333
20
-85.327
11
75.9925
21
-85.4575
0
LINE
8
BLACK
6
CONTINUOUS
10
75.9925
20
-85.4575
11
76.123
21
-85.6167
0
LINE
8
BLACK
6
CONTINUOUS
10
76.123
20
-85.6167
11
76.2201
21
-85.7982
0
LINE
8
BLACK
6
CONTINUOUS
10
76.2201
20
-85.7982
11
76.2798
21
-85.9952
0
LINE
8
BLACK
6
CONTINUOUS
10
76.2798
20
-85.9952
11
76.3
21
-86.2
0
LINE
8
BLACK
6
CONTINUOUS
10
76.3
20
-86.2
11
76.2798
21
-86.4048
0
LINE
8
BLACK
6
CONTINUOUS
10
76.2798
20
-86.4048
11
76.2201
21
-86.6018
0
LINE
8
BLACK
6
CONTINUOUS
10
76.2201
20
-86.6018
11
76.123
21
-86.7833
0
LINE
8
BLACK
6
CONTINUOUS
10
76.123
20
-86.7833
11
75.9925
21
-86.9425
0
LINE
8
BLACK
6
CONTINUOUS
10
75.9925
20
-86.9425
11
75.8333
21
-87.073
0
LINE
8
BLACK
6
CONTINUOUS
10
75.8333
20
-87.073
11
75.6518
21
-87.1701
0
LINE
8
BLACK
6
CONTINUOUS
10
75.6518
20
-87.1701
11
75.4548
21
-87.2298
0
LINE
8
BLACK
6
CONTINUOUS
10
75.4548
20
-87.2298
11
75.25
21
-87.25
0
LINE
8
BLACK
6
CONTINUOUS
10
75.25
20
-87.25
11
75.0452
21
-87.2298
0
LINE
8
BLACK
6
CONTINUOUS
10
75.0452
20
-87.2298
11
74.8482
21
-87.1701
0
LINE
8
BLACK
6
CONTINUOUS
10
74.8482
20
-87.1701
11
74.6667
21
-87.073
0
LINE
8
BLACK
6
CONTINUOUS
10
74.6667
20
-87.073
11
74.5075
21
-86.9425
0
LINE
8
BLACK
6
CONTINUOUS
10
74.5075
20
-86.9425
11
74.377
21
-86.7833
0
LINE
8
BLACK
6
CONTINUOUS
10
74.377
20
-86.7833
11
74.2799
21
-86.6018
0
LINE
8
BLACK
6
CONTINUOUS
10
74.2799
20
-86.6018
11
74.2202
21
-86.4048
0
LINE
8
BLACK
6
CONTINUOUS
10
74.2202
20
-86.4048
11
74.2
21
-86.2
0
LINE
8
BLACK
6
CONTINUOUS
10
74.2
20
-86.2
11
74.2202
21
-85.9952
0
LINE
8
BLACK
6
CONTINUOUS
10
74.2202
20
-85.9952
11
74.2799
21
-85.7982
0
LINE
8
BLACK
6
CONTINUOUS
10
74.2799
20
-85.7982
11
74.377
21
-85.6167
0
LINE
8
BLACK
6
CONTINUOUS
10
74.377
20
-85.6167
11
74.5075
21
-85.4575
0
LINE
8
BLACK
6
CONTINUOUS
10
74.5075
20
-85.4575
11
74.6667
21
-85.327
0
LINE
8
BLACK
6
CONTINUOUS
10
74.6667
20
-85.327
11
74.8482
21
-85.2299
0
LINE
8
BLACK
6
CONTINUOUS
10
74.8482
20
-85.2299
11
75.0452
21
-85.1702
0
LINE
8
BLACK
6
CONTINUOUS
10
75.0452
20
-85.1702
11
75.25
21
-85.15
0
LINE
8
BLACK
6
CONTINUOUS
10
75.25
20
-85.15
11
75.4548
21
-85.1702
0
LINE
8
BLACK
6
CONTINUOUS
10
74.2645
20
-86.396
11
74.3216
21
-86.5845
0
LINE
8
BLACK
6
CONTINUOUS
10
74.3216
20
-86.5845
11
74.4145
21
-86.7583
0
LINE
8
BLACK
6
CONTINUOUS
10
74.4145
20
-86.7583
11
74.5395
21
-86.9105
0
LINE
8
BLACK
6
CONTINUOUS
10
74.5395
20
-86.9105
11
74.6917
21
-87.0355
0
LINE
8
BLACK
6
CONTINUOUS
10
74.6917
20
-87.0355
11
74.8655
21
-87.1283
0
LINE
8
BLACK
6
CONTINUOUS
10
74.8655
20
-87.1283
11
75.054
21
-87.1855
0
LINE
8
BLACK
6
CONTINUOUS
10
75.054
20
-87.1855
11
75.25
21
-87.2048
0
LINE
8
BLACK
6
CONTINUOUS
10
75.25
20
-87.2048
11
75.446
21
-87.1855
0
LINE
8
BLACK
6
CONTINUOUS
10
75.446
20
-87.1855
11
75.6345
21
-87.1283
0
LINE
8
BLACK
6
CONTINUOUS
10
75.6345
20
-87.1283
11
75.8083
21
-87.0355
0
LINE
8
BLACK
6
CONTINUOUS
10
75.8083
20
-87.0355
11
75.9605
21
-86.9105
0
LINE
8
BLACK
6
CONTINUOUS
10
75.9605
20
-86.9105
11
76.0855
21
-86.7583
0
LINE
8
BLACK
6
CONTINUOUS
10
76.0855
20
-86.7583
11
76.1783
21
-86.5845
0
LINE
8
BLACK
6
CONTINUOUS
10
76.1783
20
-86.5845
11
76.2355
21
-86.396
0
LINE
8
BLACK
6
CONTINUOUS
10
76.2355
20
-86.396
11
76.2548
21
-86.2
0
LINE
8
BLACK
6
CONTINUOUS
10
76.2548
20
-86.2
11
76.2355
21
-86.004
0
LINE
8
BLACK
6
CONTINUOUS
10
76.2355
20
-86.004
11
76.1783
21
-85.8155
0
LINE
8
BLACK
6
CONTINUOUS
10
76.1783
20
-85.8155
11
76.0855
21
-85.6417
0
LINE
8
BLACK
6
CONTINUOUS
10
76.0855
20
-85.6417
11
75.9605
21
-85.4895
0
LINE
8
BLACK
6
CONTINUOUS
10
75.9605
20
-85.4895
11
75.8083
21
-85.3645
0
LINE
8
BLACK
6
CONTINUOUS
10
75.8083
20
-85.3645
11
75.6345
21
-85.2716
0
LINE
8
BLACK
6
CONTINUOUS
10
75.6345
20
-85.2716
11
75.446
21
-85.2145
0
LINE
8
BLACK
6
CONTINUOUS
10
75.446
20
-85.2145
11
75.25
21
-85.1952
0
LINE
8
BLACK
6
CONTINUOUS
10
75.25
20
-85.1952
11
75.054
21
-85.2145
0
LINE
8
BLACK
6
CONTINUOUS
10
75.054
20
-85.2145
11
74.8655
21
-85.2716
0
LINE
8
BLACK
6
CONTINUOUS
10
74.8655
20
-85.2716
11
74.6917
21
-85.3645
0
LINE
8
BLACK
6
CONTINUOUS
10
74.6917
20
-85.3645
11
74.5395
21
-85.4895
0
LINE
8
BLACK
6
CONTINUOUS
10
74.5395
20
-85.4895
11
74.4145
21
-85.6417
0
LINE
8
BLACK
6
CONTINUOUS
10
74.4145
20
-85.6417
11
74.3216
21
-85.8155
0
LINE
8
BLACK
6
CONTINUOUS
10
74.3216
20
-85.8155
11
74.2645
21
-86.004
0
LINE
8
BLACK
6
CONTINUOUS
10
74.2645
20
-86.004
11
74.2452
21
-86.2
0
LINE
8
BLACK
6
CONTINUOUS
10
74.2452
20
-86.2
11
74.2645
21
-86.396
0
LINE
8
BLACK
6
CONTINUOUS
10
113.455
20
-61.4202
11
113.652
21
-61.4799
0
LINE
8
BLACK
6
CONTINUOUS
10
113.652
20
-61.4799
11
113.833
21
-61.577
0
LINE
8
BLACK
6
CONTINUOUS
10
113.833
20
-61.577
11
113.992
21
-61.7075
0
LINE
8
BLACK
6
CONTINUOUS
10
113.992
20
-61.7075
11
114.123
21
-61.8667
0
LINE
8
BLACK
6
CONTINUOUS
10
114.123
20
-61.8667
11
114.22
21
-62.0482
0
LINE
8
BLACK
6
CONTINUOUS
10
114.22
20
-62.0482
11
114.28
21
-62.2452
0
LINE
8
BLACK
6
CONTINUOUS
10
114.28
20
-62.2452
11
114.3
21
-62.45
0
LINE
8
BLACK
6
CONTINUOUS
10
114.3
20
-62.45
11
114.28
21
-62.6548
0
LINE
8
BLACK
6
CONTINUOUS
10
114.28
20
-62.6548
11
114.22
21
-62.8518
0
LINE
8
BLACK
6
CONTINUOUS
10
114.22
20
-62.8518
11
114.123
21
-63.0333
0
LINE
8
BLACK
6
CONTINUOUS
10
114.123
20
-63.0333
11
113.992
21
-63.1925
0
LINE
8
BLACK
6
CONTINUOUS
10
113.992
20
-63.1925
11
113.833
21
-63.323
0
LINE
8
BLACK
6
CONTINUOUS
10
113.833
20
-63.323
11
113.652
21
-63.4201
0
LINE
8
BLACK
6
CONTINUOUS
10
113.652
20
-63.4201
11
113.455
21
-63.4798
0
LINE
8
BLACK
6
CONTINUOUS
10
113.455
20
-63.4798
11
113.25
21
-63.5
0
LINE
8
BLACK
6
CONTINUOUS
10
113.25
20
-63.5
11
113.045
21
-63.4798
0
LINE
8
BLACK
6
CONTINUOUS
10
113.045
20
-63.4798
11
112.848
21
-63.4201
0
LINE
8
BLACK
6
CONTINUOUS
10
112.848
20
-63.4201
11
112.667
21
-63.323
0
LINE
8
BLACK
6
CONTINUOUS
10
112.667
20
-63.323
11
112.508
21
-63.1925
0
LINE
8
BLACK
6
CONTINUOUS
10
112.508
20
-63.1925
11
112.377
21
-63.0333
0
LINE
8
BLACK
6
CONTINUOUS
10
112.377
20
-63.0333
11
112.28
21
-62.8518
0
LINE
8
BLACK
6
CONTINUOUS
10
112.28
20
-62.8518
11
112.22
21
-62.6548
0
LINE
8
BLACK
6
CONTINUOUS
10
112.22
20
-62.6548
11
112.2
21
-62.45
0
LINE
8
BLACK
6
CONTINUOUS
10
112.2
20
-62.45
11
112.22
21
-62.2452
0
LINE
8
BLACK
6
CONTINUOUS
10
112.22
20
-62.2452
11
112.28
21
-62.0482
0
LINE
8
BLACK
6
CONTINUOUS
10
112.28
20
-62.0482
11
112.377
21
-61.8667
0
LINE
8
BLACK
6
CONTINUOUS
10
112.377
20
-61.8667
11
112.508
21
-61.7075
0
LINE
8
BLACK
6
CONTINUOUS
10
112.508
20
-61.7075
11
112.667
21
-61.577
0
LINE
8
BLACK
6
CONTINUOUS
10
112.667
20
-61.577
11
112.848
21
-61.4799
0
LINE
8
BLACK
6
CONTINUOUS
10
112.848
20
-61.4799
11
113.045
21
-61.4202
0
LINE
8
BLACK
6
CONTINUOUS
10
113.045
20
-61.4202
11
113.25
21
-61.4
0
LINE
8
BLACK
6
CONTINUOUS
10
113.25
20
-61.4
11
113.455
21
-61.4202
0
LINE
8
BLACK
6
CONTINUOUS
10
112.264
20
-62.646
11
112.322
21
-62.8345
0
LINE
8
BLACK
6
CONTINUOUS
10
112.322
20
-62.8345
11
112.415
21
-63.0083
0
LINE
8
BLACK
6
CONTINUOUS
10
112.415
20
-63.0083
11
112.539
21
-63.1605
0
LINE
8
BLACK
6
CONTINUOUS
10
112.539
20
-63.1605
11
112.692
21
-63.2855
0
LINE
8
BLACK
6
CONTINUOUS
10
112.692
20
-63.2855
11
112.865
21
-63.3783
0
LINE
8
BLACK
6
CONTINUOUS
10
112.865
20
-63.3783
11
113.054
21
-63.4355
0
LINE
8
BLACK
6
CONTINUOUS
10
113.054
20
-63.4355
11
113.25
21
-63.4548
0
LINE
8
BLACK
6
CONTINUOUS
10
113.25
20
-63.4548
11
113.446
21
-63.4355
0
LINE
8
BLACK
6
CONTINUOUS
10
113.446
20
-63.4355
11
113.635
21
-63.3783
0
LINE
8
BLACK
6
CONTINUOUS
10
113.635
20
-63.3783
11
113.808
21
-63.2855
0
LINE
8
BLACK
6
CONTINUOUS
10
113.808
20
-63.2855
11
113.961
21
-63.1605
0
LINE
8
BLACK
6
CONTINUOUS
10
113.961
20
-63.1605
11
114.085
21
-63.0083
0
LINE
8
BLACK
6
CONTINUOUS
10
114.085
20
-63.0083
11
114.178
21
-62.8345
0
LINE
8
BLACK
6
CONTINUOUS
10
114.178
20
-62.8345
11
114.236
21
-62.646
0
LINE
8
BLACK
6
CONTINUOUS
10
114.236
20
-62.646
11
114.255
21
-62.45
0
LINE
8
BLACK
6
CONTINUOUS
10
114.255
20
-62.45
11
114.236
21
-62.254
0
LINE
8
BLACK
6
CONTINUOUS
10
114.236
20
-62.254
11
114.178
21
-62.0655
0
LINE
8
BLACK
6
CONTINUOUS
10
114.178
20
-62.0655
11
114.085
21
-61.8917
0
LINE
8
BLACK
6
CONTINUOUS
10
114.085
20
-61.8917
11
113.961
21
-61.7395
0
LINE
8
BLACK
6
CONTINUOUS
10
113.961
20
-61.7395
11
113.808
21
-61.6145
0
LINE
8
BLACK
6
CONTINUOUS
10
113.808
20
-61.6145
11
113.635
21
-61.5216
0
LINE
8
BLACK
6
CONTINUOUS
10
113.635
20
-61.5216
11
113.446
21
-61.4645
0
LINE
8
BLACK
6
CONTINUOUS
10
113.446
20
-61.4645
11
113.25
21
-61.4452
0
LINE
8
BLACK
6
CONTINUOUS
10
113.25
20
-61.4452
11
113.054
21
-61.4645
0
LINE
8
BLACK
6
CONTINUOUS
10
113.054
20
-61.4645
11
112.865
21
-61.5216
0
LINE
8
BLACK
6
CONTINUOUS
10
112.865
20
-61.5216
11
112.692
21
-61.6145
0
LINE
8
BLACK
6
CONTINUOUS
10
112.692
20
-61.6145
11
112.539
21
-61.7395
0
LINE
8
BLACK
6
CONTINUOUS
10
112.539
20
-61.7395
11
112.415
21
-61.8917
0
LINE
8
BLACK
6
CONTINUOUS
10
112.415
20
-61.8917
11
112.322
21
-62.0655
0
LINE
8
BLACK
6
CONTINUOUS
10
112.322
20
-62.0655
11
112.264
21
-62.254
0
LINE
8
BLACK
6
CONTINUOUS
10
112.264
20
-62.254
11
112.245
21
-62.45
0
LINE
8
BLACK
6
CONTINUOUS
10
112.245
20
-62.45
11
112.264
21
-62.646
0
LINE
8
BLACK
6
CONTINUOUS
10
151.455
20
-61.4202
11
151.652
21
-61.4799
0
LINE
8
BLACK
6
CONTINUOUS
10
151.652
20
-61.4799
11
151.833
21
-61.577
0
LINE
8
BLACK
6
CONTINUOUS
10
151.833
20
-61.577
11
151.992
21
-61.7075
0
LINE
8
BLACK
6
CONTINUOUS
10
151.992
20
-61.7075
11
152.123
21
-61.8667
0
LINE
8
BLACK
6
CONTINUOUS
10
152.123
20
-61.8667
11
152.22
21
-62.0482
0
LINE
8
BLACK
6
CONTINUOUS
10
152.22
20
-62.0482
11
152.28
21
-62.2452
0
LINE
8
BLACK
6
CONTINUOUS
10
152.28
20
-62.2452
11
152.3
21
-62.45
0
LINE
8
BLACK
6
CONTINUOUS
10
152.3
20
-62.45
11
152.28
21
-62.6548
0
LINE
8
BLACK
6
CONTINUOUS
10
152.28
20
-62.6548
11
152.22
21
-62.8518
0
LINE
8
BLACK
6
CONTINUOUS
10
152.22
20
-62.8518
11
152.123
21
-63.0333
0
LINE
8
BLACK
6
CONTINUOUS
10
152.123
20
-63.0333
11
151.992
21
-63.1925
0
LINE
8
BLACK
6
CONTINUOUS
10
151.992
20
-63.1925
11
151.833
21
-63.323
0
LINE
8
BLACK
6
CONTINUOUS
10
151.833
20
-63.323
11
151.652
21
-63.4201
0
LINE
8
BLACK
6
CONTINUOUS
10
151.652
20
-63.4201
11
151.455
21
-63.4798
0
LINE
8
BLACK
6
CONTINUOUS
10
151.455
20
-63.4798
11
151.25
21
-63.5
0
LINE
8
BLACK
6
CONTINUOUS
10
151.25
20
-63.5
11
151.045
21
-63.4798
0
LINE
8
BLACK
6
CONTINUOUS
10
151.045
20
-63.4798
11
150.848
21
-63.4201
0
LINE
8
BLACK
6
CONTINUOUS
10
150.848
20
-63.4201
11
150.667
21
-63.323
0
LINE
8
BLACK
6
CONTINUOUS
10
150.667
20
-63.323
11
150.508
21
-63.1925
0
LINE
8
BLACK
6
CONTINUOUS
10
150.508
20
-63.1925
11
150.377
21
-63.0333
0
LINE
8
BLACK
6
CONTINUOUS
10
150.377
20
-63.0333
11
150.28
21
-62.8518
0
LINE
8
BLACK
6
CONTINUOUS
10
150.28
20
-62.8518
11
150.22
21
-62.6548
0
LINE
8
BLACK
6
CONTINUOUS
10
150.22
20
-62.6548
11
150.2
21
-62.45
0
LINE
8
BLACK
6
CONTINUOUS
10
150.2
20
-62.45
11
150.22
21
-62.2452
0
LINE
8
BLACK
6
CONTINUOUS
10
150.22
20
-62.2452
11
150.28
21
-62.0482
0
LINE
8
BLACK
6
CONTINUOUS
10
150.28
20
-62.0482
11
150.377
21
-61.8667
0
LINE
8
BLACK
6
CONTINUOUS
10
150.377
20
-61.8667
11
150.508
21
-61.7075
0
LINE
8
BLACK
6
CONTINUOUS
10
150.508
20
-61.7075
11
150.667
21
-61.577
0
LINE
8
BLACK
6
CONTINUOUS
10
150.667
20
-61.577
11
150.848
21
-61.4799
0
LINE
8
BLACK
6
CONTINUOUS
10
150.848
20
-61.4799
11
151.045
21
-61.4202
0
LINE
8
BLACK
6
CONTINUOUS
10
151.045
20
-61.4202
11
151.25
21
-61.4
0
LINE
8
BLACK
6
CONTINUOUS
10
151.25
20
-61.4
11
151.455
21
-61.4202
0
LINE
8
BLACK
6
CONTINUOUS
10
150.264
20
-62.646
11
150.322
21
-62.8345
0
LINE
8
BLACK
6
CONTINUOUS
10
150.322
20
-62.8345
11
150.415
21
-63.0083
0
LINE
8
BLACK
6
CONTINUOUS
10
150.415
20
-63.0083
11
150.539
21
-63.1605
0
LINE
8
BLACK
6
CONTINUOUS
10
150.539
20
-63.1605
11
150.692
21
-63.2855
0
LINE
8
BLACK
6
CONTINUOUS
10
150.692
20
-63.2855
11
150.865
21
-63.3783
0
LINE
8
BLACK
6
CONTINUOUS
10
150.865
20
-63.3783
11
151.054
21
-63.4355
0
LINE
8
BLACK
6
CONTINUOUS
10
151.054
20
-63.4355
11
151.25
21
-63.4548
0
LINE
8
BLACK
6
CONTINUOUS
10
151.25
20
-63.4548
11
151.446
21
-63.4355
0
LINE
8
BLACK
6
CONTINUOUS
10
151.446
20
-63.4355
11
151.635
21
-63.3783
0
LINE
8
BLACK
6
CONTINUOUS
10
151.635
20
-63.3783
11
151.808
21
-63.2855
0
LINE
8
BLACK
6
CONTINUOUS
10
151.808
20
-63.2855
11
151.961
21
-63.1605
0
LINE
8
BLACK
6
CONTINUOUS
10
151.961
20
-63.1605
11
152.085
21
-63.0083
0
LINE
8
BLACK
6
CONTINUOUS
10
152.085
20
-63.0083
11
152.178
21
-62.8345
0
LINE
8
BLACK
6
CONTINUOUS
10
152.178
20
-62.8345
11
152.236
21
-62.646
0
LINE
8
BLACK
6
CONTINUOUS
10
152.236
20
-62.646
11
152.255
21
-62.45
0
LINE
8
BLACK
6
CONTINUOUS
10
152.255
20
-62.45
11
152.236
21
-62.254
0
LINE
8
BLACK
6
CONTINUOUS
10
152.236
20
-62.254
11
152.178
21
-62.0655
0
LINE
8
BLACK
6
CONTINUOUS
10
152.178
20
-62.0655
11
152.085
21
-61.8917
0
LINE
8
BLACK
6
CONTINUOUS
10
152.085
20
-61.8917
11
151.961
21
-61.7395
0
LINE
8
BLACK
6
CONTINUOUS
10
151.961
20
-61.7395
11
151.808
21
-61.6145
0
LINE
8
BLACK
6
CONTINUOUS
10
151.808
20
-61.6145
11
151.635
21
-61.5216
0
LINE
8
BLACK
6
CONTINUOUS
10
151.635
20
-61.5216
11
151.446
21
-61.4645
0
LINE
8
BLACK
6
CONTINUOUS
10
151.446
20
-61.4645
11
151.25
21
-61.4452
0
LINE
8
BLACK
6
CONTINUOUS
10
151.25
20
-61.4452
11
151.054
21
-61.4645
0
LINE
8
BLACK
6
CONTINUOUS
10
151.054
20
-61.4645
11
150.865
21
-61.5216
0
LINE
8
BLACK
6
CONTINUOUS
10
150.865
20
-61.5216
11
150.692
21
-61.6145
0
LINE
8
BLACK
6
CONTINUOUS
10
150.692
20
-61.6145
11
150.539
21
-61.7395
0
LINE
8
BLACK
6
CONTINUOUS
10
150.539
20
-61.7395
11
150.415
21
-61.8917
0
LINE
8
BLACK
6
CONTINUOUS
10
150.415
20
-61.8917
11
150.322
21
-62.0655
0
LINE
8
BLACK
6
CONTINUOUS
10
150.322
20
-62.0655
11
150.264
21
-62.254
0
LINE
8
BLACK
6
CONTINUOUS
10
150.264
20
-62.254
11
150.245
21
-62.45
0
LINE
8
BLACK
6
CONTINUOUS
10
150.245
20
-62.45
11
150.264
21
-62.646
0
LINE
8
BLACK
6
CONTINUOUS
10
75.4548
20
-47.1702
11
75.6518
21
-47.2299
0
LINE
8
BLACK
6
CONTINUOUS
10
75.6518
20
-47.2299
11
75.8333
21
-47.327
0
LINE
8
BLACK
6
CONTINUOUS
10
75.8333
20
-47.327
11
75.9925
21
-47.4575
0
LINE
8
BLACK
6
CONTINUOUS
10
75.9925
20
-47.4575
11
76.123
21
-47.6167
0
LINE
8
BLACK
6
CONTINUOUS
10
76.123
20
-47.6167
11
76.2201
21
-47.7982
0
LINE
8
BLACK
6
CONTINUOUS
10
76.2201
20
-47.7982
11
76.2798
21
-47.9952
0
LINE
8
BLACK
6
CONTINUOUS
10
76.2798
20
-47.9952
11
76.3
21
-48.2
0
LINE
8
BLACK
6
CONTINUOUS
10
76.3
20
-48.2
11
76.2798
21
-48.4048
0
LINE
8
BLACK
6
CONTINUOUS
10
76.2798
20
-48.4048
11
76.2201
21
-48.6018
0
LINE
8
BLACK
6
CONTINUOUS
10
76.2201
20
-48.6018
11
76.123
21
-48.7833
0
LINE
8
BLACK
6
CONTINUOUS
10
76.123
20
-48.7833
11
75.9925
21
-48.9425
0
LINE
8
BLACK
6
CONTINUOUS
10
75.9925
20
-48.9425
11
75.8333
21
-49.073
0
LINE
8
BLACK
6
CONTINUOUS
10
75.8333
20
-49.073
11
75.6518
21
-49.1701
0
LINE
8
BLACK
6
CONTINUOUS
10
75.6518
20
-49.1701
11
75.4548
21
-49.2298
0
LINE
8
BLACK
6
CONTINUOUS
10
75.4548
20
-49.2298
11
75.25
21
-49.25
0
LINE
8
BLACK
6
CONTINUOUS
10
75.25
20
-49.25
11
75.0452
21
-49.2298
0
LINE
8
BLACK
6
CONTINUOUS
10
75.0452
20
-49.2298
11
74.8482
21
-49.1701
0
LINE
8
BLACK
6
CONTINUOUS
10
74.8482
20
-49.1701
11
74.6667
21
-49.073
0
LINE
8
BLACK
6
CONTINUOUS
10
74.6667
20
-49.073
11
74.5075
21
-48.9425
0
LINE
8
BLACK
6
CONTINUOUS
10
74.5075
20
-48.9425
11
74.377
21
-48.7833
0
LINE
8
BLACK
6
CONTINUOUS
10
74.377
20
-48.7833
11
74.2799
21
-48.6018
0
LINE
8
BLACK
6
CONTINUOUS
10
74.2799
20
-48.6018
11
74.2202
21
-48.4048
0
LINE
8
BLACK
6
CONTINUOUS
10
74.2202
20
-48.4048
11
74.2
21
-48.2
0
LINE
8
BLACK
6
CONTINUOUS
10
74.2
20
-48.2
11
74.2202
21
-47.9952
0
LINE
8
BLACK
6
CONTINUOUS
10
74.2202
20
-47.9952
11
74.2799
21
-47.7982
0
LINE
8
BLACK
6
CONTINUOUS
10
74.2799
20
-47.7982
11
74.377
21
-47.6167
0
LINE
8
BLACK
6
CONTINUOUS
10
74.377
20
-47.6167
11
74.5075
21
-47.4575
0
LINE
8
BLACK
6
CONTINUOUS
10
74.5075
20
-47.4575
11
74.6667
21
-47.327
0
LINE
8
BLACK
6
CONTINUOUS
10
74.6667
20
-47.327
11
74.8482
21
-47.2299
0
LINE
8
BLACK
6
CONTINUOUS
10
74.8482
20
-47.2299
11
75.0452
21
-47.1702
0
LINE
8
BLACK
6
CONTINUOUS
10
75.0452
20
-47.1702
11
75.25
21
-47.15
0
LINE
8
BLACK
6
CONTINUOUS
10
75.25
20
-47.15
11
75.4548
21
-47.1702
0
LINE
8
BLACK
6
CONTINUOUS
10
74.2645
20
-48.396
11
74.3216
21
-48.5845
0
LINE
8
BLACK
6
CONTINUOUS
10
74.3216
20
-48.5845
11
74.4145
21
-48.7583
0
LINE
8
BLACK
6
CONTINUOUS
10
74.4145
20
-48.7583
11
74.5395
21
-48.9105
0
LINE
8
BLACK
6
CONTINUOUS
10
74.5395
20
-48.9105
11
74.6917
21
-49.0355
0
LINE
8
BLACK
6
CONTINUOUS
10
74.6917
20
-49.0355
11
74.8655
21
-49.1283
0
LINE
8
BLACK
6
CONTINUOUS
10
74.8655
20
-49.1283
11
75.054
21
-49.1855
0
LINE
8
BLACK
6
CONTINUOUS
10
75.054
20
-49.1855
11
75.25
21
-49.2048
0
LINE
8
BLACK
6
CONTINUOUS
10
75.25
20
-49.2048
11
75.446
21
-49.1855
0
LINE
8
BLACK
6
CONTINUOUS
10
75.446
20
-49.1855
11
75.6345
21
-49.1283
0
LINE
8
BLACK
6
CONTINUOUS
10
75.6345
20
-49.1283
11
75.8083
21
-49.0355
0
LINE
8
BLACK
6
CONTINUOUS
10
75.8083
20
-49.0355
11
75.9605
21
-48.9105
0
LINE
8
BLACK
6
CONTINUOUS
10
75.9605
20
-48.9105
11
76.0855
21
-48.7583
0
LINE
8
BLACK
6
CONTINUOUS
10
76.0855
20
-48.7583
11
76.1783
21
-48.5845
0
LINE
8
BLACK
6
CONTINUOUS
10
76.1783
20
-48.5845
11
76.2355
21
-48.396
0
LINE
8
BLACK
6
CONTINUOUS
10
76.2355
20
-48.396
11
76.2548
21
-48.2
0
LINE
8
BLACK
6
CONTINUOUS
10
76.2548
20
-48.2
11
76.2355
21
-48.004
0
LINE
8
BLACK
6
CONTINUOUS
10
76.2355
20
-48.004
11
76.1783
21
-47.8155
0
LINE
8
BLACK
6
CONTINUOUS
10
76.1783
20
-47.8155
11
76.0855
21
-47.6417
0
LINE
8
BLACK
6
CONTINUOUS
10
76.0855
20
-47.6417
11
75.9605
21
-47.4895
0
LINE
8
BLACK
6
CONTINUOUS
10
75.9605
20
-47.4895
11
75.8083
21
-47.3645
0
LINE
8
BLACK
6
CONTINUOUS
10
75.8083
20
-47.3645
11
75.6345
21
-47.2717
0
LINE
8
BLACK
6
CONTINUOUS
10
75.6345
20
-47.2717
11
75.446
21
-47.2145
0
LINE
8
BLACK
6
CONTINUOUS
10
75.446
20
-47.2145
11
75.25
21
-47.1952
0
LINE
8
BLACK
6
CONTINUOUS
10
75.25
20
-47.1952
11
75.054
21
-47.2145
0
LINE
8
BLACK
6
CONTINUOUS
10
75.054
20
-47.2145
11
74.8655
21
-47.2717
0
LINE
8
BLACK
6
CONTINUOUS
10
74.8655
20
-47.2717
11
74.6917
21
-47.3645
0
LINE
8
BLACK
6
CONTINUOUS
10
74.6917
20
-47.3645
11
74.5395
21
-47.4895
0
LINE
8
BLACK
6
CONTINUOUS
10
74.5395
20
-47.4895
11
74.4145
21
-47.6417
0
LINE
8
BLACK
6
CONTINUOUS
10
74.4145
20
-47.6417
11
74.3216
21
-47.8155
0
LINE
8
BLACK
6
CONTINUOUS
10
74.3216
20
-47.8155
11
74.2645
21
-48.004
0
LINE
8
BLACK
6
CONTINUOUS
10
74.2645
20
-48.004
11
74.2452
21
-48.2
0
LINE
8
BLACK
6
CONTINUOUS
10
74.2452
20
-48.2
11
74.2645
21
-48.396
0
LINE
8
BLACK
6
CONTINUOUS
10
170.455
20
-44.7952
11
170.652
21
-44.8549
0
LINE
8
BLACK
6
CONTINUOUS
10
170.652
20
-44.8549
11
170.833
21
-44.952
0
LINE
8
BLACK
6
CONTINUOUS
10
170.833
20
-44.952
11
170.992
21
-45.0825
0
LINE
8
BLACK
6
CONTINUOUS
10
170.992
20
-45.0825
11
171.123
21
-45.2417
0
LINE
8
BLACK
6
CONTINUOUS
10
171.123
20
-45.2417
11
171.22
21
-45.4232
0
LINE
8
BLACK
6
CONTINUOUS
10
171.22
20
-45.4232
11
171.28
21
-45.6202
0
LINE
8
BLACK
6
CONTINUOUS
10
171.28
20
-45.6202
11
171.3
21
-45.825
0
LINE
8
BLACK
6
CONTINUOUS
10
171.3
20
-45.825
11
171.28
21
-46.0298
0
LINE
8
BLACK
6
CONTINUOUS
10
171.28
20
-46.0298
11
171.22
21
-46.2268
0
LINE
8
BLACK
6
CONTINUOUS
10
171.22
20
-46.2268
11
171.123
21
-46.4083
0
LINE
8
BLACK
6
CONTINUOUS
10
171.123
20
-46.4083
11
170.992
21
-46.5675
0
LINE
8
BLACK
6
CONTINUOUS
10
170.992
20
-46.5675
11
170.833
21
-46.698
0
LINE
8
BLACK
6
CONTINUOUS
10
170.833
20
-46.698
11
170.652
21
-46.7951
0
LINE
8
BLACK
6
CONTINUOUS
10
170.652
20
-46.7951
11
170.455
21
-46.8548
0
LINE
8
BLACK
6
CONTINUOUS
10
170.455
20
-46.8548
11
170.25
21
-46.875
0
LINE
8
BLACK
6
CONTINUOUS
10
170.25
20
-46.875
11
170.045
21
-46.8548
0
LINE
8
BLACK
6
CONTINUOUS
10
170.045
20
-46.8548
11
169.848
21
-46.7951
0
LINE
8
BLACK
6
CONTINUOUS
10
169.848
20
-46.7951
11
169.667
21
-46.698
0
LINE
8
BLACK
6
CONTINUOUS
10
169.667
20
-46.698
11
169.508
21
-46.5675
0
LINE
8
BLACK
6
CONTINUOUS
10
169.508
20
-46.5675
11
169.377
21
-46.4083
0
LINE
8
BLACK
6
CONTINUOUS
10
169.377
20
-46.4083
11
169.28
21
-46.2268
0
LINE
8
BLACK
6
CONTINUOUS
10
169.28
20
-46.2268
11
169.22
21
-46.0298
0
LINE
8
BLACK
6
CONTINUOUS
10
169.22
20
-46.0298
11
169.2
21
-45.825
0
LINE
8
BLACK
6
CONTINUOUS
10
169.2
20
-45.825
11
169.22
21
-45.6202
0
LINE
8
BLACK
6
CONTINUOUS
10
169.22
20
-45.6202
11
169.28
21
-45.4232
0
LINE
8
BLACK
6
CONTINUOUS
10
169.28
20
-45.4232
11
169.377
21
-45.2417
0
LINE
8
BLACK
6
CONTINUOUS
10
169.377
20
-45.2417
11
169.508
21
-45.0825
0
LINE
8
BLACK
6
CONTINUOUS
10
169.508
20
-45.0825
11
169.667
21
-44.952
0
LINE
8
BLACK
6
CONTINUOUS
10
169.667
20
-44.952
11
169.848
21
-44.8549
0
LINE
8
BLACK
6
CONTINUOUS
10
169.848
20
-44.8549
11
170.045
21
-44.7952
0
LINE
8
BLACK
6
CONTINUOUS
10
170.045
20
-44.7952
11
170.25
21
-44.775
0
LINE
8
BLACK
6
CONTINUOUS
10
170.25
20
-44.775
11
170.455
21
-44.7952
0
LINE
8
BLACK
6
CONTINUOUS
10
169.264
20
-46.021
11
169.322
21
-46.2095
0
LINE
8
BLACK
6
CONTINUOUS
10
169.322
20
-46.2095
11
169.415
21
-46.3833
0
LINE
8
BLACK
6
CONTINUOUS
10
169.415
20
-46.3833
11
169.539
21
-46.5355
0
LINE
8
BLACK
6
CONTINUOUS
10
169.539
20
-46.5355
11
169.692
21
-46.6605
0
LINE
8
BLACK
6
CONTINUOUS
10
169.692
20
-46.6605
11
169.865
21
-46.7533
0
LINE
8
BLACK
6
CONTINUOUS
10
169.865
20
-46.7533
11
170.054
21
-46.8105
0
LINE
8
BLACK
6
CONTINUOUS
10
170.054
20
-46.8105
11
170.25
21
-46.8298
0
LINE
8
BLACK
6
CONTINUOUS
10
170.25
20
-46.8298
11
170.446
21
-46.8105
0
LINE
8
BLACK
6
CONTINUOUS
10
170.446
20
-46.8105
11
170.635
21
-46.7533
0
LINE
8
BLACK
6
CONTINUOUS
10
170.635
20
-46.7533
11
170.808
21
-46.6605
0
LINE
8
BLACK
6
CONTINUOUS
10
170.808
20
-46.6605
11
170.961
21
-46.5355
0
LINE
8
BLACK
6
CONTINUOUS
10
170.961
20
-46.5355
11
171.085
21
-46.3833
0
LINE
8
BLACK
6
CONTINUOUS
10
171.085
20
-46.3833
11
171.178
21
-46.2095
0
LINE
8
BLACK
6
CONTINUOUS
10
171.178
20
-46.2095
11
171.236
21
-46.021
0
LINE
8
BLACK
6
CONTINUOUS
10
171.236
20
-46.021
11
171.255
21
-45.825
0
LINE
8
BLACK
6
CONTINUOUS
10
171.255
20
-45.825
11
171.236
21
-45.629
0
LINE
8
BLACK
6
CONTINUOUS
10
171.236
20
-45.629
11
171.178
21
-45.4405
0
LINE
8
BLACK
6
CONTINUOUS
10
171.178
20
-45.4405
11
171.085
21
-45.2667
0
LINE
8
BLACK
6
CONTINUOUS
10
171.085
20
-45.2667
11
170.961
21
-45.1145
0
LINE
8
BLACK
6
CONTINUOUS
10
170.961
20
-45.1145
11
170.808
21
-44.9895
0
LINE
8
BLACK
6
CONTINUOUS
10
170.808
20
-44.9895
11
170.635
21
-44.8967
0
LINE
8
BLACK
6
CONTINUOUS
10
170.635
20
-44.8967
11
170.446
21
-44.8395
0
LINE
8
BLACK
6
CONTINUOUS
10
170.446
20
-44.8395
11
170.25
21
-44.8202
0
LINE
8
BLACK
6
CONTINUOUS
10
170.25
20
-44.8202
11
170.054
21
-44.8395
0
LINE
8
BLACK
6
CONTINUOUS
10
170.054
20
-44.8395
11
169.865
21
-44.8967
0
LINE
8
BLACK
6
CONTINUOUS
10
169.865
20
-44.8967
11
169.692
21
-44.9895
0
LINE
8
BLACK
6
CONTINUOUS
10
169.692
20
-44.9895
11
169.539
21
-45.1145
0
LINE
8
BLACK
6
CONTINUOUS
10
169.539
20
-45.1145
11
169.415
21
-45.2667
0
LINE
8
BLACK
6
CONTINUOUS
10
169.415
20
-45.2667
11
169.322
21
-45.4405
0
LINE
8
BLACK
6
CONTINUOUS
10
169.322
20
-45.4405
11
169.264
21
-45.629
0
LINE
8
BLACK
6
CONTINUOUS
10
169.264
20
-45.629
11
169.245
21
-45.825
0
LINE
8
BLACK
6
CONTINUOUS
10
169.245
20
-45.825
11
169.264
21
-46.021
0
LINE
8
BLACK
6
CONTINUOUS
10
140.75
20
-22.5
11
140.878
21
-22.5144
0
LINE
8
BLACK
6
CONTINUOUS
10
140.878
20
-22.5144
11
140.999
21
-22.5569
0
LINE
8
BLACK
6
CONTINUOUS
10
140.999
20
-22.5569
11
141.109
21
-22.6254
0
LINE
8
BLACK
6
CONTINUOUS
10
141.109
20
-22.6254
11
141.2
21
-22.7165
0
LINE
8
BLACK
6
CONTINUOUS
10
141.2
20
-22.7165
11
141.268
21
-22.8255
0
LINE
8
BLACK
6
CONTINUOUS
10
141.268
20
-22.8255
11
141.311
21
-22.947
0
LINE
8
BLACK
6
CONTINUOUS
10
141.311
20
-22.947
11
141.325
21
-23.075
0
LINE
8
BLACK
6
CONTINUOUS
10
141.325
20
-23.075
11
141.325
21
-24.325
0
LINE
8
BLACK
6
CONTINUOUS
10
141.325
20
-24.325
11
141.325
21
-24.325
0
LINE
8
BLACK
6
CONTINUOUS
10
141.325
20
-24.325
11
141.325
21
-24.381
0
LINE
8
BLACK
6
CONTINUOUS
10
141.325
20
-24.381
11
141.354
21
-24.489
0
LINE
8
BLACK
6
CONTINUOUS
10
141.354
20
-24.489
11
141.41
21
-24.586
0
LINE
8
BLACK
6
CONTINUOUS
10
141.41
20
-24.586
11
141.489
21
-24.6651
0
LINE
8
BLACK
6
CONTINUOUS
10
141.489
20
-24.6651
11
141.586
21
-24.721
0
LINE
8
BLACK
6
CONTINUOUS
10
141.586
20
-24.721
11
141.694
21
-24.75
0
LINE
8
BLACK
6
CONTINUOUS
10
141.694
20
-24.75
11
141.75
21
-24.75
0
LINE
8
BLACK
6
CONTINUOUS
10
141.75
20
-24.75
11
159.75
21
-24.75
0
LINE
8
BLACK
6
CONTINUOUS
10
159.75
20
-24.75
11
159.878
21
-24.7644
0
LINE
8
BLACK
6
CONTINUOUS
10
159.878
20
-24.7644
11
159.999
21
-24.8069
0
LINE
8
BLACK
6
CONTINUOUS
10
159.999
20
-24.8069
11
160.109
21
-24.8754
0
LINE
8
BLACK
6
CONTINUOUS
10
160.109
20
-24.8754
11
160.2
21
-24.9665
0
LINE
8
BLACK
6
CONTINUOUS
10
160.2
20
-24.9665
11
160.268
21
-25.0755
0
LINE
8
BLACK
6
CONTINUOUS
10
160.268
20
-25.0755
11
160.311
21
-25.197
0
LINE
8
BLACK
6
CONTINUOUS
10
160.311
20
-25.197
11
160.325
21
-25.325
0
LINE
8
BLACK
6
CONTINUOUS
10
160.325
20
-25.325
11
160.325
21
-26.825
0
LINE
8
BLACK
6
CONTINUOUS
10
160.325
20
-26.825
11
160.325
21
-26.881
0
LINE
8
BLACK
6
CONTINUOUS
10
160.325
20
-26.881
11
160.354
21
-26.989
0
LINE
8
BLACK
6
CONTINUOUS
10
160.354
20
-26.989
11
160.41
21
-27.086
0
LINE
8
BLACK
6
CONTINUOUS
10
160.41
20
-27.086
11
160.489
21
-27.1651
0
LINE
8
BLACK
6
CONTINUOUS
10
160.489
20
-27.1651
11
160.586
21
-27.221
0
LINE
8
BLACK
6
CONTINUOUS
10
160.586
20
-27.221
11
160.694
21
-27.25
0
LINE
8
BLACK
6
CONTINUOUS
10
160.694
20
-27.25
11
160.75
21
-27.25
0
LINE
8
BLACK
6
CONTINUOUS
10
160.75
20
-27.25
11
199.5
21
-27.25
0
LINE
8
BLACK
6
CONTINUOUS
10
199.5
20
-27.25
11
199.628
21
-27.2644
0
LINE
8
BLACK
6
CONTINUOUS
10
199.628
20
-27.2644
11
199.749
21
-27.3069
0
LINE
8
BLACK
6
CONTINUOUS
10
199.749
20
-27.3069
11
199.859
21
-27.3754
0
LINE
8
BLACK
6
CONTINUOUS
10
199.859
20
-27.3754
11
199.95
21
-27.4665
0
LINE
8
BLACK
6
CONTINUOUS
10
199.95
20
-27.4665
11
200.018
21
-27.5755
0
LINE
8
BLACK
6
CONTINUOUS
10
200.018
20
-27.5755
11
200.061
21
-27.697
0
LINE
8
BLACK
6
CONTINUOUS
10
200.061
20
-27.697
11
200.075
21
-27.825
0
LINE
8
BLACK
6
CONTINUOUS
10
200.075
20
-27.825
11
200.075
21
-27.825
0
LINE
8
BLACK
6
CONTINUOUS
10
200.075
20
-27.825
11
200.075
21
-109.075
0
LINE
8
BLACK
6
CONTINUOUS
10
200.075
20
-109.075
11
200.07
21
-109.101
0
LINE
8
BLACK
6
CONTINUOUS
10
200.07
20
-109.101
11
200.066
21
-109.106
0
LINE
8
BLACK
6
CONTINUOUS
10
200.066
20
-109.106
11
200.064
21
-109.113
0
LINE
8
BLACK
6
CONTINUOUS
10
200.064
20
-109.113
11
198.979
21
-110.942
0
LINE
8
BLACK
6
CONTINUOUS
10
198.979
20
-110.942
11
186.626
21
-132.398
0
LINE
8
BLACK
6
CONTINUOUS
10
186.626
20
-132.398
11
186.624
21
-132.4
0
LINE
8
BLACK
6
CONTINUOUS
10
186.624
20
-132.4
11
186.624
21
-132.402
0
LINE
8
BLACK
6
CONTINUOUS
10
186.624
20
-132.402
11
186.495
21
-132.567
0
LINE
8
BLACK
6
CONTINUOUS
10
186.495
20
-132.567
11
186.345
21
-132.712
0
LINE
8
BLACK
6
CONTINUOUS
10
186.345
20
-132.712
11
186.175
21
-132.834
0
LINE
8
BLACK
6
CONTINUOUS
10
186.175
20
-132.834
11
185.99
21
-132.931
0
LINE
8
BLACK
6
CONTINUOUS
10
185.99
20
-132.931
11
185.792
21
-133
0
LINE
8
BLACK
6
CONTINUOUS
10
185.792
20
-133
11
185.587
21
-133.04
0
LINE
8
BLACK
6
CONTINUOUS
10
185.587
20
-133.04
11
185.378
21
-133.051
0
LINE
8
BLACK
6
CONTINUOUS
10
185.378
20
-133.051
11
185.17
21
-133.032
0
LINE
8
BLACK
6
CONTINUOUS
10
185.17
20
-133.032
11
184.967
21
-132.983
0
LINE
8
BLACK
6
CONTINUOUS
10
184.967
20
-132.983
11
184.773
21
-132.906
0
LINE
8
BLACK
6
CONTINUOUS
10
184.773
20
-132.906
11
184.596
21
-132.805
0
LINE
8
BLACK
6
CONTINUOUS
10
184.596
20
-132.805
11
184.596
21
-132.805
0
LINE
8
BLACK
6
CONTINUOUS
10
184.596
20
-132.805
11
170.309
21
-124.548
0
LINE
8
BLACK
6
CONTINUOUS
10
170.309
20
-124.548
11
170.213
21
-124.519
0
LINE
8
BLACK
6
CONTINUOUS
10
170.213
20
-124.519
11
170.001
21
-124.47
0
LINE
8
BLACK
6
CONTINUOUS
10
170.001
20
-124.47
11
169.786
21
-124.434
0
LINE
8
BLACK
6
CONTINUOUS
10
169.786
20
-124.434
11
169.677
21
-124.424
0
LINE
8
BLACK
6
CONTINUOUS
10
169.677
20
-124.424
11
169.677
21
-124.424
0
LINE
8
BLACK
6
CONTINUOUS
10
169.677
20
-124.424
11
169.676
21
-124.423
0
LINE
8
BLACK
6
CONTINUOUS
10
169.676
20
-124.423
11
169.675
21
-124.424
0
LINE
8
BLACK
6
CONTINUOUS
10
169.675
20
-124.424
11
133.009
21
-119.654
0
LINE
8
BLACK
6
CONTINUOUS
10
133.009
20
-119.654
11
113.75
21
-119.654
0
LINE
8
BLACK
6
CONTINUOUS
10
113.75
20
-119.654
11
113.75
21
-119.654
0
LINE
8
BLACK
6
CONTINUOUS
10
113.75
20
-119.654
11
113.75
21
-119.654
0
LINE
8
BLACK
6
CONTINUOUS
10
113.75
20
-119.654
11
113.622
21
-119.639
0
LINE
8
BLACK
6
CONTINUOUS
10
113.622
20
-119.639
11
113.501
21
-119.597
0
LINE
8
BLACK
6
CONTINUOUS
10
113.501
20
-119.597
11
113.391
21
-119.528
0
LINE
8
BLACK
6
CONTINUOUS
10
113.391
20
-119.528
11
113.3
21
-119.437
0
LINE
8
BLACK
6
CONTINUOUS
10
113.3
20
-119.437
11
113.232
21
-119.328
0
LINE
8
BLACK
6
CONTINUOUS
10
113.232
20
-119.328
11
113.189
21
-119.207
0
LINE
8
BLACK
6
CONTINUOUS
10
113.189
20
-119.207
11
113.175
21
-119.079
0
LINE
8
BLACK
6
CONTINUOUS
10
113.175
20
-119.079
11
113.175
21
-119.079
0
LINE
8
BLACK
6
CONTINUOUS
10
113.175
20
-119.079
11
113.175
21
-105.329
0
LINE
8
BLACK
6
CONTINUOUS
10
113.175
20
-105.329
11
113.175
21
-105.329
0
LINE
8
BLACK
6
CONTINUOUS
10
113.175
20
-105.329
11
113.175
21
-105.273
0
LINE
8
BLACK
6
CONTINUOUS
10
113.175
20
-105.273
11
113.146
21
-105.165
0
LINE
8
BLACK
6
CONTINUOUS
10
113.146
20
-105.165
11
113.09
21
-105.068
0
LINE
8
BLACK
6
CONTINUOUS
10
113.09
20
-105.068
11
113.011
21
-104.989
0
LINE
8
BLACK
6
CONTINUOUS
10
113.011
20
-104.989
11
112.914
21
-104.933
0
LINE
8
BLACK
6
CONTINUOUS
10
112.914
20
-104.933
11
112.806
21
-104.904
0
LINE
8
BLACK
6
CONTINUOUS
10
112.806
20
-104.904
11
112.75
21
-104.904
0
LINE
8
BLACK
6
CONTINUOUS
10
112.75
20
-104.904
11
66.7639
21
-104.904
0
LINE
8
BLACK
6
CONTINUOUS
10
66.7639
20
-104.904
11
66.762
21
-104.903
0
LINE
8
BLACK
6
CONTINUOUS
10
66.762
20
-104.903
11
66.6347
21
-104.892
0
LINE
8
BLACK
6
CONTINUOUS
10
66.6347
20
-104.892
11
66.5101
21
-104.85
0
LINE
8
BLACK
6
CONTINUOUS
10
66.5101
20
-104.85
11
66.3981
21
-104.782
0
LINE
8
BLACK
6
CONTINUOUS
10
66.3981
20
-104.782
11
66.3043
21
-104.69
0
LINE
8
BLACK
6
CONTINUOUS
10
66.3043
20
-104.69
11
66.2337
21
-104.579
0
LINE
8
BLACK
6
CONTINUOUS
10
66.2337
20
-104.579
11
66.1899
21
-104.455
0
LINE
8
BLACK
6
CONTINUOUS
10
66.1899
20
-104.455
11
66.175
21
-104.325
0
LINE
8
BLACK
6
CONTINUOUS
10
66.175
20
-104.325
11
66.175
21
-104.325
0
LINE
8
BLACK
6
CONTINUOUS
10
66.175
20
-104.325
11
66.175
21
-30.075
0
LINE
8
BLACK
6
CONTINUOUS
10
66.175
20
-30.075
11
66.175
21
-30.075
0
LINE
8
BLACK
6
CONTINUOUS
10
66.175
20
-30.075
11
66.175
21
-30.075
0
LINE
8
BLACK
6
CONTINUOUS
10
66.175
20
-30.075
11
66.1894
21
-29.947
0
LINE
8
BLACK
6
CONTINUOUS
10
66.1894
20
-29.947
11
66.232
21
-29.8255
0
LINE
8
BLACK
6
CONTINUOUS
10
66.232
20
-29.8255
11
66.3005
21
-29.7165
0
LINE
8
BLACK
6
CONTINUOUS
10
66.3005
20
-29.7165
11
66.3915
21
-29.6255
0
LINE
8
BLACK
6
CONTINUOUS
10
66.3915
20
-29.6255
11
66.5005
21
-29.557
0
LINE
8
BLACK
6
CONTINUOUS
10
66.5005
20
-29.557
11
66.622
21
-29.5144
0
LINE
8
BLACK
6
CONTINUOUS
10
66.622
20
-29.5144
11
66.75
21
-29.5
0
LINE
8
BLACK
6
CONTINUOUS
10
66.75
20
-29.5
11
66.75
21
-29.5
0
LINE
8
BLACK
6
CONTINUOUS
10
66.75
20
-29.5
11
66.75
21
-29.5
0
LINE
8
BLACK
6
CONTINUOUS
10
66.75
20
-29.5
11
83.75
21
-29.5
0
LINE
8
BLACK
6
CONTINUOUS
10
83.75
20
-29.5
11
85.75
21
-29.5
0
LINE
8
BLACK
6
CONTINUOUS
10
85.75
20
-29.5
11
103.75
21
-29.5
0
LINE
8
BLACK
6
CONTINUOUS
10
103.75
20
-29.5
11
103.75
21
-29.5
0
LINE
8
BLACK
6
CONTINUOUS
10
103.75
20
-29.5
11
103.75
21
-29.5
0
LINE
8
BLACK
6
CONTINUOUS
10
103.75
20
-29.5
11
103.806
21
-29.5
0
LINE
8
BLACK
6
CONTINUOUS
10
103.806
20
-29.5
11
103.914
21
-29.4711
0
LINE
8
BLACK
6
CONTINUOUS
10
103.914
20
-29.4711
11
104.011
21
-29.4151
0
LINE
8
BLACK
6
CONTINUOUS
10
104.011
20
-29.4151
11
104.09
21
-29.336
0
LINE
8
BLACK
6
CONTINUOUS
10
104.09
20
-29.336
11
104.146
21
-29.2391
0
LINE
8
BLACK
6
CONTINUOUS
10
104.146
20
-29.2391
11
104.175
21
-29.131
0
LINE
8
BLACK
6
CONTINUOUS
10
104.175
20
-29.131
11
104.175
21
-29.075
0
LINE
8
BLACK
6
CONTINUOUS
10
104.175
20
-29.075
11
104.175
21
-29.075
0
LINE
8
BLACK
6
CONTINUOUS
10
104.175
20
-29.075
11
104.175
21
-29.075
0
LINE
8
BLACK
6
CONTINUOUS
10
104.175
20
-29.075
11
104.175
21
-25.325
0
LINE
8
BLACK
6
CONTINUOUS
10
104.175
20
-25.325
11
104.175
21
-25.325
0
LINE
8
BLACK
6
CONTINUOUS
10
104.175
20
-25.325
11
104.175
21
-25.325
0
LINE
8
BLACK
6
CONTINUOUS
10
104.175
20
-25.325
11
104.189
21
-25.197
0
LINE
8
BLACK
6
CONTINUOUS
10
104.189
20
-25.197
11
104.232
21
-25.0755
0
LINE
8
BLACK
6
CONTINUOUS
10
104.232
20
-25.0755
11
104.3
21
-24.9665
0
LINE
8
BLACK
6
CONTINUOUS
10
104.3
20
-24.9665
11
104.392
21
-24.8755
0
LINE
8
BLACK
6
CONTINUOUS
10
104.392
20
-24.8755
11
104.501
21
-24.807
0
LINE
8
BLACK
6
CONTINUOUS
10
104.501
20
-24.807
11
104.622
21
-24.7644
0
LINE
8
BLACK
6
CONTINUOUS
10
104.622
20
-24.7644
11
104.75
21
-24.75
0
LINE
8
BLACK
6
CONTINUOUS
10
104.75
20
-24.75
11
104.75
21
-24.75
0
LINE
8
BLACK
6
CONTINUOUS
10
104.75
20
-24.75
11
104.75
21
-24.75
0
LINE
8
BLACK
6
CONTINUOUS
10
104.75
20
-24.75
11
122.75
21
-24.75
0
LINE
8
BLACK
6
CONTINUOUS
10
122.75
20
-24.75
11
122.75
21
-24.75
0
LINE
8
BLACK
6
CONTINUOUS
10
122.75
20
-24.75
11
122.75
21
-24.75
0
LINE
8
BLACK
6
CONTINUOUS
10
122.75
20
-24.75
11
122.806
21
-24.75
0
LINE
8
BLACK
6
CONTINUOUS
10
122.806
20
-24.75
11
122.914
21
-24.7211
0
LINE
8
BLACK
6
CONTINUOUS
10
122.914
20
-24.7211
11
123.011
21
-24.6651
0
LINE
8
BLACK
6
CONTINUOUS
10
123.011
20
-24.6651
11
123.09
21
-24.586
0
LINE
8
BLACK
6
CONTINUOUS
10
123.09
20
-24.586
11
123.146
21
-24.4891
0
LINE
8
BLACK
6
CONTINUOUS
10
123.146
20
-24.4891
11
123.175
21
-24.381
0
LINE
8
BLACK
6
CONTINUOUS
10
123.175
20
-24.381
11
123.175
21
-24.325
0
LINE
8
BLACK
6
CONTINUOUS
10
123.175
20
-24.325
11
123.175
21
-24.325
0
LINE
8
BLACK
6
CONTINUOUS
10
123.175
20
-24.325
11
123.175
21
-24.325
0
LINE
8
BLACK
6
CONTINUOUS
10
123.175
20
-24.325
11
123.175
21
-23.075
0
LINE
8
BLACK
6
CONTINUOUS
10
123.175
20
-23.075
11
123.175
21
-23.075
0
LINE
8
BLACK
6
CONTINUOUS
10
123.175
20
-23.075
11
123.175
21
-23.075
0
LINE
8
BLACK
6
CONTINUOUS
10
123.175
20
-23.075
11
123.189
21
-22.947
0
LINE
8
BLACK
6
CONTINUOUS
10
123.189
20
-22.947
11
123.232
21
-22.8255
0
LINE
8
BLACK
6
CONTINUOUS
10
123.232
20
-22.8255
11
123.3
21
-22.7165
0
LINE
8
BLACK
6
CONTINUOUS
10
123.3
20
-22.7165
11
123.392
21
-22.6255
0
LINE
8
BLACK
6
CONTINUOUS
10
123.392
20
-22.6255
11
123.501
21
-22.557
0
LINE
8
BLACK
6
CONTINUOUS
10
123.501
20
-22.557
11
123.622
21
-22.5144
0
LINE
8
BLACK
6
CONTINUOUS
10
123.622
20
-22.5144
11
123.75
21
-22.5
0
LINE
8
BLACK
6
CONTINUOUS
10
123.75
20
-22.5
11
123.75
21
-22.5
0
LINE
8
BLACK
6
CONTINUOUS
10
123.75
20
-22.5
11
123.75
21
-22.5
0
LINE
8
BLACK
6
CONTINUOUS
10
123.75
20
-22.5
11
140.75
21
-22.5
0
LINE
8
BLACK
6
CONTINUOUS
10
123.75
20
-22.65
11
123.694
21
-22.65
0
LINE
8
BLACK
6
CONTINUOUS
10
123.694
20
-22.65
11
123.586
21
-22.679
0
LINE
8
BLACK
6
CONTINUOUS
10
123.586
20
-22.679
11
123.489
21
-22.7349
0
LINE
8
BLACK
6
CONTINUOUS
10
123.489
20
-22.7349
11
123.41
21
-22.8141
0
LINE
8
BLACK
6
CONTINUOUS
10
123.41
20
-22.8141
11
123.354
21
-22.911
0
LINE
8
BLACK
6
CONTINUOUS
10
123.354
20
-22.911
11
123.325
21
-23.0191
0
LINE
8
BLACK
6
CONTINUOUS
10
123.325
20
-23.0191
11
123.325
21
-23.075
0
LINE
8
BLACK
6
CONTINUOUS
10
123.325
20
-23.075
11
123.325
21
-24.325
0
LINE
8
BLACK
6
CONTINUOUS
10
123.325
20
-24.325
11
123.325
21
-24.325
0
LINE
8
BLACK
6
CONTINUOUS
10
123.325
20
-24.325
11
123.311
21
-24.4529
0
LINE
8
BLACK
6
CONTINUOUS
10
123.311
20
-24.4529
11
123.268
21
-24.5745
0
LINE
8
BLACK
6
CONTINUOUS
10
123.268
20
-24.5745
11
123.2
21
-24.6835
0
LINE
8
BLACK
6
CONTINUOUS
10
123.2
20
-24.6835
11
123.109
21
-24.7746
0
LINE
8
BLACK
6
CONTINUOUS
10
123.109
20
-24.7746
11
122.999
21
-24.8431
0
LINE
8
BLACK
6
CONTINUOUS
10
122.999
20
-24.8431
11
122.878
21
-24.8856
0
LINE
8
BLACK
6
CONTINUOUS
10
122.878
20
-24.8856
11
122.75
21
-24.9
0
LINE
8
BLACK
6
CONTINUOUS
10
122.75
20
-24.9
11
122.75
21
-24.9
0
LINE
8
BLACK
6
CONTINUOUS
10
122.75
20
-24.9
11
122.75
21
-24.9
0
LINE
8
BLACK
6
CONTINUOUS
10
122.75
20
-24.9
11
104.75
21
-24.9
0
LINE
8
BLACK
6
CONTINUOUS
10
104.75
20
-24.9
11
104.694
21
-24.9
0
LINE
8
BLACK
6
CONTINUOUS
10
104.694
20
-24.9
11
104.586
21
-24.929
0
LINE
8
BLACK
6
CONTINUOUS
10
104.586
20
-24.929
11
104.489
21
-24.9849
0
LINE
8
BLACK
6
CONTINUOUS
10
104.489
20
-24.9849
11
104.41
21
-25.0641
0
LINE
8
BLACK
6
CONTINUOUS
10
104.41
20
-25.0641
11
104.354
21
-25.161
0
LINE
8
BLACK
6
CONTINUOUS
10
104.354
20
-25.161
11
104.325
21
-25.2691
0
LINE
8
BLACK
6
CONTINUOUS
10
104.325
20
-25.2691
11
104.325
21
-25.325
0
LINE
8
BLACK
6
CONTINUOUS
10
104.325
20
-25.325
11
104.325
21
-29.075
0
LINE
8
BLACK
6
CONTINUOUS
10
104.325
20
-29.075
11
104.325
21
-29.075
0
LINE
8
BLACK
6
CONTINUOUS
10
104.325
20
-29.075
11
104.311
21
-29.2029
0
LINE
8
BLACK
6
CONTINUOUS
10
104.311
20
-29.2029
11
104.268
21
-29.3245
0
LINE
8
BLACK
6
CONTINUOUS
10
104.268
20
-29.3245
11
104.2
21
-29.4335
0
LINE
8
BLACK
6
CONTINUOUS
10
104.2
20
-29.4335
11
104.109
21
-29.5246
0
LINE
8
BLACK
6
CONTINUOUS
10
104.109
20
-29.5246
11
103.999
21
-29.5931
0
LINE
8
BLACK
6
CONTINUOUS
10
103.999
20
-29.5931
11
103.878
21
-29.6356
0
LINE
8
BLACK
6
CONTINUOUS
10
103.878
20
-29.6356
11
103.75
21
-29.65
0
LINE
8
BLACK
6
CONTINUOUS
10
103.75
20
-29.65
11
103.75
21
-29.65
0
LINE
8
BLACK
6
CONTINUOUS
10
103.75
20
-29.65
11
103.75
21
-29.65
0
LINE
8
BLACK
6
CONTINUOUS
10
103.75
20
-29.65
11
85.75
21
-29.65
0
LINE
8
BLACK
6
CONTINUOUS
10
85.75
20
-29.65
11
83.75
21
-29.65
0
LINE
8
BLACK
6
CONTINUOUS
10
83.75
20
-29.65
11
66.75
21
-29.65
0
LINE
8
BLACK
6
CONTINUOUS
10
66.75
20
-29.65
11
66.6941
21
-29.65
0
LINE
8
BLACK
6
CONTINUOUS
10
66.6941
20
-29.65
11
66.586
21
-29.679
0
LINE
8
BLACK
6
CONTINUOUS
10
66.586
20
-29.679
11
66.4891
21
-29.7349
0
LINE
8
BLACK
6
CONTINUOUS
10
66.4891
20
-29.7349
11
66.4099
21
-29.8141
0
LINE
8
BLACK
6
CONTINUOUS
10
66.4099
20
-29.8141
11
66.354
21
-29.911
0
LINE
8
BLACK
6
CONTINUOUS
10
66.354
20
-29.911
11
66.325
21
-30.0191
0
LINE
8
BLACK
6
CONTINUOUS
10
66.325
20
-30.0191
11
66.325
21
-30.075
0
LINE
8
BLACK
6
CONTINUOUS
10
66.325
20
-30.075
11
66.325
21
-104.325
0
LINE
8
BLACK
6
CONTINUOUS
10
66.325
20
-104.325
11
66.325
21
-104.325
0
LINE
8
BLACK
6
CONTINUOUS
10
66.325
20
-104.325
11
66.325
21
-104.325
0
LINE
8
BLACK
6
CONTINUOUS
10
66.325
20
-104.325
11
66.325
21
-104.325
0
LINE
8
BLACK
6
CONTINUOUS
10
66.325
20
-104.325
11
66.325
21
-104.325
0
LINE
8
BLACK
6
CONTINUOUS
10
66.325
20
-104.325
11
66.3251
21
-104.382
0
LINE
8
BLACK
6
CONTINUOUS
10
66.3251
20
-104.382
11
66.355
21
-104.493
0
LINE
8
BLACK
6
CONTINUOUS
10
66.355
20
-104.493
11
66.4128
21
-104.591
0
LINE
8
BLACK
6
CONTINUOUS
10
66.4128
20
-104.591
11
66.4945
21
-104.671
0
LINE
8
BLACK
6
CONTINUOUS
10
66.4945
20
-104.671
11
66.5943
21
-104.727
0
LINE
8
BLACK
6
CONTINUOUS
10
66.5943
20
-104.727
11
66.7052
21
-104.755
0
LINE
8
BLACK
6
CONTINUOUS
10
66.7052
20
-104.755
11
66.7624
21
-104.754
0
LINE
8
BLACK
6
CONTINUOUS
10
66.7624
20
-104.754
11
66.7632
21
-104.754
0
LINE
8
BLACK
6
CONTINUOUS
10
66.7632
20
-104.754
11
66.7639
21
-104.754
0
LINE
8
BLACK
6
CONTINUOUS
10
66.7639
20
-104.754
11
112.75
21
-104.754
0
LINE
8
BLACK
6
CONTINUOUS
10
112.75
20
-104.754
11
112.75
21
-104.754
0
LINE
8
BLACK
6
CONTINUOUS
10
112.75
20
-104.754
11
112.75
21
-104.754
0
LINE
8
BLACK
6
CONTINUOUS
10
112.75
20
-104.754
11
112.878
21
-104.768
0
LINE
8
BLACK
6
CONTINUOUS
10
112.878
20
-104.768
11
112.999
21
-104.811
0
LINE
8
BLACK
6
CONTINUOUS
10
112.999
20
-104.811
11
113.108
21
-104.879
0
LINE
8
BLACK
6
CONTINUOUS
10
113.108
20
-104.879
11
113.2
21
-104.97
0
LINE
8
BLACK
6
CONTINUOUS
10
113.2
20
-104.97
11
113.268
21
-105.079
0
LINE
8
BLACK
6
CONTINUOUS
10
113.268
20
-105.079
11
113.311
21
-105.201
0
LINE
8
BLACK
6
CONTINUOUS
10
113.311
20
-105.201
11
113.325
21
-105.329
0
LINE
8
BLACK
6
CONTINUOUS
10
113.325
20
-105.329
11
113.325
21
-105.329
0
LINE
8
BLACK
6
CONTINUOUS
10
113.325
20
-105.329
11
113.325
21
-105.329
0
LINE
8
BLACK
6
CONTINUOUS
10
113.325
20
-105.329
11
113.325
21
-105.329
0
LINE
8
BLACK
6
CONTINUOUS
10
113.325
20
-105.329
11
113.325
21
-105.329
0
LINE
8
BLACK
6
CONTINUOUS
10
113.325
20
-105.329
11
113.325
21
-119.079
0
LINE
8
BLACK
6
CONTINUOUS
10
113.325
20
-119.079
11
113.325
21
-119.079
0
LINE
8
BLACK
6
CONTINUOUS
10
113.325
20
-119.079
11
113.325
21
-119.079
0
LINE
8
BLACK
6
CONTINUOUS
10
113.325
20
-119.079
11
113.325
21
-119.079
0
LINE
8
BLACK
6
CONTINUOUS
10
113.325
20
-119.079
11
113.325
21
-119.079
0
LINE
8
BLACK
6
CONTINUOUS
10
113.325
20
-119.079
11
113.325
21
-119.135
0
LINE
8
BLACK
6
CONTINUOUS
10
113.325
20
-119.135
11
113.354
21
-119.243
0
LINE
8
BLACK
6
CONTINUOUS
10
113.354
20
-119.243
11
113.41
21
-119.34
0
LINE
8
BLACK
6
CONTINUOUS
10
113.41
20
-119.34
11
113.489
21
-119.419
0
LINE
8
BLACK
6
CONTINUOUS
10
113.489
20
-119.419
11
113.586
21
-119.475
0
LINE
8
BLACK
6
CONTINUOUS
10
113.586
20
-119.475
11
113.694
21
-119.504
0
LINE
8
BLACK
6
CONTINUOUS
10
113.694
20
-119.504
11
113.75
21
-119.504
0
LINE
8
BLACK
6
CONTINUOUS
10
113.75
20
-119.504
11
113.75
21
-119.504
0
LINE
8
BLACK
6
CONTINUOUS
10
113.75
20
-119.504
11
113.75
21
-119.504
0
LINE
8
BLACK
6
CONTINUOUS
10
113.75
20
-119.504
11
133.014
21
-119.504
0
LINE
8
BLACK
6
CONTINUOUS
10
133.014
20
-119.504
11
133.021
21
-119.505
0
LINE
8
BLACK
6
CONTINUOUS
10
133.021
20
-119.505
11
133.024
21
-119.504
0
LINE
8
BLACK
6
CONTINUOUS
10
133.024
20
-119.504
11
169.694
21
-124.275
0
LINE
8
BLACK
6
CONTINUOUS
10
169.694
20
-124.275
11
169.694
21
-124.275
0
LINE
8
BLACK
6
CONTINUOUS
10
169.694
20
-124.275
11
169.917
21
-124.304
0
LINE
8
BLACK
6
CONTINUOUS
10
169.917
20
-124.304
11
170.141
21
-124.348
0
LINE
8
BLACK
6
CONTINUOUS
10
170.141
20
-124.348
11
170.361
21
-124.407
0
LINE
8
BLACK
6
CONTINUOUS
10
170.361
20
-124.407
11
170.361
21
-124.407
0
LINE
8
BLACK
6
CONTINUOUS
10
170.361
20
-124.407
11
170.368
21
-124.412
0
LINE
8
BLACK
6
CONTINUOUS
10
170.368
20
-124.412
11
170.376
21
-124.414
0
LINE
8
BLACK
6
CONTINUOUS
10
170.376
20
-124.414
11
184.671
21
-132.675
0
LINE
8
BLACK
6
CONTINUOUS
10
184.671
20
-132.675
11
184.673
21
-132.677
0
LINE
8
BLACK
6
CONTINUOUS
10
184.673
20
-132.677
11
184.675
21
-132.678
0
LINE
8
BLACK
6
CONTINUOUS
10
184.675
20
-132.678
11
184.675
21
-132.678
0
LINE
8
BLACK
6
CONTINUOUS
10
184.675
20
-132.678
11
184.761
21
-132.735
0
LINE
8
BLACK
6
CONTINUOUS
10
184.761
20
-132.735
11
184.949
21
-132.823
0
LINE
8
BLACK
6
CONTINUOUS
10
184.949
20
-132.823
11
185.148
21
-132.88
0
LINE
8
BLACK
6
CONTINUOUS
10
185.148
20
-132.88
11
185.353
21
-132.904
0
LINE
8
BLACK
6
CONTINUOUS
10
185.353
20
-132.904
11
185.56
21
-132.897
0
LINE
8
BLACK
6
CONTINUOUS
10
185.56
20
-132.897
11
185.763
21
-132.857
0
LINE
8
BLACK
6
CONTINUOUS
10
185.763
20
-132.857
11
185.957
21
-132.785
0
LINE
8
BLACK
6
CONTINUOUS
10
185.957
20
-132.785
11
186.138
21
-132.685
0
LINE
8
BLACK
6
CONTINUOUS
10
186.138
20
-132.685
11
186.301
21
-132.557
0
LINE
8
BLACK
6
CONTINUOUS
10
186.301
20
-132.557
11
186.441
21
-132.405
0
LINE
8
BLACK
6
CONTINUOUS
10
186.441
20
-132.405
11
186.497
21
-132.321
0
LINE
8
BLACK
6
CONTINUOUS
10
186.497
20
-132.321
11
198.849
21
-110.866
0
LINE
8
BLACK
6
CONTINUOUS
10
198.849
20
-110.866
11
198.849
21
-110.866
0
LINE
8
BLACK
6
CONTINUOUS
10
198.849
20
-110.866
11
198.849
21
-110.866
0
LINE
8
BLACK
6
CONTINUOUS
10
198.849
20
-110.866
11
199.925
21
-109.054
0
LINE
8
BLACK
6
CONTINUOUS
10
199.925
20
-109.054
11
199.925
21
-27.825
0
LINE
8
BLACK
6
CONTINUOUS
10
199.925
20
-27.825
11
199.925
21
-27.769
0
LINE
8
BLACK
6
CONTINUOUS
10
199.925
20
-27.769
11
199.896
21
-27.661
0
LINE
8
BLACK
6
CONTINUOUS
10
199.896
20
-27.661
11
199.84
21
-27.564
0
LINE
8
BLACK
6
CONTINUOUS
10
199.84
20
-27.564
11
199.761
21
-27.4849
0
LINE
8
BLACK
6
CONTINUOUS
10
199.761
20
-27.4849
11
199.664
21
-27.429
0
LINE
8
BLACK
6
CONTINUOUS
10
199.664
20
-27.429
11
199.556
21
-27.4
0
LINE
8
BLACK
6
CONTINUOUS
10
199.556
20
-27.4
11
199.5
21
-27.4
0
LINE
8
BLACK
6
CONTINUOUS
10
199.5
20
-27.4
11
160.75
21
-27.4
0
LINE
8
BLACK
6
CONTINUOUS
10
160.75
20
-27.4
11
160.622
21
-27.3856
0
LINE
8
BLACK
6
CONTINUOUS
10
160.622
20
-27.3856
11
160.501
21
-27.3431
0
LINE
8
BLACK
6
CONTINUOUS
10
160.501
20
-27.3431
11
160.391
21
-27.2746
0
LINE
8
BLACK
6
CONTINUOUS
10
160.391
20
-27.2746
11
160.3
21
-27.1835
0
LINE
8
BLACK
6
CONTINUOUS
10
160.3
20
-27.1835
11
160.232
21
-27.0745
0
LINE
8
BLACK
6
CONTINUOUS
10
160.232
20
-27.0745
11
160.189
21
-26.9529
0
LINE
8
BLACK
6
CONTINUOUS
10
160.189
20
-26.9529
11
160.175
21
-26.825
0
LINE
8
BLACK
6
CONTINUOUS
10
160.175
20
-26.825
11
160.175
21
-25.325
0
LINE
8
BLACK
6
CONTINUOUS
10
160.175
20
-25.325
11
160.175
21
-25.269
0
LINE
8
BLACK
6
CONTINUOUS
10
160.175
20
-25.269
11
160.146
21
-25.161
0
LINE
8
BLACK
6
CONTINUOUS
10
160.146
20
-25.161
11
160.09
21
-25.064
0
LINE
8
BLACK
6
CONTINUOUS
10
160.09
20
-25.064
11
160.011
21
-24.9849
0
LINE
8
BLACK
6
CONTINUOUS
10
160.011
20
-24.9849
11
159.914
21
-24.929
0
LINE
8
BLACK
6
CONTINUOUS
10
159.914
20
-24.929
11
159.806
21
-24.9
0
LINE
8
BLACK
6
CONTINUOUS
10
159.806
20
-24.9
11
159.75
21
-24.9
0
LINE
8
BLACK
6
CONTINUOUS
10
159.75
20
-24.9
11
141.75
21
-24.9
0
LINE
8
BLACK
6
CONTINUOUS
10
141.75
20
-24.9
11
141.622
21
-24.8856
0
LINE
8
BLACK
6
CONTINUOUS
10
141.622
20
-24.8856
11
141.501
21
-24.8431
0
LINE
8
BLACK
6
CONTINUOUS
10
141.501
20
-24.8431
11
141.391
21
-24.7746
0
LINE
8
BLACK
6
CONTINUOUS
10
141.391
20
-24.7746
11
141.3
21
-24.6835
0
LINE
8
BLACK
6
CONTINUOUS
10
141.3
20
-24.6835
11
141.232
21
-24.5745
0
LINE
8
BLACK
6
CONTINUOUS
10
141.232
20
-24.5745
11
141.189
21
-24.4529
0
LINE
8
BLACK
6
CONTINUOUS
10
141.189
20
-24.4529
11
141.175
21
-24.325
0
LINE
8
BLACK
6
CONTINUOUS
10
141.175
20
-24.325
11
141.175
21
-24.325
0
LINE
8
BLACK
6
CONTINUOUS
10
141.175
20
-24.325
11
141.175
21
-23.075
0
LINE
8
BLACK
6
CONTINUOUS
10
141.175
20
-23.075
11
141.175
21
-23.019
0
LINE
8
BLACK
6
CONTINUOUS
10
141.175
20
-23.019
11
141.146
21
-22.911
0
LINE
8
BLACK
6
CONTINUOUS
10
141.146
20
-22.911
11
141.09
21
-22.814
0
LINE
8
BLACK
6
CONTINUOUS
10
141.09
20
-22.814
11
141.011
21
-22.7349
0
LINE
8
BLACK
6
CONTINUOUS
10
141.011
20
-22.7349
11
140.914
21
-22.679
0
LINE
8
BLACK
6
CONTINUOUS
10
140.914
20
-22.679
11
140.806
21
-22.65
0
LINE
8
BLACK
6
CONTINUOUS
10
140.806
20
-22.65
11
140.75
21
-22.65
0
LINE
8
BLACK
6
CONTINUOUS
10
140.75
20
-22.65
11
123.75
21
-22.65
  0
ENDSEC
  0
EOF
