  0
SECTION
  2
HEADER
  9
$ANGBASE
  50
0.0
  9
$ANGDIR
  70
1
  9
$MEASUREMENT
  70
1
  0
ENDSEC
  0
SECTION
  2
TABLES
  0
TABLE
  2
LTYPE
  70
4
  0
LTYPE
  5
40F
  2
CONTINUOUS
  70
0
  3
Solid line
  72
65
  73
0
  40
0.0
  0
LTYPE
  5
410
  2
DASHDOT
 70
0
  3
Dash Dot ____ _ ____ _
 72
65
 73
4
 40
2.0
 49
1.25
 49
-0.25
 49
0.25
 49
-0.25
  0
LTYPE
  5
411
  2
DASHED
 70
0
  3
Dashed __ __ __ __ __
 72
65
 73
2
 40
0.75
 49
0.5
 49
-0.25
  0
LTYPE
  5
43B
  2
DOTTED
 70
0
  3
Dotted .  .  .  .
 72
65
 73
2
 40
0.2
 49
0.0
 49
-0.2
  0
ENDTAB
  0
TABLE
  2
STYLE
  70
4
  0
STYLE
  2
KICAD
  70
0
  40
0
  41
1
  42
1
  50
0
  71
0
  3
isocp.shx
  0
STYLE
  2
KICADB
  70
0
  40
0
  41
1
  42
1
  50
0
  71
0
  3
isocp.shx
  0
STYLE
  2
KICADI
  70
0
  40
0
  41
1
  42
1
  50
15
  71
0
  3
isocp.shx
  0
STYLE
  2
KICADBI
  70
0
  40
0
  41
1
  42
1
  50
15
  71
0
  3
isocp.shx
  0
ENDTAB
  0
TABLE
  2
LAYER
  70
1
  0
LAYER
  2
BLACK
  70
0
  62
7
  6
CONTINUOUS
  0
ENDTAB
  0
ENDSEC
  0
SECTION
  2
ENTITIES
0
LINE
8
BLACK
6
CONTINUOUS
10
18.657
20
-19.
11
17.
21
-19.
0
LINE
8
BLACK
6
CONTINUOUS
10
17.
20
-19.
11
17.
21
-20.129999999999999
0
LINE
8
BLACK
6
CONTINUOUS
10
17.
20
-20.129999999999999
11
15.9589999999999996
21
-20.129999999999999
0
LINE
8
BLACK
6
CONTINUOUS
10
15.9589999999999996
20
-20.129999999999999
11
15.9589999999999996
21
-53.0869999999999962
0
LINE
8
BLACK
6
CONTINUOUS
10
15.9589999999999996
20
-53.0869999999999962
11
18.3979999999999997
21
-53.0869999999999962
0
LINE
8
BLACK
6
CONTINUOUS
10
18.3979999999999997
20
-53.0869999999999962
11
18.3979999999999997
21
-58.384999999999998
0
LINE
8
BLACK
6
CONTINUOUS
10
18.3979999999999997
20
-58.384999999999998
11
0.7
21
-58.384999999999998
0
LINE
8
BLACK
6
CONTINUOUS
10
0.7
20
-58.384999999999998
11
0.7
21
-39.4080000000000013
0
LINE
8
BLACK
6
CONTINUOUS
10
0.7
20
-39.4080000000000013
11
12.923
21
-39.4080000000000013
0
LINE
8
BLACK
6
CONTINUOUS
10
12.923
20
-39.4080000000000013
11
12.923
21
-29.7729999999999997
0
LINE
8
BLACK
6
CONTINUOUS
10
12.923
20
-29.7729999999999997
11
4.1129999999999995
21
-29.7729999999999997
0
LINE
8
BLACK
6
CONTINUOUS
10
4.1129999999999995
20
-29.7729999999999997
11
4.1129999999999995
21
-5.5759999999999996
0
LINE
8
BLACK
6
CONTINUOUS
10
4.1129999999999995
20
-5.5759999999999996
11
18.657
21
-5.5759999999999996
0
LINE
8
BLACK
6
CONTINUOUS
10
18.657
20
-5.5759999999999996
11
18.657
21
-19.
0
LINE
8
BLACK
6
CONTINUOUS
10
5.9819999999999993
20
-3.54
11
2.536
21
-3.54
0
LINE
8
BLACK
6
CONTINUOUS
10
2.536
20
-3.54
11
2.536
21
-1.5619999999999998
0
LINE
8
BLACK
6
CONTINUOUS
10
2.536
20
-1.5619999999999998
11
5.9819999999999993
21
-1.5619999999999998
0
LINE
8
BLACK
6
CONTINUOUS
10
5.9819999999999993
20
-1.5619999999999998
11
5.9819999999999993
21
-3.54
  0
ENDSEC
  0
EOF
