  0
SECTION
  2
HEADER
  9
$ANGBASE
  50
0.0
  9
$ANGDIR
  70
1
  9
$MEASUREMENT
  70
1
  0
ENDSEC
  0
SECTION
  2
TABLES
  0
TABLE
  2
LTYPE
  70
4
  0
LTYPE
  5
40F
  2
CONTINUOUS
  70
0
  3
Solid line
  72
65
  73
0
  40
0.0
  0
LTYPE
  5
410
  2
DASHDOT
 70
0
  3
Dash Dot ____ _ ____ _
 72
65
 73
4
 40
2.0
 49
1.25
 49
-0.25
 49
0.25
 49
-0.25
  0
LTYPE
  5
411
  2
DASHED
 70
0
  3
Dashed __ __ __ __ __
 72
65
 73
2
 40
0.75
 49
0.5
 49
-0.25
  0
LTYPE
  5
43B
  2
DOTTED
 70
0
  3
Dotted .  .  .  .
 72
65
 73
2
 40
0.2
 49
0.0
 49
-0.2
  0
ENDTAB
  0
TABLE
  2
STYLE
  70
4
  0
STYLE
  2
KICAD
  70
0
  40
0
  41
1
  42
1
  50
0
  71
0
  3
isocp.shx
  0
STYLE
  2
KICADB
  70
0
  40
0
  41
1
  42
1
  50
0
  71
0
  3
isocp.shx
  0
STYLE
  2
KICADI
  70
0
  40
0
  41
1
  42
1
  50
15
  71
0
  3
isocp.shx
  0
STYLE
  2
KICADBI
  70
0
  40
0
  41
1
  42
1
  50
15
  71
0
  3
isocp.shx
  0
ENDTAB
  0
TABLE
  2
LAYER
  70
1
  0
LAYER
  2
BLACK
  70
0
  62
7
  6
CONTINUOUS
  0
ENDTAB
  0
ENDSEC
  0
SECTION
  2
ENTITIES
0
LINE
8
BLACK
6
CONTINUOUS
10
19.8827369999999988
20
-0.000535
11
19.9476499999999994
21
-0.009081
0
LINE
8
BLACK
6
CONTINUOUS
10
19.9476499999999994
20
-0.009081
11
20.0108919999999983
21
-0.026027
0
LINE
8
BLACK
6
CONTINUOUS
10
20.0108919999999983
20
-0.026027
11
20.0713819999999998
21
-0.051082
0
LINE
8
BLACK
6
CONTINUOUS
10
20.0713819999999998
20
-0.051082
11
20.1280830000000002
21
-0.083819
0
LINE
8
BLACK
6
CONTINUOUS
10
20.1280830000000002
20
-0.083819
11
20.180026999999999
21
-0.123677
0
LINE
8
BLACK
6
CONTINUOUS
10
20.180026999999999
20
-0.123677
11
20.2263230000000007
21
-0.169973
0
LINE
8
BLACK
6
CONTINUOUS
10
20.2263230000000007
20
-0.169973
11
20.2661809999999996
21
-0.221917
0
LINE
8
BLACK
6
CONTINUOUS
10
20.2661809999999996
20
-0.221917
11
20.2989180000000005
21
-0.278618
0
LINE
8
BLACK
6
CONTINUOUS
10
20.2989180000000005
20
-0.278618
11
20.3239729999999987
21
-0.339108
0
LINE
8
BLACK
6
CONTINUOUS
10
20.3239729999999987
20
-0.339108
11
20.3409189999999995
21
-0.40235
0
LINE
8
BLACK
6
CONTINUOUS
10
20.3409189999999995
20
-0.40235
11
20.3494649999999986
21
-0.467263
0
LINE
8
BLACK
6
CONTINUOUS
10
20.3494649999999986
20
-0.467263
11
20.3499999999999979
21
-0.5
0
LINE
8
BLACK
6
CONTINUOUS
10
20.3499999999999979
20
-0.5
11
20.3499999999999979
21
-81.75
0
LINE
8
BLACK
6
CONTINUOUS
10
20.3499999999999979
20
-81.75
11
0.
21
-75.2999999999999972
0
LINE
8
BLACK
6
CONTINUOUS
10
0.
20
-75.2999999999999972
11
0.
21
0.
0
LINE
8
BLACK
6
CONTINUOUS
10
0.
20
0.
11
19.8499999999999979
21
0.
0
LINE
8
BLACK
6
CONTINUOUS
10
19.8499999999999979
20
0.
11
19.8827369999999988
21
-0.000535
  0
ENDSEC
  0
EOF
